<svg xmlns="http://www.w3.org/2000/svg" xmlns:xlink="http://www.w3.org/1999/xlink" viewBox="0 0 1920 386" width="1920" height="386" preserveAspectRatio="xMidYMid meet" style="width: 100%; height: 100%; transform: translate3d(0px, 0px, 0px); content-visibility: visible;"><style><![CDATA[path[stroke="#FFFFFF"]{animation:flowDash 0.7s linear infinite;stroke-dasharray:100 35;}@keyframes flowDash{from{stroke-dashoffset:0;}to{stroke-dashoffset:-135;}}]]></style><defs><clipPath id="__lottie_element_98"><rect width="1920" height="386" x="0" y="0"></rect></clipPath><clipPath id="__lottie_element_100"><path d="M0,0 L1920,0 L1920,386 L0,386z"></path></clipPath></defs><g clip-path="url(#__lottie_element_98)"><g clip-path="url(#__lottie_element_100)" transform="matrix(1,0,0,1,0,0)" opacity="1" style="display: block;"><g transform="matrix(1,0,0,1,0,0)" opacity="1" style="display: block;"><g opacity="1" transform="matrix(1,0,0,1,-24.005859375,271)"><path stroke-linecap="butt" stroke-linejoin="miter" fill-opacity="0" stroke-miterlimit="4" stroke="#5E6D89" stroke-opacity="1" stroke-width="8px" d=" M0,104.99993133544922 C0,104.99993133544922 481.9330139160156,105 482.01068115234375,105 C482.01068115234375,105 482.01068115234375,105 482.01068115234375,105 C500.5305480957031,105.00000762939453 518.2937622070312,97.66094207763672 531.4120483398438,84.59339904785156 C531.4761962890625,84.52950286865234 531.5400390625,84.46532440185547 531.6038208007812,84.40105438232422 C534.2800903320312,81.70394897460938 592.2359619140625,23.29659652709961 594.9127197265625,20.598966598510742 C594.9765014648438,20.534671783447266 595.0404052734375,20.470468521118164 595.1046142578125,20.406545639038086 C608.222900390625,7.339035987854004 625.9859619140625,0 644.505859375,0 C644.505859375,0 1510.5103759765625,0 1510.5103759765625,0 C1529.0755615234375,0 1546.8802490234375,7.374966144561768 1560.0078125,20.50249671936035 C1560.0078125,20.50251579284668 1560.0078125,20.502534866333008 1560.0078125,20.502553939819336 C1560.055908203125,20.550655364990234 1619.9534912109375,80.4482192993164 1620.002685546875,80.4974365234375 C1620.002685546875,80.4974594116211 1620.002685546875,80.49747467041016 1620.002685546875,80.49749755859375 C1633.1302490234375,93.6250228881836 1650.9351806640625,101 1669.500244140625,101 C1669.500244140625,101 1995.00537109375,101 1995.00537109375,101"></path></g></g><g transform="matrix(1,0,0,1,0,0)" opacity="1" style="display: block;"><g opacity="1" transform="matrix(1,0,0,1,-24.005859375,271)"><path stroke-linecap="butt" stroke-linejoin="miter" fill-opacity="0" stroke-miterlimit="4" stroke-dasharray=" 100 35" stroke-dashoffset="119.80000305175781" stroke="#FFFFFF" stroke-opacity="1" stroke-width="3.198px" d=" M0,104.99993133544922 C0,104.99993133544922 481.9330139160156,105 482.01068115234375,105 C482.01068115234375,105 482.01068115234375,105 482.01068115234375,105 C500.5305480957031,105.00000762939453 518.2937622070312,97.66094207763672 531.4120483398438,84.59339904785156 C531.4761962890625,84.52950286865234 531.5400390625,84.46532440185547 531.6038208007812,84.40105438232422 C534.2800903320312,81.70394897460938 592.2359619140625,23.29659652709961 594.9127197265625,20.598966598510742 C594.9765014648438,20.534671783447266 595.0404052734375,20.470468521118164 595.1046142578125,20.406545639038086 C608.222900390625,7.339035987854004 625.9859619140625,0 644.505859375,0 C644.505859375,0 1510.5103759765625,0 1510.5103759765625,0 C1529.0755615234375,0 1546.8802490234375,7.374966144561768 1560.0078125,20.50249671936035 C1560.0078125,20.50251579284668 1560.0078125,20.502534866333008 1560.0078125,20.502553939819336 C1560.055908203125,20.550655364990234 1619.9534912109375,80.4482192993164 1620.002685546875,80.4974365234375 C1620.002685546875,80.4974594116211 1620.002685546875,80.49747467041016 1620.002685546875,80.49749755859375 C1633.1302490234375,93.6250228881836 1650.9351806640625,101 1669.500244140625,101 C1669.500244140625,101 1995.00537109375,101 1995.00537109375,101"></path></g></g><g transform="matrix(1,0,0,1,0,0)" opacity="1" style="display: block;"><g opacity="1" transform="matrix(1,0,0,1,-40,219)"><path stroke-linecap="butt" stroke-linejoin="miter" fill-opacity="0" stroke-miterlimit="4" stroke="#5E6D89" stroke-opacity="1" stroke-width="8px" d=" M0,73.5 C0,73.5 343.0101318359375,73.5 343.0101318359375,73.5 C361.57525634765625,73.5 379.38006591796875,66.12500762939453 392.50762939453125,52.99746322631836 C392.50762939453125,52.99745559692383 392.50762939453125,52.9974479675293 392.50762939453125,52.997440338134766 C392.5299072265625,52.97517013549805 424.95880126953125,20.546295166015625 425.0025329589844,20.5025691986084 C425.0025634765625,20.502540588378906 425.0025634765625,20.50251007080078 425.0025939941406,20.50248146057129 C438.1300964355469,7.374962329864502 455.9349060058594,0 474.5,0 C474.5,0 1665,0 1665,0 C1684.33447265625,0 1702.807861328125,7.996859550476074 1716.0396728515625,22.094318389892578 C1716.0396728515625,22.09433364868164 1716.0396728515625,22.094348907470703 1716.0396728515625,22.094364166259766 C1716.058349609375,22.11419677734375 1728.04638671875,34.88656234741211 1728.0643310546875,34.9056396484375 C1728.0643310546875,34.90565490722656 1728.0643310546875,34.905670166015625 1728.0643310546875,34.90568542480469 C1741.296142578125,49.003143310546875 1759.7696533203125,57 1779.10400390625,57 C1779.10400390625,57 2082,57 2082,57"></path></g></g><g transform="matrix(1,0,0,1,0,0)" opacity="1" style="display: block;"><g opacity="1" transform="matrix(1,0,0,1,-40,219)"><path stroke-linecap="butt" stroke-linejoin="miter" fill-opacity="0" stroke-miterlimit="4" stroke-dasharray=" 100 35" stroke-dashoffset="119.80000305175781" stroke="#FFFFFF" stroke-opacity="1" stroke-width="3.198px" d=" M0,73.5 C0,73.5 343.0101318359375,73.5 343.0101318359375,73.5 C361.57525634765625,73.5 379.38006591796875,66.12500762939453 392.50762939453125,52.99746322631836 C392.50762939453125,52.99745559692383 392.50762939453125,52.9974479675293 392.50762939453125,52.997440338134766 C392.5299072265625,52.97517013549805 424.95880126953125,20.546295166015625 425.0025329589844,20.5025691986084 C425.0025634765625,20.502540588378906 425.0025634765625,20.50251007080078 425.0025939941406,20.50248146057129 C438.1300964355469,7.374962329864502 455.9349060058594,0 474.5,0 C474.5,0 1665,0 1665,0 C1684.33447265625,0 1702.807861328125,7.996859550476074 1716.0396728515625,22.094318389892578 C1716.0396728515625,22.09433364868164 1716.0396728515625,22.094348907470703 1716.0396728515625,22.094364166259766 C1716.058349609375,22.11419677734375 1728.04638671875,34.88656234741211 1728.0643310546875,34.9056396484375 C1728.0643310546875,34.90565490722656 1728.0643310546875,34.905670166015625 1728.0643310546875,34.90568542480469 C1741.296142578125,49.003143310546875 1759.7696533203125,57 1779.10400390625,57 C1779.10400390625,57 2082,57 2082,57"></path></g></g><g transform="matrix(1,0,0,1,0,0)" opacity="1" style="display: block;"><g opacity="1" transform="matrix(1,0,0,1,-28,93.5)"><path stroke-linecap="butt" stroke-linejoin="miter" fill-opacity="0" stroke-miterlimit="4" stroke="#5E6D89" stroke-opacity="1" stroke-width="8px" d=" M1972,0 C1972,0 1644.5,0 1644.5,0 C1625.9349365234375,0 1608.130126953125,7.374995708465576 1595.0025634765625,20.50253677368164 C1595.0025634765625,20.502544403076172 1595.0025634765625,20.502552032470703 1595.0025634765625,20.502559661865234 C1594.97998046875,20.525094985961914 1562.5616455078125,52.943424224853516 1562.5076904296875,52.997406005859375 C1562.507568359375,52.99745178222656 1562.507568359375,52.99749755859375 1562.5074462890625,52.99754333496094 C1549.3800048828125,66.12504577636719 1531.5753173828125,73.5 1513.01025390625,73.5 C1513.01025390625,73.5 1513.01025390625,73.5 1513.01025390625,73.5 C1512.8690185546875,73.5 365.44317626953125,73.50042724609375 365.302001953125,73.50042724609375 C365.302001953125,73.50042724609375 365.302001953125,73.50042724609375 365.302001953125,73.50042724609375 C345.967529296875,73.50042724609375 327.4941711425781,65.5035629272461 314.2623596191406,51.40610885620117 C314.2623291015625,51.40609359741211 314.2623291015625,51.40607833862305 314.2622985839844,51.406063079833984 C314.2436828613281,51.38623046875 302.2555847167969,38.61386489868164 302.2377014160156,38.59478759765625 C302.2376708984375,38.59477233886719 302.2376708984375,38.594757080078125 302.2376403808594,38.59474182128906 C289.0058288574219,24.497285842895508 270.53240966796875,16.50042724609375 251.197998046875,16.50042724609375 C251.197998046875,16.50042724609375 0,16.50042724609375 0,16.50042724609375"></path></g></g><g transform="matrix(1,0,0,1,0,0)" opacity="1" style="display: block;"><g opacity="1" transform="matrix(1,0,0,1,-28,93.5)"><path stroke-linecap="butt" stroke-linejoin="miter" fill-opacity="0" stroke-miterlimit="4" stroke-dasharray=" 100 35" stroke-dashoffset="119.80000305175781" stroke="#FFFFFF" stroke-opacity="1" stroke-width="3.198px" d=" M1972,0 C1972,0 1644.5,0 1644.5,0 C1625.9349365234375,0 1608.130126953125,7.374995708465576 1595.0025634765625,20.50253677368164 C1595.0025634765625,20.502544403076172 1595.0025634765625,20.502552032470703 1595.0025634765625,20.502559661865234 C1594.97998046875,20.525094985961914 1562.5616455078125,52.943424224853516 1562.5076904296875,52.997406005859375 C1562.507568359375,52.99745178222656 1562.507568359375,52.99749755859375 1562.5074462890625,52.99754333496094 C1549.3800048828125,66.12504577636719 1531.5753173828125,73.5 1513.01025390625,73.5 C1513.01025390625,73.5 1513.01025390625,73.5 1513.01025390625,73.5 C1512.8690185546875,73.5 365.44317626953125,73.50042724609375 365.302001953125,73.50042724609375 C365.302001953125,73.50042724609375 365.302001953125,73.50042724609375 365.302001953125,73.50042724609375 C345.967529296875,73.50042724609375 327.4941711425781,65.5035629272461 314.2623596191406,51.40610885620117 C314.2623291015625,51.40609359741211 314.2623291015625,51.40607833862305 314.2622985839844,51.406063079833984 C314.2436828613281,51.38623046875 302.2555847167969,38.61386489868164 302.2377014160156,38.59478759765625 C302.2376708984375,38.59477233886719 302.2376708984375,38.594757080078125 302.2376403808594,38.59474182128906 C289.0058288574219,24.497285842895508 270.53240966796875,16.50042724609375 251.197998046875,16.50042724609375 C251.197998046875,16.50042724609375 0,16.50042724609375 0,16.50042724609375"></path></g></g><g transform="matrix(1,0,0,1,0,0)" opacity="1" style="display: block;"><g opacity="1" transform="matrix(1,0,0,1,-27,10)"><path stroke-linecap="butt" stroke-linejoin="miter" fill-opacity="0" stroke-miterlimit="4" stroke="#5E6D89" stroke-opacity="1" stroke-width="8px" d=" M1960,3.637978807091713e-12 C1960,3.637978807091713e-12 1518.0869140625,5.91894805737625e-12 1517.994873046875,5.9194233716086675e-12 C1517.994873046875,5.9194233716086675e-12 1517.994873046875,3.458389390836869e-12 1517.994873046875,1.4852549528807102e-12 C1499.4749755859375,-0.0000038123271224321797 1481.7117919921875,7.3390607833862305 1468.593505859375,20.406600952148438 C1468.5294189453125,20.47049903869629 1468.465576171875,20.53467559814453 1468.4017333984375,20.59894561767578 C1465.7254638671875,23.29604721069336 1407.7696533203125,81.70340728759766 1405.0928955078125,84.40103149414062 C1405.029052734375,84.46532440185547 1404.9652099609375,84.52952575683594 1404.9010009765625,84.59345245361328 C1391.78271484375,97.66096496582031 1374.0196533203125,105 1355.499755859375,105 C1355.499755859375,105 484.49493408203125,105 484.49493408203125,105 C465.9298095703125,105 448.1250305175781,97.62503814697266 434.9975280761719,84.49752044677734 C434.99749755859375,84.49748992919922 434.99749755859375,84.4974594116211 434.9974670410156,84.49742889404297 C434.9393005371094,84.43928527832031 375.03936767578125,24.53935432434082 375.0025939941406,24.502553939819336 C375.0025634765625,24.50254249572754 375.0025634765625,24.502531051635742 375.0025329589844,24.502519607543945 C361.8749694824219,11.374983787536621 344.0701904296875,4 325.50506591796875,4 C325.50506591796875,4 0,4 0,4"></path></g></g><g transform="matrix(1,0,0,1,0,0)" opacity="1" style="display: block;"><g opacity="1" transform="matrix(1,0,0,1,-27,10)"><path stroke-linecap="butt" stroke-linejoin="miter" fill-opacity="0" stroke-miterlimit="4" stroke-dasharray=" 100 35" stroke-dashoffset="119.80000305175781" stroke="#FFFFFF" stroke-opacity="1" stroke-width="3.198px" d=" M1960,3.637978807091713e-12 C1960,3.637978807091713e-12 1518.0869140625,5.91894805737625e-12 1517.994873046875,5.9194233716086675e-12 C1517.994873046875,5.9194233716086675e-12 1517.994873046875,3.458389390836869e-12 1517.994873046875,1.4852549528807102e-12 C1499.4749755859375,-0.0000038123271224321797 1481.7117919921875,7.3390607833862305 1468.593505859375,20.406600952148438 C1468.5294189453125,20.47049903869629 1468.465576171875,20.53467559814453 1468.4017333984375,20.59894561767578 C1465.7254638671875,23.29604721069336 1407.7696533203125,81.70340728759766 1405.0928955078125,84.40103149414062 C1405.029052734375,84.46532440185547 1404.9652099609375,84.52952575683594 1404.9010009765625,84.59345245361328 C1391.78271484375,97.66096496582031 1374.0196533203125,105 1355.499755859375,105 C1355.499755859375,105 484.49493408203125,105 484.49493408203125,105 C465.9298095703125,105 448.1250305175781,97.62503814697266 434.9975280761719,84.49752044677734 C434.99749755859375,84.49748992919922 434.99749755859375,84.4974594116211 434.9974670410156,84.49742889404297 C434.9393005371094,84.43928527832031 375.03936767578125,24.53935432434082 375.0025939941406,24.502553939819336 C375.0025634765625,24.50254249572754 375.0025634765625,24.502531051635742 375.0025329589844,24.502519607543945 C361.8749694824219,11.374983787536621 344.0701904296875,4 325.50506591796875,4 C325.50506591796875,4 0,4 0,4"></path></g></g></g></g></svg>