<svg xmlns:xlink="http://www.w3.org/1999/xlink" xmlns="http://www.w3.org/2000/svg" width="14" viewBox="0 0 14 14" fill="none" class="g_svg" height="14" ><path fill-rule="evenodd" clip-rule="evenodd" d="M0.947008 1.74299C1.21101 1.63399 1.50801 1.77799 1.69501 1.99399C1.8294 2.14941 1.99635 2.27334 2.18401 2.35699C2.40711 2.45673 2.65236 2.4966 2.89558 2.47266C3.13879 2.44872 3.37156 2.3618 3.57093 2.22047C3.77031 2.07914 3.9294 1.88828 4.03253 1.66672C4.13565 1.44516 4.17924 1.20054 4.15901 0.956993C4.13701 0.682993 4.23401 0.382993 4.48401 0.265993L4.89401 0.0729931C5.12453 -0.0229509 5.38356 -0.0242809 5.61506 0.0692907C5.84655 0.162862 6.0319 0.343812 6.13101 0.572993L6.61401 1.69099L6.56201 1.80399L6.56101 1.80599L3.37101 9.17299L3.02501 9.95999L0.0690075 3.11999C-0.0198639 2.89847 -0.0220889 2.6516 0.0627751 2.42851C0.147639 2.20542 0.313373 2.02245 0.527008 1.91599L0.947008 1.74299ZM12.269 3.74699C12.454 3.52899 12.752 3.38599 13.016 3.49399L13.459 3.67699C13.6784 3.78589 13.8487 3.97354 13.9358 4.20247C14.0229 4.4314 14.0205 4.68477 13.929 4.91199L10.257 13.412C10.1557 13.6474 9.96556 13.8333 9.72796 13.9294C9.49036 14.0254 9.22446 14.0238 8.98801 13.925L4.55001 12.034C4.31468 11.9328 4.12872 11.743 4.0325 11.5056C3.93627 11.2682 3.93753 11.0025 4.03601 10.766L4.51701 9.67299L7.71001 2.29999C7.81116 2.06466 8.00102 1.87871 8.23841 1.78248C8.47579 1.68625 8.74155 1.68752 8.97801 1.78599L9.41201 1.98899C9.66201 2.10599 9.75901 2.40599 9.73401 2.68099C9.71553 2.88975 9.74252 3.10003 9.81313 3.29736C9.88374 3.49468 9.99628 3.67435 10.143 3.82399C10.2835 3.96649 10.4521 4.07823 10.6381 4.15211C10.8241 4.22599 11.0234 4.2604 11.2234 4.25316C11.4234 4.24592 11.6197 4.19719 11.7999 4.11005C11.9801 4.02292 12.1402 3.89928 12.27 3.74699" fill="#190F0A"></path></svg>