<svg id="SvgjsSvg1001" width="288" height="288" xmlns="http://www.w3.org/2000/svg" version="1.1" xmlns:xlink="http://www.w3.org/1999/xlink" xmlns:svgjs="http://svgjs.com/svgjs"><defs id="SvgjsDefs1002"></defs><g id="SvgjsG1008"><svg xmlns="http://www.w3.org/2000/svg" viewBox="0 0 120 120" width="288" height="288"><path fill="#f97316" d="M92.4738 61.4308H108V41.9791H92.4738V38.0814V38.0439V34.1462H96.3559V30.2485H100.237V10.7968H80.867V14.6945H76.9849V18.5922H73.1035L73.0669 18.6983H69.1855V3H49.8145V18.6983H45.9331L45.8965 18.5922H42.0151V14.6945H38.1331V10.7968H18.7628V30.2485H22.6441V34.1462H26.5262V38.0439V38.0814V41.9791H11V61.4308H26.5262H30.4076V65.366H26.5262V69.2637H22.6441V73.1614H18.7628V92.6131H38.1331L38.1704 100.409H42.0517V112.102H45.9331V116H73.0669V112.102H76.9483V100.409H80.8296L80.867 92.6131H100.237V73.1614H96.3889V69.2976H92.4738V65.366H88.5924V61.4308H92.4738Z" class="svgShape colorf580db-0 selectable"></path><path fill="#ffffff" d="M61.4417 92.6322H57.5596 53.6783 49.7969V96.5299 100.428 104.325H53.6783V100.428 96.5299H57.5596 61.4417 65.3231V100.428 104.325H69.2045V100.428 96.5299 92.6322H65.3231 61.4417zM57.5611 104.325H53.6797V108.223H57.5611 61.4432 65.3245V104.325H61.4432 57.5611zM69.207 73.1472V77.0407 80.9384H65.3256 61.4442V77.0407 73.143H57.5621V77.0407 80.9384H53.6807 49.7993V77.0407 73.1472 73.143H45.918V73.1472 77.0407 80.9384 84.8361 88.7338 92.6322H49.7993V88.7338 84.8361H53.6807 57.5621 61.4442 65.3256 69.207V88.7338 92.6322H73.0468 73.0883V88.7338 84.8361H73.0468 73.0883V80.9384 77.0407 73.143H69.207V73.1472zM45.9165 69.2453V65.3469 61.4492H42.0352V65.3476 69.2453 73.143H45.9165V69.2453zM84.729 73.143H80.8477V77.0407H84.729V73.143zM88.647 77.0746H84.7656V80.9723H88.6132V84.8361H92.4953V80.9384H88.647V77.0746zM53.6797 53.6538V57.5515H57.5611 61.4424V53.6538H57.5611V49.7561H53.6797V53.6538zM57.5625 41.9607V45.8584 49.7561H61.4439 65.3253V45.8584H61.4439V41.9607H57.5625zM34.2727 30.2669H38.1541V26.3692H34.2727V22.4715H30.3906V26.3692H34.2727V30.2669zM30.3892 18.5738H26.5078V22.4715H30.3892V18.5738zM69.207 30.2966H65.3256V26.4753H61.4442 57.5621 53.6807V30.2966H49.7993 45.918V34.1943H49.7993 53.6807V30.3729H57.5621V30.2966 30.3729H61.4442 65.3256V34.1943H69.207 73.0883V30.2966H69.207zM76.9673 34.1943H73.0859V38.092H76.9673V34.1943zM80.8501 38.092H76.9688V41.9607 41.9904 45.8584H80.8501V41.9607 38.092zM65.3242 38.0927V41.9904H69.2056V45.8584 49.7561H73.087V45.8584 41.9607H69.2056V38.0927H65.3242zM45.9165 34.1943H42.0352V38.092H45.9165V34.1943zM42.0337 41.9607V38.092H38.1523V41.9607 41.9904 45.8584H42.0337V41.9607zM73.0859 65.3469V65.3476 69.2453 73.143H76.9673V69.2453 65.3476 65.3469 61.4492H73.0859V65.3469zM84.729 26.3692H80.8477V30.2669H84.729V26.3692zM88.6118 22.4715H84.7305V26.3692H88.6118V22.4715zM92.4947 18.5738H88.6133V22.4715H92.4947V18.5738zM96.3767 49.7561H92.4954 88.6133V53.6538H92.4954 96.3767 100.258V49.7561H96.3767zM30.3892 80.9384H26.5078V84.8361H30.3892V80.9384zM34.2727 77.0407H30.3906V80.9384H34.2727V77.0407H38.1541V73.143H34.2727V77.0407zM61.4446 18.5738V18.5724 14.6747 10.777H57.5625V14.6747 18.5724 18.5738 22.4715H61.4446V18.5738zM53.6797 65.3469H57.5611V65.3476 69.2453H61.4424V65.3476 65.3469H65.3238V61.4492 57.5515H61.4424V61.4492H57.5611 53.6797V65.3469zM80.8501 49.7561V53.6538H76.9688V57.5515 61.4492H80.8501V57.5515 53.6538H84.7315V49.7561 45.8584H80.8501V49.7561zM38.1548 57.5515V61.4492H42.0362V57.5515 53.6538H38.1548V49.7561 45.8584H34.2734V49.7561 53.6538H38.1548V57.5515zM30.3902 53.6538V49.7561H26.5089 22.6275 18.7461V53.6538H22.6275 26.5089 30.3902z" class="svgShape color401011-1 selectable"></path></svg></g></svg>