<svg width="408" height="320" viewBox="0 0 408 320" fill="none" xmlns="http://www.w3.org/2000/svg">
<rect width="408" height="320" rx="9.12752" fill="white"/>
<path opacity="0.7" d="M89.5157 285.113C89.0679 285.113 88.6297 285.079 88.2013 285.01C87.773 284.942 87.3689 284.84 86.9892 284.704C86.6095 284.558 86.2687 284.382 85.9669 284.178C85.8209 284.071 85.7187 283.949 85.6602 283.813C85.6116 283.677 85.597 283.545 85.6164 283.419C85.6456 283.282 85.7041 283.165 85.7917 283.068C85.8793 282.971 85.9864 282.912 86.113 282.893C86.2395 282.864 86.3807 282.903 86.5365 283.01C86.9746 283.292 87.4371 283.501 87.9239 283.638C88.4107 283.764 88.9413 283.827 89.5157 283.827C90.3433 283.827 90.9518 283.681 91.3412 283.389C91.7404 283.088 91.94 282.698 91.94 282.221C91.94 281.832 91.7988 281.525 91.5165 281.301C91.2341 281.067 90.7619 280.882 90.0999 280.746L88.5372 280.425C87.6123 280.23 86.9211 279.909 86.4635 279.461C86.0156 279.013 85.7917 278.409 85.7917 277.65C85.7917 277.192 85.8842 276.774 86.0692 276.394C86.2639 276.014 86.5316 275.688 86.8724 275.416C87.2131 275.133 87.6221 274.919 88.0991 274.773C88.5762 274.627 89.0971 274.554 89.6617 274.554C90.2654 274.554 90.8301 274.632 91.3558 274.788C91.8913 274.943 92.3684 275.182 92.787 275.503C92.9136 275.591 92.9963 275.703 93.0353 275.839C93.084 275.966 93.0937 276.092 93.0645 276.219C93.045 276.345 92.9915 276.452 92.9038 276.54C92.8162 276.628 92.7043 276.681 92.5679 276.701C92.4316 276.71 92.2807 276.662 92.1152 276.555C91.7355 276.302 91.3461 276.121 90.9469 276.014C90.5575 275.897 90.1242 275.839 89.6471 275.839C89.1701 275.839 88.7514 275.912 88.3912 276.058C88.0407 276.204 87.7681 276.409 87.5734 276.672C87.3884 276.934 87.2959 277.246 87.2959 277.606C87.2959 278.015 87.4273 278.341 87.6902 278.585C87.9531 278.828 88.3912 279.013 89.0046 279.14L90.5526 279.461C91.5262 279.665 92.2515 279.982 92.7286 280.41C93.2057 280.839 93.4442 281.408 93.4442 282.119C93.4442 282.576 93.3517 282.99 93.1667 283.36C92.9817 283.72 92.7189 284.032 92.3781 284.295C92.0373 284.558 91.6236 284.762 91.1368 284.908C90.6597 285.044 90.1193 285.113 89.5157 285.113ZM97.2861 285.113C96.7895 285.113 96.3417 285.015 95.9425 284.821C95.5531 284.626 95.2464 284.363 95.0225 284.032C94.7985 283.701 94.6866 283.326 94.6866 282.907C94.6866 282.382 94.818 281.968 95.0809 281.666C95.3535 281.355 95.7965 281.135 96.4098 281.009C97.0329 280.873 97.8702 280.804 98.9217 280.804H99.6081V281.71H98.9363C98.2353 281.71 97.6804 281.744 97.2715 281.812C96.8626 281.88 96.5705 281.997 96.3952 282.163C96.2297 282.318 96.147 282.537 96.147 282.82C96.147 283.19 96.2735 283.492 96.5267 283.725C96.7798 283.949 97.1303 284.061 97.5782 284.061C97.9384 284.061 98.2548 283.978 98.5274 283.813C98.8 283.638 99.0142 283.404 99.17 283.112C99.3355 282.82 99.4183 282.484 99.4183 282.104V280.425C99.4183 279.87 99.3014 279.471 99.0678 279.227C98.8341 278.984 98.4495 278.862 97.914 278.862C97.6025 278.862 97.2763 278.901 96.9356 278.979C96.6046 279.057 96.2589 279.188 95.8987 279.373C95.7332 279.451 95.592 279.475 95.4752 279.446C95.3583 279.417 95.2659 279.354 95.1977 279.256C95.1295 279.149 95.0906 279.037 95.0809 278.921C95.0809 278.794 95.1101 278.672 95.1685 278.555C95.2366 278.439 95.3486 278.351 95.5044 278.293C95.9328 278.088 96.3563 277.942 96.7749 277.854C97.1936 277.767 97.5879 277.723 97.9579 277.723C98.6102 277.723 99.1457 277.825 99.5643 278.03C99.9927 278.234 100.309 278.546 100.514 278.964C100.718 279.383 100.82 279.923 100.82 280.585V284.339C100.82 284.572 100.762 284.757 100.645 284.894C100.528 285.02 100.358 285.083 100.134 285.083C99.9197 285.083 99.7493 285.02 99.6227 284.894C99.4962 284.757 99.4329 284.572 99.4329 284.339V283.389H99.5643C99.4864 283.75 99.3404 284.061 99.1262 284.324C98.9217 284.577 98.6637 284.772 98.3522 284.908C98.0406 285.044 97.6853 285.113 97.2861 285.113ZM105.145 285.113C104.385 285.113 103.811 284.894 103.421 284.455C103.042 284.008 102.852 283.365 102.852 282.528V275.328C102.852 275.085 102.915 274.9 103.042 274.773C103.168 274.646 103.348 274.583 103.582 274.583C103.816 274.583 103.996 274.646 104.122 274.773C104.259 274.9 104.327 275.085 104.327 275.328V282.44C104.327 282.927 104.424 283.292 104.619 283.535C104.823 283.769 105.115 283.886 105.495 283.886C105.583 283.886 105.661 283.886 105.729 283.886C105.797 283.876 105.865 283.866 105.933 283.857C106.05 283.847 106.133 283.881 106.182 283.959C106.23 284.027 106.255 284.173 106.255 284.397C106.255 284.601 106.211 284.762 106.123 284.879C106.035 284.986 105.894 285.054 105.7 285.083C105.612 285.093 105.519 285.098 105.422 285.098C105.325 285.108 105.232 285.113 105.145 285.113ZM110.589 285.113C109.81 285.113 109.138 284.967 108.573 284.675C108.018 284.373 107.585 283.949 107.274 283.404C106.972 282.849 106.821 282.192 106.821 281.432C106.821 280.692 106.972 280.045 107.274 279.49C107.575 278.935 107.989 278.502 108.515 278.19C109.041 277.879 109.639 277.723 110.311 277.723C110.808 277.723 111.251 277.806 111.64 277.971C112.03 278.127 112.361 278.361 112.633 278.672C112.916 278.974 113.125 279.344 113.261 279.782C113.407 280.22 113.48 280.712 113.48 281.257C113.48 281.423 113.432 281.549 113.334 281.637C113.237 281.715 113.091 281.754 112.896 281.754H107.989V280.848H112.487L112.239 281.053C112.239 280.566 112.166 280.152 112.02 279.811C111.884 279.471 111.674 279.213 111.392 279.037C111.119 278.852 110.779 278.76 110.37 278.76C109.912 278.76 109.523 278.867 109.201 279.081C108.89 279.295 108.651 279.592 108.486 279.972C108.32 280.352 108.237 280.795 108.237 281.301V281.389C108.237 282.245 108.437 282.893 108.836 283.331C109.245 283.759 109.834 283.974 110.603 283.974C110.895 283.974 111.202 283.935 111.523 283.857C111.854 283.779 112.166 283.647 112.458 283.462C112.624 283.365 112.77 283.321 112.896 283.331C113.032 283.341 113.14 283.384 113.217 283.462C113.305 283.54 113.359 283.638 113.378 283.754C113.398 283.871 113.378 283.993 113.32 284.12C113.261 284.236 113.159 284.343 113.013 284.441C112.682 284.665 112.297 284.835 111.859 284.952C111.421 285.059 110.998 285.113 110.589 285.113Z" fill="#13213C"/>
<rect x="62.0674" y="272.719" width="13.6913" height="13.6913" rx="4.56376" fill="#275855"/>
<path opacity="0.7" d="M175.438 284.981C175.175 284.981 174.971 284.913 174.825 284.777C174.689 284.631 174.62 284.426 174.62 284.163V275.503C174.62 275.24 174.689 275.041 174.825 274.904C174.971 274.758 175.175 274.685 175.438 274.685H178.257C179.951 274.685 181.255 275.128 182.171 276.014C183.096 276.891 183.558 278.161 183.558 279.826C183.558 280.654 183.441 281.389 183.208 282.031C182.974 282.674 182.628 283.214 182.171 283.652C181.723 284.081 181.173 284.412 180.52 284.645C179.868 284.869 179.114 284.981 178.257 284.981H175.438ZM176.139 283.711H178.169C178.812 283.711 179.367 283.633 179.834 283.477C180.311 283.311 180.71 283.068 181.032 282.747C181.353 282.425 181.591 282.021 181.747 281.535C181.903 281.048 181.981 280.478 181.981 279.826C181.981 278.531 181.66 277.562 181.017 276.92C180.384 276.277 179.435 275.956 178.169 275.956H176.139V283.711ZM186.157 285.069C185.924 285.069 185.743 285.001 185.617 284.864C185.49 284.718 185.427 284.519 185.427 284.266V278.57C185.427 278.317 185.49 278.122 185.617 277.986C185.743 277.85 185.924 277.781 186.157 277.781C186.391 277.781 186.571 277.85 186.698 277.986C186.834 278.122 186.902 278.317 186.902 278.57V284.266C186.902 284.519 186.839 284.718 186.712 284.864C186.586 285.001 186.401 285.069 186.157 285.069ZM186.157 276.263C185.865 276.263 185.636 276.19 185.471 276.044C185.315 275.897 185.237 275.693 185.237 275.43C185.237 275.158 185.315 274.953 185.471 274.817C185.636 274.671 185.865 274.598 186.157 274.598C186.449 274.598 186.673 274.671 186.829 274.817C186.995 274.953 187.077 275.158 187.077 275.43C187.077 275.693 186.995 275.897 186.829 276.044C186.673 276.19 186.449 276.263 186.157 276.263ZM191.475 285.113C191.047 285.113 190.604 285.064 190.147 284.967C189.699 284.869 189.285 284.704 188.905 284.47C188.779 284.382 188.691 284.285 188.642 284.178C188.594 284.071 188.574 283.964 188.584 283.857C188.603 283.74 188.647 283.642 188.715 283.565C188.793 283.477 188.886 283.423 188.993 283.404C189.11 283.384 189.231 283.409 189.358 283.477C189.738 283.691 190.103 283.842 190.453 283.93C190.804 284.008 191.149 284.047 191.49 284.047C192.006 284.047 192.396 283.954 192.658 283.769C192.921 283.584 193.053 283.336 193.053 283.024C193.053 282.771 192.965 282.576 192.79 282.44C192.615 282.294 192.352 282.182 192.001 282.104L190.614 281.827C190.01 281.7 189.553 281.476 189.241 281.155C188.93 280.834 188.774 280.425 188.774 279.928C188.774 279.48 188.895 279.091 189.139 278.76C189.382 278.429 189.723 278.176 190.161 278C190.599 277.815 191.106 277.723 191.68 277.723C192.108 277.723 192.512 277.777 192.892 277.884C193.272 277.991 193.622 278.151 193.944 278.366C194.07 278.434 194.153 278.526 194.192 278.643C194.231 278.75 194.236 278.857 194.206 278.964C194.187 279.071 194.138 279.169 194.06 279.256C193.983 279.334 193.885 279.383 193.768 279.402C193.661 279.412 193.54 279.383 193.403 279.315C193.111 279.13 192.819 278.998 192.527 278.921C192.245 278.843 191.962 278.804 191.68 278.804C191.164 278.804 190.774 278.901 190.512 279.096C190.258 279.281 190.132 279.534 190.132 279.855C190.132 280.099 190.21 280.298 190.366 280.454C190.521 280.61 190.765 280.722 191.096 280.79L192.483 281.067C193.116 281.194 193.593 281.408 193.914 281.71C194.245 282.012 194.411 282.421 194.411 282.937C194.411 283.608 194.143 284.139 193.608 284.528C193.072 284.918 192.361 285.113 191.475 285.113ZM199.018 285.113C198.434 285.113 197.943 285.01 197.543 284.806C197.144 284.601 196.847 284.3 196.652 283.901C196.458 283.501 196.36 283.015 196.36 282.44V278.994H195.484C195.289 278.994 195.139 278.945 195.031 278.848C194.924 278.74 194.871 278.599 194.871 278.424C194.871 278.239 194.924 278.098 195.031 278C195.139 277.903 195.289 277.854 195.484 277.854H196.36V276.35C196.36 276.107 196.424 275.922 196.55 275.795C196.687 275.669 196.872 275.605 197.105 275.605C197.339 275.605 197.519 275.669 197.646 275.795C197.772 275.922 197.835 276.107 197.835 276.35V277.854H199.544C199.739 277.854 199.89 277.903 199.997 278C200.104 278.098 200.157 278.239 200.157 278.424C200.157 278.599 200.104 278.74 199.997 278.848C199.89 278.945 199.739 278.994 199.544 278.994H197.835V282.323C197.835 282.839 197.943 283.229 198.157 283.492C198.381 283.754 198.741 283.886 199.237 283.886C199.413 283.886 199.564 283.871 199.69 283.842C199.826 283.803 199.938 283.779 200.026 283.769C200.133 283.769 200.221 283.808 200.289 283.886C200.357 283.954 200.391 284.09 200.391 284.295C200.391 284.441 200.362 284.577 200.304 284.704C200.255 284.83 200.162 284.913 200.026 284.952C199.909 284.991 199.749 285.025 199.544 285.054C199.349 285.093 199.174 285.113 199.018 285.113ZM202.059 285.083C201.816 285.083 201.631 285.02 201.504 284.894C201.378 284.757 201.315 284.572 201.315 284.339V278.497C201.315 278.254 201.378 278.069 201.504 277.942C201.631 277.815 201.806 277.752 202.03 277.752C202.264 277.752 202.439 277.815 202.556 277.942C202.683 278.069 202.746 278.254 202.746 278.497V279.563H202.6C202.756 278.979 203.043 278.536 203.461 278.234C203.88 277.932 204.416 277.757 205.068 277.708C205.243 277.699 205.379 277.742 205.477 277.84C205.584 277.937 205.642 278.088 205.652 278.293C205.671 278.497 205.628 278.663 205.521 278.789C205.413 278.906 205.248 278.974 205.024 278.994L204.747 279.023C204.114 279.081 203.632 279.281 203.301 279.622C202.97 279.962 202.804 280.43 202.804 281.024V284.339C202.804 284.572 202.741 284.757 202.614 284.894C202.498 285.02 202.313 285.083 202.059 285.083ZM207.493 285.069C207.259 285.069 207.079 285.001 206.952 284.864C206.826 284.718 206.763 284.519 206.763 284.266V278.57C206.763 278.317 206.826 278.122 206.952 277.986C207.079 277.85 207.259 277.781 207.493 277.781C207.726 277.781 207.907 277.85 208.033 277.986C208.169 278.122 208.238 278.317 208.238 278.57V284.266C208.238 284.519 208.174 284.718 208.048 284.864C207.921 285.001 207.736 285.069 207.493 285.069ZM207.493 276.263C207.201 276.263 206.972 276.19 206.806 276.044C206.651 275.897 206.573 275.693 206.573 275.43C206.573 275.158 206.651 274.953 206.806 274.817C206.972 274.671 207.201 274.598 207.493 274.598C207.785 274.598 208.009 274.671 208.165 274.817C208.33 274.953 208.413 275.158 208.413 275.43C208.413 275.693 208.33 275.897 208.165 276.044C208.009 276.19 207.785 276.263 207.493 276.263ZM214.14 285.113C213.517 285.113 212.977 284.957 212.519 284.645C212.061 284.324 211.755 283.901 211.599 283.375L211.76 283.112V284.339C211.76 284.572 211.696 284.757 211.57 284.894C211.443 285.02 211.268 285.083 211.044 285.083C210.81 285.083 210.63 285.02 210.504 284.894C210.377 284.757 210.314 284.572 210.314 284.339V275.328C210.314 275.085 210.377 274.9 210.504 274.773C210.63 274.646 210.81 274.583 211.044 274.583C211.278 274.583 211.458 274.646 211.584 274.773C211.721 274.9 211.789 275.085 211.789 275.328V279.417H211.614C211.769 278.901 212.076 278.492 212.534 278.19C212.991 277.879 213.527 277.723 214.14 277.723C214.783 277.723 215.338 277.874 215.805 278.176C216.272 278.478 216.632 278.901 216.886 279.446C217.148 279.991 217.28 280.649 217.28 281.418C217.28 282.167 217.148 282.825 216.886 283.389C216.632 283.944 216.267 284.373 215.79 284.675C215.323 284.967 214.773 285.113 214.14 285.113ZM213.775 283.974C214.184 283.974 214.539 283.876 214.841 283.681C215.143 283.487 215.376 283.2 215.542 282.82C215.708 282.44 215.79 281.973 215.79 281.418C215.79 280.581 215.605 279.948 215.235 279.519C214.875 279.091 214.388 278.877 213.775 278.877C213.376 278.877 213.02 278.974 212.709 279.169C212.407 279.354 212.173 279.636 212.008 280.016C211.842 280.396 211.76 280.863 211.76 281.418C211.76 282.245 211.945 282.878 212.315 283.316C212.684 283.754 213.171 283.974 213.775 283.974ZM221.483 285.113C220.909 285.113 220.427 285.006 220.037 284.791C219.658 284.577 219.371 284.261 219.176 283.842C218.991 283.414 218.898 282.878 218.898 282.236V278.497C218.898 278.244 218.962 278.059 219.088 277.942C219.215 277.815 219.395 277.752 219.629 277.752C219.862 277.752 220.042 277.815 220.169 277.942C220.305 278.059 220.373 278.244 220.373 278.497V282.25C220.373 282.825 220.49 283.248 220.724 283.521C220.957 283.793 221.327 283.93 221.834 283.93C222.389 283.93 222.837 283.745 223.177 283.375C223.528 282.995 223.703 282.499 223.703 281.885V278.497C223.703 278.244 223.766 278.059 223.893 277.942C224.019 277.815 224.204 277.752 224.448 277.752C224.682 277.752 224.862 277.815 224.988 277.942C225.115 278.059 225.178 278.244 225.178 278.497V284.339C225.178 284.835 224.94 285.083 224.462 285.083C224.239 285.083 224.063 285.02 223.937 284.894C223.81 284.757 223.747 284.572 223.747 284.339V283.097L223.937 283.419C223.742 283.964 223.43 284.382 223.002 284.675C222.574 284.967 222.067 285.113 221.483 285.113ZM230.294 285.113C229.71 285.113 229.219 285.01 228.819 284.806C228.42 284.601 228.123 284.3 227.929 283.901C227.734 283.501 227.636 283.015 227.636 282.44V278.994H226.76C226.565 278.994 226.415 278.945 226.307 278.848C226.2 278.74 226.147 278.599 226.147 278.424C226.147 278.239 226.2 278.098 226.307 278C226.415 277.903 226.565 277.854 226.76 277.854H227.636V276.35C227.636 276.107 227.7 275.922 227.826 275.795C227.963 275.669 228.148 275.605 228.381 275.605C228.615 275.605 228.795 275.669 228.922 275.795C229.048 275.922 229.111 276.107 229.111 276.35V277.854H230.82C231.015 277.854 231.166 277.903 231.273 278C231.38 278.098 231.433 278.239 231.433 278.424C231.433 278.599 231.38 278.74 231.273 278.848C231.166 278.945 231.015 278.994 230.82 278.994H229.111V282.323C229.111 282.839 229.219 283.229 229.433 283.492C229.657 283.754 230.017 283.886 230.513 283.886C230.689 283.886 230.84 283.871 230.966 283.842C231.102 283.803 231.214 283.779 231.302 283.769C231.409 283.769 231.497 283.808 231.565 283.886C231.633 283.954 231.667 284.09 231.667 284.295C231.667 284.441 231.638 284.577 231.58 284.704C231.531 284.83 231.438 284.913 231.302 284.952C231.185 284.991 231.025 285.025 230.82 285.054C230.625 285.093 230.45 285.113 230.294 285.113ZM235.864 285.113C235.085 285.113 234.413 284.967 233.848 284.675C233.293 284.373 232.86 283.949 232.549 283.404C232.247 282.849 232.096 282.192 232.096 281.432C232.096 280.692 232.247 280.045 232.549 279.49C232.85 278.935 233.264 278.502 233.79 278.19C234.316 277.879 234.914 277.723 235.586 277.723C236.083 277.723 236.526 277.806 236.915 277.971C237.305 278.127 237.636 278.361 237.908 278.672C238.191 278.974 238.4 279.344 238.536 279.782C238.682 280.22 238.755 280.712 238.755 281.257C238.755 281.423 238.707 281.549 238.609 281.637C238.512 281.715 238.366 281.754 238.171 281.754H233.264V280.848H237.762L237.514 281.053C237.514 280.566 237.441 280.152 237.295 279.811C237.159 279.471 236.949 279.213 236.667 279.037C236.394 278.852 236.053 278.76 235.645 278.76C235.187 278.76 234.798 278.867 234.476 279.081C234.165 279.295 233.926 279.592 233.761 279.972C233.595 280.352 233.512 280.795 233.512 281.301V281.389C233.512 282.245 233.712 282.893 234.111 283.331C234.52 283.759 235.109 283.974 235.878 283.974C236.17 283.974 236.477 283.935 236.798 283.857C237.129 283.779 237.441 283.647 237.733 283.462C237.898 283.365 238.044 283.321 238.171 283.331C238.307 283.341 238.414 283.384 238.492 283.462C238.58 283.54 238.634 283.638 238.653 283.754C238.672 283.871 238.653 283.993 238.595 284.12C238.536 284.236 238.434 284.343 238.288 284.441C237.957 284.665 237.572 284.835 237.134 284.952C236.696 285.059 236.273 285.113 235.864 285.113Z" fill="#13213C"/>
<rect x="150.604" y="272.719" width="13.6913" height="13.6913" rx="4.56376" fill="#FFD66B"/>
<path opacity="0.7" d="M301.34 285.083C301.096 285.083 300.906 285.015 300.77 284.879C300.644 284.743 300.58 284.553 300.58 284.309V275.459C300.58 275.206 300.648 275.016 300.785 274.89C300.921 274.754 301.111 274.685 301.354 274.685H304.845C305.955 274.685 306.811 274.948 307.415 275.474C308.019 276 308.32 276.745 308.32 277.708C308.32 278.332 308.184 278.867 307.912 279.315C307.639 279.763 307.24 280.103 306.714 280.337C306.198 280.571 305.575 280.688 304.845 280.688L304.976 280.483H305.356C305.745 280.483 306.081 280.581 306.364 280.775C306.656 280.97 306.918 281.282 307.152 281.71L308.408 284.047C308.505 284.222 308.549 284.392 308.54 284.558C308.54 284.713 308.481 284.84 308.364 284.937C308.257 285.035 308.101 285.083 307.897 285.083C307.683 285.083 307.508 285.04 307.371 284.952C307.245 284.855 307.128 284.713 307.021 284.528L305.487 281.695C305.283 281.316 305.049 281.062 304.786 280.936C304.523 280.8 304.178 280.731 303.749 280.731H302.099V284.309C302.099 284.553 302.036 284.743 301.909 284.879C301.783 285.015 301.593 285.083 301.34 285.083ZM302.099 279.592H304.596C305.336 279.592 305.896 279.437 306.276 279.125C306.656 278.813 306.845 278.351 306.845 277.738C306.845 277.134 306.656 276.676 306.276 276.365C305.896 276.053 305.336 275.897 304.596 275.897H302.099V279.592ZM313.476 285.113C312.697 285.113 312.026 284.967 311.461 284.675C310.906 284.373 310.473 283.949 310.161 283.404C309.859 282.849 309.708 282.192 309.708 281.432C309.708 280.692 309.859 280.045 310.161 279.49C310.463 278.935 310.877 278.502 311.402 278.19C311.928 277.879 312.527 277.723 313.199 277.723C313.695 277.723 314.138 277.806 314.528 277.971C314.917 278.127 315.248 278.361 315.521 278.672C315.803 278.974 316.013 279.344 316.149 279.782C316.295 280.22 316.368 280.712 316.368 281.257C316.368 281.423 316.319 281.549 316.222 281.637C316.124 281.715 315.978 281.754 315.784 281.754H310.877V280.848H315.375L315.127 281.053C315.127 280.566 315.054 280.152 314.907 279.811C314.771 279.471 314.562 279.213 314.279 279.037C314.007 278.852 313.666 278.76 313.257 278.76C312.8 278.76 312.41 278.867 312.089 279.081C311.777 279.295 311.539 279.592 311.373 279.972C311.208 280.352 311.125 280.795 311.125 281.301V281.389C311.125 282.245 311.325 282.893 311.724 283.331C312.133 283.759 312.722 283.974 313.491 283.974C313.783 283.974 314.09 283.935 314.411 283.857C314.742 283.779 315.054 283.647 315.346 283.462C315.511 283.365 315.657 283.321 315.784 283.331C315.92 283.341 316.027 283.384 316.105 283.462C316.193 283.54 316.246 283.638 316.266 283.754C316.285 283.871 316.266 283.993 316.207 284.12C316.149 284.236 316.047 284.343 315.901 284.441C315.57 284.665 315.185 284.835 314.747 284.952C314.309 285.059 313.885 285.113 313.476 285.113ZM320.999 285.113C320.415 285.113 319.923 285.01 319.524 284.806C319.125 284.601 318.828 284.3 318.633 283.901C318.439 283.501 318.341 283.015 318.341 282.44V278.994H317.465C317.27 278.994 317.119 278.945 317.012 278.848C316.905 278.74 316.852 278.599 316.852 278.424C316.852 278.239 316.905 278.098 317.012 278C317.119 277.903 317.27 277.854 317.465 277.854H318.341V276.35C318.341 276.107 318.405 275.922 318.531 275.795C318.668 275.669 318.852 275.605 319.086 275.605C319.32 275.605 319.5 275.669 319.627 275.795C319.753 275.922 319.816 276.107 319.816 276.35V277.854H321.525C321.72 277.854 321.871 277.903 321.978 278C322.085 278.098 322.138 278.239 322.138 278.424C322.138 278.599 322.085 278.74 321.978 278.848C321.871 278.945 321.72 278.994 321.525 278.994H319.816V282.323C319.816 282.839 319.923 283.229 320.138 283.492C320.362 283.754 320.722 283.886 321.218 283.886C321.394 283.886 321.544 283.871 321.671 283.842C321.807 283.803 321.919 283.779 322.007 283.769C322.114 283.769 322.202 283.808 322.27 283.886C322.338 283.954 322.372 284.09 322.372 284.295C322.372 284.441 322.343 284.577 322.284 284.704C322.236 284.83 322.143 284.913 322.007 284.952C321.89 284.991 321.729 285.025 321.525 285.054C321.33 285.093 321.155 285.113 320.999 285.113ZM325.837 285.113C325.262 285.113 324.78 285.006 324.391 284.791C324.011 284.577 323.724 284.261 323.529 283.842C323.344 283.414 323.252 282.878 323.252 282.236V278.497C323.252 278.244 323.315 278.059 323.442 277.942C323.568 277.815 323.748 277.752 323.982 277.752C324.216 277.752 324.396 277.815 324.522 277.942C324.659 278.059 324.727 278.244 324.727 278.497V282.25C324.727 282.825 324.844 283.248 325.077 283.521C325.311 283.793 325.681 283.93 326.187 283.93C326.742 283.93 327.19 283.745 327.531 283.375C327.881 282.995 328.056 282.499 328.056 281.885V278.497C328.056 278.244 328.12 278.059 328.246 277.942C328.373 277.815 328.558 277.752 328.801 277.752C329.035 277.752 329.215 277.815 329.342 277.942C329.468 278.059 329.531 278.244 329.531 278.497V284.339C329.531 284.835 329.293 285.083 328.816 285.083C328.592 285.083 328.417 285.02 328.29 284.894C328.164 284.757 328.1 284.572 328.1 284.339V283.097L328.29 283.419C328.095 283.964 327.784 284.382 327.355 284.675C326.927 284.967 326.421 285.113 325.837 285.113ZM332.355 285.083C332.112 285.083 331.927 285.02 331.8 284.894C331.673 284.757 331.61 284.572 331.61 284.339V278.497C331.61 278.254 331.673 278.069 331.8 277.942C331.927 277.815 332.102 277.752 332.326 277.752C332.559 277.752 332.735 277.815 332.851 277.942C332.978 278.069 333.041 278.254 333.041 278.497V279.563H332.895C333.051 278.979 333.338 278.536 333.757 278.234C334.176 277.932 334.711 277.757 335.363 277.708C335.539 277.699 335.675 277.742 335.772 277.84C335.879 277.937 335.938 278.088 335.948 278.293C335.967 278.497 335.923 278.663 335.816 278.789C335.709 278.906 335.543 278.974 335.32 278.994L335.042 279.023C334.409 279.081 333.927 279.281 333.596 279.622C333.265 279.962 333.1 280.43 333.1 281.024V284.339C333.1 284.572 333.036 284.757 332.91 284.894C332.793 285.02 332.608 285.083 332.355 285.083ZM337.788 285.083C337.555 285.083 337.375 285.02 337.248 284.894C337.121 284.757 337.058 284.572 337.058 284.339V278.497C337.058 278.254 337.121 278.069 337.248 277.942C337.375 277.815 337.55 277.752 337.774 277.752C338.007 277.752 338.183 277.815 338.299 277.942C338.426 278.069 338.489 278.254 338.489 278.497V279.636L338.329 279.373C338.543 278.828 338.879 278.419 339.336 278.147C339.794 277.864 340.32 277.723 340.914 277.723C341.478 277.723 341.946 277.83 342.316 278.044C342.695 278.249 342.978 278.565 343.163 278.994C343.348 279.412 343.44 279.943 343.44 280.585V284.339C343.44 284.572 343.377 284.757 343.25 284.894C343.124 285.02 342.944 285.083 342.71 285.083C342.466 285.083 342.281 285.02 342.155 284.894C342.028 284.757 341.965 284.572 341.965 284.339V280.673C341.965 280.06 341.843 279.612 341.6 279.329C341.366 279.047 340.996 278.906 340.49 278.906C339.896 278.906 339.419 279.091 339.059 279.461C338.708 279.831 338.533 280.327 338.533 280.95V284.339C338.533 284.835 338.285 285.083 337.788 285.083Z" fill="#13213C"/>
<rect x="276.564" y="272.719" width="13.6913" height="13.6913" rx="4.56376" fill="#B1FC03"/>
<circle cx="204.456" cy="155.917" r="76.7035" stroke="#5B93FF" stroke-opacity="0.05" stroke-width="11.4483"/>
<path d="M170.261 220.602C167.871 225.123 162.232 226.892 158.007 224.01C151.098 219.297 144.931 213.549 139.73 206.953C132.613 197.927 127.463 187.513 124.609 176.379C121.756 165.244 121.263 153.637 123.162 142.301C124.549 134.016 127.192 126.011 130.983 118.555C133.301 113.997 139.096 112.836 143.365 115.65C147.635 118.464 148.746 124.187 146.578 128.818C144.124 134.06 142.387 139.624 141.426 145.36C139.954 154.149 140.336 163.149 142.549 171.781C144.761 180.414 148.754 188.489 154.272 195.487C157.873 200.054 162.071 204.097 166.744 207.512C170.872 210.53 172.651 216.081 170.261 220.602Z" fill="#B1FC03"/>
<path d="M261.233 199.284C266.054 202.966 267.023 209.922 262.733 214.211C250.217 226.725 233.921 234.951 216.211 237.502C198.501 240.054 180.546 236.762 165.006 228.291C159.68 225.387 158.646 218.441 162.231 213.547C165.817 208.654 172.662 207.699 178.122 210.341C188.9 215.556 201.066 217.49 213.078 215.76C225.091 214.029 236.217 208.739 245.083 200.694C249.576 196.618 256.413 195.602 261.233 199.284Z" fill="#FFD66B"/>
<g filter="url(#filter0_d_390_10192)">
<path d="M204.456 87.8612C204.456 79.9235 210.939 73.3615 218.756 74.7386C230.776 76.856 242.237 81.6275 252.275 88.7767C266.237 98.7208 276.751 112.77 282.355 128.97C287.959 145.169 288.373 162.712 283.54 179.158C280.065 190.982 274.002 201.815 265.86 210.907C260.565 216.82 251.413 215.666 246.508 209.425C241.603 203.184 242.89 194.227 247.612 187.846C251.337 182.811 254.174 177.133 255.961 171.053C259.109 160.342 258.839 148.917 255.19 138.367C251.54 127.816 244.692 118.666 235.599 112.19C230.437 108.514 224.698 105.803 218.658 104.146C211.003 102.046 204.456 95.7989 204.456 87.8612Z" fill="#275855"/>
</g>
<path d="M186.139 157.035C184.857 157.035 183.758 156.852 182.842 156.486C181.927 156.119 181.224 155.593 180.736 154.906C180.247 154.204 180.003 153.364 180.003 152.387C180.003 151.624 180.156 150.945 180.461 150.349C180.782 149.754 181.217 149.273 181.766 148.907C182.316 148.541 182.934 148.312 183.621 148.22V148.815C182.659 148.602 181.881 148.136 181.285 147.419C180.705 146.686 180.415 145.808 180.415 144.786C180.415 143.87 180.644 143.084 181.102 142.427C181.575 141.771 182.239 141.267 183.094 140.916C183.964 140.565 184.979 140.389 186.139 140.389C187.315 140.389 188.33 140.565 189.185 140.916C190.04 141.267 190.704 141.771 191.177 142.427C191.65 143.084 191.887 143.87 191.887 144.786C191.887 145.472 191.749 146.098 191.474 146.663C191.215 147.228 190.841 147.693 190.352 148.06C189.879 148.426 189.33 148.663 188.704 148.77V148.22C189.757 148.373 190.612 148.823 191.268 149.571C191.94 150.319 192.276 151.258 192.276 152.387C192.276 153.364 192.032 154.204 191.543 154.906C191.055 155.593 190.352 156.119 189.437 156.486C188.521 156.852 187.422 157.035 186.139 157.035ZM186.139 154.31C187.086 154.31 187.803 154.127 188.292 153.761C188.78 153.395 189.024 152.853 189.024 152.135C189.024 151.418 188.78 150.884 188.292 150.533C187.803 150.166 187.086 149.983 186.139 149.983C185.193 149.983 184.476 150.166 183.987 150.533C183.499 150.884 183.255 151.418 183.255 152.135C183.255 152.853 183.499 153.395 183.987 153.761C184.476 154.127 185.193 154.31 186.139 154.31ZM186.139 147.258C186.658 147.258 187.101 147.174 187.467 147.006C187.849 146.839 188.131 146.594 188.315 146.274C188.513 145.953 188.612 145.587 188.612 145.175C188.612 144.534 188.391 144.03 187.948 143.664C187.521 143.297 186.918 143.114 186.139 143.114C185.361 143.114 184.758 143.297 184.331 143.664C183.903 144.03 183.69 144.534 183.69 145.175C183.69 145.816 183.903 146.327 184.331 146.709C184.758 147.075 185.361 147.258 186.139 147.258ZM199.868 157.035C197.915 157.035 196.419 156.31 195.381 154.86C194.358 153.395 193.847 151.326 193.847 148.655C193.847 146.869 194.076 145.366 194.534 144.144C195.007 142.908 195.686 141.977 196.571 141.351C197.472 140.71 198.571 140.389 199.868 140.389C201.838 140.389 203.333 141.099 204.356 142.519C205.379 143.923 205.89 145.969 205.89 148.655C205.89 150.441 205.654 151.96 205.18 153.211C204.723 154.448 204.051 155.394 203.166 156.051C202.28 156.707 201.181 157.035 199.868 157.035ZM199.868 154.15C200.754 154.15 201.41 153.715 201.838 152.845C202.265 151.96 202.479 150.563 202.479 148.655C202.479 146.747 202.265 145.373 201.838 144.534C201.41 143.694 200.754 143.274 199.868 143.274C198.983 143.274 198.327 143.694 197.899 144.534C197.472 145.373 197.258 146.747 197.258 148.655C197.258 150.563 197.472 151.96 197.899 152.845C198.327 153.715 198.983 154.15 199.868 154.15ZM214.651 156.486C214.468 156.791 214.246 156.989 213.987 157.081C213.727 157.188 213.468 157.211 213.208 157.15C212.949 157.089 212.727 156.966 212.544 156.783C212.376 156.585 212.269 156.348 212.224 156.074C212.178 155.799 212.247 155.509 212.43 155.203L220.65 140.962C220.833 140.641 221.054 140.428 221.314 140.321C221.573 140.214 221.825 140.199 222.069 140.275C222.329 140.336 222.55 140.466 222.733 140.664C222.916 140.847 223.031 141.076 223.077 141.351C223.122 141.626 223.054 141.916 222.871 142.221L214.651 156.486ZM211.766 150.258C210.438 150.258 209.407 149.815 208.675 148.93C207.942 148.029 207.576 146.823 207.576 145.312C207.576 144.289 207.736 143.412 208.057 142.679C208.392 141.946 208.873 141.382 209.499 140.985C210.14 140.588 210.896 140.389 211.766 140.389C213.078 140.389 214.101 140.84 214.834 141.74C215.582 142.626 215.956 143.816 215.956 145.312C215.956 146.32 215.788 147.197 215.452 147.945C215.132 148.678 214.658 149.25 214.033 149.662C213.407 150.059 212.651 150.258 211.766 150.258ZM211.766 148.06C212.071 148.06 212.323 147.968 212.521 147.785C212.735 147.587 212.895 147.289 213.002 146.892C213.124 146.48 213.185 145.953 213.185 145.312C213.185 144.35 213.056 143.664 212.796 143.251C212.552 142.824 212.208 142.61 211.766 142.61C211.46 142.61 211.201 142.702 210.987 142.885C210.774 143.068 210.613 143.358 210.506 143.755C210.4 144.137 210.346 144.656 210.346 145.312C210.346 146.289 210.468 146.991 210.713 147.419C210.957 147.846 211.308 148.06 211.766 148.06ZM223.557 157.035C222.229 157.035 221.199 156.585 220.466 155.684C219.734 154.784 219.367 153.578 219.367 152.067C219.367 151.059 219.535 150.189 219.871 149.456C220.207 148.724 220.688 148.159 221.314 147.762C221.939 147.365 222.687 147.167 223.557 147.167C224.87 147.167 225.893 147.609 226.626 148.495C227.374 149.38 227.748 150.571 227.748 152.067C227.748 153.074 227.58 153.952 227.244 154.7C226.923 155.448 226.45 156.028 225.824 156.44C225.198 156.837 224.443 157.035 223.557 157.035ZM223.557 154.814C223.863 154.814 224.115 154.723 224.313 154.539C224.527 154.356 224.687 154.059 224.794 153.646C224.916 153.234 224.977 152.708 224.977 152.067C224.977 151.105 224.847 150.418 224.588 150.006C224.344 149.579 224 149.365 223.557 149.365C223.252 149.365 222.993 149.456 222.779 149.64C222.581 149.823 222.42 150.113 222.298 150.51C222.191 150.907 222.138 151.426 222.138 152.067C222.138 153.059 222.26 153.769 222.504 154.196C222.748 154.608 223.1 154.814 223.557 154.814Z" fill="#13213C"/>
<path opacity="0.7" d="M173.024 173.582C172.87 173.582 172.748 173.537 172.658 173.447C172.568 173.35 172.524 173.219 172.524 173.057V165.754H169.776C169.629 165.754 169.516 165.713 169.434 165.632C169.353 165.551 169.312 165.445 169.312 165.315C169.312 165.176 169.353 165.07 169.434 164.997C169.516 164.924 169.629 164.887 169.776 164.887H176.285C176.431 164.887 176.545 164.924 176.627 164.997C176.708 165.07 176.749 165.176 176.749 165.315C176.749 165.453 176.708 165.563 176.627 165.644C176.545 165.717 176.431 165.754 176.285 165.754H173.537V173.057C173.537 173.219 173.492 173.35 173.403 173.447C173.321 173.537 173.195 173.582 173.024 173.582ZM177.193 173.582C177.03 173.582 176.904 173.537 176.815 173.447C176.733 173.358 176.693 173.232 176.693 173.069V167.977C176.693 167.814 176.733 167.692 176.815 167.61C176.896 167.521 177.014 167.476 177.169 167.476C177.323 167.476 177.441 167.521 177.523 167.61C177.612 167.692 177.657 167.814 177.657 167.977V168.966H177.535C177.665 168.485 177.914 168.115 178.28 167.855C178.646 167.594 179.098 167.456 179.635 167.439C179.758 167.431 179.855 167.46 179.929 167.525C180.002 167.582 180.043 167.684 180.051 167.83C180.059 167.968 180.026 168.078 179.953 168.16C179.88 168.241 179.766 168.29 179.611 168.306L179.416 168.331C178.862 168.38 178.435 168.559 178.133 168.868C177.84 169.169 177.694 169.584 177.694 170.114V173.069C177.694 173.232 177.649 173.358 177.56 173.447C177.478 173.537 177.356 173.582 177.193 173.582ZM182.878 173.606C182.471 173.606 182.104 173.529 181.779 173.374C181.461 173.211 181.209 172.991 181.022 172.715C180.834 172.438 180.741 172.129 180.741 171.787C180.741 171.347 180.851 171.001 181.071 170.749C181.298 170.496 181.669 170.317 182.182 170.211C182.703 170.105 183.411 170.053 184.307 170.053H184.856V170.7H184.319C183.659 170.7 183.138 170.732 182.756 170.797C182.381 170.854 182.117 170.956 181.962 171.103C181.815 171.249 181.742 171.457 181.742 171.726C181.742 172.059 181.856 172.332 182.084 172.544C182.32 172.755 182.638 172.861 183.037 172.861C183.362 172.861 183.647 172.784 183.891 172.629C184.144 172.475 184.339 172.263 184.478 171.994C184.624 171.726 184.697 171.416 184.697 171.066V169.674C184.697 169.169 184.596 168.807 184.392 168.587C184.189 168.359 183.855 168.245 183.391 168.245C183.106 168.245 182.821 168.282 182.536 168.355C182.251 168.428 181.95 168.546 181.632 168.709C181.518 168.766 181.421 168.787 181.339 168.77C181.258 168.746 181.193 168.701 181.144 168.636C181.095 168.571 181.066 168.498 181.058 168.416C181.05 168.327 181.066 168.241 181.107 168.16C181.156 168.078 181.229 168.013 181.327 167.964C181.685 167.785 182.039 167.655 182.389 167.574C182.739 167.492 183.073 167.452 183.391 167.452C183.904 167.452 184.327 167.537 184.661 167.708C184.994 167.871 185.243 168.123 185.406 168.465C185.568 168.799 185.65 169.23 185.65 169.759V173.069C185.65 173.232 185.609 173.358 185.528 173.447C185.454 173.537 185.345 173.582 185.198 173.582C185.043 173.582 184.925 173.537 184.844 173.447C184.762 173.358 184.722 173.232 184.722 173.069V172.116H184.832C184.767 172.426 184.64 172.69 184.453 172.91C184.274 173.13 184.05 173.301 183.781 173.423C183.513 173.545 183.212 173.606 182.878 173.606ZM187.973 173.582C187.811 173.582 187.688 173.537 187.607 173.447C187.526 173.358 187.485 173.232 187.485 173.069V167.977C187.485 167.814 187.526 167.692 187.607 167.61C187.688 167.521 187.806 167.476 187.961 167.476C188.116 167.476 188.234 167.521 188.315 167.61C188.405 167.692 188.45 167.814 188.45 167.977V169.027L188.315 168.88C188.486 168.408 188.763 168.054 189.146 167.818C189.536 167.574 189.984 167.452 190.489 167.452C190.961 167.452 191.352 167.537 191.661 167.708C191.979 167.879 192.215 168.139 192.37 168.489C192.524 168.831 192.602 169.267 192.602 169.796V173.069C192.602 173.232 192.557 173.358 192.467 173.447C192.386 173.537 192.268 173.582 192.113 173.582C191.95 173.582 191.824 173.537 191.735 173.447C191.653 173.358 191.612 173.232 191.612 173.069V169.857C191.612 169.304 191.502 168.901 191.283 168.648C191.071 168.388 190.729 168.257 190.257 168.257C189.711 168.257 189.276 168.428 188.95 168.77C188.633 169.104 188.474 169.552 188.474 170.114V173.069C188.474 173.411 188.307 173.582 187.973 173.582ZM196.428 173.606C196.062 173.606 195.691 173.561 195.317 173.472C194.951 173.382 194.609 173.228 194.291 173.008C194.21 172.951 194.153 172.886 194.12 172.812C194.088 172.731 194.075 172.654 194.084 172.58C194.1 172.499 194.132 172.43 194.181 172.373C194.238 172.316 194.303 172.283 194.377 172.275C194.458 172.259 194.548 172.275 194.645 172.324C194.963 172.519 195.268 172.658 195.561 172.739C195.862 172.812 196.159 172.849 196.453 172.849C196.917 172.849 197.267 172.764 197.503 172.593C197.739 172.422 197.857 172.19 197.857 171.897C197.857 171.669 197.78 171.489 197.625 171.359C197.47 171.221 197.226 171.115 196.892 171.042L195.781 170.797C195.268 170.692 194.885 170.508 194.633 170.248C194.389 169.987 194.267 169.65 194.267 169.234C194.267 168.868 194.36 168.555 194.548 168.294C194.743 168.025 195.016 167.818 195.366 167.671C195.716 167.525 196.123 167.452 196.587 167.452C196.945 167.452 197.283 167.5 197.6 167.598C197.926 167.688 198.219 167.834 198.48 168.038C198.561 168.095 198.614 168.164 198.638 168.245C198.671 168.319 198.675 168.396 198.651 168.477C198.634 168.551 198.598 168.616 198.541 168.673C198.484 168.722 198.415 168.75 198.333 168.758C198.252 168.766 198.166 168.742 198.077 168.685C197.832 168.522 197.584 168.404 197.332 168.331C197.079 168.249 196.831 168.209 196.587 168.209C196.131 168.209 195.785 168.298 195.549 168.477C195.313 168.656 195.195 168.892 195.195 169.186C195.195 169.414 195.268 169.601 195.415 169.747C195.561 169.894 195.789 170 196.098 170.065L197.21 170.297C197.739 170.411 198.134 170.594 198.394 170.846C198.663 171.091 198.797 171.424 198.797 171.848C198.797 172.385 198.581 172.812 198.15 173.13C197.718 173.447 197.145 173.606 196.428 173.606ZM202.173 173.606C201.766 173.606 201.4 173.529 201.074 173.374C200.756 173.211 200.504 172.991 200.317 172.715C200.13 172.438 200.036 172.129 200.036 171.787C200.036 171.347 200.146 171.001 200.366 170.749C200.594 170.496 200.964 170.317 201.477 170.211C201.998 170.105 202.706 170.053 203.602 170.053H204.151V170.7H203.614C202.955 170.7 202.433 170.732 202.051 170.797C201.676 170.854 201.412 170.956 201.257 171.103C201.111 171.249 201.037 171.457 201.037 171.726C201.037 172.059 201.151 172.332 201.379 172.544C201.615 172.755 201.933 172.861 202.332 172.861C202.657 172.861 202.942 172.784 203.187 172.629C203.439 172.475 203.634 172.263 203.773 171.994C203.919 171.726 203.992 171.416 203.992 171.066V169.674C203.992 169.169 203.891 168.807 203.687 168.587C203.484 168.359 203.15 168.245 202.686 168.245C202.401 168.245 202.116 168.282 201.831 168.355C201.546 168.428 201.245 168.546 200.927 168.709C200.813 168.766 200.716 168.787 200.634 168.77C200.553 168.746 200.488 168.701 200.439 168.636C200.39 168.571 200.362 168.498 200.353 168.416C200.345 168.327 200.362 168.241 200.402 168.16C200.451 168.078 200.524 168.013 200.622 167.964C200.98 167.785 201.334 167.655 201.685 167.574C202.035 167.492 202.368 167.452 202.686 167.452C203.199 167.452 203.622 167.537 203.956 167.708C204.29 167.871 204.538 168.123 204.701 168.465C204.864 168.799 204.945 169.23 204.945 169.759V173.069C204.945 173.232 204.904 173.358 204.823 173.447C204.75 173.537 204.64 173.582 204.493 173.582C204.338 173.582 204.22 173.537 204.139 173.447C204.058 173.358 204.017 173.232 204.017 173.069V172.116H204.127C204.062 172.426 203.935 172.69 203.748 172.91C203.569 173.13 203.345 173.301 203.077 173.423C202.808 173.545 202.507 173.606 202.173 173.606ZM209.296 173.606C208.701 173.606 208.188 173.476 207.757 173.215C207.325 172.955 206.992 172.593 206.756 172.129C206.528 171.656 206.414 171.111 206.414 170.492C206.414 170.02 206.479 169.597 206.609 169.222C206.739 168.848 206.931 168.53 207.183 168.27C207.435 168.001 207.737 167.798 208.087 167.659C208.445 167.521 208.848 167.452 209.296 167.452C209.589 167.452 209.894 167.496 210.211 167.586C210.529 167.675 210.818 167.83 211.078 168.05C211.16 168.107 211.213 168.176 211.237 168.257C211.262 168.339 211.262 168.42 211.237 168.502C211.213 168.575 211.172 168.64 211.115 168.697C211.058 168.746 210.985 168.774 210.895 168.783C210.814 168.791 210.728 168.762 210.639 168.697C210.427 168.534 210.211 168.42 209.992 168.355C209.772 168.29 209.56 168.257 209.357 168.257C209.039 168.257 208.762 168.31 208.526 168.416C208.29 168.514 208.091 168.656 207.928 168.844C207.765 169.031 207.639 169.263 207.549 169.54C207.468 169.816 207.427 170.138 207.427 170.504C207.427 171.213 207.594 171.774 207.928 172.19C208.262 172.597 208.738 172.8 209.357 172.8C209.56 172.8 209.768 172.768 209.979 172.702C210.199 172.637 210.419 172.523 210.639 172.361C210.728 172.295 210.814 172.267 210.895 172.275C210.977 172.283 211.046 172.316 211.103 172.373C211.16 172.422 211.197 172.487 211.213 172.568C211.237 172.65 211.237 172.731 211.213 172.812C211.188 172.886 211.135 172.951 211.054 173.008C210.794 173.219 210.509 173.374 210.199 173.472C209.89 173.561 209.589 173.606 209.296 173.606ZM214.814 173.606C214.35 173.606 213.959 173.525 213.642 173.362C213.332 173.191 213.1 172.947 212.946 172.629C212.791 172.304 212.714 171.909 212.714 171.445V168.331H211.895C211.757 168.331 211.651 168.298 211.578 168.233C211.505 168.16 211.468 168.062 211.468 167.94C211.468 167.818 211.505 167.724 211.578 167.659C211.651 167.594 211.757 167.561 211.895 167.561H212.714V166.157C212.714 165.994 212.758 165.872 212.848 165.791C212.937 165.701 213.059 165.656 213.214 165.656C213.369 165.656 213.487 165.701 213.568 165.791C213.658 165.872 213.703 165.994 213.703 166.157V167.561H215.241C215.38 167.561 215.486 167.594 215.559 167.659C215.632 167.724 215.669 167.818 215.669 167.94C215.669 168.062 215.632 168.16 215.559 168.233C215.486 168.298 215.38 168.331 215.241 168.331H213.703V171.347C213.703 171.811 213.8 172.165 213.996 172.409C214.191 172.645 214.509 172.764 214.948 172.764C215.103 172.764 215.233 172.747 215.339 172.715C215.453 172.682 215.547 172.666 215.62 172.666C215.693 172.658 215.754 172.682 215.803 172.739C215.852 172.796 215.876 172.894 215.876 173.032C215.876 173.13 215.856 173.219 215.815 173.301C215.783 173.382 215.722 173.439 215.632 173.472C215.534 173.504 215.404 173.533 215.241 173.557C215.087 173.59 214.944 173.606 214.814 173.606ZM217.262 173.557C217.099 173.557 216.977 173.512 216.896 173.423C216.814 173.325 216.773 173.191 216.773 173.02V168.025C216.773 167.855 216.814 167.724 216.896 167.635C216.977 167.545 217.099 167.5 217.262 167.5C217.417 167.5 217.539 167.545 217.628 167.635C217.718 167.724 217.763 167.855 217.763 168.025V173.02C217.763 173.191 217.718 173.325 217.628 173.423C217.547 173.512 217.425 173.557 217.262 173.557ZM217.262 166.133C217.058 166.133 216.9 166.08 216.786 165.974C216.672 165.86 216.615 165.709 216.615 165.522C216.615 165.327 216.672 165.18 216.786 165.082C216.9 164.977 217.058 164.924 217.262 164.924C217.474 164.924 217.632 164.977 217.738 165.082C217.852 165.18 217.909 165.327 217.909 165.522C217.909 165.709 217.852 165.86 217.738 165.974C217.632 166.08 217.474 166.133 217.262 166.133ZM222.078 173.606C221.5 173.606 221 173.48 220.576 173.228C220.153 172.975 219.823 172.621 219.587 172.165C219.359 171.701 219.245 171.156 219.245 170.529C219.245 170.057 219.31 169.633 219.441 169.259C219.571 168.876 219.762 168.551 220.015 168.282C220.267 168.013 220.564 167.81 220.906 167.671C221.256 167.525 221.647 167.452 222.078 167.452C222.656 167.452 223.157 167.578 223.58 167.83C224.004 168.082 224.329 168.441 224.557 168.905C224.793 169.361 224.911 169.902 224.911 170.529C224.911 171.001 224.846 171.424 224.716 171.799C224.586 172.173 224.395 172.499 224.142 172.776C223.89 173.044 223.589 173.252 223.238 173.399C222.897 173.537 222.51 173.606 222.078 173.606ZM222.078 172.812C222.445 172.812 222.766 172.723 223.043 172.544C223.32 172.365 223.532 172.104 223.678 171.762C223.833 171.42 223.91 171.009 223.91 170.529C223.91 169.788 223.743 169.222 223.409 168.831C223.084 168.441 222.64 168.245 222.078 168.245C221.704 168.245 221.378 168.335 221.101 168.514C220.833 168.685 220.621 168.941 220.466 169.283C220.32 169.617 220.247 170.032 220.247 170.529C220.247 171.262 220.414 171.827 220.747 172.226C221.081 172.617 221.525 172.812 222.078 172.812ZM226.886 173.582C226.723 173.582 226.601 173.537 226.519 173.447C226.438 173.358 226.397 173.232 226.397 173.069V167.977C226.397 167.814 226.438 167.692 226.519 167.61C226.601 167.521 226.719 167.476 226.873 167.476C227.028 167.476 227.146 167.521 227.228 167.61C227.317 167.692 227.362 167.814 227.362 167.977V169.027L227.228 168.88C227.399 168.408 227.675 168.054 228.058 167.818C228.449 167.574 228.896 167.452 229.401 167.452C229.873 167.452 230.264 167.537 230.573 167.708C230.891 167.879 231.127 168.139 231.282 168.489C231.436 168.831 231.514 169.267 231.514 169.796V173.069C231.514 173.232 231.469 173.358 231.379 173.447C231.298 173.537 231.18 173.582 231.025 173.582C230.863 173.582 230.736 173.537 230.647 173.447C230.565 173.358 230.525 173.232 230.525 173.069V169.857C230.525 169.304 230.415 168.901 230.195 168.648C229.983 168.388 229.641 168.257 229.169 168.257C228.624 168.257 228.188 168.428 227.863 168.77C227.545 169.104 227.386 169.552 227.386 170.114V173.069C227.386 173.411 227.219 173.582 226.886 173.582ZM235.34 173.606C234.974 173.606 234.604 173.561 234.229 173.472C233.863 173.382 233.521 173.228 233.203 173.008C233.122 172.951 233.065 172.886 233.032 172.812C233 172.731 232.988 172.654 232.996 172.58C233.012 172.499 233.045 172.43 233.093 172.373C233.15 172.316 233.216 172.283 233.289 172.275C233.37 172.259 233.46 172.275 233.557 172.324C233.875 172.519 234.18 172.658 234.473 172.739C234.775 172.812 235.072 172.849 235.365 172.849C235.829 172.849 236.179 172.764 236.415 172.593C236.651 172.422 236.769 172.19 236.769 171.897C236.769 171.669 236.692 171.489 236.537 171.359C236.382 171.221 236.138 171.115 235.804 171.042L234.693 170.797C234.18 170.692 233.798 170.508 233.545 170.248C233.301 169.987 233.179 169.65 233.179 169.234C233.179 168.868 233.273 168.555 233.46 168.294C233.655 168.025 233.928 167.818 234.278 167.671C234.628 167.525 235.035 167.452 235.499 167.452C235.857 167.452 236.195 167.5 236.513 167.598C236.838 167.688 237.131 167.834 237.392 168.038C237.473 168.095 237.526 168.164 237.551 168.245C237.583 168.319 237.587 168.396 237.563 168.477C237.547 168.551 237.51 168.616 237.453 168.673C237.396 168.722 237.327 168.75 237.245 168.758C237.164 168.766 237.078 168.742 236.989 168.685C236.745 168.522 236.496 168.404 236.244 168.331C235.992 168.249 235.743 168.209 235.499 168.209C235.043 168.209 234.697 168.298 234.461 168.477C234.225 168.656 234.107 168.892 234.107 169.186C234.107 169.414 234.18 169.601 234.327 169.747C234.473 169.894 234.701 170 235.011 170.065L236.122 170.297C236.651 170.411 237.046 170.594 237.306 170.846C237.575 171.091 237.709 171.424 237.709 171.848C237.709 172.385 237.494 172.812 237.062 173.13C236.631 173.447 236.057 173.606 235.34 173.606Z" fill="#13213C"/>
<path opacity="0.7" d="M24.1989 38.5152C23.9361 38.5152 23.7225 38.4549 23.5582 38.3344C23.4048 38.214 23.3117 38.0551 23.2789 37.858C23.246 37.6499 23.2844 37.4199 23.3939 37.1679L27.7313 27.5567C27.8737 27.239 28.0434 27.0145 28.2406 26.8831C28.4487 26.7407 28.6842 26.6695 28.9471 26.6695C29.199 26.6695 29.4235 26.7407 29.6207 26.8831C29.8288 27.0145 30.004 27.239 30.1464 27.5567L34.5002 37.1679C34.6207 37.4199 34.6645 37.6499 34.6317 37.858C34.5988 38.0661 34.5057 38.2304 34.3524 38.3509C34.199 38.4604 33.9964 38.5152 33.7445 38.5152C33.4378 38.5152 33.1968 38.444 33.0216 38.3016C32.8573 38.1482 32.7094 37.9182 32.578 37.6115L31.5101 35.1307L32.3973 35.7057H25.464L26.3512 35.1307L25.2997 37.6115C25.1573 37.9292 25.0095 38.1592 24.8561 38.3016C24.7028 38.444 24.4837 38.5152 24.1989 38.5152ZM28.9142 29.0846L26.6141 34.5556L26.1869 34.0299H31.6744L31.2636 34.5556L28.9471 29.0846H28.9142ZM37.1313 38.5152C36.8027 38.5152 36.5508 38.4275 36.3755 38.2523C36.2003 38.0661 36.1126 37.8032 36.1126 37.4637V31.2533C36.1126 30.9138 36.2003 30.6564 36.3755 30.4811C36.5508 30.3059 36.7972 30.2183 37.1149 30.2183C37.4325 30.2183 37.6789 30.3059 37.8542 30.4811C38.0294 30.6564 38.1171 30.9138 38.1171 31.2533V32.3705L37.9363 31.9598C38.1773 31.3793 38.5497 30.9411 39.0535 30.6454C39.5683 30.3387 40.1488 30.1854 40.7951 30.1854C41.4413 30.1854 41.9725 30.3059 42.3887 30.5468C42.8049 30.7878 43.1171 31.1547 43.3252 31.6476C43.5333 32.1296 43.6374 32.7429 43.6374 33.4877V37.4637C43.6374 37.8032 43.5498 38.0661 43.3745 38.2523C43.1993 38.4275 42.9473 38.5152 42.6187 38.5152C42.2902 38.5152 42.0328 38.4275 41.8466 38.2523C41.6713 38.0661 41.5837 37.8032 41.5837 37.4637V33.5863C41.5837 32.962 41.4632 32.5074 41.2222 32.2227C40.9922 31.9379 40.6308 31.7955 40.1379 31.7955C39.5355 31.7955 39.0535 31.9872 38.6921 32.3705C38.3416 32.7429 38.1663 33.2413 38.1663 33.8656V37.4637C38.1663 38.1647 37.8213 38.5152 37.1313 38.5152ZM48.3684 38.548C47.7879 38.548 47.2677 38.4385 46.8076 38.2194C46.3586 37.9894 46.0026 37.6827 45.7397 37.2994C45.4878 36.916 45.3618 36.4834 45.3618 36.0014C45.3618 35.41 45.5152 34.9445 45.8219 34.6049C46.1285 34.2544 46.6269 34.0025 47.3169 33.8492C48.007 33.6958 48.9325 33.6192 50.0935 33.6192H50.915V34.8021H50.11C49.4309 34.8021 48.8887 34.8349 48.4834 34.9007C48.0782 34.9664 47.7879 35.0814 47.6127 35.2457C47.4484 35.399 47.3662 35.6181 47.3662 35.9029C47.3662 36.2643 47.4922 36.56 47.7441 36.7901C47.996 37.0201 48.3465 37.1351 48.7956 37.1351C49.1571 37.1351 49.4747 37.0529 49.7485 36.8886C50.0333 36.7134 50.2578 36.4779 50.4221 36.1822C50.5864 35.8864 50.6686 35.5469 50.6686 35.1635V33.2741C50.6686 32.7265 50.5481 32.3322 50.3071 32.0912C50.0662 31.8503 49.6609 31.7298 49.0913 31.7298C48.7737 31.7298 48.4287 31.7681 48.0563 31.8448C47.6948 31.9214 47.3115 32.0529 46.9062 32.2391C46.6981 32.3377 46.5119 32.365 46.3476 32.3212C46.1943 32.2774 46.0738 32.1898 45.9862 32.0584C45.8985 31.916 45.8547 31.7626 45.8547 31.5983C45.8547 31.434 45.8985 31.2752 45.9862 31.1219C46.0738 30.9576 46.2216 30.8371 46.4298 30.7604C46.9336 30.5523 47.4155 30.4045 47.8756 30.3168C48.3465 30.2292 48.7737 30.1854 49.1571 30.1854C49.9457 30.1854 50.5919 30.3059 51.0957 30.5468C51.6105 30.7878 51.9939 31.1547 52.2458 31.6476C52.4977 32.1296 52.6237 32.7539 52.6237 33.5206V37.4637C52.6237 37.8032 52.5415 38.0661 52.3772 38.2523C52.2129 38.4275 51.9775 38.5152 51.6708 38.5152C51.3641 38.5152 51.1231 38.4275 50.9479 38.2523C50.7836 38.0661 50.7014 37.8032 50.7014 37.4637V36.6751H50.8329C50.7562 37.0584 50.6029 37.3925 50.3728 37.6773C50.1538 37.9511 49.8745 38.1647 49.5349 38.318C49.1954 38.4714 48.8066 38.548 48.3684 38.548ZM57.4519 38.548C56.5428 38.548 55.8582 38.2906 55.3982 37.7758C54.9382 37.2501 54.7082 36.4834 54.7082 35.4757V27.7045C54.7082 27.365 54.7958 27.1076 54.9711 26.9323C55.1463 26.7571 55.3982 26.6695 55.7268 26.6695C56.0554 26.6695 56.3073 26.7571 56.4826 26.9323C56.6688 27.1076 56.7619 27.365 56.7619 27.7045V35.3771C56.7619 35.881 56.8659 36.2534 57.074 36.4943C57.2931 36.7353 57.5998 36.8558 57.9941 36.8558C58.0817 36.8558 58.1639 36.8558 58.2405 36.8558C58.3172 36.8448 58.3939 36.8339 58.4705 36.8229C58.6239 36.801 58.7279 36.8448 58.7827 36.9544C58.8375 37.0529 58.8649 37.261 58.8649 37.5787C58.8649 37.8525 58.8101 38.0661 58.7006 38.2194C58.591 38.3728 58.4103 38.4659 58.1584 38.4987C58.0489 38.5097 57.9338 38.5206 57.8134 38.5316C57.6929 38.5425 57.5724 38.548 57.4519 38.548ZM61.7834 41.4725C61.5424 41.4725 61.3453 41.4068 61.1919 41.2753C61.0386 41.1548 60.9455 40.9905 60.9126 40.7824C60.8907 40.5743 60.9291 40.3553 61.0276 40.1253L62.1449 37.6444V38.4987L59.1547 31.5819C59.0561 31.3409 59.0232 31.1164 59.0561 30.9083C59.089 30.7002 59.1875 30.5359 59.3518 30.4154C59.5271 30.284 59.7626 30.2183 60.0583 30.2183C60.3102 30.2183 60.5129 30.2785 60.6662 30.399C60.8195 30.5085 60.9565 30.7221 61.0769 31.0397L63.2949 36.5765H62.802L65.0693 31.0233C65.1898 30.7166 65.3322 30.5085 65.4965 30.399C65.6608 30.2785 65.8798 30.2183 66.1537 30.2183C66.3946 30.2183 66.5863 30.284 66.7287 30.4154C66.8711 30.5359 66.9587 30.7002 66.9916 30.9083C67.0244 31.1054 66.9861 31.3245 66.8766 31.5655L62.8842 40.6839C62.7418 40.9905 62.5885 41.1987 62.4242 41.3082C62.2599 41.4177 62.0463 41.4725 61.7834 41.4725ZM72.315 38.548C71.603 38.548 71.0061 38.4275 70.5242 38.1866C70.0532 37.9456 69.7027 37.5951 69.4727 37.1351C69.2427 36.6641 69.1277 36.0836 69.1277 35.3936V31.8941H68.2733C68.0105 31.8941 67.8078 31.8283 67.6654 31.6969C67.523 31.5545 67.4518 31.3628 67.4518 31.1219C67.4518 30.87 67.523 30.6783 67.6654 30.5468C67.8078 30.4154 68.0105 30.3497 68.2733 30.3497H69.1277V28.8546C69.1277 28.5151 69.2153 28.2577 69.3905 28.0824C69.5767 27.9072 69.8341 27.8195 70.1627 27.8195C70.4913 27.8195 70.7432 27.9072 70.9185 28.0824C71.0937 28.2577 71.1814 28.5151 71.1814 28.8546V30.3497H72.9229C73.1858 30.3497 73.3884 30.4154 73.5308 30.5468C73.6732 30.6783 73.7444 30.87 73.7444 31.1219C73.7444 31.3628 73.6732 31.5545 73.5308 31.6969C73.3884 31.8283 73.1858 31.8941 72.9229 31.8941H71.1814V35.2785C71.1814 35.8043 71.2964 36.1986 71.5264 36.4615C71.7564 36.7243 72.1288 36.8558 72.6436 36.8558C72.8298 36.8558 72.9941 36.8394 73.1365 36.8065C73.2789 36.7736 73.4048 36.7517 73.5143 36.7408C73.6458 36.7298 73.7553 36.7736 73.8429 36.8722C73.9306 36.9598 73.9744 37.146 73.9744 37.4308C73.9744 37.6499 73.936 37.847 73.8594 38.0223C73.7936 38.1866 73.6677 38.3016 73.4815 38.3673C73.3391 38.4111 73.1529 38.4494 72.9229 38.4823C72.6929 38.5261 72.4902 38.548 72.315 38.548ZM76.1675 38.4987C75.8389 38.4987 75.587 38.4002 75.4117 38.203C75.2365 38.0058 75.1488 37.732 75.1488 37.3815V31.3519C75.1488 30.9904 75.2365 30.7166 75.4117 30.5304C75.587 30.3333 75.8389 30.2347 76.1675 30.2347C76.4961 30.2347 76.748 30.3333 76.9232 30.5304C77.1094 30.7166 77.2025 30.9904 77.2025 31.3519V37.3815C77.2025 37.732 77.1149 38.0058 76.9396 38.203C76.7644 38.4002 76.507 38.4987 76.1675 38.4987ZM76.1675 28.7067C75.7841 28.7067 75.4829 28.6136 75.2638 28.4274C75.0557 28.2303 74.9517 27.9619 74.9517 27.6224C74.9517 27.2719 75.0557 27.0035 75.2638 26.8173C75.4829 26.6311 75.7841 26.538 76.1675 26.538C76.5618 26.538 76.863 26.6311 77.0711 26.8173C77.2792 27.0035 77.3832 27.2719 77.3832 27.6224C77.3832 27.9619 77.2792 28.2303 77.0711 28.4274C76.863 28.6136 76.5618 28.7067 76.1675 28.7067ZM83.0495 38.548C82.2061 38.548 81.4723 38.3783 80.8479 38.0387C80.2236 37.6882 79.7417 37.1953 79.4022 36.56C79.0626 35.9248 78.8928 35.18 78.8928 34.3256C78.8928 33.6794 78.9859 33.1044 79.1721 32.6005C79.3693 32.0857 79.6486 31.6531 80.01 31.3026C80.3715 30.9412 80.8096 30.6673 81.3244 30.4811C81.8392 30.284 82.4142 30.1854 83.0495 30.1854C83.411 30.1854 83.7998 30.2347 84.216 30.3333C84.6432 30.4318 85.043 30.5961 85.4154 30.8261C85.5906 30.9357 85.7056 31.0671 85.7604 31.2205C85.8151 31.3738 85.8261 31.5326 85.7932 31.6969C85.7604 31.8503 85.6892 31.9872 85.5797 32.1076C85.4811 32.2172 85.3551 32.2884 85.2018 32.3212C85.0484 32.3431 84.8787 32.3048 84.6925 32.2062C84.4515 32.0638 84.2051 31.9598 83.9531 31.8941C83.7012 31.8174 83.4602 31.7791 83.2302 31.7791C82.8688 31.7791 82.5511 31.8393 82.2773 31.9598C82.0035 32.0693 81.768 32.2336 81.5708 32.4527C81.3846 32.6608 81.2423 32.9236 81.1437 33.2413C81.0451 33.5589 80.9958 33.9258 80.9958 34.3421C80.9958 35.1526 81.1875 35.7933 81.5708 36.2643C81.9652 36.7243 82.5183 36.9544 83.2302 36.9544C83.4602 36.9544 83.6957 36.9215 83.9367 36.8558C84.1886 36.7901 84.4405 36.686 84.6925 36.5436C84.8787 36.445 85.043 36.4122 85.1853 36.445C85.3387 36.4779 85.4646 36.5546 85.5632 36.6751C85.6618 36.7846 85.722 36.9215 85.7439 37.0858C85.7659 37.2391 85.7439 37.3925 85.6782 37.5458C85.6235 37.6992 85.5139 37.8251 85.3496 37.9237C84.9882 38.1428 84.6048 38.3016 84.1996 38.4002C83.7943 38.4987 83.411 38.548 83.0495 38.548ZM90.0268 38.548C89.5558 38.548 89.0575 38.4987 88.5317 38.4002C88.006 38.3016 87.535 38.1318 87.1188 37.8908C86.9435 37.7813 86.8176 37.6554 86.7409 37.513C86.6752 37.3596 86.6478 37.2118 86.6587 37.0694C86.6806 36.916 86.7354 36.7846 86.823 36.6751C86.9216 36.5655 87.0421 36.4943 87.1845 36.4615C87.3378 36.4286 87.5021 36.456 87.6774 36.5436C88.1155 36.7517 88.5262 36.8996 88.9096 36.9872C89.2929 37.0639 89.6708 37.1022 90.0432 37.1022C90.569 37.1022 90.9578 37.0146 91.2097 36.8394C91.4726 36.6532 91.604 36.4122 91.604 36.1165C91.604 35.8645 91.5164 35.6729 91.3412 35.5414C91.1769 35.399 90.9249 35.295 90.5854 35.2293L88.9424 34.9171C88.2634 34.7857 87.7431 34.5392 87.3816 34.1778C87.0311 33.8054 86.8559 33.3289 86.8559 32.7484C86.8559 32.2227 86.9983 31.7681 87.2831 31.3847C87.5788 31.0014 87.9841 30.7057 88.4988 30.4976C89.0136 30.2894 89.6051 30.1854 90.2732 30.1854C90.7552 30.1854 91.2042 30.2402 91.6205 30.3497C92.0476 30.4483 92.4584 30.6071 92.8527 30.8261C93.017 30.9138 93.1265 31.0288 93.1813 31.1712C93.247 31.3136 93.2634 31.4614 93.2306 31.6148C93.1977 31.7572 93.132 31.8886 93.0334 32.0091C92.9348 32.1186 92.8089 32.1898 92.6555 32.2227C92.5131 32.2446 92.3488 32.2117 92.1626 32.1241C91.8231 31.9488 91.4945 31.8229 91.1769 31.7462C90.8702 31.6695 90.5744 31.6312 90.2897 31.6312C89.753 31.6312 89.3532 31.7243 89.0903 31.9105C88.8384 32.0967 88.7124 32.3431 88.7124 32.6498C88.7124 32.8798 88.7891 33.0715 88.9424 33.2249C89.0958 33.3782 89.3313 33.4823 89.6489 33.537L91.2919 33.8492C92.0038 33.9806 92.5405 34.2216 92.902 34.5721C93.2744 34.9226 93.4606 35.3936 93.4606 35.985C93.4606 36.7846 93.1484 37.4144 92.5241 37.8744C91.8998 38.3235 91.0673 38.548 90.0268 38.548Z" fill="#13213C"/>
<g opacity="0.3">
<path d="M384.713 32.4353C384.09 31.8115 383.078 31.8115 382.454 32.4353C381.831 33.0591 381.831 34.0705 382.454 34.6943C383.078 35.3181 384.09 35.3181 384.713 34.6943C385.337 34.0705 385.337 33.0591 384.713 32.4353Z" fill="#13213C"/>
<path d="M379.921 32.4353C379.298 31.8115 378.286 31.8115 377.662 32.4353C377.039 33.0591 377.039 34.0705 377.662 34.6943C378.286 35.3181 379.298 35.3181 379.921 34.6943C380.545 34.0705 380.545 33.0591 379.921 32.4353Z" fill="#13213C"/>
<path d="M375.13 32.4353C374.506 31.8115 373.495 31.8115 372.871 32.4353C372.247 33.0591 372.247 34.0705 372.871 34.6943C373.495 35.3181 374.506 35.3181 375.13 34.6943C375.754 34.0705 375.754 33.0591 375.13 32.4353Z" fill="#13213C"/>
</g>
<defs>
<filter id="filter0_d_390_10192" x="201.404" y="74.5549" width="88.5335" height="146.328" filterUnits="userSpaceOnUse" color-interpolation-filters="sRGB">
<feFlood flood-opacity="0" result="BackgroundImageFix"/>
<feColorMatrix in="SourceAlpha" type="matrix" values="0 0 0 0 0 0 0 0 0 0 0 0 0 0 0 0 0 0 127 0" result="hardAlpha"/>
<feOffset dy="3.05288"/>
<feGaussianBlur stdDeviation="1.52644"/>
<feColorMatrix type="matrix" values="0 0 0 0 0.356863 0 0 0 0 0.576471 0 0 0 0 1 0 0 0 0.24 0"/>
<feBlend mode="normal" in2="BackgroundImageFix" result="effect1_dropShadow_390_10192"/>
<feBlend mode="normal" in="SourceGraphic" in2="effect1_dropShadow_390_10192" result="shape"/>
</filter>
</defs>
</svg>
