<svg width="292" height="476" viewBox="0 0 292 476" fill="none" xmlns="http://www.w3.org/2000/svg">
<g clip-path="url(#clip0_390_10103)">
<rect width="292" height="475.852" rx="10" fill="white"/>
<path d="M54.4406 323.623C54.4406 325.589 52.8469 327.183 50.8809 327.183C48.915 327.183 47.3213 325.589 47.3213 323.623C47.3213 321.657 48.915 320.063 50.8809 320.063C52.8469 320.063 54.4406 321.657 54.4406 323.623Z" fill="#1E5661"/>
<path d="M68.4236 318.268H69.6776V325.124C69.6776 325.832 69.5107 326.464 69.177 327.02C68.8467 327.573 68.3798 328.009 67.7764 328.33C67.1731 328.647 66.4652 328.805 65.6528 328.805C64.8404 328.805 64.1325 328.647 63.5292 328.33C62.9258 328.009 62.4572 327.573 62.1235 327.02C61.7932 326.464 61.628 325.832 61.628 325.124V318.268H62.8819V325.023C62.8819 325.529 62.9932 325.979 63.2157 326.373C63.4381 326.764 63.755 327.072 64.1662 327.298C64.5809 327.521 65.0764 327.632 65.6528 327.632C66.2292 327.632 66.7247 327.521 67.1393 327.298C67.554 327.072 67.8708 326.764 68.0899 326.373C68.3124 325.979 68.4236 325.529 68.4236 325.023V318.268ZM73.2132 323.951V328.623H72.0199V320.857H73.1728V322.07H73.2739C73.4559 321.676 73.7323 321.359 74.1031 321.119C74.4739 320.877 74.9526 320.755 75.5391 320.755C76.065 320.755 76.5251 320.863 76.9195 321.079C77.3139 321.291 77.6206 321.615 77.8397 322.05C78.0588 322.481 78.1684 323.027 78.1684 323.688V328.623H76.9751V323.769C76.9751 323.159 76.8167 322.684 76.4998 322.343C76.183 321.999 75.7481 321.827 75.1953 321.827C74.8144 321.827 74.4739 321.91 74.1739 322.075C73.8773 322.24 73.643 322.481 73.4711 322.798C73.2992 323.115 73.2132 323.499 73.2132 323.951ZM80.3489 328.623V320.857H81.5422V328.623H80.3489ZM80.9557 319.562C80.7231 319.562 80.5225 319.483 80.354 319.324C80.1888 319.166 80.1062 318.976 80.1062 318.753C80.1062 318.531 80.1888 318.34 80.354 318.182C80.5225 318.023 80.7231 317.944 80.9557 317.944C81.1883 317.944 81.3871 318.023 81.5523 318.182C81.7209 318.34 81.8051 318.531 81.8051 318.753C81.8051 318.976 81.7209 319.166 81.5523 319.324C81.3871 319.483 81.1883 319.562 80.9557 319.562ZM87.1054 320.857V321.868H83.0806V320.857H87.1054ZM84.2536 318.996H85.4469V326.398C85.4469 326.735 85.4958 326.988 85.5936 327.157C85.6947 327.322 85.8228 327.433 85.9778 327.49C86.1363 327.544 86.3031 327.571 86.4784 327.571C86.6099 327.571 86.7177 327.565 86.802 327.551C86.8863 327.534 86.9537 327.521 87.0043 327.511L87.247 328.583C87.1661 328.613 87.0531 328.643 86.9082 328.674C86.7632 328.707 86.5795 328.724 86.3571 328.724C86.02 328.724 85.6896 328.652 85.366 328.507C85.0458 328.362 84.7795 328.141 84.5671 327.844C84.3581 327.548 84.2536 327.174 84.2536 326.722V318.996ZM92.0732 328.785C91.3249 328.785 90.6793 328.62 90.1366 328.289C89.5973 327.956 89.181 327.49 88.8877 326.894C88.5978 326.294 88.4529 325.596 88.4529 324.8C88.4529 324.005 88.5978 323.304 88.8877 322.697C89.181 322.087 89.5889 321.612 90.1114 321.271C90.6372 320.927 91.2507 320.755 91.9518 320.755C92.3564 320.755 92.7558 320.823 93.1502 320.958C93.5446 321.092 93.9036 321.312 94.2272 321.615C94.5508 321.915 94.8087 322.313 95.0008 322.808C95.1929 323.304 95.289 323.914 95.289 324.639V325.144H89.3023V324.113H94.0755C94.0755 323.675 93.9878 323.284 93.8126 322.94C93.6407 322.596 93.3946 322.325 93.0743 322.126C92.7575 321.927 92.3833 321.827 91.9518 321.827C91.4766 321.827 91.0653 321.945 90.7181 322.181C90.3743 322.414 90.1097 322.717 89.9243 323.091C89.7389 323.466 89.6462 323.867 89.6462 324.295V324.982C89.6462 325.569 89.7473 326.066 89.9496 326.474C90.1552 326.879 90.44 327.187 90.8041 327.399C91.1681 327.608 91.5912 327.713 92.0732 327.713C92.3867 327.713 92.6698 327.669 92.9227 327.581C93.1788 327.49 93.3996 327.356 93.585 327.177C93.7704 326.995 93.9137 326.769 94.0148 326.499L95.1677 326.823C95.0463 327.214 94.8424 327.558 94.5558 327.854C94.2693 328.148 93.9154 328.377 93.494 328.542C93.0727 328.704 92.5991 328.785 92.0732 328.785ZM100.037 328.785C99.3897 328.785 98.8183 328.621 98.3228 328.294C97.8273 327.964 97.4396 327.499 97.1598 326.899C96.8801 326.295 96.7402 325.582 96.7402 324.76C96.7402 323.944 96.8801 323.236 97.1598 322.636C97.4396 322.036 97.8289 321.573 98.3278 321.246C98.8267 320.919 99.4031 320.755 100.057 320.755C100.563 320.755 100.962 320.84 101.255 321.008C101.552 321.173 101.778 321.362 101.933 321.575C102.091 321.784 102.214 321.955 102.302 322.09H102.403V318.268H103.596V328.623H102.444V327.43H102.302C102.214 327.571 102.09 327.75 101.928 327.966C101.766 328.178 101.535 328.368 101.235 328.537C100.935 328.702 100.536 328.785 100.037 328.785ZM100.199 327.713C100.677 327.713 101.082 327.588 101.412 327.339C101.743 327.086 101.994 326.737 102.166 326.292C102.337 325.844 102.423 325.326 102.423 324.74C102.423 324.16 102.339 323.653 102.171 323.218C102.002 322.78 101.753 322.439 101.422 322.196C101.092 321.95 100.684 321.827 100.199 321.827C99.693 321.827 99.2717 321.957 98.9346 322.217C98.6009 322.473 98.3497 322.822 98.1812 323.263C98.016 323.702 97.9334 324.194 97.9334 324.74C97.9334 325.293 98.0177 325.795 98.1863 326.247C98.3582 326.695 98.611 327.052 98.9447 327.318C99.2818 327.581 99.6998 327.713 100.199 327.713ZM115.777 320.857C115.716 320.344 115.47 319.946 115.039 319.663C114.607 319.38 114.078 319.239 113.451 319.239C112.993 319.239 112.592 319.313 112.248 319.461C111.907 319.609 111.641 319.813 111.449 320.073C111.26 320.332 111.166 320.627 111.166 320.958C111.166 321.234 111.232 321.472 111.363 321.671C111.498 321.866 111.67 322.03 111.879 322.161C112.088 322.289 112.307 322.395 112.536 322.48C112.765 322.56 112.976 322.626 113.168 322.677L114.22 322.96C114.489 323.031 114.789 323.128 115.12 323.253C115.454 323.378 115.772 323.548 116.075 323.764C116.382 323.976 116.635 324.249 116.834 324.583C117.033 324.917 117.132 325.326 117.132 325.812C117.132 326.371 116.986 326.877 116.692 327.329C116.402 327.78 115.978 328.139 115.418 328.406C114.862 328.672 114.186 328.805 113.391 328.805C112.649 328.805 112.007 328.685 111.464 328.446C110.925 328.207 110.5 327.873 110.19 327.445C109.883 327.017 109.71 326.52 109.669 325.953H110.964C110.997 326.344 111.129 326.668 111.358 326.924C111.59 327.177 111.884 327.366 112.238 327.49C112.595 327.612 112.979 327.672 113.391 327.672C113.869 327.672 114.299 327.595 114.68 327.44C115.061 327.281 115.362 327.062 115.585 326.782C115.807 326.499 115.919 326.169 115.919 325.791C115.919 325.448 115.823 325.168 115.63 324.952C115.438 324.736 115.186 324.561 114.872 324.426C114.559 324.291 114.22 324.173 113.856 324.072L112.582 323.708C111.773 323.476 111.132 323.144 110.66 322.712C110.188 322.281 109.952 321.716 109.952 321.018C109.952 320.439 110.109 319.933 110.422 319.501C110.739 319.067 111.164 318.73 111.697 318.49C112.233 318.247 112.831 318.126 113.492 318.126C114.159 318.126 114.752 318.246 115.271 318.485C115.791 318.721 116.202 319.045 116.505 319.456C116.812 319.867 116.974 320.334 116.991 320.857H115.777ZM122.41 320.857V321.868H118.385V320.857H122.41ZM119.558 318.996H120.751V326.398C120.751 326.735 120.8 326.988 120.898 327.157C120.999 327.322 121.127 327.433 121.282 327.49C121.441 327.544 121.607 327.571 121.783 327.571C121.914 327.571 122.022 327.565 122.106 327.551C122.191 327.534 122.258 327.521 122.309 327.511L122.551 328.583C122.47 328.613 122.357 328.643 122.213 328.674C122.068 328.707 121.884 328.724 121.661 328.724C121.324 328.724 120.994 328.652 120.67 328.507C120.35 328.362 120.084 328.141 119.871 327.844C119.662 327.548 119.558 327.174 119.558 326.722V318.996ZM127.054 328.785C126.407 328.785 125.835 328.621 125.34 328.294C124.844 327.964 124.457 327.499 124.177 326.899C123.897 326.295 123.757 325.582 123.757 324.76C123.757 323.944 123.897 323.236 124.177 322.636C124.457 322.036 124.846 321.573 125.345 321.246C125.844 320.919 126.42 320.755 127.074 320.755C127.58 320.755 127.979 320.84 128.272 321.008C128.569 321.173 128.795 321.362 128.95 321.575C129.108 321.784 129.231 321.955 129.319 322.09H129.42V320.857H130.614V328.623H129.461V327.43H129.319C129.231 327.571 129.107 327.75 128.945 327.966C128.783 328.178 128.552 328.368 128.252 328.537C127.952 328.702 127.553 328.785 127.054 328.785ZM127.216 327.713C127.694 327.713 128.099 327.588 128.429 327.339C128.76 327.086 129.011 326.737 129.183 326.292C129.355 325.844 129.44 325.326 129.44 324.74C129.44 324.16 129.356 323.653 129.188 323.218C129.019 322.78 128.77 322.439 128.439 322.196C128.109 321.95 127.701 321.827 127.216 321.827C126.71 321.827 126.289 321.957 125.952 322.217C125.618 322.473 125.367 322.822 125.198 323.263C125.033 323.702 124.95 324.194 124.95 324.74C124.95 325.293 125.035 325.795 125.203 326.247C125.375 326.695 125.628 327.052 125.962 327.318C126.299 327.581 126.717 327.713 127.216 327.713ZM136.342 320.857V321.868H132.318V320.857H136.342ZM133.491 318.996H134.684V326.398C134.684 326.735 134.733 326.988 134.83 327.157C134.932 327.322 135.06 327.433 135.215 327.49C135.373 327.544 135.54 327.571 135.715 327.571C135.847 327.571 135.955 327.565 136.039 327.551C136.123 327.534 136.191 327.521 136.241 327.511L136.484 328.583C136.403 328.613 136.29 328.643 136.145 328.674C136 328.707 135.816 328.724 135.594 328.724C135.257 328.724 134.927 328.652 134.603 328.507C134.283 328.362 134.016 328.141 133.804 327.844C133.595 327.548 133.491 327.174 133.491 326.722V318.996ZM141.31 328.785C140.562 328.785 139.916 328.62 139.374 328.289C138.834 327.956 138.418 327.49 138.125 326.894C137.835 326.294 137.69 325.596 137.69 324.8C137.69 324.005 137.835 323.304 138.125 322.697C138.418 322.087 138.826 321.612 139.348 321.271C139.874 320.927 140.488 320.755 141.189 320.755C141.593 320.755 141.993 320.823 142.387 320.958C142.782 321.092 143.141 321.312 143.464 321.615C143.788 321.915 144.046 322.313 144.238 322.808C144.43 323.304 144.526 323.914 144.526 324.639V325.144H138.539V324.113H143.312C143.312 323.675 143.225 323.284 143.05 322.94C142.878 322.596 142.632 322.325 142.311 322.126C141.994 321.927 141.62 321.827 141.189 321.827C140.713 321.827 140.302 321.945 139.955 322.181C139.611 322.414 139.347 322.717 139.161 323.091C138.976 323.466 138.883 323.867 138.883 324.295V324.982C138.883 325.569 138.984 326.066 139.186 326.474C139.392 326.879 139.677 327.187 140.041 327.399C140.405 327.608 140.828 327.713 141.31 327.713C141.624 327.713 141.907 327.669 142.16 327.581C142.416 327.49 142.637 327.356 142.822 327.177C143.007 326.995 143.151 326.769 143.252 326.499L144.405 326.823C144.283 327.214 144.079 327.558 143.793 327.854C143.506 328.148 143.152 328.377 142.731 328.542C142.31 328.704 141.836 328.785 141.31 328.785ZM151.842 322.596L150.77 322.899C150.703 322.721 150.604 322.547 150.472 322.378C150.344 322.207 150.169 322.065 149.946 321.954C149.724 321.842 149.439 321.787 149.092 321.787C148.616 321.787 148.22 321.896 147.904 322.116C147.59 322.331 147.433 322.606 147.433 322.94C147.433 323.236 147.541 323.471 147.757 323.643C147.973 323.814 148.31 323.958 148.768 324.072L149.921 324.355C150.615 324.524 151.133 324.782 151.473 325.129C151.814 325.473 151.984 325.916 151.984 326.459C151.984 326.904 151.856 327.302 151.6 327.652C151.347 328.003 150.993 328.279 150.538 328.481C150.083 328.684 149.554 328.785 148.95 328.785C148.158 328.785 147.502 328.613 146.983 328.269C146.464 327.925 146.136 327.423 145.997 326.762L147.13 326.479C147.238 326.897 147.442 327.211 147.742 327.42C148.045 327.629 148.441 327.733 148.93 327.733C149.486 327.733 149.928 327.615 150.255 327.379C150.585 327.14 150.75 326.853 150.75 326.52C150.75 326.25 150.656 326.024 150.467 325.842C150.278 325.657 149.988 325.518 149.597 325.427L148.303 325.124C147.592 324.955 147.069 324.694 146.736 324.34C146.405 323.983 146.24 323.536 146.24 323C146.24 322.562 146.363 322.175 146.609 321.837C146.859 321.5 147.197 321.236 147.625 321.044C148.057 320.851 148.546 320.755 149.092 320.755C149.86 320.755 150.464 320.924 150.902 321.261C151.344 321.598 151.657 322.043 151.842 322.596Z" fill="#13213C"/>
<path d="M213.877 326.034H215.152C215.189 326.385 215.308 326.681 215.511 326.924C215.716 327.163 215.983 327.345 216.309 327.47C216.636 327.592 216.999 327.652 217.397 327.652C217.828 327.652 218.216 327.58 218.56 327.435C218.903 327.29 219.176 327.074 219.379 326.788C219.581 326.498 219.682 326.139 219.682 325.711C219.682 325.336 219.594 324.989 219.419 324.669C219.244 324.345 218.962 324.084 218.575 323.885C218.187 323.686 217.673 323.587 217.033 323.587H216.203V322.576L218.792 319.461V319.38H214.383V318.268H220.511V319.178L217.74 322.535V322.616C218.185 322.636 218.6 322.727 218.984 322.889C219.372 323.051 219.709 323.27 219.996 323.547C220.285 323.823 220.511 324.145 220.673 324.512C220.835 324.88 220.916 325.279 220.916 325.711C220.916 326.301 220.764 326.826 220.461 327.288C220.161 327.747 219.744 328.107 219.212 328.37C218.683 328.633 218.071 328.765 217.376 328.765C216.763 328.765 216.198 328.657 215.683 328.441C215.167 328.225 214.747 327.913 214.423 327.506C214.1 327.098 213.918 326.607 213.877 326.034ZM226.297 328.765C225.603 328.765 224.989 328.642 224.456 328.396C223.927 328.146 223.514 327.804 223.218 327.369C222.921 326.931 222.774 326.432 222.778 325.872C222.774 325.434 222.86 325.03 223.036 324.659C223.211 324.285 223.45 323.973 223.754 323.723C224.06 323.471 224.403 323.311 224.78 323.243V323.182C224.285 323.054 223.89 322.776 223.597 322.348C223.304 321.917 223.159 321.426 223.162 320.877C223.159 320.351 223.292 319.881 223.561 319.466C223.831 319.051 224.202 318.725 224.674 318.485C225.149 318.246 225.69 318.126 226.297 318.126C226.897 318.126 227.433 318.246 227.905 318.485C228.377 318.725 228.748 319.051 229.017 319.466C229.29 319.881 229.428 320.351 229.432 320.877C229.428 321.426 229.278 321.917 228.982 322.348C228.689 322.776 228.299 323.054 227.814 323.182V323.243C228.188 323.311 228.525 323.471 228.825 323.723C229.125 323.973 229.364 324.285 229.543 324.659C229.722 325.03 229.813 325.434 229.816 325.872C229.813 326.432 229.661 326.931 229.361 327.369C229.064 327.804 228.651 328.146 228.122 328.396C227.596 328.642 226.988 328.765 226.297 328.765ZM226.297 327.652C226.765 327.652 227.17 327.576 227.51 327.425C227.851 327.273 228.114 327.059 228.299 326.783C228.485 326.506 228.579 326.183 228.582 325.812C228.579 325.421 228.478 325.075 228.279 324.775C228.08 324.475 227.809 324.239 227.465 324.067C227.124 323.895 226.735 323.809 226.297 323.809C225.855 323.809 225.461 323.895 225.114 324.067C224.77 324.239 224.499 324.475 224.3 324.775C224.104 325.075 224.008 325.421 224.011 325.812C224.008 326.183 224.097 326.506 224.279 326.783C224.465 327.059 224.729 327.273 225.073 327.425C225.417 327.576 225.825 327.652 226.297 327.652ZM226.297 322.738C226.668 322.738 226.996 322.663 227.283 322.515C227.573 322.367 227.8 322.159 227.966 321.893C228.131 321.627 228.215 321.315 228.218 320.958C228.215 320.607 228.132 320.302 227.971 320.043C227.809 319.78 227.585 319.577 227.298 319.436C227.012 319.291 226.678 319.218 226.297 319.218C225.909 319.218 225.571 319.291 225.281 319.436C224.991 319.577 224.767 319.78 224.608 320.043C224.45 320.302 224.372 320.607 224.376 320.958C224.372 321.315 224.451 321.627 224.613 321.893C224.778 322.159 225.006 322.367 225.296 322.515C225.586 322.663 225.919 322.738 226.297 322.738ZM232.324 328.704C232.075 328.704 231.861 328.615 231.682 328.436C231.503 328.257 231.414 328.043 231.414 327.794C231.414 327.544 231.503 327.33 231.682 327.152C231.861 326.973 232.075 326.884 232.324 326.884C232.573 326.884 232.788 326.973 232.966 327.152C233.145 327.33 233.234 327.544 233.234 327.794C233.234 327.959 233.192 328.111 233.108 328.249C233.027 328.387 232.917 328.498 232.779 328.583C232.644 328.663 232.493 328.704 232.324 328.704ZM235.113 325.347C235.119 325.023 235.168 324.688 235.259 324.34C235.35 323.993 235.504 323.607 235.719 323.182C235.935 322.758 236.232 322.266 236.609 321.706L238.935 318.268H240.31L237.58 322.252C237.701 322.212 237.826 322.178 237.954 322.151C238.086 322.124 238.217 322.111 238.349 322.111C238.976 322.111 239.535 322.255 240.027 322.545C240.523 322.835 240.912 323.231 241.195 323.734C241.482 324.236 241.625 324.807 241.625 325.448C241.625 326.088 241.484 326.658 241.2 327.157C240.921 327.656 240.535 328.048 240.042 328.335C239.554 328.621 238.996 328.765 238.369 328.765C237.735 328.765 237.172 328.618 236.68 328.325C236.188 328.028 235.802 327.624 235.522 327.111C235.242 326.595 235.106 326.007 235.113 325.347ZM236.306 325.427C236.306 325.866 236.394 326.253 236.569 326.59C236.744 326.928 236.987 327.192 237.297 327.384C237.607 327.576 237.964 327.672 238.369 327.672C238.773 327.672 239.131 327.578 239.441 327.389C239.751 327.197 239.994 326.934 240.169 326.601C240.344 326.263 240.432 325.879 240.432 325.448C240.432 325.009 240.344 324.624 240.169 324.29C239.994 323.956 239.751 323.695 239.441 323.506C239.131 323.317 238.773 323.223 238.369 323.223C237.964 323.223 237.607 323.317 237.297 323.506C236.987 323.691 236.744 323.951 236.569 324.285C236.394 324.615 236.306 324.996 236.306 325.427ZM248.81 326.681V326.135C248.81 325.758 248.888 325.412 249.043 325.099C249.201 324.782 249.43 324.529 249.73 324.34C250.034 324.148 250.401 324.052 250.833 324.052C251.271 324.052 251.638 324.148 251.935 324.34C252.232 324.529 252.456 324.782 252.607 325.099C252.759 325.412 252.835 325.758 252.835 326.135V326.681C252.835 327.059 252.757 327.406 252.602 327.723C252.451 328.037 252.225 328.289 251.925 328.481C251.628 328.67 251.264 328.765 250.833 328.765C250.394 328.765 250.025 328.67 249.725 328.481C249.425 328.289 249.198 328.037 249.043 327.723C248.888 327.406 248.81 327.059 248.81 326.681ZM249.842 326.135V326.681C249.842 326.995 249.916 327.276 250.064 327.526C250.212 327.772 250.469 327.895 250.833 327.895C251.187 327.895 251.436 327.772 251.581 327.526C251.729 327.276 251.803 326.995 251.803 326.681V326.135C251.803 325.822 251.733 325.542 251.591 325.296C251.449 325.047 251.197 324.922 250.833 324.922C250.479 324.922 250.224 325.047 250.069 325.296C249.917 325.542 249.842 325.822 249.842 326.135ZM243.653 320.755V320.209C243.653 319.832 243.73 319.486 243.885 319.173C244.044 318.856 244.273 318.603 244.573 318.414C244.876 318.222 245.244 318.126 245.675 318.126C246.113 318.126 246.481 318.222 246.777 318.414C247.074 318.603 247.298 318.856 247.45 319.173C247.602 319.486 247.677 319.832 247.677 320.209V320.755C247.677 321.133 247.6 321.48 247.445 321.797C247.293 322.111 247.067 322.363 246.767 322.555C246.471 322.744 246.107 322.839 245.675 322.839C245.237 322.839 244.868 322.744 244.568 322.555C244.268 322.363 244.04 322.111 243.885 321.797C243.73 321.48 243.653 321.133 243.653 320.755ZM244.684 320.209V320.755C244.684 321.069 244.758 321.35 244.907 321.6C245.055 321.846 245.311 321.969 245.675 321.969C246.029 321.969 246.279 321.846 246.424 321.6C246.572 321.35 246.646 321.069 246.646 320.755V320.209C246.646 319.896 246.575 319.616 246.434 319.37C246.292 319.121 246.039 318.996 245.675 318.996C245.321 318.996 245.067 319.121 244.912 319.37C244.76 319.616 244.684 319.896 244.684 320.209ZM244.037 328.623L251.156 318.268H252.309L245.19 328.623H244.037Z" fill="#13213C"/>
<path d="M54.4406 363.965C54.4406 365.931 52.8469 367.525 50.8809 367.525C48.915 367.525 47.3213 365.931 47.3213 363.965C47.3213 361.999 48.915 360.406 50.8809 360.406C52.8469 360.406 54.4406 361.999 54.4406 363.965Z" fill="#023529"/>
<path d="M69.9608 361.846H68.7068C68.6326 361.486 68.5029 361.169 68.3175 360.896C68.1354 360.623 67.913 360.393 67.65 360.208C67.3905 360.019 67.1023 359.878 66.7854 359.783C66.4685 359.689 66.1382 359.642 65.7944 359.642C65.1674 359.642 64.5994 359.8 64.0904 360.117C63.5848 360.434 63.182 360.901 62.8819 361.518C62.5853 362.135 62.437 362.891 62.437 363.788C62.437 364.685 62.5853 365.441 62.8819 366.058C63.182 366.675 63.5848 367.142 64.0904 367.459C64.5994 367.776 65.1674 367.934 65.7944 367.934C66.1382 367.934 66.4685 367.887 66.7854 367.793C67.1023 367.698 67.3905 367.558 67.65 367.373C67.913 367.184 68.1354 366.953 68.3175 366.68C68.5029 366.404 68.6326 366.087 68.7068 365.73H69.9608C69.8664 366.259 69.6945 366.732 69.445 367.15C69.1956 367.568 68.8855 367.924 68.5147 368.217C68.1439 368.507 67.7276 368.728 67.2658 368.88C66.8073 369.031 66.3169 369.107 65.7944 369.107C64.9112 369.107 64.1258 368.891 63.4381 368.46C62.7505 368.028 62.2095 367.415 61.8151 366.619C61.4207 365.824 61.2235 364.88 61.2235 363.788C61.2235 362.696 61.4207 361.752 61.8151 360.956C62.2095 360.161 62.7505 359.547 63.4381 359.116C64.1258 358.684 64.9112 358.469 65.7944 358.469C66.3169 358.469 66.8073 358.545 67.2658 358.696C67.7276 358.848 68.1439 359.07 68.5147 359.364C68.8855 359.654 69.1956 360.008 69.445 360.425C69.6945 360.84 69.8664 361.314 69.9608 361.846ZM74.7579 369.127C74.1107 369.127 73.5394 368.964 73.0438 368.637C72.5483 368.307 72.1607 367.841 71.8809 367.241C71.6011 366.638 71.4612 365.925 71.4612 365.103C71.4612 364.287 71.6011 363.579 71.8809 362.979C72.1607 362.379 72.55 361.915 73.0489 361.588C73.5478 361.261 74.1242 361.098 74.7781 361.098C75.2838 361.098 75.6832 361.182 75.9765 361.351C76.2731 361.516 76.499 361.705 76.654 361.917C76.8125 362.126 76.9355 362.298 77.0231 362.433H77.1243V361.199H78.3176V368.966H77.1647V367.772H77.0231C76.9355 367.914 76.8108 368.093 76.649 368.308C76.4872 368.521 76.2563 368.711 75.9563 368.88C75.6563 369.045 75.2568 369.127 74.7579 369.127ZM74.9197 368.055C75.3984 368.055 75.8029 367.931 76.1332 367.681C76.4636 367.428 76.7147 367.08 76.8866 366.635C77.0585 366.186 77.1445 365.669 77.1445 365.082C77.1445 364.503 77.0602 363.995 76.8917 363.56C76.7231 363.122 76.4737 362.782 76.1433 362.539C75.813 362.293 75.4051 362.17 74.9197 362.17C74.4141 362.17 73.9927 362.3 73.6556 362.559C73.3219 362.815 73.0708 363.164 72.9023 363.606C72.7371 364.044 72.6545 364.536 72.6545 365.082C72.6545 365.635 72.7388 366.137 72.9073 366.589C73.0792 367.037 73.332 367.395 73.6658 367.661C74.0028 367.924 74.4208 368.055 74.9197 368.055ZM81.862 364.294V368.966H80.6687V361.199H81.8216V362.413H81.9227C82.1047 362.018 82.3811 361.701 82.7519 361.462C83.1227 361.219 83.6014 361.098 84.1879 361.098C84.7138 361.098 85.1739 361.206 85.5683 361.422C85.9627 361.634 86.2694 361.958 86.4885 362.392C86.7076 362.824 86.8172 363.37 86.8172 364.031V368.966H85.6239V364.112C85.6239 363.501 85.4655 363.026 85.1486 362.686C84.8317 362.342 84.3969 362.17 83.8441 362.17C83.4632 362.17 83.1227 362.253 82.8227 362.418C82.5261 362.583 82.2918 362.824 82.1199 363.141C81.948 363.458 81.862 363.842 81.862 364.294ZM91.9304 369.127C91.2832 369.127 90.7118 368.964 90.2163 368.637C89.7208 368.307 89.3331 367.841 89.0533 367.241C88.7735 366.638 88.6337 365.925 88.6337 365.103C88.6337 364.287 88.7735 363.579 89.0533 362.979C89.3331 362.379 89.7224 361.915 90.2213 361.588C90.7202 361.261 91.2966 361.098 91.9506 361.098C92.4562 361.098 92.8557 361.182 93.1489 361.351C93.4456 361.516 93.6714 361.705 93.8265 361.917C93.9849 362.126 94.1079 362.298 94.1956 362.433H94.2967V361.199H95.49V368.966H94.3372V367.772H94.1956C94.1079 367.914 93.9832 368.093 93.8214 368.308C93.6596 368.521 93.4287 368.711 93.1287 368.88C92.8287 369.045 92.4292 369.127 91.9304 369.127ZM92.0922 368.055C92.5708 368.055 92.9753 367.931 93.3057 367.681C93.636 367.428 93.8871 367.08 94.0591 366.635C94.231 366.186 94.3169 365.669 94.3169 365.082C94.3169 364.503 94.2327 363.995 94.0641 363.56C93.8956 363.122 93.6461 362.782 93.3158 362.539C92.9854 362.293 92.5776 362.17 92.0922 362.17C91.5865 362.17 91.1652 362.3 90.8281 362.559C90.4944 362.815 90.2432 363.164 90.0747 363.606C89.9095 364.044 89.8269 364.536 89.8269 365.082C89.8269 365.635 89.9112 366.137 90.0798 366.589C90.2517 367.037 90.5045 367.395 90.8382 367.661C91.1753 367.924 91.5933 368.055 92.0922 368.055ZM100.774 369.127C100.127 369.127 99.5553 368.964 99.0597 368.637C98.5642 368.307 98.1766 367.841 97.8968 367.241C97.617 366.638 97.4771 365.925 97.4771 365.103C97.4771 364.287 97.617 363.579 97.8968 362.979C98.1766 362.379 98.5659 361.915 99.0648 361.588C99.5637 361.261 100.14 361.098 100.794 361.098C101.3 361.098 101.699 361.182 101.992 361.351C102.289 361.516 102.515 361.705 102.67 361.917C102.828 362.126 102.951 362.298 103.039 362.433H103.14V358.61H104.333V368.966H103.181V367.772H103.039C102.951 367.914 102.827 368.093 102.665 368.308C102.503 368.521 102.272 368.711 101.972 368.88C101.672 369.045 101.273 369.127 100.774 369.127ZM100.936 368.055C101.414 368.055 101.819 367.931 102.149 367.681C102.479 367.428 102.731 367.08 102.903 366.635C103.074 366.186 103.16 365.669 103.16 365.082C103.16 364.503 103.076 363.995 102.908 363.56C102.739 363.122 102.49 362.782 102.159 362.539C101.829 362.293 101.421 362.17 100.936 362.17C100.43 362.17 100.009 362.3 99.6715 362.559C99.3378 362.815 99.0867 363.164 98.9182 363.606C98.753 364.044 98.6704 364.536 98.6704 365.082C98.6704 365.635 98.7547 366.137 98.9232 366.589C99.0951 367.037 99.3479 367.395 99.6817 367.661C100.019 367.924 100.437 368.055 100.936 368.055ZM109.617 369.127C108.97 369.127 108.399 368.964 107.903 368.637C107.408 368.307 107.02 367.841 106.74 367.241C106.46 366.638 106.321 365.925 106.321 365.103C106.321 364.287 106.46 363.579 106.74 362.979C107.02 362.379 107.409 361.915 107.908 361.588C108.407 361.261 108.984 361.098 109.638 361.098C110.143 361.098 110.543 361.182 110.836 361.351C111.132 361.516 111.358 361.705 111.513 361.917C111.672 362.126 111.795 362.298 111.882 362.433H111.984V361.199H113.177V368.966H112.024V367.772H111.882C111.795 367.914 111.67 368.093 111.508 368.308C111.347 368.521 111.116 368.711 110.816 368.88C110.516 369.045 110.116 369.127 109.617 369.127ZM109.779 368.055C110.258 368.055 110.662 367.931 110.993 367.681C111.323 367.428 111.574 367.08 111.746 366.635C111.918 366.186 112.004 365.669 112.004 365.082C112.004 364.503 111.92 363.995 111.751 363.56C111.582 363.122 111.333 362.782 111.003 362.539C110.672 362.293 110.264 362.17 109.779 362.17C109.273 362.17 108.852 362.3 108.515 362.559C108.181 362.815 107.93 363.164 107.762 363.606C107.596 364.044 107.514 364.536 107.514 365.082C107.514 365.635 107.598 366.137 107.767 366.589C107.939 367.037 108.191 367.395 108.525 367.661C108.862 367.924 109.28 368.055 109.779 368.055Z" fill="#13213C"/>
<path d="M214.039 368.966V368.056L217.457 364.314C217.858 363.876 218.189 363.495 218.448 363.171C218.708 362.844 218.9 362.537 219.025 362.251C219.153 361.961 219.217 361.658 219.217 361.341C219.217 360.977 219.129 360.662 218.954 360.395C218.782 360.129 218.546 359.923 218.246 359.778C217.946 359.633 217.609 359.561 217.235 359.561C216.837 359.561 216.49 359.644 216.193 359.809C215.9 359.971 215.672 360.198 215.511 360.491C215.352 360.785 215.273 361.128 215.273 361.523H214.08C214.08 360.916 214.22 360.383 214.499 359.925C214.779 359.467 215.16 359.109 215.642 358.853C216.127 358.597 216.672 358.469 217.275 358.469C217.882 358.469 218.42 358.597 218.888 358.853C219.357 359.109 219.724 359.455 219.99 359.89C220.257 360.324 220.39 360.808 220.39 361.341C220.39 361.722 220.321 362.094 220.183 362.458C220.048 362.819 219.812 363.222 219.475 363.667C219.141 364.108 218.678 364.648 218.084 365.285L215.758 367.772V367.853H220.572V368.966H214.039ZM222.66 368.966V368.056L226.078 364.314C226.479 363.876 226.81 363.495 227.069 363.171C227.329 362.844 227.521 362.537 227.646 362.251C227.774 361.961 227.838 361.658 227.838 361.341C227.838 360.977 227.75 360.662 227.575 360.395C227.403 360.129 227.167 359.923 226.867 359.778C226.567 359.633 226.23 359.561 225.856 359.561C225.458 359.561 225.111 359.644 224.814 359.809C224.521 359.971 224.293 360.198 224.132 360.491C223.973 360.785 223.894 361.128 223.894 361.523H222.701C222.701 360.916 222.841 360.383 223.12 359.925C223.4 359.467 223.781 359.109 224.263 358.853C224.748 358.597 225.293 358.469 225.896 358.469C226.503 358.469 227.041 358.597 227.509 358.853C227.978 359.109 228.345 359.455 228.611 359.89C228.878 360.324 229.011 360.808 229.011 361.341C229.011 361.722 228.942 362.094 228.804 362.458C228.669 362.819 228.433 363.222 228.096 363.667C227.762 364.108 227.299 364.648 226.705 365.285L224.379 367.772V367.853H229.193V368.966H222.66ZM232.171 369.047C231.922 369.047 231.708 368.957 231.529 368.779C231.35 368.6 231.261 368.386 231.261 368.136C231.261 367.887 231.35 367.673 231.529 367.494C231.708 367.316 231.922 367.226 232.171 367.226C232.421 367.226 232.635 367.316 232.813 367.494C232.992 367.673 233.081 367.887 233.081 368.136C233.081 368.302 233.039 368.453 232.955 368.592C232.874 368.73 232.764 368.841 232.626 368.925C232.491 369.006 232.34 369.047 232.171 369.047ZM238.23 369.107C237.637 369.107 237.102 368.989 236.627 368.753C236.152 368.517 235.771 368.194 235.484 367.783C235.198 367.371 235.041 366.903 235.014 366.377H236.228C236.275 366.845 236.487 367.233 236.865 367.54C237.246 367.843 237.701 367.995 238.23 367.995C238.655 367.995 239.032 367.895 239.362 367.697C239.696 367.498 239.957 367.225 240.146 366.877C240.338 366.527 240.434 366.131 240.434 365.689C240.434 365.238 240.335 364.835 240.136 364.481C239.941 364.123 239.671 363.842 239.327 363.636C238.983 363.431 238.59 363.326 238.149 363.323C237.832 363.32 237.507 363.368 237.173 363.47C236.839 363.567 236.565 363.694 236.349 363.849L235.176 363.707L235.803 358.61H241.183V359.723H236.854L236.49 362.777H236.551C236.763 362.608 237.03 362.468 237.35 362.357C237.67 362.246 238.004 362.19 238.351 362.19C238.985 362.19 239.549 362.342 240.045 362.645C240.544 362.945 240.935 363.357 241.218 363.879C241.505 364.402 241.648 364.998 241.648 365.669C241.648 366.33 241.5 366.92 241.203 367.439C240.91 367.954 240.505 368.362 239.989 368.662C239.474 368.959 238.887 369.107 238.23 369.107ZM248.935 367.024V366.478C248.935 366.1 249.013 365.755 249.168 365.441C249.326 365.125 249.555 364.872 249.855 364.683C250.159 364.491 250.526 364.395 250.958 364.395C251.396 364.395 251.763 364.491 252.06 364.683C252.357 364.872 252.581 365.125 252.733 365.441C252.884 365.755 252.96 366.1 252.96 366.478V367.024C252.96 367.402 252.883 367.749 252.727 368.066C252.576 368.379 252.35 368.632 252.05 368.824C251.753 369.013 251.389 369.107 250.958 369.107C250.52 369.107 250.15 369.013 249.85 368.824C249.55 368.632 249.323 368.379 249.168 368.066C249.013 367.749 248.935 367.402 248.935 367.024ZM249.967 366.478V367.024C249.967 367.338 250.041 367.619 250.189 367.868C250.338 368.115 250.594 368.238 250.958 368.238C251.312 368.238 251.561 368.115 251.706 367.868C251.854 367.619 251.929 367.338 251.929 367.024V366.478C251.929 366.165 251.858 365.885 251.716 365.639C251.575 365.389 251.322 365.264 250.958 365.264C250.604 365.264 250.349 365.389 250.194 365.639C250.043 365.885 249.967 366.165 249.967 366.478ZM243.778 361.098V360.552C243.778 360.174 243.855 359.829 244.01 359.515C244.169 359.199 244.398 358.946 244.698 358.757C245.001 358.565 245.369 358.469 245.8 358.469C246.239 358.469 246.606 358.565 246.903 358.757C247.199 358.946 247.423 359.199 247.575 359.515C247.727 359.829 247.803 360.174 247.803 360.552V361.098C247.803 361.476 247.725 361.823 247.57 362.14C247.418 362.453 247.193 362.706 246.892 362.898C246.596 363.087 246.232 363.181 245.8 363.181C245.362 363.181 244.993 363.087 244.693 362.898C244.393 362.706 244.165 362.453 244.01 362.14C243.855 361.823 243.778 361.476 243.778 361.098ZM244.809 360.552V361.098C244.809 361.412 244.883 361.693 245.032 361.943C245.18 362.189 245.436 362.312 245.8 362.312C246.154 362.312 246.404 362.189 246.549 361.943C246.697 361.693 246.771 361.412 246.771 361.098V360.552C246.771 360.239 246.7 359.959 246.559 359.713C246.417 359.463 246.164 359.339 245.8 359.339C245.446 359.339 245.192 359.463 245.037 359.713C244.885 359.959 244.809 360.239 244.809 360.552ZM244.162 368.966L251.281 358.61H252.434L245.315 368.966H244.162Z" fill="#13213C"/>
<path d="M54.4406 404.308C54.4406 406.274 52.8469 407.868 50.8809 407.868C48.915 407.868 47.3213 406.274 47.3213 404.308C47.3213 402.342 48.915 400.749 50.8809 400.749C52.8469 400.749 54.4406 402.342 54.4406 404.308Z" fill="#ABF363"/>
<path d="M61.628 398.953H63.1246L66.6438 407.549H66.7652L70.2844 398.953H71.781V409.308H70.608V401.441H70.5068L67.2708 409.308H66.1382L62.9022 401.441H62.801V409.308H61.628V398.953ZM77.3897 409.47C76.6414 409.47 75.9959 409.305 75.4532 408.974C74.9138 408.641 74.4975 408.176 74.2043 407.579C73.9144 406.979 73.7694 406.281 73.7694 405.486C73.7694 404.69 73.9144 403.989 74.2043 403.382C74.4975 402.772 74.9054 402.297 75.4279 401.956C75.9537 401.612 76.5672 401.441 77.2684 401.441C77.6729 401.441 78.0723 401.508 78.4667 401.643C78.8611 401.778 79.2201 401.997 79.5437 402.3C79.8673 402.6 80.1252 402.998 80.3173 403.493C80.5095 403.989 80.6055 404.599 80.6055 405.324V405.829H74.6189V404.798H79.392C79.392 404.36 79.3044 403.969 79.1291 403.625C78.9572 403.281 78.7111 403.01 78.3909 402.811C78.074 402.612 77.6998 402.513 77.2684 402.513C76.7931 402.513 76.3818 402.63 76.0346 402.866C75.6908 403.099 75.4262 403.402 75.2408 403.777C75.0554 404.151 74.9627 404.552 74.9627 404.98V405.668C74.9627 406.254 75.0638 406.751 75.2661 407.159C75.4717 407.564 75.7565 407.872 76.1206 408.085C76.4846 408.294 76.9077 408.398 77.3897 408.398C77.7032 408.398 77.9864 408.354 78.2392 408.267C78.4954 408.176 78.7162 408.041 78.9016 407.862C79.0869 407.68 79.2302 407.454 79.3313 407.185L80.4842 407.508C80.3628 407.899 80.1589 408.243 79.8724 408.54C79.5858 408.833 79.2319 409.062 78.8105 409.227C78.3892 409.389 77.9156 409.47 77.3897 409.47ZM83.1021 401.542L84.9628 404.717L86.8235 401.542H88.1988L85.6909 405.425L88.1988 409.308H86.8235L84.9628 406.295L83.1021 409.308H81.7268L84.1942 405.425L81.7268 401.542H83.1021ZM89.9015 409.308V401.542H91.0948V409.308H89.9015ZM90.5083 400.247C90.2757 400.247 90.0751 400.168 89.9066 400.01C89.7414 399.851 89.6588 399.661 89.6588 399.438C89.6588 399.216 89.7414 399.025 89.9066 398.867C90.0751 398.708 90.2757 398.629 90.5083 398.629C90.7409 398.629 90.9397 398.708 91.1049 398.867C91.2735 399.025 91.3577 399.216 91.3577 399.438C91.3577 399.661 91.2735 399.851 91.1049 400.01C90.9397 400.168 90.7409 400.247 90.5083 400.247ZM96.4355 409.47C95.7074 409.47 95.0804 409.298 94.5546 408.954C94.0287 408.61 93.6242 408.137 93.3411 407.533C93.0579 406.93 92.9163 406.241 92.9163 405.465C92.9163 404.677 93.0613 403.981 93.3512 403.377C93.6444 402.77 94.0523 402.297 94.5748 401.956C95.1007 401.612 95.7142 401.441 96.4153 401.441C96.9614 401.441 97.4535 401.542 97.8917 401.744C98.3299 401.946 98.6889 402.229 98.9687 402.593C99.2485 402.957 99.4221 403.382 99.4895 403.868H98.2962C98.2052 403.514 98.003 403.2 97.6895 402.927C97.3794 402.651 96.9614 402.513 96.4355 402.513C95.9703 402.513 95.5625 402.634 95.2119 402.877C94.8647 403.116 94.5933 403.455 94.3978 403.893C94.2057 404.328 94.1096 404.838 94.1096 405.425C94.1096 406.025 94.204 406.547 94.3928 406.992C94.5849 407.437 94.8546 407.783 95.2018 408.029C95.5524 408.275 95.9636 408.398 96.4355 408.398C96.7456 408.398 97.0271 408.344 97.2799 408.236C97.5327 408.128 97.7468 407.973 97.9221 407.771C98.0974 407.569 98.2221 407.326 98.2962 407.043H99.4895C99.4221 407.501 99.2552 407.914 98.9889 408.282C98.726 408.646 98.3771 408.936 97.9423 409.151C97.5108 409.364 97.0086 409.47 96.4355 409.47ZM104.389 409.47C103.688 409.47 103.073 409.303 102.544 408.969C102.018 408.636 101.606 408.169 101.31 407.569C101.017 406.969 100.87 406.268 100.87 405.465C100.87 404.656 101.017 403.95 101.31 403.347C101.606 402.743 102.018 402.275 102.544 401.941C103.073 401.607 103.688 401.441 104.389 401.441C105.09 401.441 105.704 401.607 106.23 401.941C106.759 402.275 107.17 402.743 107.463 403.347C107.76 403.95 107.908 404.656 107.908 405.465C107.908 406.268 107.76 406.969 107.463 407.569C107.17 408.169 106.759 408.636 106.23 408.969C105.704 409.303 105.09 409.47 104.389 409.47ZM104.389 408.398C104.922 408.398 105.36 408.262 105.704 407.988C106.048 407.715 106.302 407.356 106.467 406.911C106.632 406.467 106.715 405.984 106.715 405.465C106.715 404.946 106.632 404.463 106.467 404.014C106.302 403.566 106.048 403.204 105.704 402.927C105.36 402.651 104.922 402.513 104.389 402.513C103.856 402.513 103.418 402.651 103.074 402.927C102.731 403.204 102.476 403.566 102.311 404.014C102.146 404.463 102.063 404.946 102.063 405.465C102.063 405.984 102.146 406.467 102.311 406.911C102.476 407.356 102.731 407.715 103.074 407.988C103.418 408.262 103.856 408.398 104.389 408.398Z" fill="#13213C"/>
<path d="M213.877 406.72H215.152C215.189 407.07 215.308 407.367 215.511 407.609C215.716 407.849 215.983 408.031 216.309 408.156C216.636 408.277 216.999 408.338 217.397 408.338C217.828 408.338 218.216 408.265 218.56 408.12C218.903 407.975 219.176 407.759 219.379 407.473C219.581 407.183 219.682 406.824 219.682 406.396C219.682 406.022 219.594 405.675 219.419 405.354C219.244 405.031 218.962 404.769 218.575 404.571C218.187 404.372 217.673 404.272 217.033 404.272H216.203V403.261L218.792 400.146V400.065H214.383V398.953H220.511V399.863L217.74 403.221V403.301C218.185 403.322 218.6 403.413 218.984 403.575C219.372 403.736 219.709 403.955 219.996 404.232C220.285 404.508 220.511 404.83 220.673 405.198C220.835 405.565 220.916 405.964 220.916 406.396C220.916 406.986 220.764 407.512 220.461 407.973C220.161 408.432 219.744 408.793 219.212 409.056C218.683 409.318 218.071 409.45 217.376 409.45C216.763 409.45 216.198 409.342 215.683 409.126C215.167 408.911 214.747 408.599 214.423 408.191C214.1 407.783 213.918 407.293 213.877 406.72ZM226.358 409.45C225.596 409.45 224.947 409.243 224.411 408.828C223.875 408.41 223.465 407.805 223.182 407.013C222.899 406.217 222.758 405.257 222.758 404.131C222.758 403.012 222.899 402.056 223.182 401.264C223.469 400.468 223.88 399.862 224.416 399.444C224.955 399.022 225.603 398.811 226.358 398.811C227.113 398.811 227.758 399.022 228.294 399.444C228.834 399.862 229.245 400.468 229.528 401.264C229.814 402.056 229.958 403.012 229.958 404.131C229.958 405.257 229.816 406.217 229.533 407.013C229.25 407.805 228.84 408.41 228.304 408.828C227.768 409.243 227.119 409.45 226.358 409.45ZM226.358 408.338C227.113 408.338 227.699 407.973 228.117 407.245C228.535 406.517 228.744 405.479 228.744 404.131C228.744 403.234 228.648 402.471 228.456 401.84C228.267 401.21 227.994 400.73 227.637 400.399C227.283 400.069 226.857 399.904 226.358 399.904C225.609 399.904 225.024 400.273 224.603 401.011C224.182 401.746 223.971 402.786 223.971 404.131C223.971 405.027 224.065 405.789 224.254 406.416C224.443 407.043 224.714 407.52 225.068 407.847C225.426 408.174 225.855 408.338 226.358 408.338ZM232.407 409.389C232.158 409.389 231.944 409.3 231.765 409.121C231.587 408.943 231.497 408.729 231.497 408.479C231.497 408.23 231.587 408.016 231.765 407.837C231.944 407.658 232.158 407.569 232.407 407.569C232.657 407.569 232.871 407.658 233.05 407.837C233.228 408.016 233.318 408.23 233.318 408.479C233.318 408.644 233.275 408.796 233.191 408.934C233.11 409.072 233.001 409.184 232.863 409.268C232.728 409.349 232.576 409.389 232.407 409.389ZM238.436 409.45C237.741 409.45 237.128 409.327 236.595 409.081C236.066 408.831 235.653 408.489 235.357 408.054C235.06 407.616 234.913 407.117 234.917 406.558C234.913 406.12 234.999 405.715 235.175 405.344C235.35 404.97 235.589 404.658 235.893 404.409C236.199 404.156 236.541 403.996 236.919 403.928V403.868C236.423 403.74 236.029 403.462 235.736 403.033C235.443 402.602 235.298 402.112 235.301 401.562C235.298 401.036 235.431 400.566 235.7 400.151C235.97 399.737 236.341 399.41 236.813 399.17C237.288 398.931 237.829 398.811 238.436 398.811C239.036 398.811 239.572 398.931 240.044 399.17C240.516 399.41 240.886 399.737 241.156 400.151C241.429 400.566 241.567 401.036 241.571 401.562C241.567 402.112 241.417 402.602 241.121 403.033C240.827 403.462 240.438 403.74 239.953 403.868V403.928C240.327 403.996 240.664 404.156 240.964 404.409C241.264 404.658 241.503 404.97 241.682 405.344C241.861 405.715 241.952 406.12 241.955 406.558C241.952 407.117 241.8 407.616 241.5 408.054C241.203 408.489 240.79 408.831 240.261 409.081C239.735 409.327 239.127 409.45 238.436 409.45ZM238.436 408.338C238.904 408.338 239.309 408.262 239.649 408.11C239.99 407.958 240.253 407.744 240.438 407.468C240.624 407.191 240.718 406.868 240.721 406.497C240.718 406.106 240.617 405.761 240.418 405.461C240.219 405.161 239.948 404.925 239.604 404.753C239.263 404.581 238.874 404.495 238.436 404.495C237.994 404.495 237.6 404.581 237.253 404.753C236.909 404.925 236.637 405.161 236.439 405.461C236.243 405.761 236.147 406.106 236.15 406.497C236.147 406.868 236.236 407.191 236.418 407.468C236.604 407.744 236.868 407.958 237.212 408.11C237.556 408.262 237.964 408.338 238.436 408.338ZM238.436 403.423C238.807 403.423 239.135 403.349 239.422 403.2C239.712 403.052 239.939 402.845 240.104 402.578C240.27 402.312 240.354 402 240.357 401.643C240.354 401.292 240.271 400.987 240.109 400.728C239.948 400.465 239.724 400.263 239.437 400.121C239.15 399.976 238.817 399.904 238.436 399.904C238.048 399.904 237.709 399.976 237.42 400.121C237.13 400.263 236.905 400.465 236.747 400.728C236.589 400.987 236.511 401.292 236.514 401.643C236.511 402 236.59 402.312 236.752 402.578C236.917 402.845 237.145 403.052 237.435 403.2C237.725 403.349 238.058 403.423 238.436 403.423ZM249.172 407.367V406.821C249.172 406.443 249.249 406.098 249.404 405.784C249.563 405.467 249.792 405.214 250.092 405.026C250.395 404.834 250.763 404.737 251.194 404.737C251.632 404.737 252 404.834 252.296 405.026C252.593 405.214 252.817 405.467 252.969 405.784C253.121 406.098 253.196 406.443 253.196 406.821V407.367C253.196 407.744 253.119 408.091 252.964 408.408C252.812 408.722 252.586 408.975 252.286 409.167C251.99 409.356 251.626 409.45 251.194 409.45C250.756 409.45 250.387 409.356 250.087 409.167C249.787 408.975 249.559 408.722 249.404 408.408C249.249 408.091 249.172 407.744 249.172 407.367ZM250.203 406.821V407.367C250.203 407.68 250.277 407.962 250.426 408.211C250.574 408.457 250.83 408.58 251.194 408.58C251.548 408.58 251.798 408.457 251.942 408.211C252.091 407.962 252.165 407.68 252.165 407.367V406.821C252.165 406.507 252.094 406.227 251.953 405.981C251.811 405.732 251.558 405.607 251.194 405.607C250.84 405.607 250.586 405.732 250.431 405.981C250.279 406.227 250.203 406.507 250.203 406.821ZM244.014 401.441V400.895C244.014 400.517 244.092 400.172 244.247 399.858C244.405 399.541 244.634 399.288 244.934 399.1C245.238 398.908 245.605 398.811 246.037 398.811C246.475 398.811 246.842 398.908 247.139 399.1C247.436 399.288 247.66 399.541 247.811 399.858C247.963 400.172 248.039 400.517 248.039 400.895V401.441C248.039 401.818 247.961 402.165 247.806 402.482C247.655 402.796 247.429 403.049 247.129 403.241C246.832 403.43 246.468 403.524 246.037 403.524C245.599 403.524 245.229 403.43 244.929 403.241C244.629 403.049 244.402 402.796 244.247 402.482C244.092 402.165 244.014 401.818 244.014 401.441ZM245.046 400.895V401.441C245.046 401.754 245.12 402.036 245.268 402.285C245.416 402.531 245.673 402.654 246.037 402.654C246.391 402.654 246.64 402.531 246.785 402.285C246.933 402.036 247.008 401.754 247.008 401.441V400.895C247.008 400.581 246.937 400.301 246.795 400.055C246.654 399.806 246.401 399.681 246.037 399.681C245.683 399.681 245.428 399.806 245.273 400.055C245.122 400.301 245.046 400.581 245.046 400.895ZM244.398 409.308L251.518 398.953H252.671L245.551 409.308H244.398Z" fill="#13213C"/>
<path d="M54.4406 444.65C54.4406 446.616 52.8469 448.21 50.8809 448.21C48.915 448.21 47.3213 446.616 47.3213 444.65C47.3213 442.684 48.915 441.091 50.8809 441.091C52.8469 441.091 54.4406 442.684 54.4406 444.65Z" fill="#3BC3FF"/>
<path d="M70.3653 444.473C70.3653 445.565 70.1681 446.509 69.7737 447.304C69.3793 448.1 68.8383 448.713 68.1506 449.145C67.4629 449.576 66.6775 449.792 65.7944 449.792C64.9112 449.792 64.1258 449.576 63.4381 449.145C62.7505 448.713 62.2095 448.1 61.8151 447.304C61.4207 446.509 61.2235 445.565 61.2235 444.473C61.2235 443.381 61.4207 442.437 61.8151 441.641C62.2095 440.846 62.7505 440.232 63.4381 439.801C64.1258 439.369 64.9112 439.154 65.7944 439.154C66.6775 439.154 67.4629 439.369 68.1506 439.801C68.8383 440.232 69.3793 440.846 69.7737 441.641C70.1681 442.437 70.3653 443.381 70.3653 444.473ZM69.1518 444.473C69.1518 443.576 69.0017 442.819 68.7017 442.203C68.4051 441.586 68.0023 441.119 67.4933 440.802C66.9877 440.485 66.4214 440.327 65.7944 440.327C65.1674 440.327 64.5994 440.485 64.0904 440.802C63.5848 441.119 63.182 441.586 62.8819 442.203C62.5853 442.819 62.437 443.576 62.437 444.473C62.437 445.37 62.5853 446.126 62.8819 446.743C63.182 447.36 63.5848 447.827 64.0904 448.144C64.5994 448.461 65.1674 448.619 65.7944 448.619C66.4214 448.619 66.9877 448.461 67.4933 448.144C68.0023 447.827 68.4051 447.36 68.7017 446.743C69.0017 446.126 69.1518 445.37 69.1518 444.473ZM75.6895 441.884V442.895H71.6647V441.884H75.6895ZM72.8378 440.023H74.0311V447.426C74.0311 447.763 74.08 448.016 74.1777 448.184C74.2788 448.349 74.4069 448.461 74.562 448.518C74.7204 448.572 74.8873 448.599 75.0626 448.599C75.194 448.599 75.3019 448.592 75.3862 448.579C75.4704 448.562 75.5379 448.548 75.5884 448.538L75.8311 449.61C75.7502 449.64 75.6373 449.671 75.4923 449.701C75.3474 449.735 75.1637 449.752 74.9412 449.752C74.6041 449.752 74.2738 449.679 73.9502 449.534C73.6299 449.389 73.3636 449.168 73.1513 448.872C72.9423 448.575 72.8378 448.201 72.8378 447.749V440.023ZM78.8447 444.978V449.651H77.6514V439.295H78.8447V443.098H78.9458C79.1278 442.696 79.4009 442.378 79.7649 442.142C80.1323 441.903 80.6211 441.783 81.2312 441.783C81.7605 441.783 82.224 441.889 82.6217 442.101C83.0195 442.31 83.3279 442.632 83.547 443.067C83.7695 443.499 83.8807 444.048 83.8807 444.716V449.651H82.6875V444.796C82.6875 444.18 82.5273 443.703 82.2071 443.366C81.8902 443.025 81.4503 442.855 80.8874 442.855C80.4964 442.855 80.1458 442.937 79.8357 443.103C79.529 443.268 79.2863 443.509 79.1076 443.826C78.9323 444.143 78.8447 444.527 78.8447 444.978ZM89.32 449.812C88.5717 449.812 87.9262 449.647 87.3835 449.317C86.8441 448.983 86.4278 448.518 86.1346 447.921C85.8447 447.321 85.6997 446.623 85.6997 445.828C85.6997 445.032 85.8447 444.331 86.1346 443.725C86.4278 443.114 86.8357 442.639 87.3582 442.299C87.8841 441.955 88.4976 441.783 89.1987 441.783C89.6032 441.783 90.0026 441.85 90.397 441.985C90.7914 442.12 91.1504 442.339 91.474 442.642C91.7976 442.942 92.0555 443.34 92.2476 443.836C92.4398 444.331 92.5359 444.941 92.5359 445.666V446.172H86.5492V445.14H91.3223C91.3223 444.702 91.2347 444.311 91.0594 443.967C90.8875 443.623 90.6414 443.352 90.3212 443.153C90.0043 442.954 89.6302 442.855 89.1987 442.855C88.7234 442.855 88.3122 442.973 87.965 443.209C87.6211 443.441 87.3565 443.745 87.1711 444.119C86.9857 444.493 86.893 444.894 86.893 445.322V446.01C86.893 446.597 86.9942 447.094 87.1964 447.502C87.402 447.906 87.6869 448.215 88.0509 448.427C88.415 448.636 88.838 448.74 89.32 448.74C89.6335 448.74 89.9167 448.697 90.1695 448.609C90.4257 448.518 90.6465 448.383 90.8319 448.204C91.0173 448.022 91.1605 447.797 91.2617 447.527L92.4145 447.85C92.2931 448.241 92.0892 448.585 91.8027 448.882C91.5162 449.175 91.1622 449.404 90.7409 449.57C90.3195 449.731 89.8459 449.812 89.32 449.812ZM94.3511 449.651V441.884H95.5039V443.057H95.5848C95.7264 442.673 95.9826 442.361 96.3534 442.122C96.7242 441.882 97.1421 441.763 97.6073 441.763C97.695 441.763 97.8045 441.764 97.936 441.768C98.0674 441.771 98.1669 441.776 98.2343 441.783V442.996C98.1938 442.986 98.1011 442.971 97.9562 442.951C97.8146 442.927 97.6646 442.916 97.5062 442.916C97.1287 442.916 96.7916 442.995 96.4949 443.153C96.2017 443.308 95.9691 443.524 95.7972 443.8C95.6286 444.073 95.5443 444.385 95.5443 444.736V449.651H94.3511Z" fill="#13213C"/>
<path d="M230.356 449.792C229.662 449.792 229.048 449.669 228.516 449.423C227.986 449.174 227.574 448.832 227.277 448.397C226.98 447.959 226.834 447.46 226.837 446.9C226.834 446.462 226.92 446.057 227.095 445.687C227.27 445.312 227.509 445.001 227.813 444.751C228.12 444.498 228.462 444.338 228.839 444.271V444.21C228.344 444.082 227.949 443.804 227.656 443.376C227.363 442.944 227.218 442.454 227.221 441.904C227.218 441.379 227.351 440.908 227.621 440.494C227.89 440.079 228.261 439.752 228.733 439.513C229.208 439.273 229.749 439.154 230.356 439.154C230.956 439.154 231.492 439.273 231.964 439.513C232.436 439.752 232.807 440.079 233.076 440.494C233.349 440.908 233.488 441.379 233.491 441.904C233.488 442.454 233.338 442.944 233.041 443.376C232.748 443.804 232.358 444.082 231.873 444.21V444.271C232.247 444.338 232.584 444.498 232.884 444.751C233.184 445.001 233.424 445.312 233.602 445.687C233.781 446.057 233.872 446.462 233.875 446.9C233.872 447.46 233.72 447.959 233.42 448.397C233.124 448.832 232.711 449.174 232.181 449.423C231.656 449.669 231.047 449.792 230.356 449.792ZM230.356 448.68C230.825 448.68 231.229 448.604 231.57 448.452C231.91 448.301 232.173 448.087 232.358 447.81C232.544 447.534 232.638 447.21 232.642 446.839C232.638 446.448 232.537 446.103 232.338 445.803C232.139 445.503 231.868 445.267 231.524 445.095C231.184 444.923 230.794 444.837 230.356 444.837C229.915 444.837 229.52 444.923 229.173 445.095C228.829 445.267 228.558 445.503 228.359 445.803C228.163 446.103 228.067 446.448 228.071 446.839C228.067 447.21 228.157 447.534 228.339 447.81C228.524 448.087 228.789 448.301 229.133 448.452C229.476 448.604 229.884 448.68 230.356 448.68ZM230.356 443.765C230.727 443.765 231.056 443.691 231.342 443.543C231.632 443.394 231.86 443.187 232.025 442.921C232.19 442.654 232.274 442.343 232.278 441.985C232.274 441.635 232.192 441.33 232.03 441.07C231.868 440.807 231.644 440.605 231.357 440.463C231.071 440.318 230.737 440.246 230.356 440.246C229.968 440.246 229.63 440.318 229.34 440.463C229.05 440.605 228.826 440.807 228.667 441.07C228.509 441.33 228.431 441.635 228.435 441.985C228.431 442.343 228.511 442.654 228.672 442.921C228.838 443.187 229.065 443.394 229.355 443.543C229.645 443.691 229.979 443.765 230.356 443.765ZM236.383 449.732C236.134 449.732 235.92 449.642 235.741 449.464C235.562 449.285 235.473 449.071 235.473 448.821C235.473 448.572 235.562 448.358 235.741 448.179C235.92 448.001 236.134 447.911 236.383 447.911C236.633 447.911 236.847 448.001 237.025 448.179C237.204 448.358 237.293 448.572 237.293 448.821C237.293 448.987 237.251 449.138 237.167 449.277C237.086 449.415 236.977 449.526 236.838 449.61C236.703 449.691 236.552 449.732 236.383 449.732ZM241.494 439.295V449.651H240.24V441.116H240.159C240.112 441.21 239.99 441.318 239.795 441.439C239.599 441.557 239.347 441.662 239.037 441.753C238.726 441.84 238.372 441.884 237.975 441.884V440.833C238.376 440.833 238.723 440.76 239.016 440.615C239.31 440.47 239.554 440.3 239.749 440.104C239.948 439.909 240.098 439.732 240.199 439.573C240.304 439.415 240.365 439.322 240.382 439.295H241.494ZM249.741 447.709V447.163C249.741 446.785 249.818 446.44 249.973 446.126C250.132 445.81 250.361 445.557 250.661 445.368C250.964 445.176 251.332 445.08 251.763 445.08C252.201 445.08 252.569 445.176 252.866 445.368C253.162 445.557 253.386 445.81 253.538 446.126C253.69 446.44 253.766 446.785 253.766 447.163V447.709C253.766 448.087 253.688 448.434 253.533 448.751C253.381 449.064 253.155 449.317 252.855 449.509C252.559 449.698 252.195 449.792 251.763 449.792C251.325 449.792 250.956 449.698 250.656 449.509C250.356 449.317 250.128 449.064 249.973 448.751C249.818 448.434 249.741 448.087 249.741 447.709ZM250.772 447.163V447.709C250.772 448.023 250.846 448.304 250.995 448.553C251.143 448.8 251.399 448.923 251.763 448.923C252.117 448.923 252.367 448.8 252.512 448.553C252.66 448.304 252.734 448.023 252.734 447.709V447.163C252.734 446.85 252.663 446.57 252.522 446.324C252.38 446.074 252.127 445.949 251.763 445.949C251.409 445.949 251.155 446.074 251 446.324C250.848 446.57 250.772 446.85 250.772 447.163ZM244.583 441.783V441.237C244.583 440.859 244.661 440.514 244.816 440.2C244.974 439.884 245.204 439.631 245.504 439.442C245.807 439.25 246.174 439.154 246.606 439.154C247.044 439.154 247.411 439.25 247.708 439.442C248.005 439.631 248.229 439.884 248.381 440.2C248.532 440.514 248.608 440.859 248.608 441.237V441.783C248.608 442.161 248.531 442.508 248.376 442.825C248.224 443.138 247.998 443.391 247.698 443.583C247.401 443.772 247.037 443.866 246.606 443.866C246.168 443.866 245.798 443.772 245.498 443.583C245.198 443.391 244.971 443.138 244.816 442.825C244.661 442.508 244.583 442.161 244.583 441.783ZM245.615 441.237V441.783C245.615 442.097 245.689 442.378 245.837 442.628C245.986 442.874 246.242 442.997 246.606 442.997C246.96 442.997 247.209 442.874 247.354 442.628C247.502 442.378 247.577 442.097 247.577 441.783V441.237C247.577 440.924 247.506 440.644 247.364 440.398C247.223 440.148 246.97 440.024 246.606 440.024C246.252 440.024 245.997 440.148 245.842 440.398C245.691 440.644 245.615 440.924 245.615 441.237ZM244.968 449.651L252.087 439.295H253.24L246.12 449.651H244.968Z" fill="#13213C"/>
<mask id="mask0_390_10103" style="mask-type:alpha" maskUnits="userSpaceOnUse" x="125" y="104" width="107" height="172">
<path fill-rule="evenodd" clip-rule="evenodd" d="M126.05 269.04C125.427 271.365 126.836 273.759 129.201 274.21C134.439 275.208 139.845 275.731 145.374 275.731C192.783 275.731 231.216 237.298 231.216 189.888C231.216 144.934 196.661 108.051 152.663 104.351C150.246 104.148 148.235 106.102 148.235 108.528L148.235 143.042C148.235 145.303 149.996 147.153 152.228 147.512C172.675 150.793 188.295 168.517 188.295 189.888C188.295 213.593 169.079 232.81 145.374 232.81C143.581 232.81 141.814 232.7 140.08 232.486C137.799 232.206 135.562 233.54 134.967 235.76L126.05 269.04Z" fill="url(#paint0_linear_390_10103)"/>
</mask>
<g mask="url(#mask0_390_10103)">
<path fill-rule="evenodd" clip-rule="evenodd" d="M126.05 269.04C125.427 271.365 126.836 273.759 129.201 274.21C134.439 275.208 139.845 275.731 145.374 275.731C192.783 275.731 231.216 237.298 231.216 189.888C231.216 144.934 196.661 108.051 152.663 104.351C150.246 104.148 148.235 106.102 148.235 108.528L148.235 143.042C148.235 145.303 149.996 147.153 152.228 147.512C172.675 150.793 188.295 168.517 188.295 189.888C188.295 213.593 169.079 232.81 145.374 232.81C143.581 232.81 141.814 232.7 140.08 232.486C137.799 232.206 135.562 233.54 134.967 235.76L126.05 269.04Z" fill="url(#paint1_linear_390_10103)"/>
<path fill-rule="evenodd" clip-rule="evenodd" d="M126.05 269.04C125.427 271.365 126.836 273.759 129.201 274.21C134.439 275.208 139.845 275.731 145.374 275.731C192.783 275.731 231.216 237.298 231.216 189.888C231.216 144.934 196.661 108.051 152.663 104.351C150.246 104.148 148.235 106.102 148.235 108.528L148.235 143.042C148.235 145.303 149.996 147.153 152.228 147.512C172.675 150.793 188.295 168.517 188.295 189.888C188.295 213.593 169.079 232.81 145.374 232.81C143.581 232.81 141.814 232.7 140.08 232.486C137.799 232.206 135.562 233.54 134.967 235.76L126.05 269.04Z" fill="#13213C" style="mix-blend-mode:screen"/>
</g>
<mask id="mask1_390_10103" style="mask-type:alpha" maskUnits="userSpaceOnUse" x="59" y="169" width="74" height="103">
<path fill-rule="evenodd" clip-rule="evenodd" d="M59.7705 190.52C59.7705 184.893 60.3119 179.392 61.3455 174.067C61.9489 170.959 65.1119 169.14 68.1709 169.96L98.5963 178.113C101.639 178.928 103.41 182.049 103.021 185.174C102.804 186.925 102.692 188.71 102.692 190.52C102.692 208.047 113.197 223.12 128.255 229.786C131.096 231.044 132.857 234.104 132.053 237.105L123.884 267.591C123.059 270.669 119.869 272.498 116.867 271.431C83.5946 259.609 59.7705 227.847 59.7705 190.52Z" fill="url(#paint2_linear_390_10103)"/>
</mask>
<g mask="url(#mask1_390_10103)">
<path fill-rule="evenodd" clip-rule="evenodd" d="M59.7705 190.52C59.7705 184.893 60.3119 179.392 61.3455 174.067C61.9489 170.959 65.1119 169.14 68.1709 169.96L98.5963 178.113C101.639 178.928 103.41 182.049 103.021 185.174C102.804 186.925 102.692 188.71 102.692 190.52C102.692 208.047 113.197 223.12 128.255 229.786C131.096 231.044 132.857 234.104 132.053 237.105L123.884 267.591C123.059 270.669 119.869 272.498 116.867 271.431C83.5946 259.609 59.7705 227.847 59.7705 190.52Z" fill="#ABF363"/>
</g>
<mask id="mask2_390_10103" style="mask-type:alpha" maskUnits="userSpaceOnUse" x="65" y="117" width="58" height="58">
<path fill-rule="evenodd" clip-rule="evenodd" d="M105.56 120.517C103.974 117.771 100.446 116.822 97.8199 118.6C83.2626 128.454 71.8913 142.66 65.5731 159.35C64.4297 162.37 66.2574 165.629 69.377 166.465L99.9921 174.668C102.912 175.451 105.9 173.805 107.215 171.084C110.092 165.131 114.304 159.943 119.461 155.908C121.936 153.972 122.883 150.521 121.311 147.8L105.56 120.517Z" fill="url(#paint3_linear_390_10103)"/>
</mask>
<g mask="url(#mask2_390_10103)">
<path fill-rule="evenodd" clip-rule="evenodd" d="M105.56 120.517C103.974 117.771 100.446 116.822 97.8199 118.6C83.2626 128.454 71.8913 142.66 65.5731 159.35C64.4297 162.37 66.2574 165.629 69.377 166.465L99.9921 174.668C102.912 175.451 105.9 173.805 107.215 171.084C110.092 165.131 114.304 159.943 119.461 155.908C121.936 153.972 122.883 150.521 121.311 147.8L105.56 120.517Z" fill="#023529"/>
</g>
<mask id="mask3_390_10103" style="mask-type:alpha" maskUnits="userSpaceOnUse" x="106" y="104" width="40" height="46">
<path fill-rule="evenodd" clip-rule="evenodd" d="M123.312 146.873C124.827 149.497 128.115 150.444 130.974 149.438C133.707 148.476 136.567 147.783 139.523 147.39C142.656 146.974 145.229 144.452 145.229 141.291V109.815C145.229 106.655 142.664 104.073 139.51 104.28C128.975 104.973 118.96 107.566 109.803 111.72C106.866 113.053 105.859 116.645 107.472 119.438L123.312 146.873Z" fill="url(#paint4_linear_390_10103)"/>
</mask>
<g mask="url(#mask3_390_10103)">
<path fill-rule="evenodd" clip-rule="evenodd" d="M123.312 146.873C124.827 149.497 128.115 150.444 130.974 149.438C133.707 148.476 136.567 147.783 139.523 147.39C142.656 146.974 145.229 144.452 145.229 141.291V109.815C145.229 106.655 142.664 104.073 139.51 104.28C128.975 104.973 118.96 107.566 109.803 111.72C106.866 113.053 105.859 116.645 107.472 119.438L123.312 146.873Z" fill="#3BC3FF"/>
</g>
<path fill-rule="evenodd" clip-rule="evenodd" d="M135.356 202L150.512 202C153.826 202 156.512 199.314 156.512 196C156.512 192.686 153.826 190 150.512 190L142.284 190L135.356 202Z" fill="#13213C"/>
<path fill-rule="evenodd" clip-rule="evenodd" d="M149.156 178L134 178C130.686 178 128 180.686 128 184C128 187.314 130.686 190 134 190L142.228 190L149.156 178Z" fill="#13213C"/>
<path d="M132.836 202C132.836 201.37 132.712 200.745 132.471 200.163C132.23 199.581 131.876 199.051 131.43 198.606C130.985 198.16 130.455 197.806 129.873 197.565C129.291 197.324 128.666 197.2 128.036 197.2L128.036 202L132.836 202Z" fill="#B1FC03"/>
<path d="M151.676 178C151.676 178.63 151.8 179.254 152.041 179.837C152.283 180.419 152.636 180.948 153.082 181.394C153.528 181.84 154.057 182.193 154.639 182.435C155.222 182.676 155.846 182.8 156.476 182.8L156.476 178L151.676 178Z" fill="#B1FC03"/>
<path d="M60.2996 38.8259V36.7357H71.2815V38.8259H67.0272V50.5H64.5539V38.8259H60.2996ZM72.219 50.5V40.1768H74.5781V41.8973H74.6856C74.8738 41.3014 75.1964 40.8422 75.6534 40.5196C76.1149 40.1925 76.6414 40.0289 77.2328 40.0289C77.3672 40.0289 77.5173 40.0357 77.6831 40.0491C77.8534 40.0581 77.9945 40.0737 78.1065 40.0961V42.3342C78.0035 42.2983 77.8399 42.267 77.6159 42.2401C77.3963 42.2087 77.1835 42.1931 76.9774 42.1931C76.5338 42.1931 76.1351 42.2894 75.7811 42.4821C75.4316 42.6702 75.1561 42.9323 74.9544 43.2684C74.7528 43.6044 74.652 43.992 74.652 44.4311V50.5H72.219ZM83.1287 50.6815C82.3177 50.6815 81.5918 50.4731 80.9511 50.0565C80.3104 49.6398 79.8041 49.0349 79.4322 48.2418C79.0603 47.4488 78.8744 46.4854 78.8744 45.3519C78.8744 44.2048 79.0626 43.237 79.4389 42.4484C79.8198 41.6554 80.3328 41.0572 80.978 40.654C81.6232 40.2462 82.3423 40.0424 83.1354 40.0424C83.7403 40.0424 84.2376 40.1454 84.6274 40.3515C85.0172 40.5532 85.3264 40.7974 85.5549 41.0841C85.7834 41.3664 85.9604 41.633 86.0858 41.8839H86.1867V40.1768H88.6263V50.5H86.2337V48.8736H86.0858C85.9604 49.1245 85.7789 49.3911 85.5415 49.6734C85.304 49.9512 84.9903 50.1886 84.6005 50.3858C84.2107 50.5829 83.7201 50.6815 83.1287 50.6815ZM83.8075 48.6854C84.3227 48.6854 84.7618 48.5465 85.1248 48.2687C85.4877 47.9864 85.7632 47.5944 85.9514 47.0926C86.1396 46.5907 86.2337 46.006 86.2337 45.3384C86.2337 44.6708 86.1396 44.0906 85.9514 43.5977C85.7677 43.1049 85.4944 42.7218 85.1315 42.4484C84.773 42.1751 84.3317 42.0385 83.8075 42.0385C83.2653 42.0385 82.8128 42.1796 82.4499 42.4619C82.0869 42.7442 81.8136 43.134 81.6299 43.6313C81.4462 44.1287 81.3544 44.6977 81.3544 45.3384C81.3544 45.9836 81.4462 46.5594 81.6299 47.0657C81.8181 47.5675 82.0937 47.964 82.4566 48.2553C82.824 48.542 83.2743 48.6854 83.8075 48.6854ZM96.4477 40.1768V42.0586H90.3452V40.1768H96.4477ZM91.8708 50.5V39.2023C91.8708 38.5078 92.0142 37.9298 92.301 37.4683C92.5922 37.0068 92.982 36.6618 93.4704 36.4333C93.9588 36.2048 94.5009 36.0905 95.0968 36.0905C95.518 36.0905 95.8921 36.1241 96.2192 36.1913C96.5463 36.2585 96.7882 36.319 96.9451 36.3728L96.4612 38.2546C96.3581 38.2233 96.2282 38.1919 96.0714 38.1605C95.9145 38.1247 95.7398 38.1068 95.5471 38.1068C95.0946 38.1068 94.7742 38.2165 94.586 38.4361C94.4023 38.6512 94.3105 38.9603 94.3105 39.3636V50.5H91.8708ZM103.582 40.1768V42.0586H97.4794V40.1768H103.582ZM99.005 50.5V39.2023C99.005 38.5078 99.1484 37.9298 99.4351 37.4683C99.7264 37.0068 100.116 36.6618 100.605 36.4333C101.093 36.2048 101.635 36.0905 102.231 36.0905C102.652 36.0905 103.026 36.1241 103.353 36.1913C103.68 36.2585 103.922 36.319 104.079 36.3728L103.595 38.2546C103.492 38.2233 103.362 38.1919 103.206 38.1605C103.049 38.1247 102.874 38.1068 102.681 38.1068C102.229 38.1068 101.908 38.2165 101.72 38.4361C101.537 38.6512 101.445 38.9603 101.445 39.3636V50.5H99.005ZM105.487 50.5V40.1768H107.92V50.5H105.487ZM106.71 38.7117C106.325 38.7117 105.994 38.584 105.716 38.3286C105.438 38.0687 105.299 37.7573 105.299 37.3944C105.299 37.027 105.438 36.7156 105.716 36.4602C105.994 36.2003 106.325 36.0704 106.71 36.0704C107.1 36.0704 107.432 36.2003 107.705 36.4602C107.983 36.7156 108.122 37.027 108.122 37.3944C108.122 37.7573 107.983 38.0687 107.705 38.3286C107.432 38.584 107.1 38.7117 106.71 38.7117ZM114.925 50.7017C113.895 50.7017 113.01 50.4754 112.27 50.0228C111.535 49.5703 110.969 48.9453 110.57 48.1477C110.176 47.3457 109.978 46.4227 109.978 45.3787C109.978 44.3303 110.18 43.405 110.583 42.603C110.987 41.7965 111.556 41.1692 112.29 40.7212C113.03 40.2686 113.903 40.0424 114.912 40.0424C115.749 40.0424 116.491 40.197 117.136 40.5061C117.786 40.8108 118.303 41.2432 118.689 41.8032C119.074 42.3588 119.294 43.0085 119.347 43.7523H117.022C116.928 43.2549 116.704 42.8405 116.35 42.5089C116 42.1729 115.532 42.0049 114.945 42.0049C114.448 42.0049 114.011 42.1393 113.635 42.4081C113.258 42.6725 112.965 43.0533 112.754 43.5507C112.548 44.048 112.445 44.6439 112.445 45.3384C112.445 46.0419 112.548 46.6467 112.754 47.153C112.96 47.6549 113.249 48.0424 113.621 48.3158C113.998 48.5846 114.439 48.719 114.945 48.719C115.304 48.719 115.624 48.6518 115.906 48.5174C116.193 48.3785 116.433 48.1791 116.625 47.9192C116.818 47.6593 116.95 47.3435 117.022 46.9716H119.347C119.289 47.7019 119.074 48.3494 118.702 48.9139C118.33 49.474 117.824 49.9131 117.183 50.2312C116.543 50.5448 115.79 50.7017 114.925 50.7017ZM126.147 50.5V36.7357H128.58V41.8839H128.681C128.806 41.633 128.983 41.3664 129.212 41.0841C129.44 40.7974 129.75 40.5532 130.139 40.3515C130.529 40.1454 131.027 40.0424 131.631 40.0424C132.429 40.0424 133.148 40.2462 133.789 40.654C134.434 41.0572 134.945 41.6554 135.321 42.4484C135.702 43.237 135.892 44.2048 135.892 45.3519C135.892 46.4854 135.706 47.4488 135.335 48.2418C134.963 49.0349 134.456 49.6398 133.816 50.0565C133.175 50.4731 132.449 50.6815 131.638 50.6815C131.047 50.6815 130.556 50.5829 130.166 50.3858C129.776 50.1886 129.463 49.9512 129.225 49.6734C128.992 49.3911 128.811 49.1245 128.681 48.8736H128.54V50.5H126.147ZM128.533 45.3384C128.533 46.006 128.627 46.5907 128.815 47.0926C129.008 47.5944 129.284 47.9864 129.642 48.2687C130.005 48.5465 130.444 48.6854 130.959 48.6854C131.497 48.6854 131.947 48.542 132.31 48.2553C132.673 47.964 132.946 47.5675 133.13 47.0657C133.318 46.5594 133.412 45.9836 133.412 45.3384C133.412 44.6977 133.321 44.1287 133.137 43.6313C132.953 43.134 132.68 42.7442 132.317 42.4619C131.954 42.1796 131.501 42.0385 130.959 42.0385C130.44 42.0385 129.998 42.1751 129.635 42.4484C129.272 42.7218 128.997 43.1049 128.809 43.5977C128.625 44.0906 128.533 44.6708 128.533 45.3384ZM139.122 54.3712C138.79 54.3712 138.483 54.3444 138.201 54.2906C137.923 54.2413 137.701 54.1831 137.536 54.1159L138.1 52.2206C138.454 52.3236 138.77 52.3729 139.048 52.3684C139.326 52.3639 139.57 52.2766 139.78 52.1063C139.996 51.9405 140.177 51.6627 140.325 51.2729L140.533 50.7151L136.79 40.1768H139.37L141.75 47.973H141.857L144.243 40.1768H146.831L142.697 51.7501C142.505 52.2967 142.249 52.765 141.931 53.1548C141.613 53.5491 141.223 53.8493 140.762 54.0554C140.305 54.2659 139.758 54.3712 139.122 54.3712ZM153.316 50.5V36.7357H155.81V48.4098H161.872V50.5H153.316ZM168.431 50.7017C167.423 50.7017 166.55 50.4799 165.81 50.0363C165.071 49.5927 164.498 48.9722 164.09 48.1746C163.687 47.3771 163.485 46.4451 163.485 45.3787C163.485 44.3124 163.687 43.3782 164.09 42.5761C164.498 41.7741 165.071 41.1513 165.81 40.7077C166.55 40.2642 167.423 40.0424 168.431 40.0424C169.44 40.0424 170.313 40.2642 171.053 40.7077C171.792 41.1513 172.363 41.7741 172.766 42.5761C173.174 43.3782 173.378 44.3124 173.378 45.3787C173.378 46.4451 173.174 47.3771 172.766 48.1746C172.363 48.9722 171.792 49.5927 171.053 50.0363C170.313 50.4799 169.44 50.7017 168.431 50.7017ZM168.445 48.7526C168.992 48.7526 169.449 48.6025 169.816 48.3023C170.183 47.9976 170.457 47.5899 170.636 47.0791C170.82 46.5683 170.911 45.9993 170.911 45.372C170.911 44.7403 170.82 44.169 170.636 43.6582C170.457 43.1429 170.183 42.733 169.816 42.4283C169.449 42.1236 168.992 41.9713 168.445 41.9713C167.885 41.9713 167.419 42.1236 167.047 42.4283C166.68 42.733 166.404 43.1429 166.22 43.6582C166.041 44.169 165.951 44.7403 165.951 45.372C165.951 45.9993 166.041 46.5683 166.22 47.0791C166.404 47.5899 166.68 47.9976 167.047 48.3023C167.419 48.6025 167.885 48.7526 168.445 48.7526ZM179.946 50.7017C178.915 50.7017 178.031 50.4754 177.291 50.0228C176.556 49.5703 175.99 48.9453 175.591 48.1477C175.197 47.3457 174.999 46.4227 174.999 45.3787C174.999 44.3303 175.201 43.405 175.604 42.603C176.008 41.7965 176.577 41.1692 177.311 40.7212C178.051 40.2686 178.924 40.0424 179.933 40.0424C180.77 40.0424 181.512 40.197 182.157 40.5061C182.807 40.8108 183.324 41.2432 183.71 41.8032C184.095 42.3588 184.315 43.0085 184.368 43.7523H182.043C181.949 43.2549 181.725 42.8405 181.371 42.5089C181.021 42.1729 180.553 42.0049 179.966 42.0049C179.469 42.0049 179.032 42.1393 178.656 42.4081C178.279 42.6725 177.986 43.0533 177.775 43.5507C177.569 44.048 177.466 44.6439 177.466 45.3384C177.466 46.0419 177.569 46.6467 177.775 47.153C177.981 47.6549 178.27 48.0424 178.642 48.3158C179.018 48.5846 179.46 48.719 179.966 48.719C180.325 48.719 180.645 48.6518 180.927 48.5174C181.214 48.3785 181.454 48.1791 181.646 47.9192C181.839 47.6593 181.971 47.3435 182.043 46.9716H184.368C184.31 47.7019 184.095 48.3494 183.723 48.9139C183.351 49.474 182.845 49.9131 182.204 50.2312C181.563 50.5448 180.811 50.7017 179.946 50.7017ZM190.197 50.6815C189.386 50.6815 188.66 50.4731 188.019 50.0565C187.379 49.6398 186.872 49.0349 186.5 48.2418C186.129 47.4488 185.943 46.4854 185.943 45.3519C185.943 44.2048 186.131 43.237 186.507 42.4484C186.888 41.6554 187.401 41.0572 188.046 40.654C188.691 40.2462 189.411 40.0424 190.204 40.0424C190.809 40.0424 191.306 40.1454 191.696 40.3515C192.085 40.5532 192.395 40.7974 192.623 41.0841C192.852 41.3664 193.029 41.633 193.154 41.8839H193.255V40.1768H195.695V50.5H193.302V48.8736H193.154C193.029 49.1245 192.847 49.3911 192.61 49.6734C192.372 49.9512 192.059 50.1886 191.669 50.3858C191.279 50.5829 190.788 50.6815 190.197 50.6815ZM190.876 48.6854C191.391 48.6854 191.83 48.5465 192.193 48.2687C192.556 47.9864 192.832 47.5944 193.02 47.0926C193.208 46.5907 193.302 46.006 193.302 45.3384C193.302 44.6708 193.208 44.0906 193.02 43.5977C192.836 43.1049 192.563 42.7218 192.2 42.4484C191.841 42.1751 191.4 42.0385 190.876 42.0385C190.334 42.0385 189.881 42.1796 189.518 42.4619C189.155 42.7442 188.882 43.134 188.698 43.6313C188.514 44.1287 188.423 44.6977 188.423 45.3384C188.423 45.9836 188.514 46.5594 188.698 47.0657C188.886 47.5675 189.162 47.964 189.525 48.2553C189.892 48.542 190.343 48.6854 190.876 48.6854ZM203.442 40.1768V42.0586H197.508V40.1768H203.442ZM198.973 37.7035H201.406V47.395C201.406 47.7221 201.455 47.973 201.553 48.1477C201.657 48.318 201.791 48.4345 201.957 48.4972C202.123 48.5599 202.306 48.5913 202.508 48.5913C202.66 48.5913 202.799 48.5801 202.925 48.5577C203.054 48.5353 203.153 48.5151 203.22 48.4972L203.63 50.3992C203.5 50.444 203.314 50.4933 203.072 50.5471C202.835 50.6008 202.544 50.6322 202.199 50.6412C201.589 50.6591 201.04 50.5672 200.552 50.3656C200.064 50.1595 199.676 49.8414 199.389 49.4113C199.107 48.9811 198.968 48.4434 198.973 47.7982V37.7035ZM205.477 50.5V40.1768H207.91V50.5H205.477ZM206.7 38.7117C206.315 38.7117 205.983 38.584 205.705 38.3286C205.428 38.0687 205.289 37.7573 205.289 37.3944C205.289 37.027 205.428 36.7156 205.705 36.4602C205.983 36.2003 206.315 36.0704 206.7 36.0704C207.09 36.0704 207.421 36.2003 207.695 36.4602C207.972 36.7156 208.111 37.027 208.111 37.3944C208.111 37.7573 207.972 38.0687 207.695 38.3286C207.421 38.584 207.09 38.7117 206.7 38.7117ZM214.915 50.7017C213.906 50.7017 213.033 50.4799 212.293 50.0363C211.554 49.5927 210.981 48.9722 210.573 48.1746C210.17 47.3771 209.968 46.4451 209.968 45.3787C209.968 44.3124 210.17 43.3782 210.573 42.5761C210.981 41.7741 211.554 41.1513 212.293 40.7077C213.033 40.2642 213.906 40.0424 214.915 40.0424C215.923 40.0424 216.796 40.2642 217.536 40.7077C218.275 41.1513 218.846 41.7741 219.25 42.5761C219.657 43.3782 219.861 44.3124 219.861 45.3787C219.861 46.4451 219.657 47.3771 219.25 48.1746C218.846 48.9722 218.275 49.5927 217.536 50.0363C216.796 50.4799 215.923 50.7017 214.915 50.7017ZM214.928 48.7526C215.475 48.7526 215.932 48.6025 216.299 48.3023C216.666 47.9976 216.94 47.5899 217.119 47.0791C217.303 46.5683 217.395 45.9993 217.395 45.372C217.395 44.7403 217.303 44.169 217.119 43.6582C216.94 43.1429 216.666 42.733 216.299 42.4283C215.932 42.1236 215.475 41.9713 214.928 41.9713C214.368 41.9713 213.902 42.1236 213.53 42.4283C213.163 42.733 212.887 43.1429 212.703 43.6582C212.524 44.169 212.435 44.7403 212.435 45.372C212.435 45.9993 212.524 46.5683 212.703 47.0791C212.887 47.5899 213.163 47.9976 213.53 48.3023C213.902 48.6025 214.368 48.7526 214.928 48.7526ZM224.359 44.4513V50.5H221.926V40.1768H224.251V41.9309H224.372C224.61 41.3529 224.989 40.8937 225.508 40.5532C226.033 40.2126 226.68 40.0424 227.451 40.0424C228.163 40.0424 228.784 40.1947 229.312 40.4994C229.845 40.8041 230.258 41.2454 230.549 41.8234C230.845 42.4014 230.99 43.1026 230.986 43.927V50.5H228.553V44.3034C228.553 43.6134 228.374 43.0735 228.015 42.6837C227.661 42.2939 227.171 42.099 226.543 42.099C226.118 42.099 225.739 42.1931 225.407 42.3812C225.08 42.5649 224.823 42.8315 224.635 43.181C224.451 43.5305 224.359 43.9539 224.359 44.4513Z" fill="#13213C"/>
</g>
<defs>
<linearGradient id="paint0_linear_390_10103" x1="231.216" y1="104.093" x2="173.09" y2="165.71" gradientUnits="userSpaceOnUse">
<stop/>
<stop offset="1"/>
</linearGradient>
<linearGradient id="paint1_linear_390_10103" x1="178.065" y1="104.093" x2="178.065" y2="275.731" gradientUnits="userSpaceOnUse">
<stop stop-color="#023529"/>
<stop offset="1" stop-color="#023529" stop-opacity="0.6"/>
</linearGradient>
<linearGradient id="paint2_linear_390_10103" x1="133.499" y1="168.475" x2="98.5881" y2="210.548" gradientUnits="userSpaceOnUse">
<stop/>
<stop offset="1"/>
</linearGradient>
<linearGradient id="paint3_linear_390_10103" x1="124.15" y1="115.538" x2="106.257" y2="146.138" gradientUnits="userSpaceOnUse">
<stop/>
<stop offset="1"/>
</linearGradient>
<linearGradient id="paint4_linear_390_10103" x1="145.229" y1="104.093" x2="130.249" y2="126.084" gradientUnits="userSpaceOnUse">
<stop/>
<stop offset="1"/>
</linearGradient>
<clipPath id="clip0_390_10103">
<rect width="292" height="475.852" rx="10" fill="white"/>
</clipPath>
</defs>
</svg>
