<svg width="292" height="282" viewBox="0 0 292 282" fill="none" xmlns="http://www.w3.org/2000/svg">
<rect width="292" height="281.571" rx="10" transform="matrix(-1 0 0 1 292 -6.10352e-05)" fill="#275855"/>
<mask id="mask0_390_10086" style="mask-type:alpha" maskUnits="userSpaceOnUse" x="0" y="0" width="292" height="282">
<rect width="292" height="281.571" rx="10" transform="matrix(-1 0 0 1 292 -6.10352e-05)" fill="#21C9D3"/>
</mask>
<g mask="url(#mask0_390_10086)">
<rect width="200.229" height="193.971" rx="96.9857" transform="matrix(-1 0 0 1 147.043 -47.9715)" fill="#004743"/>
<rect width="116.8" height="112.629" rx="56.3143" transform="matrix(-1 0 0 1 332.671 213.786)" fill="#004743"/>
</g>
<rect x="120.971" y="31.2856" width="51.1" height="51.1" rx="25.55" fill="white"/>
<path d="M153.628 56.3915H152.295V52.838C152.295 51.8608 151.496 51.0613 150.519 51.0613H146.965V49.7288C146.965 48.4851 145.988 47.5079 144.744 47.5079C143.501 47.5079 142.524 48.4851 142.524 49.7288V51.0613H138.97C137.993 51.0613 137.193 51.8608 137.193 52.838V56.2138H138.526C139.858 56.2138 140.924 57.2798 140.924 58.6124C140.924 59.9449 139.858 61.0109 138.526 61.0109H137.193V64.3867C137.193 65.3639 137.993 66.1634 138.97 66.1634H142.346V64.8309C142.346 63.4984 143.412 62.4323 144.744 62.4323C146.077 62.4323 147.143 63.4984 147.143 64.8309V66.1634H150.519C151.496 66.1634 152.295 65.3639 152.295 64.3867V60.8333H153.628C154.872 60.8333 155.849 59.8561 155.849 58.6124C155.849 57.3687 154.872 56.3915 153.628 56.3915Z" fill="#275855"/>
<path d="M100.321 106.9V95.2199H102.457V105.231H107.629V106.9H100.321ZM110.613 97.339C110.223 97.339 109.901 97.2222 109.645 96.9886C109.4 96.755 109.278 96.4602 109.278 96.1042C109.278 95.7483 109.4 95.4591 109.645 95.2366C109.901 95.003 110.223 94.8862 110.613 94.8862C111.002 94.8862 111.319 95.003 111.564 95.2366C111.819 95.4591 111.947 95.7483 111.947 96.1042C111.947 96.4602 111.819 96.755 111.564 96.9886C111.319 97.2222 111.002 97.339 110.613 97.339ZM109.545 106.9V98.6238H111.68V106.9H109.545ZM117.414 104.43C117.013 104.43 116.641 104.386 116.296 104.297L115.678 104.914C115.867 105.014 116.123 105.098 116.446 105.165C116.768 105.231 117.291 105.298 118.014 105.365C119.116 105.465 119.917 105.726 120.417 106.149C120.918 106.572 121.168 107.156 121.168 107.901C121.168 108.39 121.034 108.852 120.767 109.286C120.501 109.731 120.089 110.087 119.533 110.354C118.977 110.632 118.265 110.771 117.397 110.771C116.218 110.771 115.267 110.549 114.544 110.104C113.821 109.67 113.459 109.013 113.459 108.135C113.459 107.389 113.821 106.744 114.544 106.199C114.321 106.099 114.127 105.993 113.96 105.882C113.804 105.771 113.665 105.654 113.543 105.532V105.148L114.994 103.613C114.349 103.046 114.026 102.317 114.026 101.427C114.026 100.871 114.16 100.365 114.427 99.9086C114.705 99.4525 115.094 99.091 115.595 98.824C116.095 98.557 116.702 98.4236 117.414 98.4236C117.881 98.4236 118.315 98.4903 118.715 98.6238H121.852V99.9253L120.434 100.025C120.656 100.448 120.767 100.915 120.767 101.427C120.767 101.983 120.634 102.489 120.367 102.945C120.1 103.401 119.711 103.763 119.199 104.03C118.698 104.297 118.103 104.43 117.414 104.43ZM117.414 102.795C117.847 102.795 118.203 102.678 118.482 102.445C118.771 102.211 118.915 101.878 118.915 101.444C118.915 101.01 118.771 100.676 118.482 100.443C118.203 100.209 117.847 100.092 117.414 100.092C116.958 100.092 116.59 100.209 116.312 100.443C116.034 100.676 115.895 101.01 115.895 101.444C115.895 101.878 116.034 102.211 116.312 102.445C116.59 102.678 116.958 102.795 117.414 102.795ZM115.411 107.918C115.411 108.329 115.6 108.635 115.979 108.835C116.368 109.047 116.841 109.152 117.397 109.152C117.931 109.152 118.365 109.041 118.698 108.819C119.032 108.607 119.199 108.318 119.199 107.951C119.199 107.651 119.088 107.4 118.865 107.2C118.654 107 118.226 106.878 117.581 106.833C117.124 106.8 116.702 106.75 116.312 106.683C115.99 106.861 115.756 107.056 115.612 107.267C115.478 107.478 115.411 107.695 115.411 107.918ZM123.409 106.9V94.8862H125.545V99.8919C125.823 99.4358 126.196 99.0799 126.663 98.824C127.141 98.557 127.687 98.4236 128.298 98.4236C129.322 98.4236 130.112 98.7461 130.668 99.3913C131.235 100.037 131.519 100.982 131.519 102.228V106.9H129.4V102.428C129.4 101.716 129.255 101.171 128.966 100.793C128.688 100.415 128.243 100.226 127.631 100.226C127.03 100.226 126.53 100.437 126.129 100.86C125.74 101.282 125.545 101.872 125.545 102.628V106.9H123.409ZM137.249 106.9C136.381 106.9 135.686 106.689 135.163 106.266C134.64 105.843 134.379 105.092 134.379 104.013V100.409H132.96V98.6238H134.379L134.629 96.4046H136.514V98.6238H138.75V100.409H136.514V104.03C136.514 104.43 136.598 104.709 136.765 104.864C136.943 105.009 137.243 105.081 137.666 105.081H138.7V106.9H137.249ZM147.98 107.1C147.246 107.1 146.601 106.983 146.045 106.75C145.489 106.505 145.044 106.171 144.71 105.749C144.376 105.326 144.176 104.836 144.109 104.28H146.262C146.329 104.603 146.507 104.881 146.796 105.115C147.096 105.337 147.48 105.448 147.947 105.448C148.414 105.448 148.754 105.354 148.965 105.165C149.187 104.975 149.299 104.759 149.299 104.514C149.299 104.158 149.143 103.919 148.831 103.796C148.52 103.663 148.086 103.535 147.53 103.413C147.174 103.335 146.812 103.24 146.445 103.129C146.078 103.018 145.739 102.879 145.428 102.712C145.127 102.534 144.882 102.311 144.693 102.044C144.504 101.766 144.41 101.427 144.41 101.027C144.41 100.292 144.699 99.675 145.277 99.1744C145.867 98.6738 146.69 98.4236 147.747 98.4236C148.726 98.4236 149.504 98.6516 150.083 99.1077C150.672 99.5637 151.023 100.192 151.134 100.993H149.115C148.993 100.381 148.531 100.075 147.73 100.075C147.33 100.075 147.018 100.153 146.796 100.309C146.584 100.465 146.479 100.659 146.479 100.893C146.479 101.138 146.64 101.332 146.963 101.477C147.285 101.622 147.713 101.755 148.247 101.878C148.826 102.011 149.354 102.161 149.833 102.328C150.322 102.484 150.711 102.723 151.001 103.046C151.29 103.357 151.434 103.807 151.434 104.397C151.446 104.909 151.312 105.37 151.034 105.782C150.756 106.194 150.355 106.516 149.833 106.75C149.31 106.983 148.692 107.1 147.98 107.1ZM153.326 110.571V98.6238H155.229L155.462 99.8085C155.729 99.4414 156.08 99.1188 156.513 98.8407C156.958 98.5626 157.531 98.4236 158.232 98.4236C159.011 98.4236 159.706 98.6127 160.318 98.9909C160.93 99.3691 161.413 99.8863 161.769 100.543C162.125 101.199 162.303 101.944 162.303 102.779C162.303 103.613 162.125 104.358 161.769 105.014C161.413 105.66 160.93 106.171 160.318 106.55C159.706 106.917 159.011 107.1 158.232 107.1C157.609 107.1 157.064 106.983 156.597 106.75C156.13 106.516 155.751 106.188 155.462 105.765V110.571H153.326ZM157.781 105.231C158.46 105.231 159.022 105.003 159.467 104.547C159.912 104.091 160.134 103.502 160.134 102.779C160.134 102.055 159.912 101.46 159.467 100.993C159.022 100.526 158.46 100.292 157.781 100.292C157.092 100.292 156.524 100.526 156.08 100.993C155.646 101.449 155.429 102.039 155.429 102.762C155.429 103.485 155.646 104.08 156.08 104.547C156.524 105.003 157.092 105.231 157.781 105.231ZM168.232 107.1C167.398 107.1 166.658 106.922 166.013 106.566C165.368 106.21 164.862 105.71 164.495 105.064C164.128 104.419 163.944 103.674 163.944 102.829C163.944 101.972 164.122 101.21 164.478 100.543C164.845 99.8752 165.346 99.358 165.98 98.9909C166.625 98.6127 167.382 98.4236 168.249 98.4236C169.061 98.4236 169.779 98.6015 170.402 98.9575C171.025 99.3135 171.508 99.8029 171.853 100.426C172.209 101.038 172.387 101.722 172.387 102.478C172.387 102.601 172.382 102.728 172.371 102.862C172.371 102.995 172.365 103.134 172.354 103.279H166.063C166.108 103.924 166.33 104.43 166.731 104.798C167.142 105.165 167.637 105.348 168.216 105.348C168.65 105.348 169.011 105.254 169.3 105.064C169.601 104.864 169.823 104.608 169.968 104.297H172.137C171.981 104.82 171.72 105.298 171.353 105.732C170.997 106.155 170.552 106.488 170.018 106.733C169.495 106.978 168.9 107.1 168.232 107.1ZM168.249 100.159C167.726 100.159 167.265 100.309 166.864 100.609C166.464 100.899 166.208 101.344 166.097 101.944H170.218C170.185 101.399 169.984 100.965 169.617 100.643C169.25 100.32 168.794 100.159 168.249 100.159ZM178.205 107.1C177.371 107.1 176.631 106.922 175.986 106.566C175.34 106.21 174.834 105.71 174.467 105.064C174.1 104.419 173.917 103.674 173.917 102.829C173.917 101.972 174.095 101.21 174.451 100.543C174.818 99.8752 175.318 99.358 175.952 98.9909C176.597 98.6127 177.354 98.4236 178.221 98.4236C179.034 98.4236 179.751 98.6015 180.374 98.9575C180.997 99.3135 181.481 99.8029 181.826 100.426C182.182 101.038 182.36 101.722 182.36 102.478C182.36 102.601 182.354 102.728 182.343 102.862C182.343 102.995 182.337 103.134 182.326 103.279H176.036C176.08 103.924 176.303 104.43 176.703 104.798C177.115 105.165 177.61 105.348 178.188 105.348C178.622 105.348 178.983 105.254 179.273 105.064C179.573 104.864 179.796 104.608 179.94 104.297H182.109C181.954 104.82 181.692 105.298 181.325 105.732C180.969 106.155 180.524 106.488 179.99 106.733C179.467 106.978 178.872 107.1 178.205 107.1ZM178.221 100.159C177.699 100.159 177.237 100.309 176.837 100.609C176.436 100.899 176.18 101.344 176.069 101.944H180.19C180.157 101.399 179.957 100.965 179.59 100.643C179.223 100.32 178.767 100.159 178.221 100.159ZM187.96 107.1C187.182 107.1 186.486 106.911 185.874 106.533C185.263 106.155 184.779 105.637 184.423 104.981C184.067 104.325 183.889 103.579 183.889 102.745C183.889 101.911 184.067 101.171 184.423 100.526C184.779 99.8697 185.263 99.358 185.874 98.9909C186.486 98.6127 187.182 98.4236 187.96 98.4236C188.583 98.4236 189.128 98.5404 189.595 98.774C190.063 99.0076 190.441 99.3357 190.73 99.7584V94.8862H192.866V106.9H190.964L190.73 105.715C190.463 106.082 190.107 106.405 189.662 106.683C189.228 106.961 188.661 107.1 187.96 107.1ZM188.411 105.231C189.1 105.231 189.662 105.003 190.096 104.547C190.541 104.08 190.763 103.485 190.763 102.762C190.763 102.039 190.541 101.449 190.096 100.993C189.662 100.526 189.1 100.292 188.411 100.292C187.732 100.292 187.17 100.52 186.725 100.976C186.281 101.433 186.058 102.022 186.058 102.745C186.058 103.468 186.281 104.063 186.725 104.531C187.17 104.998 187.732 105.231 188.411 105.231ZM121.048 125.1C120.425 125.1 119.88 124.983 119.412 124.75C118.945 124.516 118.567 124.188 118.278 123.765L118.044 124.9H116.142V112.886H118.278V117.808C118.545 117.441 118.895 117.119 119.329 116.841C119.774 116.563 120.347 116.424 121.048 116.424C121.826 116.424 122.522 116.613 123.133 116.991C123.745 117.369 124.229 117.886 124.585 118.543C124.941 119.199 125.119 119.944 125.119 120.779C125.119 121.613 124.941 122.358 124.585 123.014C124.229 123.66 123.745 124.171 123.133 124.55C122.522 124.917 121.826 125.1 121.048 125.1ZM120.597 123.231C121.276 123.231 121.837 123.003 122.282 122.547C122.727 122.091 122.95 121.502 122.95 120.779C122.95 120.055 122.727 119.46 122.282 118.993C121.837 118.526 121.276 118.292 120.597 118.292C119.907 118.292 119.34 118.526 118.895 118.993C118.461 119.449 118.244 120.039 118.244 120.762C118.244 121.485 118.461 122.08 118.895 122.547C119.34 123.003 119.907 123.231 120.597 123.231ZM130.998 125.1C130.197 125.1 129.474 124.917 128.829 124.55C128.195 124.182 127.689 123.676 127.311 123.031C126.943 122.375 126.76 121.618 126.76 120.762C126.76 119.905 126.949 119.154 127.327 118.509C127.705 117.853 128.212 117.341 128.846 116.974C129.491 116.607 130.214 116.424 131.015 116.424C131.805 116.424 132.516 116.607 133.151 116.974C133.796 117.341 134.302 117.853 134.669 118.509C135.047 119.154 135.236 119.905 135.236 120.762C135.236 121.618 135.047 122.375 134.669 123.031C134.302 123.676 133.796 124.182 133.151 124.55C132.505 124.917 131.788 125.1 130.998 125.1ZM130.998 123.248C131.554 123.248 132.038 123.042 132.45 122.631C132.861 122.208 133.067 121.585 133.067 120.762C133.067 119.939 132.861 119.321 132.45 118.91C132.038 118.487 131.56 118.276 131.015 118.276C130.447 118.276 129.958 118.487 129.546 118.91C129.146 119.321 128.946 119.939 128.946 120.762C128.946 121.585 129.146 122.208 129.546 122.631C129.958 123.042 130.442 123.248 130.998 123.248ZM141.117 125.1C140.316 125.1 139.593 124.917 138.948 124.55C138.314 124.182 137.808 123.676 137.429 123.031C137.062 122.375 136.879 121.618 136.879 120.762C136.879 119.905 137.068 119.154 137.446 118.509C137.824 117.853 138.331 117.341 138.965 116.974C139.61 116.607 140.333 116.424 141.134 116.424C141.923 116.424 142.635 116.607 143.269 116.974C143.915 117.341 144.421 117.853 144.788 118.509C145.166 119.154 145.355 119.905 145.355 120.762C145.355 121.618 145.166 122.375 144.788 123.031C144.421 123.676 143.915 124.182 143.269 124.55C142.624 124.917 141.907 125.1 141.117 125.1ZM141.117 123.248C141.673 123.248 142.157 123.042 142.569 122.631C142.98 122.208 143.186 121.585 143.186 120.762C143.186 119.939 142.98 119.321 142.569 118.91C142.157 118.487 141.679 118.276 141.134 118.276C140.566 118.276 140.077 118.487 139.665 118.91C139.265 119.321 139.065 119.939 139.065 120.762C139.065 121.585 139.265 122.208 139.665 122.631C140.077 123.042 140.561 123.248 141.117 123.248ZM150.685 125.1C149.951 125.1 149.306 124.983 148.75 124.75C148.194 124.505 147.749 124.171 147.415 123.749C147.081 123.326 146.881 122.836 146.814 122.28H148.967C149.033 122.603 149.211 122.881 149.501 123.115C149.801 123.337 150.185 123.448 150.652 123.448C151.119 123.448 151.458 123.354 151.67 123.165C151.892 122.975 152.004 122.759 152.004 122.514C152.004 122.158 151.848 121.919 151.536 121.796C151.225 121.663 150.791 121.535 150.235 121.413C149.879 121.335 149.517 121.24 149.15 121.129C148.783 121.018 148.444 120.879 148.132 120.712C147.832 120.534 147.587 120.311 147.398 120.044C147.209 119.766 147.115 119.427 147.115 119.027C147.115 118.292 147.404 117.675 147.982 117.174C148.572 116.674 149.395 116.424 150.452 116.424C151.431 116.424 152.209 116.652 152.788 117.108C153.377 117.564 153.728 118.192 153.839 118.993H151.82C151.698 118.381 151.236 118.075 150.435 118.075C150.035 118.075 149.723 118.153 149.501 118.309C149.289 118.465 149.184 118.659 149.184 118.893C149.184 119.138 149.345 119.332 149.668 119.477C149.99 119.622 150.418 119.755 150.952 119.878C151.531 120.011 152.059 120.161 152.537 120.328C153.027 120.484 153.416 120.723 153.705 121.046C153.995 121.357 154.139 121.807 154.139 122.397C154.15 122.909 154.017 123.37 153.739 123.782C153.461 124.194 153.06 124.516 152.537 124.75C152.015 124.983 151.397 125.1 150.685 125.1ZM159.458 124.9C158.59 124.9 157.895 124.689 157.372 124.266C156.85 123.843 156.588 123.092 156.588 122.013V118.409H155.17V116.624H156.588L156.838 114.405H158.724V116.624H160.96V118.409H158.724V122.03C158.724 122.43 158.807 122.709 158.974 122.864C159.152 123.009 159.453 123.081 159.875 123.081H160.91V124.9H159.458ZM166.603 125.1C165.769 125.1 165.029 124.922 164.384 124.566C163.739 124.21 163.232 123.71 162.865 123.064C162.498 122.419 162.315 121.674 162.315 120.829C162.315 119.972 162.493 119.21 162.849 118.543C163.216 117.875 163.716 117.358 164.35 116.991C164.996 116.613 165.752 116.424 166.62 116.424C167.432 116.424 168.149 116.602 168.772 116.958C169.395 117.313 169.879 117.803 170.224 118.426C170.58 119.038 170.758 119.722 170.758 120.478C170.758 120.601 170.752 120.728 170.741 120.862C170.741 120.995 170.736 121.134 170.724 121.279H164.434C164.478 121.924 164.701 122.43 165.101 122.798C165.513 123.165 166.008 123.348 166.586 123.348C167.02 123.348 167.382 123.254 167.671 123.064C167.971 122.864 168.194 122.608 168.338 122.297H170.507C170.352 122.82 170.09 123.298 169.723 123.732C169.367 124.155 168.922 124.488 168.388 124.733C167.866 124.978 167.27 125.1 166.603 125.1ZM166.62 118.159C166.097 118.159 165.635 118.309 165.235 118.609C164.834 118.899 164.578 119.344 164.467 119.944H168.589C168.555 119.399 168.355 118.965 167.988 118.643C167.621 118.32 167.165 118.159 166.62 118.159ZM172.554 124.9V116.624H174.456L174.656 118.176C174.957 117.642 175.363 117.219 175.875 116.907C176.397 116.585 177.009 116.424 177.71 116.424V118.676H177.109C176.642 118.676 176.225 118.748 175.858 118.893C175.491 119.038 175.202 119.288 174.99 119.644C174.79 120 174.69 120.495 174.69 121.129V124.9H172.554Z" fill="white"/>
<path d="M128.353 222.7C127.034 222.7 125.925 222.458 125.024 221.974C124.123 221.491 123.397 220.84 122.846 220.022C122.296 219.205 121.895 218.295 121.645 217.294C121.411 216.293 121.294 215.267 121.294 214.216C121.294 212.263 121.57 210.57 122.12 209.135C122.671 207.683 123.464 206.565 124.498 205.781C125.533 204.98 126.784 204.58 128.252 204.58C129.454 204.58 130.472 204.822 131.306 205.305C132.157 205.773 132.816 206.39 133.283 207.158C133.75 207.925 134.026 208.751 134.109 209.635H131.131C130.981 208.868 130.655 208.275 130.155 207.858C129.654 207.441 129.012 207.233 128.227 207.233C127.109 207.233 126.208 207.75 125.524 208.784C124.84 209.802 124.473 211.362 124.423 213.465C124.823 212.781 125.424 212.213 126.225 211.763C127.026 211.312 127.919 211.087 128.903 211.087C129.871 211.087 130.78 211.321 131.631 211.788C132.482 212.255 133.166 212.914 133.684 213.765C134.218 214.616 134.485 215.617 134.485 216.768C134.485 217.82 134.226 218.796 133.709 219.697C133.208 220.598 132.491 221.324 131.556 221.874C130.638 222.425 129.571 222.7 128.353 222.7ZM128.177 219.947C129.112 219.947 129.879 219.663 130.48 219.096C131.097 218.512 131.406 217.778 131.406 216.894C131.406 215.959 131.097 215.208 130.48 214.641C129.863 214.074 129.078 213.79 128.127 213.79C127.51 213.79 126.951 213.932 126.45 214.216C125.966 214.483 125.583 214.85 125.299 215.317C125.015 215.767 124.874 216.276 124.874 216.844C124.874 217.745 125.182 218.487 125.8 219.071C126.434 219.655 127.226 219.947 128.177 219.947ZM143.426 222.7C142.141 222.7 141.032 222.475 140.097 222.024C139.18 221.574 138.454 220.957 137.92 220.172C137.403 219.371 137.102 218.47 137.019 217.469H140.147C140.298 218.187 140.665 218.787 141.249 219.271C141.833 219.739 142.559 219.972 143.426 219.972C144.361 219.972 145.12 219.63 145.704 218.946C146.304 218.262 146.605 217.411 146.605 216.393C146.605 215.342 146.304 214.508 145.704 213.89C145.12 213.273 144.377 212.964 143.476 212.964C142.725 212.964 142.075 213.148 141.524 213.515C140.973 213.882 140.581 214.341 140.348 214.891H137.269L138.771 204.88H148.482V207.683H141.174L140.373 211.738C140.74 211.337 141.24 211.012 141.874 210.762C142.508 210.495 143.218 210.361 144.002 210.361C145.253 210.361 146.296 210.645 147.13 211.212C147.965 211.763 148.599 212.497 149.033 213.415C149.466 214.316 149.683 215.3 149.683 216.368C149.683 217.586 149.416 218.671 148.882 219.622C148.365 220.573 147.631 221.324 146.68 221.874C145.745 222.425 144.661 222.7 143.426 222.7ZM156.269 213.49C155.468 213.49 154.742 213.315 154.091 212.964C153.441 212.597 152.923 212.08 152.539 211.412C152.156 210.745 151.964 209.952 151.964 209.035C151.964 208.117 152.156 207.324 152.539 206.657C152.923 205.99 153.441 205.481 154.091 205.13C154.742 204.763 155.476 204.58 156.294 204.58C157.095 204.58 157.812 204.763 158.446 205.13C159.097 205.481 159.614 205.99 159.998 206.657C160.382 207.324 160.574 208.117 160.574 209.035C160.574 209.952 160.382 210.745 159.998 211.412C159.614 212.08 159.097 212.597 158.446 212.964C157.795 213.315 157.07 213.49 156.269 213.49ZM155.318 222.4L165.204 204.88H168.333L158.446 222.4H155.318ZM156.269 211.262C156.753 211.262 157.17 211.079 157.52 210.712C157.871 210.328 158.046 209.769 158.046 209.035C158.046 208.3 157.871 207.742 157.52 207.358C157.186 206.974 156.769 206.782 156.269 206.782C155.768 206.782 155.343 206.974 154.992 207.358C154.659 207.742 154.492 208.3 154.492 209.035C154.492 209.769 154.659 210.328 154.992 210.712C155.343 211.079 155.768 211.262 156.269 211.262ZM167.482 222.7C166.681 222.7 165.955 222.525 165.304 222.175C164.653 221.808 164.136 221.29 163.752 220.623C163.369 219.955 163.177 219.163 163.177 218.245C163.177 217.327 163.369 216.543 163.752 215.892C164.136 215.225 164.653 214.716 165.304 214.366C165.955 213.999 166.689 213.815 167.507 213.815C168.307 213.815 169.025 213.999 169.659 214.366C170.31 214.716 170.827 215.225 171.211 215.892C171.595 216.543 171.786 217.327 171.786 218.245C171.786 219.163 171.595 219.955 171.211 220.623C170.827 221.29 170.31 221.808 169.659 222.175C169.025 222.525 168.299 222.7 167.482 222.7ZM167.482 220.473C167.982 220.473 168.399 220.289 168.733 219.922C169.083 219.538 169.259 218.979 169.259 218.245C169.259 217.511 169.083 216.952 168.733 216.568C168.399 216.184 167.982 215.993 167.482 215.993C166.981 215.993 166.555 216.184 166.205 216.568C165.871 216.952 165.705 217.511 165.705 218.245C165.705 218.979 165.871 219.538 166.205 219.922C166.555 220.289 166.981 220.473 167.482 220.473Z" fill="white"/>
<path fill-rule="evenodd" clip-rule="evenodd" d="M95.8665 253.574C98.1645 256.396 102.366 256.376 104.939 253.803C107.512 251.23 107.473 247.081 105.25 244.201C100.412 237.933 97.0656 230.609 95.5094 222.786C93.523 212.8 94.5426 202.449 98.4389 193.042C102.335 183.636 108.934 175.596 117.399 169.939C125.865 164.282 135.818 161.263 146 161.263C156.182 161.263 166.135 164.282 174.601 169.939C183.066 175.596 189.665 183.636 193.561 193.042C197.457 202.449 198.477 212.8 196.491 222.786C194.934 230.609 191.588 237.933 186.75 244.201C184.527 247.081 184.487 251.23 187.06 253.803C189.634 256.376 193.835 256.396 196.133 253.574C202.776 245.419 207.35 235.738 209.415 225.357C211.91 212.815 210.629 199.814 205.735 188C200.842 176.185 192.554 166.087 181.922 158.982C171.289 151.878 158.788 148.086 146 148.086C133.212 148.086 120.711 151.878 110.078 158.982C99.4456 166.087 91.1582 176.185 86.2645 188C81.3708 199.814 80.0904 212.815 82.5852 225.357C84.6501 235.738 89.2244 245.419 95.8665 253.574Z" fill="#004743"/>
<path fill-rule="evenodd" clip-rule="evenodd" d="M95.8666 253.574C98.1646 256.396 102.366 256.376 104.939 253.803C107.512 251.23 107.473 247.081 105.25 244.201C102.476 240.607 100.183 236.655 98.4389 232.443C95.8518 226.198 94.5202 219.503 94.5202 212.743C94.5202 205.982 95.8518 199.288 98.4389 193.042C101.026 186.797 104.818 181.122 109.598 176.341C114.379 171.561 120.054 167.769 126.299 165.182C132.545 162.595 139.24 161.263 146 161.263C152.76 161.263 159.455 162.595 165.7 165.182C169.912 166.926 173.864 169.219 177.457 171.993C180.338 174.216 184.487 174.255 187.061 171.682C189.634 169.109 189.653 164.907 186.831 162.61C181.972 158.652 176.554 155.415 170.743 153.007C162.899 149.758 154.491 148.086 146 148.086C137.509 148.086 129.101 149.758 121.257 153.007C113.412 156.257 106.284 161.019 100.28 167.023C94.2764 173.027 89.5138 180.155 86.2645 188C83.0151 195.844 81.3428 204.252 81.3428 212.743C81.3428 221.234 83.0151 229.642 86.2645 237.486C88.6715 243.297 91.9092 248.715 95.8666 253.574Z" fill="white"/>
</svg>
