<svg xmlns:xlink="http://www.w3.org/1999/xlink" xmlns="http://www.w3.org/2000/svg" width="142" height="99" viewBox="0 0 142 99" fill="none">
<path d="M50.0229 12.0293C51.1048 12.3192 51.9202 13.0622 52.4694 14.2584C53.0313 15.4581 53.1467 16.6761 52.8154 17.9125C52.4876 19.136 51.8205 20.3376 50.8142 21.5174C49.8114 22.6843 48.6886 23.5774 47.4459 24.1969C47.4916 24.7475 47.5583 25.4003 47.6458 26.1554C47.7368 26.8976 47.8002 27.4598 47.8358 27.842C47.8679 28.2371 47.8581 28.5313 47.8064 28.7245C47.727 29.0207 47.5263 29.1257 47.2044 29.0394C46.6248 28.8841 46.1945 27.4506 45.9135 24.7388C45.0174 24.9404 44.1573 24.9308 43.333 24.7099C42.5087 24.489 41.8267 23.8922 41.2867 22.9193C40.7468 21.9464 40.6045 20.9834 40.8599 20.0304C41.1808 18.8326 41.716 17.6854 42.4654 16.5886C43.2148 15.4919 44.0223 14.5902 44.8881 13.8835C45.7701 13.1674 46.6717 12.6359 47.5929 12.2892C48.5303 11.933 49.3404 11.8464 50.0229 12.0293ZM47.3284 22.2398C48.1923 21.6431 48.9627 20.9316 49.6397 20.1053C50.3329 19.2696 50.802 18.3945 51.0471 17.4801C51.2921 16.5657 51.2656 15.7373 50.9676 14.9948C50.6696 14.2524 50.2566 13.8105 49.7285 13.669C49.5225 13.6138 49.2833 13.6049 49.011 13.6423C48.6043 13.9751 48.2888 14.56 48.0645 15.3972C47.502 17.4965 47.2567 19.7773 47.3284 22.2398ZM42.5962 20.3506C42.4064 21.059 42.4571 21.6938 42.7485 22.255C43.0527 22.8196 43.4495 23.1675 43.9389 23.2986C44.4283 23.4298 45.0425 23.3528 45.7815 23.0677C45.6332 19.9635 45.773 17.6129 46.2009 16.0159C46.3355 15.5136 46.4979 15.0878 46.6881 14.7385C45.7649 15.4022 44.9196 16.2386 44.1523 17.2477C43.3978 18.2602 42.8791 19.2946 42.5962 20.3506ZM60.9647 19.8476C61.0715 19.6554 61.1609 19.5275 61.2332 19.4641C61.3054 19.4006 61.4252 19.3913 61.5926 19.4361C61.7729 19.4845 61.9406 19.7088 62.0956 20.1092C62.2634 20.5131 62.3059 20.8696 62.2231 21.1787C62.1782 21.3461 61.6292 22.2619 60.5759 23.926C59.5227 25.5901 58.6983 26.9152 58.1028 27.9013C57.8033 28.4008 57.5119 28.6126 57.2285 28.5367C57.0611 28.4919 56.9384 28.3831 56.8605 28.2103C56.7825 28.0376 56.7936 27.7645 56.8936 27.391C56.9937 27.0175 57.323 26.3811 57.8815 25.4816C57.1059 26.2125 56.3267 26.7767 55.5438 27.1742C54.7608 27.5718 54.1054 27.6999 53.5773 27.5584C53.0622 27.4203 52.6383 27.0445 52.3058 26.4309C51.9733 25.8172 51.8761 25.2528 52.0141 24.7377C52.342 23.5142 53.1051 22.0829 54.3034 20.4439C55.5181 18.7954 56.3638 18.0351 56.8403 18.1627C57.0721 18.2249 57.2424 18.3878 57.3512 18.6516C57.4762 18.906 57.5026 19.1684 57.4301 19.4389C57.399 19.5548 57.113 19.9268 56.572 20.5548C56.0345 21.17 55.4624 21.914 54.8559 22.7867C54.2528 23.6466 53.8546 24.4371 53.6614 25.1584C53.6061 25.3644 53.624 25.5555 53.7148 25.7317C53.8091 25.895 53.9464 26.0008 54.1267 26.0491C54.6161 26.1803 55.3112 25.9041 56.2122 25.2207C57.126 24.5407 58.0133 23.7018 58.8742 22.7039C59.7352 21.7061 60.432 20.754 60.9647 19.8476ZM66.7795 17.8858C66.8486 17.6282 67.0172 17.4111 67.2853 17.2345C67.5535 17.0579 67.7906 16.9972 67.9967 17.0524C68.2157 17.1111 68.4025 17.4441 68.5572 18.0515C68.7154 18.6461 68.7479 19.1172 68.6547 19.4649C68.6202 19.5937 68.5312 19.6941 68.3877 19.7661C68.2442 19.838 68.108 19.8568 67.9792 19.8223C67.6701 19.7394 67.3724 19.4595 67.0861 18.9825C66.8127 18.5089 66.7105 18.1434 66.7795 17.8858ZM65.9479 20.6031C66.1926 20.6687 66.3847 20.8789 66.5243 21.2338C66.6639 21.5887 66.6957 21.9078 66.6198 22.1911C66.5439 22.4745 66.1294 23.2745 65.3763 24.5911C64.6266 25.8948 63.7338 27.3465 62.6978 28.9462C62.3063 29.5315 61.9431 29.7793 61.6083 29.6896C61.428 29.6413 61.2924 29.529 61.2016 29.3528C61.1142 29.1638 61.0947 28.9791 61.143 28.7988C61.1948 28.6056 61.3192 28.3215 61.5163 27.9464C61.7298 27.5618 62.0164 27.0589 62.3762 26.4375C62.7522 25.8067 63.0487 25.2926 63.2656 24.8952C63.4954 24.5012 63.739 24.0557 63.9964 23.5588C64.2573 23.0489 64.463 22.6416 64.6137 22.3369C64.7807 22.0227 64.9541 21.7103 65.134 21.3996C65.4834 20.8169 65.7547 20.5514 65.9479 20.6031ZM68.7178 31.6153C67.9708 31.4151 67.3465 30.9372 66.845 30.1817C66.3469 29.4133 66.2048 28.6298 66.4188 27.8313C66.6362 27.0199 67.1568 26.1587 67.9807 25.2475C68.8046 24.3364 69.7417 23.6212 70.7918 23.102C71.8549 22.5862 72.7921 22.437 73.6035 22.6544C74.1315 22.7959 74.5313 23.1584 74.8029 23.7419C75.0744 24.3254 75.1619 24.7975 75.0653 25.1581C75.0377 25.2611 74.9813 25.3426 74.8962 25.4027C74.8146 25.4498 74.7094 25.4561 74.5806 25.4216C74.4647 25.3906 74.2832 25.2177 74.0362 24.9031C73.7892 24.5884 73.5434 24.3983 73.2987 24.3327C72.6032 24.1464 71.6279 24.5407 70.3728 25.5158C69.1177 26.4908 68.3676 27.4355 68.1226 28.3499C68.0156 28.7492 68.0534 29.0975 68.236 29.3949C68.4315 29.6957 68.8061 29.9204 69.3599 30.0688C69.9266 30.2206 70.459 30.2942 70.9572 30.2897C71.4716 30.2757 71.8749 30.2388 72.167 30.179C72.4626 30.1064 72.6812 30.089 72.8228 30.127C73.0675 30.1926 73.1571 30.3477 73.0915 30.5924C72.9914 30.9659 72.4234 31.283 71.3872 31.5437C70.3674 31.795 69.4776 31.8189 68.7178 31.6153ZM85.037 26.8361C85.0059 26.952 84.2706 27.4038 82.8311 28.1914C82.2956 28.4896 81.7717 28.8738 81.2592 29.3438C80.7631 29.8044 80.4529 30.2666 80.3287 30.7302C80.2045 31.1939 80.2241 31.6616 80.3876 32.1333C80.5674 32.5956 80.7907 32.9729 81.0574 33.2652C81.3405 33.5481 81.5914 33.8224 81.8101 34.0881C82.0417 34.3572 82.1402 34.5561 82.1057 34.6849C82.0194 35.0069 81.7187 35.0988 81.2036 34.9608C80.7013 34.8262 80.1719 34.3807 79.6154 33.6242C79.0752 32.8583 78.8163 32.0988 78.8387 31.3455C78.8088 31.1995 78.7901 31.0633 78.7825 30.9371C77.5892 31.8873 76.7309 32.5407 76.2074 32.8974C75.7002 33.2446 75.3501 33.3924 75.1569 33.3406C74.9637 33.2888 74.7909 33.0838 74.6384 32.7255C74.4894 32.3542 74.4408 32.072 74.4926 31.8789C74.5478 31.6728 74.9764 30.8973 75.7785 29.5524C76.5969 28.1981 77.4865 26.5523 78.4474 24.6149C79.4211 22.681 80.1236 20.9092 80.555 19.2993C80.6102 19.0932 80.6739 18.9585 80.7461 18.895C80.8312 18.835 80.9704 18.8308 81.1635 18.8826C81.3567 18.9344 81.5432 19.1914 81.723 19.6537C81.9063 20.1031 81.9496 20.5081 81.853 20.8687C81.5459 22.015 80.8844 23.5563 79.8686 25.4927C78.8528 27.4291 77.7745 29.2383 76.6336 30.9203C78.6445 29.2368 80.3488 27.899 81.7466 26.9069C83.1606 25.9054 83.99 25.4375 84.2347 25.5031C84.4923 25.5721 84.7042 25.76 84.8704 26.0668C85.0367 26.3736 85.0922 26.6301 85.037 26.8361ZM12.4678 35.1988C12.1848 36.2549 11.4702 37.0158 10.3239 37.4817C9.18106 37.9347 7.99145 37.9955 6.75506 37.6642C5.53155 37.3364 4.6051 36.75 3.9757 35.9049C3.34974 35.047 3.11269 34.3347 3.26453 33.7681C3.36806 33.3817 3.53573 33.2196 3.76755 33.2817C3.97362 33.3369 4.29648 33.7547 4.73615 34.5351C4.90931 34.8161 5.16319 35.105 5.4978 35.4017C5.84528 35.7019 6.23797 35.9107 6.67586 36.028C7.57739 36.2695 8.438 36.2517 9.2577 35.9744C10.0903 35.7005 10.579 35.2932 10.724 34.7522C10.8172 34.4045 10.7044 33.8981 10.3857 33.2329C10.067 32.5678 9.68813 31.921 9.24913 31.2926C8.82647 30.6549 8.45751 29.9969 8.14226 29.3189C7.827 28.6409 7.71251 28.1409 7.79879 27.8189C7.88506 27.4969 8.0409 27.1729 8.26632 26.8468C8.49173 26.5207 8.70415 26.2946 8.90356 26.1686C9.55423 25.7494 10.4697 25.4495 11.65 25.2688C12.8432 25.0916 13.8004 25.0996 14.5217 25.2928C14.8951 25.3929 15.1779 25.5998 15.3699 25.9135C15.5619 26.2272 15.6217 26.5193 15.5492 26.7898C15.5147 26.9186 15.3519 26.9854 15.0607 26.9902C14.7696 26.995 14.3298 26.9876 13.7415 26.968C13.1695 26.939 12.6486 26.9512 12.1787 27.0048C10.5458 27.1746 9.65861 27.5235 9.51712 28.0516C9.4412 28.3349 9.98239 29.3288 11.1407 31.0334C11.5857 31.691 11.9502 32.4167 12.2344 33.2107C12.535 33.9952 12.6128 34.6579 12.4678 35.1988ZM20.9647 31.326C21.5443 31.4813 21.9994 31.9207 22.33 32.6443C22.6641 33.355 22.7673 33.9486 22.6397 34.4251C22.5154 34.8887 22.2268 35.3221 21.7736 35.7253C21.8764 35.9599 21.9088 36.148 21.8709 36.2897C21.7743 36.6503 21.5249 37.246 21.1228 38.0769C20.7336 38.9113 20.4834 39.4585 20.3723 39.7186C20.2741 39.9822 20.1897 40.1942 20.1191 40.3548C20.0519 40.5024 19.9783 40.6483 19.8982 40.7925C19.7605 41.1007 19.6014 41.2306 19.4211 41.1823C19.1893 41.1202 19.0496 40.8688 19.002 40.4282C18.9708 39.9781 19.0285 39.4276 19.1753 38.7767C17.6391 39.9249 16.3817 40.3679 15.4028 40.1056C14.8104 39.9469 14.2917 39.5387 13.8467 38.8812C13.4181 38.2142 13.2762 37.6102 13.4212 37.0693C13.6282 36.2965 14.1669 35.4194 15.0373 34.4379C15.9111 33.4435 16.9178 32.6228 18.0575 31.9757C19.1971 31.3286 20.1662 31.112 20.9647 31.326ZM20.9423 34.9642C21.2632 33.7664 21.1855 33.1037 20.7089 32.976C20.2066 32.8414 19.524 33.045 18.6611 33.5868C17.8016 34.1157 17.0192 34.7688 16.314 35.5461C15.6088 36.3234 15.1854 36.9761 15.0439 37.5041C14.9853 37.723 15.0271 37.9275 15.1695 38.1175C15.3153 38.2946 15.5105 38.4159 15.7552 38.4815C16.3605 38.6437 17.1518 38.4209 18.1291 37.8131C19.1098 37.1925 19.9053 36.3358 20.5155 35.2432C20.6059 35.0604 20.7465 34.9738 20.9371 34.9835L20.9423 34.9642ZM37.3806 35.7246C37.767 35.8281 38.0358 36.1901 38.1871 36.8103C38.3547 37.4212 38.347 38.0679 38.1641 38.7505C37.9847 39.4202 37.6277 40.2632 37.0931 41.2795C36.5714 42.2992 35.9902 43.2063 35.3493 44.0009C34.7085 44.7954 34.1949 45.141 33.8086 45.0374C33.5381 44.965 33.4495 44.7549 33.5426 44.4071C33.6393 44.0465 34.0911 43.2359 34.8983 41.9751C35.7217 40.705 36.2422 39.6642 36.4596 38.8528C36.6804 38.0286 36.6621 37.5819 36.4045 37.5129C36.0825 37.4266 35.6331 37.6099 35.0563 38.0627C34.4923 38.519 33.8651 39.0825 33.1746 39.7533C32.4841 40.4241 32.1109 40.7865 32.055 40.8406C32.0026 40.8817 31.9304 40.9452 31.8384 41.031C31.7592 41.1202 31.6655 41.2124 31.5572 41.3076C31.4617 41.4063 31.1883 41.7057 30.7367 42.2059C30.2981 42.7095 29.9245 43.0995 29.6158 43.3756C29.3106 43.639 29.0743 43.7482 28.9068 43.7033C28.7523 43.6619 28.606 43.5123 28.4681 43.2545C28.3301 42.9966 28.2853 42.7776 28.3336 42.5973C28.3819 42.4169 28.5979 42.0745 28.9815 41.57C30.0999 40.0751 30.8523 38.6065 31.2388 37.164C31.3113 36.8936 31.3137 36.6527 31.2461 36.4413C31.1819 36.2171 31.079 36.086 30.9374 36.048C30.7957 36.01 30.6303 36.0348 30.4413 36.1221C30.2557 36.1966 30.0038 36.3638 29.6857 36.6237C29.3711 36.8707 29.0856 37.1117 28.8294 37.3467C28.5732 37.5817 28.1772 37.9518 27.6415 38.4571C27.1222 38.9529 26.7262 39.323 26.4537 39.5675C26.1975 39.8025 25.8952 40.0804 25.547 40.4012C25.2022 40.7091 24.9314 40.9471 24.7345 41.1153C24.5505 41.2868 24.342 41.4725 24.109 41.6723C23.6336 42.0557 23.3122 42.2249 23.1447 42.1801C22.9902 42.1387 22.8221 41.9418 22.6404 41.5894C22.4622 41.2242 22.3921 40.9707 22.4301 40.8291C22.4715 40.6745 22.5473 40.4947 22.6574 40.2895C22.7676 40.0844 22.8761 39.8857 22.9828 39.6934C23.1024 39.5046 23.2737 39.2261 23.4966 38.8579C23.7358 38.4803 24.0051 38.0417 24.3046 37.5422C24.6204 37.0333 24.9447 36.3127 25.2773 35.3803C25.6263 34.4386 25.8788 33.7539 26.0347 33.3264C26.1941 32.886 26.364 32.6899 26.5443 32.7382C26.8276 32.8141 27.0649 33.0364 27.2559 33.4051C27.4599 33.7773 27.5222 34.1114 27.4428 34.4077C27.1392 35.541 26.2138 37.2946 24.6667 39.6684C26.8338 37.3503 28.1714 35.9902 28.6795 35.588C29.1876 35.1857 29.6183 34.8663 29.9715 34.6297C30.6222 34.2105 31.2051 34.0699 31.7203 34.2079C32.0294 34.2908 32.324 34.6596 32.604 35.3144C32.9004 35.9597 32.9762 36.5529 32.8312 37.0938C32.6863 37.6347 32.4296 38.2837 32.0611 39.0408C34.371 36.4987 36.1442 35.3933 37.3806 35.7246ZM52.7562 39.8445C53.1426 39.948 53.4114 40.3099 53.5627 40.9302C53.7303 41.5411 53.7226 42.1878 53.5397 42.8704C53.3603 43.5401 53.0033 44.3831 52.4687 45.3994C51.947 46.4191 51.3657 47.3262 50.7249 48.1208C50.0841 48.9153 49.5705 49.2608 49.1841 49.1573C48.9137 49.0848 48.825 48.8747 48.9182 48.527C49.0148 48.1664 49.4667 47.3557 50.2739 46.095C51.0973 44.8248 51.6178 43.7841 51.8352 42.9727C52.056 42.1485 52.0377 41.7018 51.7801 41.6328C51.4581 41.5465 51.0087 41.7298 50.4318 42.1826C49.8679 42.6388 49.2407 43.2024 48.5502 43.8732C47.8597 44.544 47.4865 44.9064 47.4306 44.9605C47.3782 45.0016 47.306 45.0651 47.2139 45.1509C47.1348 45.2401 47.0411 45.3323 46.9328 45.4275C46.8373 45.5262 46.5638 45.8256 46.1123 46.3258C45.6737 46.8294 45.3 47.2193 44.9914 47.4955C44.6862 47.7588 44.4498 47.8681 44.2824 47.8232C44.1279 47.7818 43.9816 47.6322 43.8436 47.3743C43.7057 47.1165 43.6608 46.8974 43.7091 46.7171C43.7575 46.5368 43.9734 46.1944 44.3571 45.6898C45.4754 44.195 46.2279 42.7264 46.6144 41.2839C46.6868 41.0135 46.6893 40.7725 46.6217 40.5612C46.5575 40.3369 46.4546 40.2058 46.3129 40.1679C46.1713 40.1299 46.0059 40.1546 45.8169 40.242C45.6312 40.3165 45.3794 40.4837 45.0613 40.7435C44.7467 40.9905 44.4612 41.2315 44.205 41.4666C43.9488 41.7016 43.5528 42.0717 43.0171 42.5769C42.4978 43.0728 42.1018 43.4429 41.8293 43.6873C41.573 43.9224 41.2708 44.2003 40.9226 44.5211C40.5778 44.829 40.307 45.067 40.1101 45.2351C39.9261 45.4067 39.7176 45.5924 39.4846 45.7922C39.0092 46.1756 38.6877 46.3448 38.5203 46.2999C38.3658 46.2585 38.1977 46.0617 38.016 45.7093C37.8378 45.3441 37.7677 45.0906 37.8056 44.9489C37.847 44.7944 37.9228 44.6145 38.033 44.4094C38.1432 44.2043 38.2517 44.0056 38.3584 43.8133C38.478 43.6245 38.6492 43.346 38.8721 42.9778C39.1114 42.6002 39.3807 42.1616 39.6802 41.6621C39.996 41.1532 40.3202 40.4325 40.6529 39.5002C41.0019 38.5584 41.2543 37.8738 41.4103 37.4462C41.5697 37.0058 41.7396 36.8098 41.9199 36.8581C42.2032 36.934 42.4404 37.1563 42.6315 37.525C42.8355 37.8971 42.8978 38.2313 42.8184 38.5275C42.5147 39.6609 41.5893 41.4145 40.0422 43.7883C42.2094 41.4702 43.547 40.11 44.0551 39.7078C44.5632 39.3056 44.9938 38.9862 45.3471 38.7496C45.9978 38.3304 46.5807 38.1898 47.0959 38.3278C47.405 38.4106 47.6995 38.7794 47.9796 39.4342C48.276 40.0796 48.3517 40.6728 48.2068 41.2137C48.0619 41.7546 47.8051 42.4036 47.4366 43.1607C49.7466 40.6186 51.5198 39.5132 52.7562 39.8445ZM60.7714 41.9922C61.351 42.1475 61.8061 42.5869 62.1367 43.3105C62.4708 44.0211 62.5741 44.6148 62.4464 45.0913C62.3221 45.5549 62.0335 45.9883 61.5804 46.3914C61.6831 46.626 61.7156 46.8142 61.6776 46.9558C61.581 47.3165 61.3316 47.9122 60.9295 48.7431C60.5403 49.5775 60.2902 50.1247 60.179 50.3848C60.0808 50.6484 59.9964 50.8604 59.9258 51.0209C59.8586 51.1686 59.785 51.3145 59.7049 51.4587C59.5672 51.7669 59.4081 51.8968 59.2278 51.8485C58.996 51.7864 58.8563 51.535 58.8087 51.0943C58.7775 50.6442 58.8353 50.0938 58.982 49.4429C57.4459 50.5911 56.1884 51.0341 55.2096 50.7718C54.6171 50.6131 54.0984 50.2049 53.6534 49.5473C53.2248 48.8803 53.083 48.2764 53.2279 47.7355C53.435 46.9627 53.9737 46.0856 54.844 45.1041C55.7178 44.1097 56.7246 43.2889 57.8642 42.6419C59.0038 41.9948 59.9729 41.7782 60.7714 41.9922ZM60.749 45.6303C61.07 44.4326 60.9922 43.7699 60.5156 43.6422C60.0134 43.5076 59.3307 43.7112 58.4678 44.253C57.6083 44.7819 56.8259 45.435 56.1207 46.2123C55.4155 46.9896 54.9921 47.6422 54.8507 48.1703C54.792 48.3892 54.8338 48.5937 54.9762 48.7837C55.122 48.9608 55.3172 49.0821 55.5619 49.1477C56.1672 49.3099 56.9585 49.0871 57.9358 48.4793C58.9165 47.8586 59.712 47.002 60.3223 45.9094C60.4127 45.7266 60.5532 45.64 60.7438 45.6497L60.749 45.6303ZM65.2158 45.7091L65.5461 44.2447C65.7083 43.6394 65.9311 43.3747 66.2144 43.4506C66.4591 43.5162 66.6478 43.7393 66.7805 44.1199C66.9295 44.4911 66.9453 44.8957 66.828 45.3336C66.7141 45.7586 66.6149 46.0771 66.5305 46.2891C68.1065 44.8893 69.3968 44.324 70.4013 44.5932C71.0324 44.7623 71.3065 45.0014 71.2237 45.3105C71.1823 45.465 71.0735 45.5877 70.8973 45.6786C70.7212 45.7694 70.4561 45.8571 70.1021 45.9417C69.3402 46.055 68.6381 46.3569 67.9959 46.8475C67.3701 47.3285 66.8055 47.9158 66.3023 48.6091C65.799 49.3025 65.3865 49.889 65.0647 50.3688C64.7558 50.8519 64.5165 51.2296 64.347 51.5016C64.1775 51.7737 63.9968 52.0359 63.805 52.2881C63.4609 52.7481 63.1536 52.9418 62.8831 52.8694C62.6642 52.8107 62.5167 52.64 62.4406 52.3574C62.3808 52.0653 62.382 51.8033 62.4441 51.5715C62.5097 51.3268 62.7468 50.8796 63.1556 50.2299C64.1184 48.7487 64.8052 47.2417 65.2158 45.7091ZM78.6373 46.7793C78.8433 46.8345 79.0209 47.0477 79.1699 47.4189C79.3352 47.7807 79.3678 48.1484 79.2677 48.5219C79.1987 48.7794 78.7 49.5845 77.7717 50.937C76.8433 52.2894 76.2101 53.2102 75.872 53.6994C75.5502 54.1791 75.1093 54.8202 74.5492 55.6226C74.0054 56.4155 73.4733 57.1909 72.9527 57.9486C71.8153 59.6178 70.6026 60.2798 69.3147 59.9347C68.5806 59.738 67.9391 59.3246 67.3902 58.6943C66.8378 58.077 66.6255 57.5301 66.7531 57.0536C66.8015 56.8733 66.9387 56.6961 67.1648 56.522C67.378 56.3444 67.5425 56.2712 67.6584 56.3023C67.7744 56.3333 67.9231 56.525 68.1048 56.8774C68.624 57.9276 69.1477 58.5234 69.6757 58.6649C70.0749 58.7719 70.5305 58.5143 71.0422 57.8922C71.5506 57.283 72.0654 56.5721 72.5869 55.7593C73.1178 54.9629 73.4082 54.5231 73.4581 54.4399C73.5209 54.3601 73.5906 54.2545 73.6672 54.1232C73.7567 53.9953 73.8362 53.8786 73.9059 53.7731C72.6568 54.7773 71.5879 55.1604 70.6992 54.9223C70.1583 54.7773 69.7233 54.3916 69.3943 53.7651C69.0781 53.142 69.0114 52.4892 69.1943 51.8066C69.3772 51.124 69.7914 50.248 70.4368 49.1786C71.0823 48.1093 71.7443 47.2099 72.4228 46.4807C73.1013 45.7515 73.5823 45.4248 73.8656 45.5007C74.0974 45.5629 74.2806 45.7293 74.4151 46C74.566 46.2613 74.612 46.5014 74.5534 46.7203C74.4947 46.9393 74.2048 47.3516 73.6836 47.9573C72.0675 49.8157 71.1008 51.3374 70.7833 52.5222C70.7281 52.7283 70.7459 52.9194 70.8367 53.0956C70.931 53.2589 71.0683 53.3647 71.2486 53.413C71.7122 53.5372 72.3764 53.2735 73.2413 52.6218C74.1061 51.9701 74.9608 51.15 75.8054 50.1616C76.5115 49.3293 77.3077 48.2382 78.194 46.8883C78.2834 46.7604 78.4312 46.7241 78.6373 46.7793Z" fill="white"/>
<path d="M132.375 88.8159C124.853 69.5089 111.889 56.1317 93.4698 47.4297C93.3599 49.4907 94.6026 49.9065 95.4435 50.3339C101.717 53.8162 106.896 58.6854 112.079 63.4542C119.559 70.3147 124.582 78.8525 128.374 88.3294C128.563 88.7255 128.6 89.1761 128.772 90.175C124.682 87.5328 122.557 82.9265 118.183 81.447C118.025 81.7025 117.767 81.961 117.609 82.2165C119.649 84.5667 121.738 86.9656 123.726 89.3674C125.714 91.7693 127.602 94.174 129.642 96.5242C131.148 98.2373 132.658 98.0932 133.624 95.9572C134.908 93.2096 135.744 90.3244 136.73 87.4851C136.839 87.1808 136.951 86.776 136.859 86.4775C136.53 85.7342 136.045 85.1459 135.614 84.4055C135 84.8248 134.188 85.1495 133.771 85.6635C133.248 86.3813 133.073 87.2397 132.375 88.8159Z" fill="white"/>
</svg>