<svg width="226" height="128" viewBox="0 0 226 128" fill="none" xmlns="http://www.w3.org/2000/svg">
<rect x="0.6875" y="0.705444" width="224.852" height="127" rx="10" fill="#FF6DA0"/>
<path d="M42.0182 40.7054H40.9761L43.9903 32.4966H45.0164L48.0305 40.7054H46.9884L44.5354 33.7953H44.4713L42.0182 40.7054ZM42.403 37.4989H46.6036V38.3807H42.403V37.4989ZM51.682 40.8337C51.1048 40.8337 50.6078 40.6974 50.191 40.4249C49.7741 40.1523 49.4535 39.7769 49.229 39.2986C49.0045 38.8202 48.8923 38.2738 48.8923 37.6592C48.8923 37.0339 49.0072 36.4821 49.237 36.0038C49.4695 35.5228 49.7928 35.1474 50.207 34.8775C50.6239 34.6049 51.1102 34.4687 51.666 34.4687C52.0989 34.4687 52.489 34.5488 52.8364 34.7092C53.1838 34.8695 53.4684 35.0939 53.6901 35.3825C53.9119 35.6711 54.0495 36.0078 54.103 36.3926H53.1571C53.0849 36.112 52.9246 35.8635 52.6761 35.6471C52.4302 35.428 52.0989 35.3184 51.682 35.3184C51.3133 35.3184 50.9899 35.4146 50.712 35.607C50.4368 35.7967 50.2217 36.0653 50.0667 36.4126C49.9144 36.7574 49.8383 37.1622 49.8383 37.6271C49.8383 38.1028 49.9131 38.517 50.0627 38.8697C50.215 39.2224 50.4288 39.4963 50.704 39.6914C50.9819 39.8864 51.3079 39.984 51.682 39.984C51.9279 39.984 52.151 39.9412 52.3514 39.8557C52.5518 39.7702 52.7215 39.6473 52.8604 39.4869C52.9994 39.3266 53.0983 39.1342 53.1571 38.9098H54.103C54.0495 39.2732 53.9173 39.6005 53.7062 39.8918C53.4978 40.1804 53.2212 40.4102 52.8765 40.5812C52.5344 40.7495 52.1363 40.8337 51.682 40.8337ZM58.1633 34.5488V35.3505H54.9728V34.5488H58.1633ZM55.9027 33.0738H56.8486V38.9418C56.8486 39.209 56.8874 39.4095 56.9649 39.5431C57.045 39.674 57.1466 39.7622 57.2695 39.8076C57.3951 39.8504 57.5273 39.8717 57.6663 39.8717C57.7705 39.8717 57.856 39.8664 57.9228 39.8557C57.9896 39.8423 58.0431 39.8317 58.0831 39.8236L58.2755 40.6734C58.2114 40.6974 58.1219 40.7215 58.007 40.7455C57.8921 40.7722 57.7465 40.7856 57.5701 40.7856C57.3029 40.7856 57.041 40.7282 56.7845 40.6133C56.5306 40.4984 56.3195 40.3233 56.1512 40.0882C55.9855 39.853 55.9027 39.5564 55.9027 39.1984V33.0738ZM59.5862 40.7054V34.5488H60.5322V40.7054H59.5862ZM60.0672 33.5227C59.8828 33.5227 59.7238 33.4599 59.5902 33.3343C59.4593 33.2087 59.3938 33.0578 59.3938 32.8814C59.3938 32.705 59.4593 32.5541 59.5902 32.4285C59.7238 32.3029 59.8828 32.2401 60.0672 32.2401C60.2516 32.2401 60.4092 32.3029 60.5402 32.4285C60.6738 32.5541 60.7406 32.705 60.7406 32.8814C60.7406 33.0578 60.6738 33.2087 60.5402 33.3343C60.4092 33.4599 60.2516 33.5227 60.0672 33.5227ZM67.299 34.5488L65.0224 40.7054H64.0604L61.7837 34.5488H62.8098L64.5093 39.4549H64.5734L66.2729 34.5488H67.299ZM70.9084 40.8337C70.3152 40.8337 69.8035 40.7028 69.3733 40.4409C68.9457 40.1764 68.6157 39.8076 68.3833 39.3346C68.1535 38.859 68.0385 38.3059 68.0385 37.6752C68.0385 37.0446 68.1535 36.4888 68.3833 36.0078C68.6157 35.5242 68.9391 35.1474 69.3532 34.8775C69.7701 34.6049 70.2564 34.4687 70.8122 34.4687C71.1329 34.4687 71.4495 34.5221 71.7622 34.629C72.0748 34.7359 72.3594 34.9096 72.6159 35.1501C72.8725 35.3879 73.0769 35.7032 73.2292 36.096C73.3815 36.4888 73.4577 36.9725 73.4577 37.547V37.9478H68.7119V37.1301H72.4957C72.4957 36.7827 72.4262 36.4728 72.2873 36.2002C72.151 35.9277 71.9559 35.7125 71.7021 35.5549C71.4509 35.3972 71.1543 35.3184 70.8122 35.3184C70.4355 35.3184 70.1095 35.4119 69.8342 35.599C69.5617 35.7834 69.3519 36.0239 69.2049 36.3205C69.058 36.6171 68.9845 36.9351 68.9845 37.2744V37.8195C68.9845 38.2845 69.0647 38.6786 69.225 39.002C69.388 39.3226 69.6138 39.5671 69.9024 39.7355C70.191 39.9011 70.5263 39.984 70.9084 39.984C71.1569 39.984 71.3814 39.9492 71.5818 39.8798C71.7849 39.8076 71.9599 39.7007 72.1069 39.5591C72.2539 39.4148 72.3674 39.2358 72.4476 39.022L73.3615 39.2785C73.2653 39.5885 73.1036 39.861 72.8765 40.0962C72.6493 40.3287 72.3688 40.5104 72.0347 40.6413C71.7007 40.7696 71.3253 40.8337 70.9084 40.8337ZM83.5864 32.4966H84.5805V37.9318C84.5805 38.4929 84.4482 38.9939 84.1836 39.4348C83.9218 39.8731 83.5517 40.2191 83.0734 40.473C82.595 40.7241 82.0339 40.8497 81.3899 40.8497C80.7459 40.8497 80.1848 40.7241 79.7065 40.473C79.2281 40.2191 78.8567 39.8731 78.5922 39.4348C78.3303 38.9939 78.1994 38.4929 78.1994 37.9318V32.4966H79.1934V37.8516C79.1934 38.2524 79.2816 38.6091 79.458 38.9218C79.6343 39.2318 79.8855 39.4763 80.2115 39.6553C80.5402 39.8317 80.933 39.9198 81.3899 39.9198C81.8468 39.9198 82.2397 39.8317 82.5683 39.6553C82.897 39.4763 83.1482 39.2318 83.3219 38.9218C83.4982 38.6091 83.5864 38.2524 83.5864 37.8516V32.4966ZM90.7982 35.9277L89.9484 36.1681C89.895 36.0265 89.8162 35.8889 89.712 35.7553C89.6104 35.619 89.4715 35.5068 89.2951 35.4186C89.1187 35.3304 88.893 35.2863 88.6177 35.2863C88.241 35.2863 87.927 35.3732 87.6758 35.5469C87.4273 35.7179 87.303 35.9357 87.303 36.2002C87.303 36.4354 87.3885 36.6211 87.5596 36.7574C87.7306 36.8936 87.9978 37.0072 88.3612 37.0981L89.2751 37.3225C89.8255 37.4561 90.2357 37.6605 90.5056 37.9358C90.7755 38.2083 90.9104 38.5597 90.9104 38.9899C90.9104 39.3427 90.8089 39.658 90.6058 39.9359C90.4054 40.2138 90.1248 40.4329 89.7641 40.5932C89.4033 40.7535 88.9838 40.8337 88.5055 40.8337C87.8775 40.8337 87.3578 40.6974 86.9463 40.4249C86.5348 40.1523 86.2743 39.7542 86.1647 39.2304L87.0625 39.006C87.148 39.3373 87.3097 39.5858 87.5475 39.7515C87.788 39.9172 88.102 40 88.4895 40C88.9304 40 89.2804 39.9065 89.5396 39.7194C89.8015 39.5297 89.9324 39.3026 89.9324 39.038C89.9324 38.8243 89.8576 38.6452 89.708 38.5009C89.5583 38.354 89.3285 38.2444 89.0185 38.1723L87.9924 37.9318C87.4286 37.7982 87.0144 37.5911 86.7499 37.3105C86.488 37.0272 86.3571 36.6732 86.3571 36.2483C86.3571 35.9009 86.4546 35.5936 86.6497 35.3264C86.8474 35.0592 87.116 34.8494 87.4553 34.6971C87.7974 34.5448 88.1848 34.4687 88.6177 34.4687C89.227 34.4687 89.7053 34.6023 90.0527 34.8695C90.4027 35.1367 90.6512 35.4894 90.7982 35.9277ZM94.9156 40.8337C94.3224 40.8337 93.8107 40.7028 93.3805 40.4409C92.9529 40.1764 92.6229 39.8076 92.3905 39.3346C92.1606 38.859 92.0457 38.3059 92.0457 37.6752C92.0457 37.0446 92.1606 36.4888 92.3905 36.0078C92.6229 35.5242 92.9463 35.1474 93.3604 34.8775C93.7773 34.6049 94.2636 34.4687 94.8194 34.4687C95.1401 34.4687 95.4567 34.5221 95.7694 34.629C96.082 34.7359 96.3666 34.9096 96.6231 35.1501C96.8797 35.3879 97.0841 35.7032 97.2364 36.096C97.3887 36.4888 97.4649 36.9725 97.4649 37.547V37.9478H92.7191V37.1301H96.5029C96.5029 36.7827 96.4334 36.4728 96.2945 36.2002C96.1582 35.9277 95.9631 35.7125 95.7093 35.5549C95.4581 35.3972 95.1615 35.3184 94.8194 35.3184C94.4427 35.3184 94.1167 35.4119 93.8414 35.599C93.5689 35.7834 93.3591 36.0239 93.2121 36.3205C93.0652 36.6171 92.9917 36.9351 92.9917 37.2744V37.8195C92.9917 38.2845 93.0718 38.6786 93.2322 39.002C93.3952 39.3226 93.621 39.5671 93.9096 39.7355C94.1982 39.9011 94.5335 39.984 94.9156 39.984C95.1641 39.984 95.3886 39.9492 95.589 39.8798C95.7921 39.8076 95.9671 39.7007 96.1141 39.5591C96.2611 39.4148 96.3746 39.2358 96.4548 39.022L97.3687 39.2785C97.2725 39.5885 97.1108 39.861 96.8837 40.0962C96.6565 40.3287 96.376 40.5104 96.0419 40.6413C95.7079 40.7696 95.3325 40.8337 94.9156 40.8337ZM98.9038 40.7054V34.5488H99.8177V35.4787H99.8818C99.994 35.1741 100.197 34.9269 100.491 34.7372C100.785 34.5475 101.116 34.4526 101.485 34.4526C101.555 34.4526 101.641 34.454 101.746 34.4566C101.85 34.4593 101.929 34.4633 101.982 34.4687V35.4306C101.95 35.4226 101.877 35.4106 101.762 35.3946C101.649 35.3759 101.531 35.3665 101.405 35.3665C101.106 35.3665 100.838 35.4293 100.603 35.5549C100.371 35.6778 100.186 35.8488 100.05 36.0679C99.9165 36.2844 99.8497 36.5316 99.8497 36.8095V40.7054H98.9038ZM107.464 35.9277L106.615 36.1681C106.561 36.0265 106.482 35.8889 106.378 35.7553C106.277 35.619 106.138 35.5068 105.961 35.4186C105.785 35.3304 105.559 35.2863 105.284 35.2863C104.907 35.2863 104.593 35.3732 104.342 35.5469C104.093 35.7179 103.969 35.9357 103.969 36.2002C103.969 36.4354 104.055 36.6211 104.226 36.7574C104.397 36.8936 104.664 37.0072 105.027 37.0981L105.941 37.3225C106.492 37.4561 106.902 37.6605 107.172 37.9358C107.442 38.2083 107.577 38.5597 107.577 38.9899C107.577 39.3427 107.475 39.658 107.272 39.9359C107.072 40.2138 106.791 40.4329 106.43 40.5932C106.069 40.7535 105.65 40.8337 105.172 40.8337C104.544 40.8337 104.024 40.6974 103.612 40.4249C103.201 40.1523 102.94 39.7542 102.831 39.2304L103.729 39.006C103.814 39.3373 103.976 39.5858 104.214 39.7515C104.454 39.9172 104.768 40 105.156 40C105.597 40 105.947 39.9065 106.206 39.7194C106.468 39.5297 106.599 39.3026 106.599 39.038C106.599 38.8243 106.524 38.6452 106.374 38.5009C106.224 38.354 105.995 38.2444 105.685 38.1723L104.659 37.9318C104.095 37.7982 103.681 37.5911 103.416 37.3105C103.154 37.0272 103.023 36.6732 103.023 36.2483C103.023 35.9009 103.121 35.5936 103.316 35.3264C103.514 35.0592 103.782 34.8494 104.121 34.6971C104.464 34.5448 104.851 34.4687 105.284 34.4687C105.893 34.4687 106.371 34.6023 106.719 34.8695C107.069 35.1367 107.317 35.4894 107.464 35.9277Z" fill="white"/>
<g clip-path="url(#clip0_390_10180)">
<path d="M48.2149 24.2953C46.8949 24.2953 45.7619 23.9613 44.816 23.2933C43.8754 22.6199 43.1512 21.6499 42.6435 20.3833C42.1411 19.1113 41.89 17.5802 41.89 15.7899C41.8953 13.9995 42.1492 12.4764 42.6515 11.2205C43.1592 9.95926 43.8834 8.99729 44.824 8.3346C45.7699 7.67191 46.9002 7.34056 48.2149 7.34056C49.5296 7.34056 50.6599 7.67191 51.6059 8.3346C52.5518 8.99729 53.276 9.95926 53.7783 11.2205C54.286 12.4818 54.5399 14.0049 54.5399 15.7899C54.5399 17.5856 54.286 19.1194 53.7783 20.3913C53.276 21.6579 52.5518 22.6252 51.6059 23.2933C50.6653 23.9613 49.535 24.2953 48.2149 24.2953ZM48.2149 21.7862C49.241 21.7862 50.0507 21.2811 50.6439 20.2711C51.2425 19.2556 51.5417 17.7619 51.5417 15.7899C51.5417 14.4859 51.4055 13.3903 51.1329 12.5031C50.8603 11.616 50.4756 10.948 49.9785 10.499C49.4815 10.0448 48.8937 9.81764 48.2149 9.81764C47.1942 9.81764 46.3872 10.3253 45.794 11.3408C45.2007 12.3508 44.9015 13.8339 44.8961 15.7899C44.8908 17.0992 45.0217 18.2001 45.2889 19.0926C45.5615 19.9851 45.9463 20.6585 46.4433 21.1128C46.9403 21.5617 47.5309 21.7862 48.2149 21.7862ZM48.4314 41.565V57.9827H45.4493V45.3648H45.313C45.2061 45.5305 45.003 45.7095 44.7037 45.9019C44.4045 46.089 44.0197 46.2493 43.5494 46.3829C43.0844 46.5165 42.542 46.5833 41.922 46.5833V44.1784C42.4885 44.1784 42.9936 44.0795 43.4371 43.8818C43.8807 43.684 44.2575 43.4382 44.5675 43.1443C44.8828 42.8503 45.1259 42.5591 45.2969 42.2705C45.468 41.9819 45.5615 41.7467 45.5775 41.565H48.4314ZM42.1465 91.9827V89.8343L47.8462 84.2468C48.3913 83.6964 48.8456 83.2073 49.209 82.7798C49.5724 82.3523 49.8449 81.9381 50.0266 81.5373C50.2083 81.1364 50.2992 80.7089 50.2992 80.2546C50.2992 79.7362 50.1816 79.2927 49.9465 78.9239C49.7113 78.5498 49.388 78.2612 48.9765 78.0581C48.565 77.855 48.0974 77.7535 47.5736 77.7535C47.0338 77.7535 46.5609 77.8657 46.1547 78.0902C45.7485 78.3093 45.4332 78.622 45.2088 79.0281C44.9896 79.4343 44.8801 79.9179 44.8801 80.4791H42.0503C42.0503 79.437 42.2881 78.5311 42.7638 77.7615C43.2394 76.9919 43.8941 76.3961 44.7278 75.9739C45.5668 75.5517 46.5288 75.3406 47.6137 75.3406C48.7146 75.3406 49.6819 75.5463 50.5156 75.9578C51.3493 76.3693 51.996 76.9332 52.4556 77.6493C52.9206 78.3654 53.153 79.1831 53.153 80.1023C53.153 80.7169 53.0355 81.3208 52.8003 81.914C52.5652 82.5072 52.151 83.1646 51.5578 83.8861C50.9699 84.6076 50.1442 85.4813 49.0807 86.5074L46.2509 89.3853V89.4976H53.4016V91.9827H42.1465ZM41.89 121.518H44.8961C44.9335 121.977 45.0885 122.373 45.3611 122.704C45.6336 123.03 45.9917 123.281 46.4353 123.457C46.8789 123.629 47.3732 123.714 47.9183 123.714C48.4955 123.714 49.0112 123.615 49.4655 123.417C49.9198 123.214 50.2751 122.926 50.5317 122.552C50.7935 122.172 50.9245 121.713 50.9245 121.173C50.9245 120.676 50.7989 120.224 50.5477 119.818C50.3019 119.407 49.9251 119.081 49.4174 118.84C48.9097 118.594 48.2604 118.471 47.4694 118.471H45.8421V116.331L49.6418 112.162V112.05H42.6996V109.565H53.3935V111.713L48.9845 116.459V116.587C49.7968 116.652 50.513 116.823 51.1329 117.1C51.7582 117.378 52.2819 117.734 52.7041 118.167C53.1263 118.6 53.4443 119.086 53.6581 119.626C53.8719 120.165 53.9787 120.732 53.9787 121.325C53.9787 122.287 53.7142 123.134 53.1851 123.866C52.6614 124.598 51.9399 125.173 51.0207 125.59C50.1068 126.001 49.0647 126.207 47.8943 126.207C46.772 126.207 45.7646 126.015 44.8721 125.63C43.9849 125.245 43.2768 124.703 42.7477 124.003C42.2186 123.297 41.9327 122.469 41.89 121.518ZM41.8499 156.936V154.572L48.1267 143.565H51.0046L44.8721 154.363V154.491H54.6201V156.936H41.8499ZM49.6819 159.983V156.239L49.7461 155.157V149.722H52.4797V159.983H49.6819ZM47.8542 193.207C46.7853 193.207 45.8287 193.007 44.9843 192.606C44.1399 192.2 43.4692 191.644 42.9722 190.938C42.4805 190.233 42.2186 189.426 42.1866 188.518H45.0725C45.1259 189.191 45.4172 189.741 45.9463 190.169C46.4754 190.591 47.1113 190.802 47.8542 190.802C48.4367 190.802 48.9551 190.669 49.4094 190.401C49.8636 190.134 50.2217 189.763 50.4836 189.287C50.7454 188.811 50.8737 188.269 50.8684 187.66C50.8737 187.04 50.7428 186.489 50.4756 186.008C50.2083 185.527 49.8423 185.151 49.3773 184.878C48.9124 184.6 48.3779 184.461 47.774 184.461C47.2823 184.456 46.7987 184.547 46.323 184.734C45.8474 184.921 45.4706 185.167 45.1927 185.471L42.5072 185.03L43.365 176.565H52.8885V179.05H45.826L45.3531 183.403H45.4493C45.7539 183.045 46.1841 182.748 46.7399 182.513C47.2957 182.273 47.905 182.152 48.5676 182.152C49.5617 182.152 50.4488 182.388 51.2291 182.858C52.0094 183.323 52.624 183.964 53.0729 184.782C53.5218 185.6 53.7463 186.535 53.7463 187.588C53.7463 188.672 53.4951 189.64 52.9927 190.49C52.4957 191.334 51.8036 191.999 50.9165 192.486C50.0347 192.967 49.0139 193.207 47.8542 193.207ZM41.9862 221.7C41.9968 221.144 42.0743 220.586 42.2186 220.024C42.3683 219.458 42.6034 218.859 42.9241 218.229C43.2447 217.593 43.6643 216.893 44.1827 216.128L47.9504 210.565H50.9966L46.9002 216.561C47.098 216.508 47.3037 216.465 47.5175 216.433C47.7313 216.396 47.9504 216.377 48.1748 216.377C49.1742 216.377 50.064 216.604 50.8443 217.058C51.6299 217.513 52.2472 218.141 52.6961 218.942C53.145 219.744 53.3695 220.666 53.3695 221.708C53.3695 222.793 53.1237 223.749 52.632 224.578C52.1456 225.401 51.4749 226.045 50.6199 226.51C49.7701 226.975 48.8028 227.207 47.7179 227.207C46.6544 227.207 45.6871 226.983 44.816 226.534C43.9502 226.085 43.2608 225.449 42.7477 224.626C42.2347 223.803 41.9808 222.827 41.9862 221.7ZM44.8801 221.764C44.8801 222.357 44.9977 222.884 45.2328 223.343C45.4733 223.803 45.8047 224.164 46.2269 224.425C46.6544 224.687 47.1461 224.818 47.7019 224.818C48.2523 224.818 48.7387 224.69 49.1609 224.433C49.5831 224.172 49.9144 223.814 50.1549 223.359C50.3954 222.9 50.5156 222.373 50.5156 221.78C50.5156 221.187 50.3954 220.663 50.1549 220.209C49.9144 219.749 49.5831 219.391 49.1609 219.135C48.7387 218.873 48.2523 218.742 47.7019 218.742C47.1461 218.742 46.6544 218.87 46.2269 219.127C45.8047 219.383 45.4733 219.738 45.2328 220.193C44.9977 220.647 44.8801 221.171 44.8801 221.764ZM42.7477 260.983L49.73 247.162V247.05H41.6254V244.565H52.8083V247.106L45.834 260.983H42.7477ZM47.9824 295.207C46.7907 295.207 45.7325 295.007 44.8079 294.606C43.8887 294.205 43.1672 293.657 42.6435 292.963C42.1251 292.262 41.8686 291.469 41.8739 290.582C41.8686 289.892 42.0182 289.259 42.3229 288.682C42.6275 288.105 43.039 287.624 43.5574 287.239C44.0811 286.849 44.6636 286.6 45.305 286.493V286.381C44.4606 286.194 43.7765 285.764 43.2528 285.09C42.7344 284.412 42.4778 283.629 42.4832 282.742C42.4778 281.897 42.713 281.144 43.1886 280.481C43.6643 279.818 44.3163 279.297 45.1446 278.918C45.973 278.533 46.9189 278.341 47.9824 278.341C49.0353 278.341 49.9732 278.533 50.7962 278.918C51.6246 279.297 52.2766 279.818 52.7522 280.481C53.2332 281.144 53.4737 281.897 53.4737 282.742C53.4737 283.629 53.2092 284.412 52.6801 285.09C52.1563 285.764 51.4803 286.194 50.6519 286.381V286.493C51.2932 286.6 51.8704 286.849 52.3835 287.239C52.9019 287.624 53.3134 288.105 53.618 288.682C53.928 289.259 54.083 289.892 54.083 290.582C54.083 291.469 53.8211 292.262 53.2973 292.963C52.7736 293.657 52.0521 294.205 51.1329 294.606C50.219 295.007 49.1689 295.207 47.9824 295.207ZM47.9824 292.914C48.597 292.914 49.1315 292.81 49.5857 292.602C50.04 292.388 50.3927 292.089 50.6439 291.704C50.8951 291.319 51.0233 290.876 51.0287 290.373C51.0233 289.849 50.8871 289.387 50.6199 288.986C50.358 288.58 49.9972 288.262 49.5376 288.032C49.0834 287.803 48.565 287.688 47.9824 287.688C47.3946 287.688 46.8708 287.803 46.4112 288.032C45.9516 288.262 45.5882 288.58 45.321 288.986C45.0591 289.387 44.9309 289.849 44.9362 290.373C44.9309 290.876 45.0538 291.319 45.305 291.704C45.5561 292.083 45.9089 292.38 46.3631 292.594C46.8227 292.808 47.3625 292.914 47.9824 292.914ZM47.9824 285.435C48.4848 285.435 48.9284 285.334 49.3132 285.13C49.7033 284.927 50.0106 284.644 50.2351 284.281C50.4595 283.917 50.5744 283.498 50.5798 283.022C50.5744 282.552 50.4622 282.14 50.2431 281.788C50.024 281.43 49.7193 281.154 49.3292 280.962C48.9391 280.764 48.4902 280.665 47.9824 280.665C47.4641 280.665 47.0071 280.764 46.6116 280.962C46.2215 281.154 45.9169 281.43 45.6978 281.788C45.484 282.14 45.3798 282.552 45.3851 283.022C45.3798 283.498 45.4867 283.917 45.7058 284.281C45.9302 284.639 46.2375 284.922 46.6277 285.13C47.0232 285.334 47.4747 285.435 47.9824 285.435ZM41.8338 317.84C41.8338 316.755 42.077 315.801 42.5633 314.978C43.0497 314.15 43.7177 313.503 44.5675 313.038C45.4225 312.573 46.3952 312.341 47.4854 312.341C48.5436 312.341 49.5056 312.565 50.3713 313.014C51.2425 313.458 51.9345 314.091 52.4476 314.914C52.966 315.737 53.2198 316.715 53.2092 317.848C53.2038 318.404 53.1263 318.965 52.9767 319.531C52.827 320.092 52.5919 320.691 52.2712 321.327C51.9506 321.958 51.5337 322.655 51.0207 323.419L47.253 328.983H44.1987L48.3031 322.97C48.1 323.029 47.8916 323.077 47.6778 323.115C47.4694 323.152 47.253 323.171 47.0285 323.171C46.0238 323.171 45.1286 322.944 44.343 322.489C43.5627 322.035 42.9481 321.407 42.4992 320.605C42.0556 319.804 41.8338 318.882 41.8338 317.84ZM44.6877 317.768C44.6877 318.361 44.8079 318.887 45.0484 319.347C45.2889 319.801 45.6203 320.159 46.0425 320.421C46.4647 320.678 46.951 320.806 47.5015 320.806C48.0519 320.806 48.5383 320.678 48.9605 320.421C49.388 320.165 49.722 319.809 49.9625 319.355C50.203 318.901 50.3232 318.377 50.3232 317.784C50.3232 317.185 50.203 316.659 49.9625 316.204C49.722 315.745 49.388 315.384 48.9605 315.122C48.5383 314.86 48.0519 314.729 47.5015 314.729C46.951 314.729 46.462 314.86 46.0345 315.122C45.6123 315.379 45.2809 315.737 45.0404 316.196C44.8053 316.651 44.6877 317.174 44.6877 317.768ZM48.2149 363.295C46.8949 363.295 45.7619 362.961 44.816 362.293C43.8754 361.62 43.1512 360.65 42.6435 359.383C42.1411 358.111 41.89 356.58 41.89 354.79C41.8953 353 42.1492 351.476 42.6515 350.221C43.1592 348.959 43.8834 347.997 44.824 347.335C45.7699 346.672 46.9002 346.341 48.2149 346.341C49.5296 346.341 50.6599 346.672 51.6059 347.335C52.5518 347.997 53.276 348.959 53.7783 350.221C54.286 351.482 54.5399 353.005 54.5399 354.79C54.5399 356.586 54.286 358.119 53.7783 359.391C53.276 360.658 52.5518 361.625 51.6059 362.293C50.6653 362.961 49.535 363.295 48.2149 363.295ZM48.2149 360.786C49.241 360.786 50.0507 360.281 50.6439 359.271C51.2425 358.256 51.5417 356.762 51.5417 354.79C51.5417 353.486 51.4055 352.39 51.1329 351.503C50.8603 350.616 50.4756 349.948 49.9785 349.499C49.4815 349.045 48.8937 348.818 48.2149 348.818C47.1942 348.818 46.3872 349.325 45.794 350.341C45.2007 351.351 44.9015 352.834 44.8961 354.79C44.8908 356.099 45.0217 357.2 45.2889 358.093C45.5615 358.985 45.9463 359.659 46.4433 360.113C46.9403 360.562 47.5309 360.786 48.2149 360.786Z" fill="white"/>
</g>
<g clip-path="url(#clip1_390_10180)">
<path d="M60.6349 89.4608L60.5306 90.3427C60.4558 91.016 60.3222 91.7001 60.1298 92.3949C59.9428 93.095 59.745 93.7389 59.5366 94.3268C59.3282 94.9147 59.1598 95.377 59.0316 95.7137H57.0756C57.1504 95.3877 57.2519 94.9441 57.3802 94.3829C57.5138 93.8218 57.6421 93.1912 57.765 92.4911C57.8879 91.791 57.9707 91.0802 58.0135 90.3587L58.0696 89.4608H60.6349Z" fill="white"/>
</g>
<g clip-path="url(#clip2_390_10180)">
<path d="M70.2642 -9.56608C68.9442 -9.56608 67.8112 -9.9001 66.8653 -10.5681C65.9247 -11.2415 65.2005 -12.2115 64.6928 -13.4781C64.1905 -14.75 63.9393 -16.2812 63.9393 -18.0715C63.9446 -19.8618 64.1985 -21.385 64.7008 -22.6409C65.2085 -23.9021 65.9327 -24.8641 66.8733 -25.5268C67.8192 -26.1895 68.9495 -26.5208 70.2642 -26.5208C71.5789 -26.5208 72.7093 -26.1895 73.6552 -25.5268C74.6011 -24.8641 75.3253 -23.9021 75.8276 -22.6409C76.3354 -21.3796 76.5892 -19.8565 76.5892 -18.0715C76.5892 -16.2758 76.3354 -14.742 75.8276 -13.4701C75.3253 -12.2035 74.6011 -11.2362 73.6552 -10.5681C72.7146 -9.9001 71.5843 -9.56608 70.2642 -9.56608ZM70.2642 -12.0752C71.2903 -12.0752 72.1 -12.5803 72.6932 -13.5903C73.2918 -14.6057 73.5911 -16.0995 73.5911 -18.0715C73.5911 -19.3755 73.4548 -20.4711 73.1822 -21.3582C72.9097 -22.2454 72.5249 -22.9134 72.0279 -23.3624C71.5308 -23.8166 70.943 -24.0438 70.2642 -24.0438C69.2435 -24.0438 68.4365 -23.536 67.8433 -22.5206C67.2501 -21.5106 66.9508 -20.0275 66.9454 -18.0715C66.9401 -16.7622 67.071 -15.6612 67.3382 -14.7687C67.6108 -13.8762 67.9956 -13.2029 68.4926 -12.7486C68.9896 -12.2997 69.5802 -12.0752 70.2642 -12.0752ZM70.4807 7.70363V24.1213H67.4986V11.5034H67.3623C67.2554 11.6691 67.0523 11.8481 66.753 12.0405C66.4538 12.2276 66.069 12.3879 65.5987 12.5215C65.1337 12.6551 64.5913 12.7219 63.9713 12.7219V10.317C64.5378 10.317 65.0429 10.2181 65.4865 10.0204C65.93 9.82264 66.3068 9.5768 66.6168 9.28287C66.9321 8.98893 67.1752 8.69767 67.3463 8.40908C67.5173 8.12049 67.6108 7.88534 67.6268 7.70363H70.4807ZM64.1958 58.1213V55.9729L69.8955 50.3854C70.4406 49.835 70.8949 49.346 71.2583 48.9184C71.6217 48.4909 71.8942 48.0767 72.076 47.6759C72.2577 47.275 72.3485 46.8475 72.3485 46.3932C72.3485 45.8748 72.2309 45.4313 71.9958 45.0625C71.7606 44.6884 71.4373 44.3998 71.0258 44.1967C70.6143 43.9937 70.1467 43.8921 69.6229 43.8921C69.0832 43.8921 68.6102 44.0043 68.204 44.2288C67.7979 44.4479 67.4825 44.7606 67.2581 45.1667C67.039 45.5729 66.9294 46.0566 66.9294 46.6177H64.0996C64.0996 45.5756 64.3374 44.6697 64.8131 43.9001C65.2887 43.1306 65.9434 42.5347 66.7771 42.1125C67.6161 41.6903 68.5781 41.4792 69.663 41.4792C70.7639 41.4792 71.7312 41.6849 72.565 42.0964C73.3987 42.5079 74.0453 43.0718 74.5049 43.7879C74.9699 44.504 75.2024 45.3217 75.2024 46.2409C75.2024 46.8555 75.0848 47.4594 74.8496 48.0526C74.6145 48.6459 74.2003 49.3032 73.6071 50.0247C73.0192 50.7462 72.1935 51.62 71.13 52.6461L68.3002 55.524V55.6362H75.4509V58.1213H64.1958ZM63.9393 87.6561H66.9454C66.9829 88.1157 67.1378 88.5112 67.4104 88.8426C67.683 89.1686 68.041 89.4197 68.4846 89.5961C68.9282 89.7671 69.4225 89.8526 69.9676 89.8526C70.5448 89.8526 71.0605 89.7538 71.5148 89.556C71.9691 89.3529 72.3245 89.0643 72.581 88.6902C72.8429 88.3108 72.9738 87.8512 72.9738 87.3114C72.9738 86.8144 72.8482 86.3628 72.597 85.9566C72.3512 85.5451 71.9744 85.2191 71.4667 84.9786C70.959 84.7328 70.3097 84.6099 69.5187 84.6099H67.8914V82.4695L71.6912 78.301V78.1887H64.7489V75.7036H75.4429V77.852L71.0338 82.5978V82.726C71.8462 82.7902 72.5623 82.9612 73.1822 83.2391C73.8075 83.517 74.3312 83.8724 74.7534 84.3053C75.1756 84.7381 75.4936 85.2245 75.7074 85.7642C75.9212 86.304 76.0281 86.8705 76.0281 87.4637C76.0281 88.4257 75.7635 89.2728 75.2344 90.0049C74.7107 90.7371 73.9892 91.3116 73.07 91.7285C72.1561 92.14 71.114 92.3457 69.9436 92.3457C68.8213 92.3457 67.8139 92.1533 66.9214 91.7686C66.0342 91.3838 65.3261 90.8413 64.797 90.1412C64.268 89.4358 63.982 88.6074 63.9393 87.6561ZM63.8992 123.075V120.71L70.1761 109.704H73.054L66.9214 120.502V120.63H76.6694V123.075H63.8992ZM71.7312 126.121V122.378L71.7954 121.295V115.86H74.529V126.121H71.7312ZM69.9035 159.346C68.8346 159.346 67.878 159.145 67.0336 158.745C66.1892 158.338 65.5185 157.783 65.0215 157.077C64.5298 156.372 64.268 155.565 64.2359 154.656H67.1218C67.1752 155.33 67.4665 155.88 67.9956 156.308C68.5247 156.73 69.1606 156.941 69.9035 156.941C70.486 156.941 71.0044 156.807 71.4587 156.54C71.913 156.273 72.271 155.901 72.5329 155.426C72.7948 154.95 72.923 154.408 72.9177 153.798C72.923 153.178 72.7921 152.628 72.5249 152.147C72.2577 151.666 71.8916 151.289 71.4266 151.017C70.9617 150.739 70.4272 150.6 69.8233 150.6C69.3317 150.594 68.848 150.685 68.3724 150.872C67.8967 151.059 67.52 151.305 67.242 151.61L64.5565 151.169L65.4143 142.704H74.9378V145.189H67.8753L67.4024 149.542H67.4986C67.8032 149.184 68.2334 148.887 68.7892 148.652C69.345 148.411 69.9543 148.291 70.617 148.291C71.611 148.291 72.4982 148.526 73.2784 148.997C74.0587 149.461 74.6733 150.103 75.1222 150.92C75.5711 151.738 75.7956 152.673 75.7956 153.726C75.7956 154.811 75.5444 155.778 75.042 156.628C74.545 157.473 73.8529 158.138 72.9658 158.624C72.084 159.105 71.0632 159.346 69.9035 159.346ZM64.0355 187.838C64.0462 187.283 64.1237 186.724 64.268 186.163C64.4176 185.597 64.6527 184.998 64.9734 184.367C65.2941 183.731 65.7136 183.031 66.232 182.267L69.9997 176.704H73.0459L68.9495 182.7C69.1473 182.646 69.353 182.604 69.5668 182.572C69.7806 182.534 69.9997 182.516 70.2242 182.516C71.2235 182.516 72.1134 182.743 72.8936 183.197C73.6792 183.651 74.2965 184.279 74.7454 185.081C75.1943 185.882 75.4188 186.804 75.4188 187.846C75.4188 188.931 75.173 189.888 74.6813 190.716C74.195 191.539 73.5243 192.183 72.6692 192.648C71.8194 193.113 70.8521 193.346 69.7672 193.346C68.7037 193.346 67.7364 193.121 66.8653 192.672C65.9995 192.223 65.3101 191.587 64.797 190.764C64.284 189.941 64.0301 188.966 64.0355 187.838ZM66.9294 187.903C66.9294 188.496 67.047 189.022 67.2821 189.482C67.5226 189.941 67.854 190.302 68.2762 190.564C68.7037 190.826 69.1954 190.957 69.7512 190.957C70.3017 190.957 70.788 190.829 71.2102 190.572C71.6324 190.31 71.9637 189.952 72.2042 189.498C72.4447 189.038 72.565 188.512 72.565 187.919C72.565 187.325 72.4447 186.802 72.2042 186.347C71.9637 185.888 71.6324 185.53 71.2102 185.273C70.788 185.011 70.3017 184.88 69.7512 184.88C69.1954 184.88 68.7037 185.009 68.2762 185.265C67.854 185.522 67.5226 185.877 67.2821 186.331C67.047 186.786 66.9294 187.309 66.9294 187.903ZM64.797 227.121L71.7793 213.301V213.189H63.6747V210.704H74.8577V213.245L67.8834 227.121H64.797ZM70.0318 261.346C68.84 261.346 67.7818 261.145 66.8573 260.745C65.938 260.344 65.2166 259.796 64.6928 259.101C64.1744 258.401 63.9179 257.607 63.9232 256.72C63.9179 256.031 64.0675 255.398 64.3722 254.82C64.6768 254.243 65.0883 253.762 65.6067 253.377C66.1304 252.987 66.713 252.739 67.3543 252.632V252.52C66.5099 252.333 65.8258 251.902 65.3021 251.229C64.7837 250.55 64.5272 249.767 64.5325 248.88C64.5272 248.036 64.7623 247.282 65.2379 246.62C65.7136 245.957 66.3656 245.436 67.194 245.056C68.0223 244.672 68.9683 244.479 70.0318 244.479C71.0846 244.479 72.0225 244.672 72.8455 245.056C73.6739 245.436 74.3259 245.957 74.8015 246.62C75.2825 247.282 75.523 248.036 75.523 248.88C75.523 249.767 75.2585 250.55 74.7294 251.229C74.2057 251.902 73.5296 252.333 72.7012 252.52V252.632C73.3426 252.739 73.9197 252.987 74.4328 253.377C74.9512 253.762 75.3627 254.243 75.6673 254.82C75.9773 255.398 76.1323 256.031 76.1323 256.72C76.1323 257.607 75.8704 258.401 75.3467 259.101C74.8229 259.796 74.1014 260.344 73.1822 260.745C72.2683 261.145 71.2182 261.346 70.0318 261.346ZM70.0318 259.053C70.6464 259.053 71.1808 258.949 71.6351 258.74C72.0893 258.527 72.442 258.227 72.6932 257.843C72.9444 257.458 73.0727 257.014 73.078 256.512C73.0727 255.988 72.9364 255.526 72.6692 255.125C72.4073 254.719 72.0466 254.401 71.587 254.171C71.1327 253.941 70.6143 253.826 70.0318 253.826C69.4439 253.826 68.9202 253.941 68.4605 254.171C68.0009 254.401 67.6375 254.719 67.3703 255.125C67.1084 255.526 66.9802 255.988 66.9855 256.512C66.9802 257.014 67.1031 257.458 67.3543 257.843C67.6055 258.222 67.9582 258.519 68.4124 258.732C68.8721 258.946 69.4118 259.053 70.0318 259.053ZM70.0318 251.574C70.5341 251.574 70.9777 251.472 71.3625 251.269C71.7526 251.066 72.0599 250.783 72.2844 250.419C72.5088 250.056 72.6237 249.636 72.6291 249.161C72.6237 248.69 72.5115 248.279 72.2924 247.926C72.0733 247.568 71.7687 247.293 71.3785 247.101C70.9884 246.903 70.5395 246.804 70.0318 246.804C69.5134 246.804 69.0564 246.903 68.661 247.101C68.2708 247.293 67.9662 247.568 67.7471 247.926C67.5333 248.279 67.4291 248.69 67.4344 249.161C67.4291 249.636 67.536 250.056 67.7551 250.419C67.9796 250.777 68.2869 251.061 68.677 251.269C69.0725 251.472 69.5241 251.574 70.0318 251.574ZM63.8832 283.978C63.8832 282.894 64.1263 281.94 64.6127 281.117C65.099 280.288 65.767 279.642 66.6168 279.177C67.4719 278.712 68.4445 278.479 69.5347 278.479C70.5929 278.479 71.5549 278.704 72.4207 279.153C73.2918 279.596 73.9839 280.229 74.4969 281.052C75.0153 281.875 75.2692 282.853 75.2585 283.986C75.2531 284.542 75.1756 285.103 75.026 285.67C74.8764 286.231 74.6412 286.83 74.3206 287.466C73.9999 288.096 73.583 288.794 73.07 289.558L69.3023 295.121H66.248L70.3524 289.109C70.1493 289.168 69.9409 289.216 69.7271 289.253C69.5187 289.291 69.3023 289.309 69.0778 289.309C68.0731 289.309 67.1779 289.082 66.3923 288.628C65.612 288.174 64.9974 287.546 64.5485 286.744C64.105 285.942 63.8832 285.021 63.8832 283.978ZM66.737 283.906C66.737 284.5 66.8573 285.026 67.0978 285.486C67.3382 285.94 67.6696 286.298 68.0918 286.56C68.514 286.816 69.0003 286.945 69.5508 286.945C70.1012 286.945 70.5876 286.816 71.0098 286.56C71.4373 286.303 71.7713 285.948 72.0118 285.494C72.2523 285.039 72.3726 284.516 72.3726 283.922C72.3726 283.324 72.2523 282.797 72.0118 282.343C71.7713 281.883 71.4373 281.523 71.0098 281.261C70.5876 280.999 70.1012 280.868 69.5508 280.868C69.0003 280.868 68.5113 280.999 68.0838 281.261C67.6616 281.517 67.3302 281.875 67.0897 282.335C66.8546 282.789 66.737 283.313 66.737 283.906ZM70.2642 329.434C68.9442 329.434 67.8112 329.1 66.8653 328.432C65.9247 327.758 65.2005 326.788 64.6928 325.522C64.1905 324.25 63.9393 322.719 63.9393 320.928C63.9446 319.138 64.1985 317.615 64.7008 316.359C65.2085 315.098 65.9327 314.136 66.8733 313.473C67.8192 312.811 68.9495 312.479 70.2642 312.479C71.5789 312.479 72.7093 312.811 73.6552 313.473C74.6011 314.136 75.3253 315.098 75.8276 316.359C76.3354 317.62 76.5892 319.143 76.5892 320.928C76.5892 322.724 76.3354 324.258 75.8276 325.53C75.3253 326.797 74.6011 327.764 73.6552 328.432C72.7146 329.1 71.5843 329.434 70.2642 329.434ZM70.2642 326.925C71.2903 326.925 72.1 326.42 72.6932 325.41C73.2918 324.394 73.5911 322.901 73.5911 320.928C73.5911 319.624 73.4548 318.529 73.1822 317.642C72.9097 316.755 72.5249 316.087 72.0279 315.638C71.5308 315.183 70.943 314.956 70.2642 314.956C69.2435 314.956 68.4365 315.464 67.8433 316.479C67.2501 317.489 66.9508 318.972 66.9454 320.928C66.9401 322.238 67.071 323.339 67.3382 324.231C67.6108 325.124 67.9956 325.797 68.4926 326.251C68.9896 326.7 69.5802 326.925 70.2642 326.925Z" fill="white"/>
</g>
<g clip-path="url(#clip3_390_10180)">
<path d="M85.314 58.1567C83.994 58.1567 82.861 57.8227 81.9151 57.1546C80.9745 56.4813 80.2503 55.5113 79.7426 54.2447C79.2403 52.9727 78.9891 51.4416 78.9891 49.6513C78.9944 47.8609 79.2483 46.3378 79.7506 45.0819C80.2584 43.8207 80.9825 42.8587 81.9231 42.196C82.869 41.5333 83.9994 41.202 85.314 41.202C86.6287 41.202 87.7591 41.5333 88.705 42.196C89.6509 42.8587 90.3751 43.8207 90.8774 45.0819C91.3852 46.3432 91.639 47.8663 91.639 49.6513C91.639 51.4469 91.3852 52.9808 90.8774 54.2527C90.3751 55.5193 89.6509 56.4866 88.705 57.1546C87.7644 57.8227 86.6341 58.1567 85.314 58.1567ZM85.314 55.6476C86.3401 55.6476 87.1498 55.1425 87.743 54.1324C88.3416 53.117 88.6409 51.6233 88.6409 49.6513C88.6409 48.3473 88.5046 47.2517 88.232 46.3645C87.9595 45.4774 87.5747 44.8093 87.0777 44.3604C86.5806 43.9062 85.9928 43.679 85.314 43.679C84.2933 43.679 83.4863 44.1867 82.8931 45.2021C82.2999 46.2122 82.0006 47.6953 81.9952 49.6513C81.9899 50.9606 82.1208 52.0615 82.3881 52.954C82.6606 53.8465 83.0454 54.5199 83.5424 54.9742C84.0394 55.4231 84.63 55.6476 85.314 55.6476ZM85.5305 75.4264V91.8441H82.5484V79.2262H82.4121C82.3052 79.3919 82.1021 79.5709 81.8029 79.7633C81.5036 79.9503 81.1188 80.1107 80.6485 80.2443C80.1835 80.3779 79.6411 80.4447 79.0212 80.4447V78.0398C79.5876 78.0398 80.0927 77.9409 80.5363 77.7432C80.9798 77.5454 81.3566 77.2996 81.6666 77.0056C81.9819 76.7117 82.225 76.4204 82.3961 76.1319C82.5671 75.8433 82.6606 75.6081 82.6766 75.4264H85.5305ZM79.2456 125.844V123.696L84.9453 118.108C85.4904 117.558 85.9447 117.069 86.3081 116.641C86.6715 116.214 86.9441 115.799 87.1258 115.399C87.3075 114.998 87.3983 114.57 87.3983 114.116C87.3983 113.598 87.2807 113.154 87.0456 112.785C86.8104 112.411 86.4871 112.123 86.0756 111.92C85.6641 111.716 85.1965 111.615 84.6727 111.615C84.133 111.615 83.66 111.727 83.2538 111.952C82.8477 112.171 82.5323 112.483 82.3079 112.89C82.0888 113.296 81.9792 113.779 81.9792 114.34H79.1494C79.1494 113.298 79.3872 112.392 79.8629 111.623C80.3385 110.853 80.9932 110.257 81.8269 109.835C82.666 109.413 83.6279 109.202 84.7128 109.202C85.8137 109.202 86.7811 109.408 87.6148 109.819C88.4485 110.231 89.0951 110.795 89.5547 111.511C90.0197 112.227 90.2522 113.044 90.2522 113.964C90.2522 114.578 90.1346 115.182 89.8994 115.775C89.6643 116.369 89.2501 117.026 88.6569 117.747C88.069 118.469 87.2433 119.343 86.1798 120.369L83.35 123.247V123.359H90.5007V125.844H79.2456ZM78.9891 155.379H81.9952C82.0327 155.839 82.1876 156.234 82.4602 156.565C82.7328 156.891 83.0908 157.143 83.5344 157.319C83.978 157.49 84.4723 157.575 85.0174 157.575C85.5946 157.575 86.1103 157.477 86.5646 157.279C87.0189 157.076 87.3743 156.787 87.6308 156.413C87.8927 156.034 88.0236 155.574 88.0236 155.034C88.0236 154.537 87.898 154.086 87.6468 153.679C87.401 153.268 87.0242 152.942 86.5165 152.701C86.0088 152.456 85.3595 152.333 84.5685 152.333H82.9412V150.192L86.741 146.024V145.912H79.7987V143.426H90.4927V145.575L86.0836 150.321V150.449C86.896 150.513 87.6121 150.684 88.232 150.962C88.8573 151.24 89.381 151.595 89.8032 152.028C90.2254 152.461 90.5434 152.947 90.7572 153.487C90.971 154.027 91.0779 154.593 91.0779 155.187C91.0779 156.148 90.8133 156.996 90.2842 157.728C89.7605 158.46 89.039 159.034 88.1198 159.451C87.2059 159.863 86.1638 160.069 84.9934 160.069C83.8711 160.069 82.8637 159.876 81.9712 159.491C81.084 159.107 80.3759 158.564 79.8468 157.864C79.3178 157.159 79.0318 156.33 78.9891 155.379ZM78.949 190.798V188.433L85.2259 177.426H88.1038L81.9712 188.225V188.353H91.7192V190.798H78.949ZM86.7811 193.844V190.1L86.8452 189.018V183.583H89.5788V193.844H86.7811ZM84.9533 227.069C83.8845 227.069 82.9278 226.868 82.0834 226.467C81.239 226.061 80.5683 225.505 80.0713 224.8C79.5796 224.094 79.3178 223.287 79.2857 222.379H82.1716C82.2251 223.052 82.5163 223.603 83.0454 224.03C83.5745 224.452 84.2105 224.664 84.9533 224.664C85.5358 224.664 86.0542 224.53 86.5085 224.263C86.9628 223.996 87.3208 223.624 87.5827 223.148C87.8446 222.673 87.9728 222.13 87.9675 221.521C87.9728 220.901 87.8419 220.351 87.5747 219.87C87.3075 219.389 86.9414 219.012 86.4764 218.739C86.0115 218.462 85.477 218.323 84.8731 218.323C84.3815 218.317 83.8978 218.408 83.4222 218.595C82.9465 218.782 82.5698 219.028 82.2919 219.333L79.6064 218.892L80.4641 210.426H89.9876V212.912H82.9252L82.4522 217.264H82.5484C82.853 216.906 83.2832 216.61 83.839 216.375C84.3948 216.134 85.0041 216.014 85.6668 216.014C86.6608 216.014 87.548 216.249 88.3282 216.719C89.1085 217.184 89.7231 217.826 90.172 218.643C90.6209 219.461 90.8454 220.396 90.8454 221.449C90.8454 222.534 90.5942 223.501 90.0918 224.351C89.5948 225.195 88.9027 225.861 88.0156 226.347C87.1338 226.828 86.113 227.069 84.9533 227.069ZM79.0853 255.561C79.096 255.005 79.1735 254.447 79.3178 253.886C79.4674 253.319 79.7025 252.721 80.0232 252.09C80.3439 251.454 80.7634 250.754 81.2818 249.99L85.0495 244.426H88.0957L83.9994 250.423C84.1971 250.369 84.4028 250.327 84.6166 250.294C84.8304 250.257 85.0495 250.238 85.274 250.238C86.2733 250.238 87.1632 250.465 87.9434 250.92C88.729 251.374 89.3463 252.002 89.7952 252.804C90.2442 253.605 90.4686 254.527 90.4686 255.569C90.4686 256.654 90.2228 257.611 89.7311 258.439C89.2448 259.262 88.5741 259.906 87.719 260.371C86.8692 260.836 85.9019 261.069 84.817 261.069C83.7535 261.069 82.7862 260.844 81.9151 260.395C81.0493 259.946 80.3599 259.31 79.8468 258.487C79.3338 257.664 79.0799 256.689 79.0853 255.561ZM81.9792 255.625C81.9792 256.219 82.0968 256.745 82.3319 257.205C82.5724 257.664 82.9038 258.025 83.326 258.287C83.7535 258.549 84.2452 258.68 84.801 258.68C85.3515 258.68 85.8378 258.551 86.26 258.295C86.6822 258.033 87.0135 257.675 87.254 257.221C87.4945 256.761 87.6148 256.235 87.6148 255.641C87.6148 255.048 87.4945 254.524 87.254 254.07C87.0135 253.611 86.6822 253.252 86.26 252.996C85.8378 252.734 85.3515 252.603 84.801 252.603C84.2452 252.603 83.7535 252.731 83.326 252.988C82.9038 253.244 82.5724 253.6 82.3319 254.054C82.0968 254.508 81.9792 255.032 81.9792 255.625ZM79.8468 294.844L86.8292 281.024V280.912H78.7245V278.426H89.9075V280.968L82.9332 294.844H79.8468ZM85.0816 329.069C83.8898 329.069 82.8316 328.868 81.9071 328.467C80.9878 328.066 80.2664 327.519 79.7426 326.824C79.2242 326.124 78.9677 325.33 78.9731 324.443C78.9677 323.754 79.1173 323.12 79.422 322.543C79.7266 321.966 80.1381 321.485 80.6565 321.1C81.1802 320.71 81.7628 320.462 82.4041 320.355V320.242C81.5597 320.055 80.8756 319.625 80.3519 318.952C79.8335 318.273 79.577 317.49 79.5823 316.603C79.577 315.759 79.8121 315.005 80.2877 314.342C80.7634 313.68 81.4154 313.159 82.2438 312.779C83.0721 312.394 84.0181 312.202 85.0816 312.202C86.1344 312.202 87.0723 312.394 87.8953 312.779C88.7237 313.159 89.3757 313.68 89.8513 314.342C90.3323 315.005 90.5728 315.759 90.5728 316.603C90.5728 317.49 90.3083 318.273 89.7792 318.952C89.2555 319.625 88.5794 320.055 87.751 320.242V320.355C88.3924 320.462 88.9695 320.71 89.4826 321.1C90.001 321.485 90.4125 321.966 90.7171 322.543C91.0271 323.12 91.1821 323.754 91.1821 324.443C91.1821 325.33 90.9202 326.124 90.3965 326.824C89.8727 327.519 89.1512 328.066 88.232 328.467C87.3182 328.868 86.268 329.069 85.0816 329.069ZM85.0816 326.776C85.6962 326.776 86.2306 326.672 86.6849 326.463C87.1391 326.249 87.4918 325.95 87.743 325.565C87.9942 325.181 88.1225 324.737 88.1278 324.235C88.1225 323.711 87.9862 323.249 87.719 322.848C87.4571 322.442 87.0964 322.124 86.6368 321.894C86.1825 321.664 85.6641 321.549 85.0816 321.549C84.4937 321.549 83.97 321.664 83.5104 321.894C83.0507 322.124 82.6873 322.442 82.4201 322.848C82.1582 323.249 82.03 323.711 82.0353 324.235C82.03 324.737 82.1529 325.181 82.4041 325.565C82.6553 325.945 83.008 326.241 83.4623 326.455C83.9219 326.669 84.4616 326.776 85.0816 326.776ZM85.0816 319.296C85.5839 319.296 86.0275 319.195 86.4123 318.992C86.8024 318.789 87.1097 318.506 87.3342 318.142C87.5586 317.779 87.6735 317.359 87.6789 316.884C87.6735 316.413 87.5613 316.002 87.3422 315.649C87.1231 315.291 86.8185 315.016 86.4283 314.823C86.0382 314.626 85.5893 314.527 85.0816 314.527C84.5632 314.527 84.1062 314.626 83.7108 314.823C83.3206 315.016 83.016 315.291 82.7969 315.649C82.5831 316.002 82.4789 316.413 82.4842 316.884C82.4789 317.359 82.5858 317.779 82.8049 318.142C83.0294 318.5 83.3367 318.783 83.7268 318.992C84.1223 319.195 84.5739 319.296 85.0816 319.296ZM78.933 351.701C78.933 350.616 79.1761 349.662 79.6625 348.839C80.1488 348.011 80.8168 347.364 81.6666 346.899C82.5217 346.434 83.4943 346.202 84.5846 346.202C85.6427 346.202 86.6047 346.426 87.4705 346.875C88.3416 347.319 89.0337 347.952 89.5467 348.775C90.0651 349.598 90.319 350.576 90.3083 351.709C90.3029 352.265 90.2254 352.826 90.0758 353.393C89.9262 353.954 89.691 354.552 89.3704 355.188C89.0497 355.819 88.6328 356.516 88.1198 357.281L84.3521 362.844H81.2978L85.4022 356.832C85.1991 356.891 84.9907 356.939 84.7769 356.976C84.5685 357.013 84.3521 357.032 84.1276 357.032C83.1229 357.032 82.2277 356.805 81.4421 356.351C80.6618 355.896 80.0473 355.269 79.5983 354.467C79.1548 353.665 78.933 352.743 78.933 351.701ZM81.7868 351.629C81.7868 352.222 81.9071 352.749 82.1476 353.208C82.3881 353.663 82.7194 354.021 83.1416 354.283C83.5638 354.539 84.0501 354.667 84.6006 354.667C85.151 354.667 85.6374 354.539 86.0596 354.283C86.4871 354.026 86.8211 353.671 87.0616 353.216C87.3021 352.762 87.4224 352.238 87.4224 351.645C87.4224 351.047 87.3021 350.52 87.0616 350.066C86.8211 349.606 86.4871 349.246 86.0596 348.984C85.6374 348.722 85.151 348.591 84.6006 348.591C84.0501 348.591 83.5611 348.722 83.1336 348.984C82.7114 349.24 82.38 349.598 82.1395 350.058C81.9044 350.512 81.7868 351.036 81.7868 351.629ZM85.314 397.157C83.994 397.157 82.861 396.823 81.9151 396.155C80.9745 395.481 80.2503 394.511 79.7426 393.245C79.2403 391.973 78.9891 390.442 78.9891 388.651C78.9944 386.861 79.2483 385.338 79.7506 384.082C80.2584 382.821 80.9825 381.859 81.9231 381.196C82.869 380.533 83.9994 380.202 85.314 380.202C86.6287 380.202 87.7591 380.533 88.705 381.196C89.6509 381.859 90.3751 382.821 90.8774 384.082C91.3852 385.343 91.639 386.866 91.639 388.651C91.639 390.447 91.3852 391.981 90.8774 393.253C90.3751 394.519 89.6509 395.487 88.705 396.155C87.7644 396.823 86.6341 397.157 85.314 397.157ZM85.314 394.648C86.3401 394.648 87.1498 394.143 87.743 393.132C88.3416 392.117 88.6409 390.623 88.6409 388.651C88.6409 387.347 88.5046 386.252 88.232 385.365C87.9595 384.477 87.5747 383.809 87.0777 383.36C86.5806 382.906 85.9928 382.679 85.314 382.679C84.2933 382.679 83.4863 383.187 82.8931 384.202C82.2999 385.212 82.0006 386.695 81.9952 388.651C81.9899 389.961 82.1208 391.062 82.3881 391.954C82.6606 392.847 83.0454 393.52 83.5424 393.974C84.0394 394.423 84.63 394.648 85.314 394.648Z" fill="white"/>
</g>
<g clip-path="url(#clip4_390_10180)">
<path d="M100.363 -178.873C99.0433 -178.873 97.9103 -179.207 96.9644 -179.875C96.0238 -180.548 95.2997 -181.518 94.7919 -182.785C94.2896 -184.057 94.0384 -185.588 94.0384 -187.378C94.0437 -189.169 94.2976 -190.692 94.8 -191.948C95.3077 -193.209 96.0318 -194.171 96.9724 -194.834C97.9184 -195.496 99.0487 -195.828 100.363 -195.828C101.678 -195.828 102.808 -195.496 103.754 -194.834C104.7 -194.171 105.424 -193.209 105.927 -191.948C106.434 -190.687 106.688 -189.163 106.688 -187.378C106.688 -185.583 106.434 -184.049 105.927 -182.777C105.424 -181.51 104.7 -180.543 103.754 -179.875C102.814 -179.207 101.683 -178.873 100.363 -178.873ZM100.363 -181.382C101.389 -181.382 102.199 -181.887 102.792 -182.897C103.391 -183.913 103.69 -185.406 103.69 -187.378C103.69 -188.682 103.554 -189.778 103.281 -190.665C103.009 -191.552 102.624 -192.22 102.127 -192.669C101.63 -193.124 101.042 -193.351 100.363 -193.351C99.3426 -193.351 98.5356 -192.843 97.9424 -191.828C97.3492 -190.818 97.0499 -189.334 97.0446 -187.378C97.0392 -186.069 97.1702 -184.968 97.4374 -184.076C97.7099 -183.183 98.0947 -182.51 98.5917 -182.056C99.0888 -181.607 99.6793 -181.382 100.363 -181.382ZM100.58 -161.603V-145.186H97.5977V-157.804H97.4614C97.3545 -157.638 97.1514 -157.459 96.8522 -157.266C96.5529 -157.079 96.1681 -156.919 95.6978 -156.785C95.2328 -156.652 94.6904 -156.585 94.0705 -156.585V-158.99C94.637 -158.99 95.142 -159.089 95.5856 -159.287C96.0291 -159.484 96.4059 -159.73 96.7159 -160.024C97.0312 -160.318 97.2744 -160.609 97.4454 -160.898C97.6164 -161.186 97.7099 -161.422 97.726 -161.603H100.58ZM94.2949 -111.186V-113.334L99.9946 -118.922C100.54 -119.472 100.994 -119.961 101.357 -120.389C101.721 -120.816 101.993 -121.23 102.175 -121.631C102.357 -122.032 102.448 -122.459 102.448 -122.914C102.448 -123.432 102.33 -123.876 102.095 -124.244C101.86 -124.619 101.536 -124.907 101.125 -125.11C100.713 -125.313 100.246 -125.415 99.722 -125.415C99.1823 -125.415 98.7093 -125.303 98.3031 -125.078C97.897 -124.859 97.5817 -124.546 97.3572 -124.14C97.1381 -123.734 97.0285 -123.25 97.0285 -122.689H94.1987C94.1987 -123.731 94.4366 -124.637 94.9122 -125.407C95.3878 -126.176 96.0425 -126.772 96.8762 -127.194C97.7153 -127.617 98.6772 -127.828 99.7621 -127.828C100.863 -127.828 101.83 -127.622 102.664 -127.211C103.498 -126.799 104.144 -126.235 104.604 -125.519C105.069 -124.803 105.301 -123.985 105.301 -123.066C105.301 -122.451 105.184 -121.848 104.949 -121.254C104.714 -120.661 104.299 -120.004 103.706 -119.282C103.118 -118.561 102.293 -117.687 101.229 -116.661L98.3993 -113.783V-113.671H105.55V-111.186H94.2949ZM94.0384 -81.6508H97.0446C97.082 -81.1912 97.237 -80.7957 97.5095 -80.4644C97.7821 -80.1384 98.1401 -79.8872 98.5837 -79.7108C99.0273 -79.5398 99.5216 -79.4543 100.067 -79.4543C100.644 -79.4543 101.16 -79.5532 101.614 -79.7509C102.068 -79.954 102.424 -80.2426 102.68 -80.6167C102.942 -80.9961 103.073 -81.4558 103.073 -81.9955C103.073 -82.4925 102.947 -82.9441 102.696 -83.3503C102.45 -83.7618 102.074 -84.0878 101.566 -84.3283C101.058 -84.5741 100.409 -84.6971 99.6178 -84.6971H97.9905V-86.8374L101.79 -91.006V-91.1182H94.8481V-93.6033H105.542V-91.4549L101.133 -86.7092V-86.5809C101.945 -86.5168 102.661 -86.3458 103.281 -86.0679C103.907 -85.79 104.43 -85.4346 104.853 -85.0017C105.275 -84.5688 105.593 -84.0825 105.807 -83.5427C106.02 -83.0029 106.127 -82.4364 106.127 -81.8432C106.127 -80.8812 105.863 -80.0342 105.334 -79.302C104.81 -78.5698 104.088 -77.9953 103.169 -77.5785C102.255 -77.167 101.213 -76.9612 100.043 -76.9612C98.9204 -76.9612 97.913 -77.1536 97.0205 -77.5384C96.1334 -77.9232 95.4252 -78.4656 94.8962 -79.1657C94.3671 -79.8712 94.0812 -80.6995 94.0384 -81.6508ZM93.9983 -46.2319V-48.5968L100.275 -59.6033H103.153L97.0205 -48.8052V-48.6769H106.768V-46.2319H93.9983ZM101.83 -43.1857V-46.9293L101.895 -48.0116V-53.4467H104.628V-43.1857H101.83ZM100.003 -9.96121C98.9338 -9.96121 97.9771 -10.1616 97.1327 -10.5624C96.2883 -10.9686 95.6176 -11.5244 95.1206 -12.2299C94.6289 -12.9353 94.3671 -13.7423 94.335 -14.6508H97.2209C97.2744 -13.9774 97.5656 -13.427 98.0947 -12.9994C98.6238 -12.5772 99.2598 -12.3661 100.003 -12.3661C100.585 -12.3661 101.104 -12.4997 101.558 -12.767C102.012 -13.0342 102.37 -13.4056 102.632 -13.8812C102.894 -14.3569 103.022 -14.8993 103.017 -15.5086C103.022 -16.1285 102.891 -16.679 102.624 -17.16C102.357 -17.6409 101.991 -18.0177 101.526 -18.2903C101.061 -18.5682 100.526 -18.7071 99.9225 -18.7071C99.4308 -18.7125 98.9471 -18.6216 98.4715 -18.4346C97.9958 -18.2475 97.6191 -18.0017 97.3412 -17.6971L94.6557 -18.138L95.5134 -26.6033H105.037V-24.1182H97.9745L97.5015 -19.7653H97.5977C97.9023 -20.1234 98.3325 -20.42 98.8883 -20.6551C99.4441 -20.8956 100.053 -21.0159 100.716 -21.0159C101.71 -21.0159 102.597 -20.7807 103.378 -20.3104C104.158 -19.8455 104.772 -19.2042 105.221 -18.3865C105.67 -17.5688 105.895 -16.6335 105.895 -15.5807C105.895 -14.4958 105.644 -13.5285 105.141 -12.6788C104.644 -11.8344 103.952 -11.169 103.065 -10.6827C102.183 -10.2017 101.162 -9.96121 100.003 -9.96121ZM94.1346 18.5315C94.1453 17.9757 94.2228 17.4172 94.3671 16.8561C94.5167 16.2896 94.7519 15.691 95.0725 15.0604C95.3932 14.4244 95.8127 13.7243 96.3311 12.9601L100.099 7.39669H103.145L99.0487 13.393C99.2464 13.3395 99.4522 13.2968 99.6659 13.2647C99.8797 13.2273 100.099 13.2086 100.323 13.2086C101.323 13.2086 102.212 13.4357 102.993 13.89C103.778 14.3443 104.396 14.9722 104.845 15.7739C105.293 16.5755 105.518 17.4974 105.518 18.5395C105.518 19.6244 105.272 20.581 104.78 21.4094C104.294 22.2324 103.623 22.8764 102.768 23.3414C101.919 23.8063 100.951 24.0388 99.8663 24.0388C98.8028 24.0388 97.8355 23.8143 96.9644 23.3654C96.0986 22.9165 95.4092 22.2805 94.8962 21.4575C94.3831 20.6345 94.1293 19.6591 94.1346 18.5315ZM97.0285 18.5956C97.0285 19.1889 97.1461 19.7153 97.3813 20.1749C97.6217 20.6345 97.9531 20.9952 98.3753 21.2571C98.8028 21.519 99.2945 21.6499 99.8503 21.6499C100.401 21.6499 100.887 21.5216 101.309 21.2651C101.732 21.0032 102.063 20.6452 102.303 20.1909C102.544 19.7313 102.664 19.2049 102.664 18.6117C102.664 18.0185 102.544 17.4947 102.303 17.0404C102.063 16.5808 101.732 16.2228 101.309 15.9662C100.887 15.7044 100.401 15.5734 99.8503 15.5734C99.2945 15.5734 98.8028 15.7017 98.3753 15.9582C97.9531 16.2148 97.6217 16.5702 97.3813 17.0244C97.1461 17.4787 97.0285 18.0024 97.0285 18.5956ZM94.8962 57.8143L101.878 43.994V43.8818H93.7739V41.3967H104.957V43.9379L97.9825 57.8143H94.8962ZM100.131 92.0388C98.9391 92.0388 97.8809 91.8384 96.9564 91.4376C96.0372 91.0367 95.3157 90.4889 94.7919 89.7942C94.2736 89.0941 94.017 88.3005 94.0224 87.4133C94.017 86.7239 94.1667 86.0906 94.4713 85.5134C94.7759 84.9362 95.1874 84.4553 95.7058 84.0705C96.2296 83.6803 96.8121 83.4318 97.4534 83.3249V83.2127C96.609 83.0257 95.9249 82.5954 95.4012 81.9221C94.8828 81.2433 94.6263 80.4604 94.6316 79.5732C94.6263 78.7288 94.8614 77.9753 95.3371 77.3126C95.8127 76.6499 96.4647 76.1289 97.2931 75.7494C98.1214 75.3646 99.0674 75.1722 100.131 75.1722C101.184 75.1722 102.122 75.3646 102.945 75.7494C103.773 76.1289 104.425 76.6499 104.901 77.3126C105.382 77.9753 105.622 78.7288 105.622 79.5732C105.622 80.4604 105.358 81.2433 104.829 81.9221C104.305 82.5954 103.629 83.0257 102.8 83.2127V83.3249C103.442 83.4318 104.019 83.6803 104.532 84.0705C105.05 84.4553 105.462 84.9362 105.766 85.5134C106.076 86.0906 106.231 86.7239 106.231 87.4133C106.231 88.3005 105.97 89.0941 105.446 89.7942C104.922 90.4889 104.201 91.0367 103.281 91.4376C102.367 91.8384 101.317 92.0388 100.131 92.0388ZM100.131 89.7461C100.745 89.7461 101.28 89.6419 101.734 89.4335C102.188 89.2197 102.541 88.9204 102.792 88.5356C103.044 88.1508 103.172 87.7072 103.177 87.2049C103.172 86.6811 103.036 86.2189 102.768 85.818C102.506 85.4119 102.146 85.0939 101.686 84.8641C101.232 84.6343 100.713 84.5194 100.131 84.5194C99.543 84.5194 99.0193 84.6343 98.5597 84.8641C98.1001 85.0939 97.7366 85.4119 97.4694 85.818C97.2076 86.2189 97.0793 86.6811 97.0846 87.2049C97.0793 87.7072 97.2022 88.1508 97.4534 88.5356C97.7046 88.9151 98.0573 89.2117 98.5116 89.4254C98.9712 89.6392 99.511 89.7461 100.131 89.7461ZM100.131 82.2668C100.633 82.2668 101.077 82.1652 101.462 81.9621C101.852 81.7591 102.159 81.4758 102.384 81.1124C102.608 80.749 102.723 80.3295 102.728 79.8538C102.723 79.3835 102.611 78.972 102.392 78.6193C102.172 78.2612 101.868 77.986 101.478 77.7936C101.088 77.5959 100.639 77.497 100.131 77.497C99.6125 77.497 99.1556 77.5959 98.7601 77.7936C98.3699 77.986 98.0653 78.2612 97.8462 78.6193C97.6324 78.972 97.5282 79.3835 97.5336 79.8538C97.5282 80.3295 97.6351 80.749 97.8542 81.1124C98.0787 81.4705 98.386 81.7537 98.7761 81.9621C99.1716 82.1652 99.6232 82.2668 100.131 82.2668ZM93.9823 114.671C93.9823 113.587 94.2255 112.633 94.7118 111.81C95.1981 110.981 95.8661 110.335 96.7159 109.87C97.571 109.405 98.5436 109.172 99.6339 109.172C100.692 109.172 101.654 109.397 102.52 109.846C103.391 110.289 104.083 110.922 104.596 111.746C105.114 112.569 105.368 113.547 105.358 114.68C105.352 115.235 105.275 115.796 105.125 116.363C104.975 116.924 104.74 117.523 104.42 118.159C104.099 118.789 103.682 119.487 103.169 120.251L99.4014 125.814H96.3471L100.452 119.802C100.248 119.861 100.04 119.909 99.8263 119.946C99.6178 119.984 99.4014 120.002 99.1769 120.002C98.1722 120.002 97.277 119.775 96.4914 119.321C95.7112 118.867 95.0966 118.239 94.6477 117.437C94.2041 116.636 93.9823 115.714 93.9823 114.671ZM96.8361 114.599C96.8361 115.193 96.9564 115.719 97.1969 116.179C97.4374 116.633 97.7687 116.991 98.1909 117.253C98.6131 117.509 99.0994 117.638 99.6499 117.638C100.2 117.638 100.687 117.509 101.109 117.253C101.536 116.996 101.87 116.641 102.111 116.187C102.351 115.732 102.472 115.209 102.472 114.615C102.472 114.017 102.351 113.49 102.111 113.036C101.87 112.577 101.536 112.216 101.109 111.954C100.687 111.692 100.2 111.561 99.6499 111.561C99.0994 111.561 98.6104 111.692 98.1829 111.954C97.7607 112.21 97.4294 112.569 97.1889 113.028C96.9537 113.482 96.8361 114.006 96.8361 114.599ZM100.363 160.127C99.0433 160.127 97.9103 159.793 96.9644 159.125C96.0238 158.452 95.2997 157.482 94.7919 156.215C94.2896 154.943 94.0384 153.412 94.0384 151.622C94.0437 149.831 94.2976 148.308 94.8 147.052C95.3077 145.791 96.0318 144.829 96.9724 144.166C97.9184 143.504 99.0487 143.172 100.363 143.172C101.678 143.172 102.808 143.504 103.754 144.166C104.7 144.829 105.424 145.791 105.927 147.052C106.434 148.313 106.688 149.837 106.688 151.622C106.688 153.417 106.434 154.951 105.927 156.223C105.424 157.49 104.7 158.457 103.754 159.125C102.814 159.793 101.683 160.127 100.363 160.127ZM100.363 157.618C101.389 157.618 102.199 157.113 102.792 156.103C103.391 155.087 103.69 153.594 103.69 151.622C103.69 150.318 103.554 149.222 103.281 148.335C103.009 147.448 102.624 146.78 102.127 146.331C101.63 145.876 101.042 145.649 100.363 145.649C99.3426 145.649 98.5356 146.157 97.9424 147.172C97.3492 148.182 97.0499 149.666 97.0446 151.622C97.0392 152.931 97.1702 154.032 97.4374 154.924C97.7099 155.817 98.0947 156.49 98.5917 156.944C99.0888 157.393 99.6793 157.618 100.363 157.618Z" fill="white"/>
</g>
<path d="M129.998 86.7625V81.4716H130.896V86.7625H129.998ZM127.801 84.566V83.6681H133.092V84.566H127.801ZM134.825 85.6081C134.83 85.3516 134.869 85.0857 134.941 84.8105C135.013 84.5353 135.135 84.2293 135.306 83.8926C135.477 83.5559 135.712 83.1658 136.011 82.7222L137.855 79.9966H138.945L136.781 83.1551C136.877 83.123 136.976 83.0963 137.077 83.0749C137.181 83.0536 137.286 83.0429 137.39 83.0429C137.887 83.0429 138.33 83.1578 138.721 83.3876C139.113 83.6174 139.422 83.9314 139.647 84.3295C139.874 84.7277 139.987 85.1806 139.987 85.6883C139.987 86.196 139.875 86.6476 139.651 87.0431C139.429 87.4385 139.123 87.7498 138.733 87.977C138.345 88.2041 137.903 88.3177 137.406 88.3177C136.904 88.3177 136.457 88.2014 136.067 87.969C135.677 87.7338 135.371 87.4132 135.149 87.007C134.928 86.5982 134.819 86.1319 134.825 85.6081ZM135.771 85.6723C135.771 86.0196 135.84 86.3269 135.979 86.5941C136.118 86.8614 136.31 87.0711 136.556 87.2234C136.802 87.3757 137.085 87.4519 137.406 87.4519C137.727 87.4519 138.01 87.3771 138.256 87.2274C138.502 87.0751 138.694 86.8667 138.833 86.6022C138.972 86.3349 139.041 86.0303 139.041 85.6883C139.041 85.3409 138.972 85.0349 138.833 84.7704C138.694 84.5059 138.502 84.2988 138.256 84.1491C138.01 83.9995 137.727 83.9247 137.406 83.9247C137.085 83.9247 136.802 83.9995 136.556 84.1491C136.31 84.2961 136.118 84.5019 135.979 84.7664C135.84 85.0283 135.771 85.3302 135.771 85.6723ZM142.204 88.2696C142.006 88.2696 141.836 88.1988 141.695 88.0571C141.553 87.9155 141.482 87.7458 141.482 87.5481C141.482 87.3504 141.553 87.1807 141.695 87.0391C141.836 86.8974 142.006 86.8266 142.204 86.8266C142.402 86.8266 142.571 86.8974 142.713 87.0391C142.854 87.1807 142.925 87.3504 142.925 87.5481C142.925 87.679 142.892 87.7993 142.825 87.9088C142.761 88.0184 142.674 88.1066 142.565 88.1734C142.458 88.2375 142.337 88.2696 142.204 88.2696ZM146.998 88.3177C146.394 88.3177 145.879 88.1533 145.454 87.8247C145.03 87.4933 144.705 87.0137 144.48 86.3857C144.256 85.7551 144.144 84.9935 144.144 84.101C144.144 83.2139 144.256 82.4563 144.48 81.8284C144.708 81.1978 145.034 80.7168 145.458 80.3854C145.886 80.0514 146.399 79.8844 146.998 79.8844C147.596 79.8844 148.108 80.0514 148.533 80.3854C148.96 80.7168 149.286 81.1978 149.511 81.8284C149.738 82.4563 149.851 83.2139 149.851 84.101C149.851 84.9935 149.739 85.7551 149.515 86.3857C149.29 87.0137 148.966 87.4933 148.541 87.8247C148.116 88.1533 147.601 88.3177 146.998 88.3177ZM146.998 87.4359C147.596 87.4359 148.061 87.1473 148.392 86.5701C148.724 85.9929 148.889 85.1699 148.889 84.101C148.889 83.3902 148.813 82.785 148.661 82.2853C148.511 81.7856 148.295 81.4048 148.012 81.143C147.731 80.8811 147.393 80.7502 146.998 80.7502C146.404 80.7502 145.941 81.0428 145.607 81.628C145.273 82.2105 145.106 83.0348 145.106 84.101C145.106 84.8118 145.181 85.4157 145.33 85.9127C145.48 86.4098 145.695 86.7879 145.975 87.0471C146.259 87.3063 146.599 87.4359 146.998 87.4359ZM154.004 88.3177C153.453 88.3177 152.967 88.2201 152.545 88.0251C152.125 87.8273 151.798 87.5561 151.563 87.2114C151.328 86.864 151.212 86.4686 151.214 86.025C151.212 85.6776 151.28 85.3569 151.419 85.063C151.558 84.7664 151.747 84.5192 151.988 84.3215C152.231 84.1211 152.502 83.9941 152.801 83.9407V83.8926C152.409 83.7911 152.096 83.5706 151.864 83.2313C151.631 82.8892 151.516 82.5004 151.519 82.0649C151.516 81.648 151.622 81.2752 151.836 80.9466C152.049 80.6179 152.343 80.3587 152.717 80.169C153.094 79.9793 153.523 79.8844 154.004 79.8844C154.48 79.8844 154.904 79.9793 155.279 80.169C155.653 80.3587 155.947 80.6179 156.16 80.9466C156.377 81.2752 156.486 81.648 156.489 82.0649C156.486 82.5004 156.367 82.8892 156.132 83.2313C155.9 83.5706 155.591 83.7911 155.206 83.8926V83.9407C155.503 83.9941 155.77 84.1211 156.008 84.3215C156.246 84.5192 156.436 84.7664 156.577 85.063C156.719 85.3569 156.791 85.6776 156.794 86.025C156.791 86.4686 156.671 86.864 156.433 87.2114C156.198 87.5561 155.87 87.8273 155.451 88.0251C155.034 88.2201 154.552 88.3177 154.004 88.3177ZM154.004 87.4359C154.375 87.4359 154.696 87.3757 154.966 87.2555C155.236 87.1353 155.444 86.9656 155.591 86.7465C155.738 86.5273 155.813 86.2708 155.816 85.9769C155.813 85.6669 155.733 85.393 155.575 85.1552C155.418 84.9174 155.202 84.7303 154.93 84.594C154.66 84.4578 154.351 84.3896 154.004 84.3896C153.654 84.3896 153.341 84.4578 153.066 84.594C152.793 84.7303 152.578 84.9174 152.421 85.1552C152.266 85.393 152.19 85.6669 152.192 85.9769C152.19 86.2708 152.26 86.5273 152.405 86.7465C152.552 86.9656 152.761 87.1353 153.034 87.2555C153.307 87.3757 153.63 87.4359 154.004 87.4359ZM154.004 83.5399C154.298 83.5399 154.558 83.4811 154.786 83.3635C155.015 83.2459 155.196 83.0816 155.327 82.8705C155.458 82.6594 155.524 82.4122 155.527 82.129C155.524 81.8511 155.459 81.6093 155.331 81.4035C155.202 81.1951 155.025 81.0347 154.798 80.9225C154.57 80.8076 154.306 80.7502 154.004 80.7502C153.697 80.7502 153.428 80.8076 153.198 80.9225C152.968 81.0347 152.791 81.1951 152.665 81.4035C152.54 81.6093 152.478 81.8511 152.481 82.129C152.478 82.4122 152.541 82.6594 152.669 82.8705C152.8 83.0816 152.981 83.2459 153.21 83.3635C153.44 83.4811 153.705 83.5399 154.004 83.5399ZM162.514 86.6663V86.2334C162.514 85.9341 162.576 85.6602 162.699 85.4117C162.824 85.1605 163.006 84.9601 163.244 84.8105C163.484 84.6582 163.776 84.582 164.118 84.582C164.465 84.582 164.756 84.6582 164.991 84.8105C165.227 84.9601 165.404 85.1605 165.525 85.4117C165.645 85.6602 165.705 85.9341 165.705 86.2334V86.6663C165.705 86.9656 165.643 87.2408 165.521 87.492C165.4 87.7405 165.221 87.9409 164.983 88.0932C164.748 88.2429 164.46 88.3177 164.118 88.3177C163.77 88.3177 163.478 88.2429 163.24 88.0932C163.002 87.9409 162.822 87.7405 162.699 87.492C162.576 87.2408 162.514 86.9656 162.514 86.6663ZM163.332 86.2334V86.6663C163.332 86.9148 163.391 87.1379 163.508 87.3357C163.626 87.5307 163.829 87.6283 164.118 87.6283C164.398 87.6283 164.596 87.5307 164.711 87.3357C164.828 87.1379 164.887 86.9148 164.887 86.6663V86.2334C164.887 85.9849 164.831 85.7631 164.719 85.568C164.607 85.3703 164.406 85.2714 164.118 85.2714C163.837 85.2714 163.635 85.3703 163.512 85.568C163.392 85.7631 163.332 85.9849 163.332 86.2334ZM158.426 81.9687V81.5358C158.426 81.2365 158.487 80.9626 158.61 80.7141C158.736 80.4629 158.918 80.2625 159.156 80.1129C159.396 79.9605 159.687 79.8844 160.029 79.8844C160.377 79.8844 160.668 79.9605 160.903 80.1129C161.138 80.2625 161.316 80.4629 161.436 80.7141C161.556 80.9626 161.617 81.2365 161.617 81.5358V81.9687C161.617 82.2679 161.555 82.5432 161.432 82.7944C161.312 83.0429 161.133 83.2433 160.895 83.3956C160.66 83.5452 160.371 83.62 160.029 83.62C159.682 83.62 159.389 83.5452 159.151 83.3956C158.914 83.2433 158.733 83.0429 158.61 82.7944C158.487 82.5432 158.426 82.2679 158.426 81.9687ZM159.244 81.5358V81.9687C159.244 82.2172 159.302 82.4403 159.42 82.638C159.538 82.8331 159.741 82.9306 160.029 82.9306C160.31 82.9306 160.508 82.8331 160.623 82.638C160.74 82.4403 160.799 82.2172 160.799 81.9687V81.5358C160.799 81.2873 160.743 81.0655 160.631 80.8704C160.518 80.6727 160.318 80.5738 160.029 80.5738C159.749 80.5738 159.547 80.6727 159.424 80.8704C159.304 81.0655 159.244 81.2873 159.244 81.5358ZM158.731 88.2054L164.374 79.9966H165.288L159.645 88.2054H158.731Z" fill="white"/>
<path fill-rule="evenodd" clip-rule="evenodd" d="M178.442 81.4553L183.658 79.943L182.36 85.2161L180.74 83.6614L178.128 86.3826C178.039 86.4749 177.917 86.5272 177.789 86.5272C177.66 86.5272 177.538 86.4749 177.449 86.3826L175.531 84.3845L172.71 87.3231C172.53 87.5105 172.232 87.5166 172.045 87.3367C171.858 87.1568 171.852 86.8591 172.031 86.6718L175.192 83.3797C175.281 83.2873 175.403 83.2351 175.531 83.2351C175.659 83.2351 175.782 83.2873 175.87 83.3797L177.789 85.3778L180.062 83.01L178.442 81.4553Z" fill="white"/>
<defs>
<clipPath id="clip0_390_10180">
<path d="M40.6875 70.4678C40.6875 68.3899 42.372 66.7054 44.4499 66.7054H51.9746C54.0525 66.7054 55.737 68.3899 55.737 70.4678V96.8045C55.737 98.8824 54.0525 100.567 51.9746 100.567H44.4499C42.372 100.567 40.6875 98.8824 40.6875 96.8045V70.4678Z" fill="white"/>
</clipPath>
<clipPath id="clip1_390_10180">
<path d="M55.7368 70.2054C55.7368 68.2724 57.3038 66.7054 59.2368 66.7054C61.1698 66.7054 62.7368 68.2724 62.7368 70.2054V97.2054C62.7368 99.1384 61.1698 100.705 59.2368 100.705C57.3038 100.705 55.7368 99.1384 55.7368 97.2054V70.2054Z" fill="white"/>
</clipPath>
<clipPath id="clip2_390_10180">
<path d="M62.7368 70.4678C62.7368 68.3899 64.4213 66.7054 66.4992 66.7054H74.0239C76.1018 66.7054 77.7863 68.3899 77.7863 70.4678V96.8045C77.7863 98.8824 76.1018 100.567 74.0239 100.567H66.4992C64.4213 100.567 62.7368 98.8824 62.7368 96.8045V70.4678Z" fill="white"/>
</clipPath>
<clipPath id="clip3_390_10180">
<path d="M77.7866 70.4678C77.7866 68.3899 79.4711 66.7054 81.549 66.7054H89.0737C91.1517 66.7054 92.8361 68.3899 92.8361 70.4678V96.8045C92.8361 98.8824 91.1517 100.567 89.0738 100.567H81.549C79.4711 100.567 77.7866 98.8824 77.7866 96.8045V70.4678Z" fill="white"/>
</clipPath>
<clipPath id="clip4_390_10180">
<path d="M92.8359 70.4678C92.8359 68.3899 94.5204 66.7054 96.5983 66.7054H104.123C106.201 66.7054 107.885 68.3899 107.885 70.4678V96.8045C107.885 98.8824 106.201 100.567 104.123 100.567H96.5983C94.5204 100.567 92.8359 98.8824 92.8359 96.8045V70.4678Z" fill="white"/>
</clipPath>
</defs>
</svg>
