<svg width="225" height="131" viewBox="0 0 225 131" fill="none" xmlns="http://www.w3.org/2000/svg">
<rect width="224.852" height="130.673" rx="10" fill="#13213C"/>
<path d="M47.5034 32.7912V41H46.5414L42.0682 34.5548H41.9881V41H40.994V32.7912H41.956L46.4452 39.2524H46.5254V32.7912H47.5034ZM51.9455 41.1283C51.3523 41.1283 50.8405 40.9973 50.4103 40.7355C49.9828 40.4709 49.6528 40.1022 49.4203 39.6292C49.1905 39.1535 49.0756 38.6004 49.0756 37.9698C49.0756 37.3392 49.1905 36.7834 49.4203 36.3024C49.6528 35.8187 49.9761 35.4419 50.3903 35.1721C50.8071 34.8995 51.2935 34.7632 51.8493 34.7632C52.1699 34.7632 52.4866 34.8167 52.7992 34.9235C53.1119 35.0304 53.3965 35.2041 53.653 35.4446C53.9095 35.6824 54.1139 35.9977 54.2662 36.3906C54.4185 36.7834 54.4947 37.267 54.4947 37.8415V38.2423H49.749V37.4247H53.5327C53.5327 37.0773 53.4633 36.7673 53.3243 36.4948C53.188 36.2222 52.993 36.0071 52.7391 35.8494C52.4879 35.6918 52.1913 35.613 51.8493 35.613C51.4725 35.613 51.1465 35.7065 50.8713 35.8935C50.5987 36.0779 50.389 36.3184 50.242 36.615C50.095 36.9116 50.0215 37.2296 50.0215 37.569V38.1141C50.0215 38.579 50.1017 38.9732 50.262 39.2965C50.425 39.6172 50.6508 39.8617 50.9394 40.03C51.228 40.1957 51.5634 40.2785 51.9455 40.2785C52.194 40.2785 52.4184 40.2438 52.6189 40.1743C52.8219 40.1022 52.997 39.9953 53.1439 39.8537C53.2909 39.7094 53.4045 39.5303 53.4846 39.3166L54.3985 39.5731C54.3023 39.883 54.1406 40.1556 53.9135 40.3908C53.6864 40.6232 53.4058 40.8049 53.0718 40.9359C52.7378 41.0641 52.3623 41.1283 51.9455 41.1283ZM57.3285 41L55.4527 34.8434H56.4467L57.7774 39.557H57.8416L59.1563 34.8434H60.1663L61.465 39.541H61.5291L62.8598 34.8434H63.8539L61.978 41H61.0481L59.7014 36.2703H59.6052L58.2584 41H57.3285ZM73.7943 32.7912H74.7883V38.2263C74.7883 38.7875 74.656 39.2885 74.3915 39.7294C74.1296 40.1676 73.7595 40.5137 73.2812 40.7675C72.8029 41.0187 72.2417 41.1443 71.5978 41.1443C70.9538 41.1443 70.3926 41.0187 69.9143 40.7675C69.436 40.5137 69.0646 40.1676 68.8 39.7294C68.5381 39.2885 68.4072 38.7875 68.4072 38.2263V32.7912H69.4013V38.1462C69.4013 38.547 69.4894 38.9037 69.6658 39.2163C69.8422 39.5263 70.0933 39.7708 70.4193 39.9498C70.748 40.1262 71.1408 40.2144 71.5978 40.2144C72.0547 40.2144 72.4475 40.1262 72.7762 39.9498C73.1048 39.7708 73.356 39.5263 73.5297 39.2163C73.7061 38.9037 73.7943 38.547 73.7943 38.1462V32.7912ZM81.006 36.2222L80.1563 36.4627C80.1029 36.3211 80.024 36.1835 79.9198 36.0499C79.8183 35.9136 79.6793 35.8013 79.503 35.7132C79.3266 35.625 79.1008 35.5809 78.8256 35.5809C78.4488 35.5809 78.1348 35.6677 77.8836 35.8414C77.6351 36.0124 77.5109 36.2302 77.5109 36.4948C77.5109 36.7299 77.5964 36.9156 77.7674 37.0519C77.9384 37.1882 78.2056 37.3018 78.569 37.3926L79.4829 37.6171C80.0334 37.7507 80.4435 37.9551 80.7134 38.2303C80.9833 38.5029 81.1183 38.8543 81.1183 39.2845C81.1183 39.6372 81.0167 39.9525 80.8136 40.2304C80.6132 40.5083 80.3327 40.7274 79.9719 40.8878C79.6112 41.0481 79.1916 41.1283 78.7133 41.1283C78.0854 41.1283 77.5657 40.992 77.1541 40.7194C76.7426 40.4469 76.4821 40.0487 76.3725 39.525L77.2704 39.3005C77.3559 39.6319 77.5176 39.8804 77.7554 40.046C77.9959 40.2117 78.3098 40.2946 78.6973 40.2946C79.1382 40.2946 79.4883 40.201 79.7475 40.014C80.0093 39.8243 80.1403 39.5971 80.1403 39.3326C80.1403 39.1188 80.0654 38.9398 79.9158 38.7955C79.7662 38.6485 79.5364 38.539 79.2264 38.4668L78.2003 38.2263C77.6365 38.0927 77.2223 37.8856 76.9577 37.605C76.6959 37.3218 76.5649 36.9677 76.5649 36.5429C76.5649 36.1955 76.6625 35.8882 76.8575 35.621C77.0553 35.3538 77.3238 35.144 77.6632 34.9917C78.0052 34.8394 78.3927 34.7632 78.8256 34.7632C79.4348 34.7632 79.9131 34.8968 80.2605 35.164C80.6106 35.4313 80.8591 35.784 81.006 36.2222ZM85.1235 41.1283C84.5303 41.1283 84.0185 40.9973 83.5883 40.7355C83.1608 40.4709 82.8308 40.1022 82.5983 39.6292C82.3685 39.1535 82.2536 38.6004 82.2536 37.9698C82.2536 37.3392 82.3685 36.7834 82.5983 36.3024C82.8308 35.8187 83.1541 35.4419 83.5683 35.1721C83.9851 34.8995 84.4715 34.7632 85.0273 34.7632C85.3479 34.7632 85.6646 34.8167 85.9772 34.9235C86.2899 35.0304 86.5744 35.2041 86.831 35.4446C87.0875 35.6824 87.2919 35.9977 87.4442 36.3906C87.5965 36.7834 87.6727 37.267 87.6727 37.8415V38.2423H82.927V37.4247H86.7107C86.7107 37.0773 86.6412 36.7673 86.5023 36.4948C86.366 36.2222 86.171 36.0071 85.9171 35.8494C85.6659 35.6918 85.3693 35.613 85.0273 35.613C84.6505 35.613 84.3245 35.7065 84.0493 35.8935C83.7767 36.0779 83.5669 36.3184 83.42 36.615C83.273 36.9116 83.1995 37.2296 83.1995 37.569V38.1141C83.1995 38.579 83.2797 38.9732 83.44 39.2965C83.603 39.6172 83.8288 39.8617 84.1174 40.03C84.406 40.1957 84.7414 40.2785 85.1235 40.2785C85.372 40.2785 85.5964 40.2438 85.7969 40.1743C85.9999 40.1022 86.175 39.9953 86.3219 39.8537C86.4689 39.7094 86.5825 39.5303 86.6626 39.3166L87.5765 39.5731C87.4803 39.883 87.3186 40.1556 87.0915 40.3908C86.8644 40.6232 86.5838 40.8049 86.2498 40.9359C85.9158 41.0641 85.5403 41.1283 85.1235 41.1283ZM89.1116 41V34.8434H90.0255V35.7733H90.0896C90.2019 35.4687 90.405 35.2215 90.6989 35.0318C90.9928 34.842 91.3242 34.7472 91.6929 34.7472C91.7624 34.7472 91.8493 34.7485 91.9535 34.7512C92.0577 34.7539 92.1365 34.7579 92.19 34.7632V35.7252C92.1579 35.7172 92.0844 35.7051 91.9695 35.6891C91.8573 35.6704 91.7384 35.6611 91.6128 35.6611C91.3135 35.6611 91.0463 35.7239 90.8111 35.8494C90.5786 35.9724 90.3943 36.1434 90.258 36.3625C90.1244 36.5789 90.0576 36.8261 90.0576 37.104V41H89.1116ZM97.6722 36.2222L96.8224 36.4627C96.769 36.3211 96.6902 36.1835 96.586 36.0499C96.4844 35.9136 96.3455 35.8013 96.1691 35.7132C95.9927 35.625 95.7669 35.5809 95.4917 35.5809C95.1149 35.5809 94.801 35.6677 94.5498 35.8414C94.3013 36.0124 94.177 36.2302 94.177 36.4948C94.177 36.7299 94.2625 36.9156 94.4336 37.0519C94.6046 37.1882 94.8718 37.3018 95.2352 37.3926L96.1491 37.6171C96.6995 37.7507 97.1097 37.9551 97.3796 38.2303C97.6495 38.5029 97.7844 38.8543 97.7844 39.2845C97.7844 39.6372 97.6829 39.9525 97.4798 40.2304C97.2794 40.5083 96.9988 40.7274 96.6381 40.8878C96.2773 41.0481 95.8578 41.1283 95.3795 41.1283C94.7515 41.1283 94.2318 40.992 93.8203 40.7194C93.4088 40.4469 93.1483 40.0487 93.0387 39.525L93.9365 39.3005C94.022 39.6319 94.1837 39.8804 94.4215 40.046C94.662 40.2117 94.976 40.2946 95.3635 40.2946C95.8044 40.2946 96.1544 40.201 96.4136 40.014C96.6755 39.8243 96.8064 39.5971 96.8064 39.3326C96.8064 39.1188 96.7316 38.9398 96.582 38.7955C96.4323 38.6485 96.2025 38.539 95.8925 38.4668L94.8664 38.2263C94.3026 38.0927 93.8884 37.8856 93.6239 37.605C93.362 37.3218 93.2311 36.9677 93.2311 36.5429C93.2311 36.1955 93.3286 35.8882 93.5237 35.621C93.7214 35.3538 93.99 35.144 94.3293 34.9917C94.6714 34.8394 95.0588 34.7632 95.4917 34.7632C96.101 34.7632 96.5793 34.8968 96.9267 35.164C97.2767 35.4313 97.5252 35.784 97.6722 36.2222Z" fill="white"/>
<g clip-path="url(#clip0_390_10175)">
<path d="M47.5274 60.2631C46.2074 60.2631 45.0744 59.9291 44.1285 59.261C43.1879 58.5876 42.4637 57.6177 41.956 56.3511C41.4536 55.0791 41.2025 53.548 41.2025 51.7576C41.2078 49.9673 41.4617 48.4442 41.964 47.1883C42.4717 45.927 43.1959 44.9651 44.1365 44.3024C45.0824 43.6397 46.2127 43.3083 47.5274 43.3083C48.8421 43.3083 49.9724 43.6397 50.9184 44.3024C51.8643 44.9651 52.5885 45.927 53.0908 47.1883C53.5985 48.4495 53.8524 49.9727 53.8524 51.7576C53.8524 53.5533 53.5985 55.0871 53.0908 56.3591C52.5885 57.6257 51.8643 58.593 50.9184 59.261C49.9778 59.9291 48.8475 60.2631 47.5274 60.2631ZM47.5274 57.7539C48.5535 57.7539 49.3632 57.2489 49.9564 56.2388C50.555 55.2234 50.8542 53.7297 50.8542 51.7576C50.8542 50.4536 50.718 49.3581 50.4454 48.4709C50.1728 47.5838 49.7881 46.9157 49.291 46.4668C48.794 46.0125 48.2062 45.7854 47.5274 45.7854C46.5067 45.7854 45.6997 46.2931 45.1065 47.3085C44.5132 48.3186 44.214 49.8016 44.2086 51.7576C44.2033 53.067 44.3342 54.1679 44.6014 55.0604C44.874 55.9529 45.2588 56.6263 45.7558 57.0806C46.2528 57.5295 46.8434 57.7539 47.5274 57.7539ZM47.7439 77.5328V93.9504H44.7618V81.3326H44.6255C44.5186 81.4983 44.3155 81.6773 44.0162 81.8697C43.717 82.0567 43.3322 82.2171 42.8619 82.3507C42.3969 82.4843 41.8545 82.5511 41.2345 82.5511V80.1462C41.801 80.1462 42.3061 80.0473 42.7496 79.8495C43.1932 79.6518 43.57 79.406 43.88 79.112C44.1953 78.8181 44.4384 78.5268 44.6094 78.2382C44.7805 77.9496 44.874 77.7145 44.89 77.5328H47.7439ZM41.459 127.95V125.802L47.1587 120.215C47.7038 119.664 48.1581 119.175 48.5215 118.748C48.8849 118.32 49.1574 117.906 49.3391 117.505C49.5208 117.104 49.6117 116.677 49.6117 116.222C49.6117 115.704 49.4941 115.26 49.259 114.892C49.0238 114.518 48.7005 114.229 48.289 114.026C47.8775 113.823 47.4099 113.721 46.8861 113.721C46.3463 113.721 45.8734 113.834 45.4672 114.058C45.061 114.277 44.7457 114.59 44.5213 114.996C44.3021 115.402 44.1926 115.886 44.1926 116.447H41.3628C41.3628 115.405 41.6006 114.499 42.0763 113.729C42.5519 112.96 43.2066 112.364 44.0403 111.942C44.8793 111.519 45.8413 111.308 46.9262 111.308C48.0271 111.308 48.9944 111.514 49.8281 111.926C50.6618 112.337 51.3085 112.901 51.7681 113.617C52.2331 114.333 52.4655 115.151 52.4655 116.07C52.4655 116.685 52.348 117.289 52.1128 117.882C51.8777 118.475 51.4635 119.132 50.8703 119.854C50.2824 120.575 49.4567 121.449 48.3932 122.475L45.5634 125.353V125.465H52.7141V127.95H41.459ZM41.2025 157.485H44.2086C44.246 157.945 44.401 158.34 44.6736 158.672C44.9461 158.998 45.3042 159.249 45.7478 159.425C46.1914 159.596 46.6857 159.682 47.2308 159.682C47.808 159.682 48.3237 159.583 48.778 159.385C49.2323 159.182 49.5876 158.894 49.8442 158.519C50.106 158.14 50.237 157.68 50.237 157.141C50.237 156.644 50.1114 156.192 49.8602 155.786C49.6144 155.374 49.2376 155.048 48.7299 154.808C48.2222 154.562 47.5729 154.439 46.7819 154.439H45.1546V152.299L48.9543 148.13V148.018H42.0121V145.533H52.706V147.681L48.297 152.427V152.555C49.1093 152.619 49.8255 152.79 50.4454 153.068C51.0707 153.346 51.5944 153.702 52.0166 154.134C52.4388 154.567 52.7568 155.054 52.9706 155.593C53.1844 156.133 53.2912 156.7 53.2912 157.293C53.2912 158.255 53.0267 159.102 52.4976 159.834C51.9739 160.566 51.2524 161.141 50.3332 161.558C49.4193 161.969 48.3772 162.175 47.2068 162.175C46.0845 162.175 45.0771 161.983 44.1846 161.598C43.2974 161.213 42.5893 160.67 42.0602 159.97C41.5311 159.265 41.2452 158.437 41.2025 157.485ZM41.1624 192.904V190.539L47.4392 179.533H50.3171L44.1846 190.331V190.459H53.9326V192.904H41.1624ZM48.9944 195.95V192.207L49.0586 191.125V185.689H51.7922V195.95H48.9944ZM47.1667 229.175C46.0978 229.175 45.1412 228.974 44.2968 228.574C43.4524 228.168 42.7817 227.612 42.2847 226.906C41.793 226.201 41.5311 225.394 41.4991 224.485H44.385C44.4384 225.159 44.7297 225.709 45.2588 226.137C45.7879 226.559 46.4238 226.77 47.1667 226.77C47.7492 226.77 48.2676 226.636 48.7219 226.369C49.1761 226.102 49.5342 225.731 49.7961 225.255C50.0579 224.779 50.1862 224.237 50.1809 223.628C50.1862 223.008 50.0553 222.457 49.7881 221.976C49.5208 221.495 49.1548 221.118 48.6898 220.846C48.2249 220.568 47.6904 220.429 47.0865 220.429C46.5948 220.424 46.1112 220.514 45.6355 220.702C45.1599 220.889 44.7831 221.134 44.5052 221.439L41.8197 220.998L42.6775 212.533H52.201V215.018H45.1385L44.6656 219.371H44.7618C45.0664 219.013 45.4966 218.716 46.0524 218.481C46.6082 218.24 47.2175 218.12 47.8801 218.12C48.8742 218.12 49.7613 218.355 50.5416 218.826C51.3219 219.291 51.9365 219.932 52.3854 220.75C52.8343 221.567 53.0588 222.503 53.0588 223.555C53.0588 224.64 52.8076 225.608 52.3052 226.457C51.8082 227.302 51.1161 227.967 50.229 228.453C49.3472 228.934 48.3264 229.175 47.1667 229.175ZM41.2987 257.668C41.3093 257.112 41.3868 256.553 41.5311 255.992C41.6808 255.426 41.9159 254.827 42.2366 254.197C42.5572 253.561 42.9768 252.86 43.4952 252.096L47.2629 246.533H50.3091L46.2127 252.529C46.4105 252.476 46.6162 252.433 46.83 252.401C47.0438 252.363 47.2629 252.345 47.4873 252.345C48.4867 252.345 49.3765 252.572 50.1568 253.026C50.9424 253.48 51.5597 254.108 52.0086 254.91C52.4575 255.712 52.682 256.633 52.682 257.676C52.682 258.761 52.4362 259.717 51.9445 260.546C51.4581 261.369 50.7874 262.013 49.9324 262.477C49.0826 262.942 48.1153 263.175 47.0304 263.175C45.9669 263.175 44.9996 262.95 44.1285 262.502C43.2627 262.053 42.5733 261.417 42.0602 260.594C41.5472 259.771 41.2933 258.795 41.2987 257.668ZM44.1926 257.732C44.1926 258.325 44.3102 258.851 44.5453 259.311C44.7858 259.771 45.1172 260.131 45.5394 260.393C45.9669 260.655 46.4586 260.786 47.0144 260.786C47.5648 260.786 48.0512 260.658 48.4734 260.401C48.8956 260.139 49.2269 259.781 49.4674 259.327C49.7079 258.867 49.8281 258.341 49.8281 257.748C49.8281 257.155 49.7079 256.631 49.4674 256.177C49.2269 255.717 48.8956 255.359 48.4734 255.102C48.0512 254.84 47.5648 254.71 47.0144 254.71C46.4586 254.71 45.9669 254.838 45.5394 255.094C45.1172 255.351 44.7858 255.706 44.5453 256.161C44.3102 256.615 44.1926 257.139 44.1926 257.732ZM42.0602 296.95L49.0425 283.13V283.018H40.9379V280.533H52.1208V283.074L45.1465 296.95H42.0602ZM47.2949 331.175C46.1032 331.175 45.045 330.974 44.1204 330.574C43.2012 330.173 42.4797 329.625 41.956 328.93C41.4376 328.23 41.1811 327.437 41.1864 326.549C41.1811 325.86 41.3307 325.227 41.6354 324.65C41.94 324.072 42.3515 323.591 42.8699 323.207C43.3936 322.816 43.9761 322.568 44.6175 322.461V322.349C43.7731 322.162 43.089 321.732 42.5653 321.058C42.0469 320.379 41.7903 319.597 41.7957 318.709C41.7903 317.865 42.0255 317.111 42.5011 316.449C42.9768 315.786 43.6288 315.265 44.4571 314.886C45.2855 314.501 46.2314 314.308 47.2949 314.308C48.3478 314.308 49.2857 314.501 50.1087 314.886C50.9371 315.265 51.5891 315.786 52.0647 316.449C52.5457 317.111 52.7862 317.865 52.7862 318.709C52.7862 319.597 52.5217 320.379 51.9926 321.058C51.4688 321.732 50.7928 322.162 49.9644 322.349V322.461C50.6057 322.568 51.1829 322.816 51.696 323.207C52.2144 323.591 52.6259 324.072 52.9305 324.65C53.2405 325.227 53.3955 325.86 53.3955 326.549C53.3955 327.437 53.1336 328.23 52.6098 328.93C52.0861 329.625 51.3646 330.173 50.4454 330.574C49.5315 330.974 48.4814 331.175 47.2949 331.175ZM47.2949 328.882C47.9095 328.882 48.444 328.778 48.8982 328.57C49.3525 328.356 49.7052 328.057 49.9564 327.672C50.2076 327.287 50.3358 326.843 50.3412 326.341C50.3358 325.817 50.1996 325.355 49.9324 324.954C49.6705 324.548 49.3097 324.23 48.8501 324C48.3959 323.77 47.8775 323.655 47.2949 323.655C46.7071 323.655 46.1833 323.77 45.7237 324C45.2641 324.23 44.9007 324.548 44.6335 324.954C44.3716 325.355 44.2434 325.817 44.2487 326.341C44.2434 326.843 44.3663 327.287 44.6175 327.672C44.8686 328.051 45.2214 328.348 45.6756 328.562C46.1352 328.775 46.675 328.882 47.2949 328.882ZM47.2949 321.403C47.7973 321.403 48.2409 321.301 48.6257 321.098C49.0158 320.895 49.3231 320.612 49.5476 320.249C49.772 319.885 49.8869 319.466 49.8923 318.99C49.8869 318.52 49.7747 318.108 49.5556 317.755C49.3365 317.397 49.0318 317.122 48.6417 316.93C48.2516 316.732 47.8027 316.633 47.2949 316.633C46.7766 316.633 46.3196 316.732 45.9241 316.93C45.534 317.122 45.2294 317.397 45.0103 317.755C44.7965 318.108 44.6923 318.52 44.6976 318.99C44.6923 319.466 44.7992 319.885 45.0183 320.249C45.2427 320.607 45.55 320.89 45.9402 321.098C46.3357 321.301 46.7872 321.403 47.2949 321.403ZM41.1463 353.808C41.1463 352.723 41.3895 351.769 41.8758 350.946C42.3622 350.117 43.0302 349.471 43.88 349.006C44.735 348.541 45.7077 348.308 46.7979 348.308C47.8561 348.308 48.8181 348.533 49.6838 348.982C50.555 349.425 51.247 350.059 51.7601 350.882C52.2785 351.705 52.5323 352.683 52.5217 353.816C52.5163 354.371 52.4388 354.933 52.2892 355.499C52.1395 356.06 51.9044 356.659 51.5837 357.295C51.2631 357.925 50.8462 358.623 50.3332 359.387L46.5655 364.95H43.5112L47.6156 358.938C47.4125 358.997 47.2041 359.045 46.9903 359.082C46.7819 359.12 46.5655 359.139 46.341 359.139C45.3363 359.139 44.4411 358.911 43.6555 358.457C42.8752 358.003 42.2606 357.375 41.8117 356.573C41.3681 355.772 41.1463 354.85 41.1463 353.808ZM44.0002 353.735C44.0002 354.329 44.1204 354.855 44.3609 355.315C44.6014 355.769 44.9328 356.127 45.355 356.389C45.7772 356.645 46.2635 356.774 46.814 356.774C47.3644 356.774 47.8508 356.645 48.273 356.389C48.7005 356.132 49.0345 355.777 49.275 355.323C49.5155 354.868 49.6357 354.345 49.6357 353.751C49.6357 353.153 49.5155 352.627 49.275 352.172C49.0345 351.713 48.7005 351.352 48.273 351.09C47.8508 350.828 47.3644 350.697 46.814 350.697C46.2635 350.697 45.7745 350.828 45.347 351.09C44.9248 351.347 44.5934 351.705 44.3529 352.164C44.1178 352.619 44.0002 353.142 44.0002 353.735ZM47.5274 399.263C46.2074 399.263 45.0744 398.929 44.1285 398.261C43.1879 397.588 42.4637 396.618 41.956 395.351C41.4536 394.079 41.2025 392.548 41.2025 390.758C41.2078 388.967 41.4617 387.444 41.964 386.188C42.4717 384.927 43.1959 383.965 44.1365 383.302C45.0824 382.64 46.2127 382.308 47.5274 382.308C48.8421 382.308 49.9724 382.64 50.9184 383.302C51.8643 383.965 52.5885 384.927 53.0908 386.188C53.5985 387.45 53.8524 388.973 53.8524 390.758C53.8524 392.553 53.5985 394.087 53.0908 395.359C52.5885 396.626 51.8643 397.593 50.9184 398.261C49.9778 398.929 48.8475 399.263 47.5274 399.263ZM47.5274 396.754C48.5535 396.754 49.3632 396.249 49.9564 395.239C50.555 394.223 50.8542 392.73 50.8542 390.758C50.8542 389.454 50.718 388.358 50.4454 387.471C50.1728 386.584 49.7881 385.916 49.291 385.467C48.794 385.013 48.2062 384.785 47.5274 384.785C46.5067 384.785 45.6997 385.293 45.1065 386.309C44.5132 387.319 44.214 388.802 44.2086 390.758C44.2033 392.067 44.3342 393.168 44.6014 394.06C44.874 394.953 45.2588 395.626 45.7558 396.081C46.2528 396.529 46.8434 396.754 47.5274 396.754Z" fill="white"/>
</g>
<g clip-path="url(#clip1_390_10175)">
<path d="M62.5767 -75.1824C61.2567 -75.1824 60.1237 -75.5164 59.1778 -76.1845C58.2372 -76.8578 57.513 -77.8278 57.0053 -79.0944C56.503 -80.3664 56.2518 -81.8975 56.2518 -83.6878C56.2571 -85.4782 56.511 -87.0013 57.0133 -88.2572C57.521 -89.5185 58.2452 -90.4804 59.1858 -91.1431C60.1317 -91.8058 61.262 -92.1372 62.5767 -92.1372C63.8914 -92.1372 65.0218 -91.8058 65.9677 -91.1431C66.9136 -90.4804 67.6378 -89.5185 68.1401 -88.2572C68.6479 -86.996 68.9017 -85.4728 68.9017 -83.6878C68.9017 -81.8922 68.6479 -80.3584 68.1401 -79.0864C67.6378 -77.8198 66.9136 -76.8525 65.9677 -76.1845C65.0271 -75.5164 63.8968 -75.1824 62.5767 -75.1824ZM62.5767 -77.6916C63.6028 -77.6916 64.4125 -78.1966 65.0057 -79.2067C65.6043 -80.2221 65.9036 -81.7158 65.9036 -83.6878C65.9036 -84.9919 65.7673 -86.0874 65.4947 -86.9746C65.2222 -87.8617 64.8374 -88.5298 64.3404 -88.9787C63.8433 -89.433 63.2555 -89.6601 62.5767 -89.6601C61.556 -89.6601 60.749 -89.1524 60.1558 -88.137C59.5626 -87.1269 59.2633 -85.6439 59.2579 -83.6878C59.2526 -82.3785 59.3835 -81.2776 59.6507 -80.3851C59.9233 -79.4926 60.3081 -78.8192 60.8051 -78.3649C61.3021 -77.916 61.8927 -77.6916 62.5767 -77.6916ZM62.7932 -57.9127V-41.4951H59.8111V-54.1129H59.6748C59.5679 -53.9472 59.3648 -53.7682 59.0655 -53.5758C58.7663 -53.3888 58.3815 -53.2284 57.9112 -53.0948C57.4462 -52.9612 56.9038 -52.8944 56.2838 -52.8944V-55.2993C56.8503 -55.2993 57.3554 -55.3982 57.799 -55.596C58.2425 -55.7937 58.6193 -56.0395 58.9293 -56.3335C59.2446 -56.6274 59.4877 -56.9187 59.6588 -57.2073C59.8298 -57.4958 59.9233 -57.731 59.9393 -57.9127H62.7932ZM56.5083 -7.49506V-9.64346L62.208 -15.2309C62.7531 -15.7814 63.2074 -16.2704 63.5708 -16.6979C63.9342 -17.1255 64.2067 -17.5396 64.3885 -17.9405C64.5702 -18.3413 64.661 -18.7688 64.661 -19.2231C64.661 -19.7415 64.5434 -20.1851 64.3083 -20.5538C64.0731 -20.9279 63.7498 -21.2165 63.3383 -21.4196C62.9268 -21.6227 62.4592 -21.7242 61.9354 -21.7242C61.3957 -21.7242 60.9227 -21.612 60.5165 -21.3875C60.1104 -21.1684 59.795 -20.8558 59.5706 -20.4496C59.3515 -20.0434 59.2419 -19.5598 59.2419 -18.9986H56.4121C56.4121 -20.0408 56.6499 -20.9466 57.1256 -21.7162C57.6012 -22.4858 58.2559 -23.0817 59.0896 -23.5039C59.9286 -23.9261 60.8906 -24.1372 61.9755 -24.1372C63.0764 -24.1372 64.0437 -23.9314 64.8775 -23.5199C65.7112 -23.1084 66.3578 -22.5446 66.8174 -21.8284C67.2824 -21.1123 67.5149 -20.2946 67.5149 -19.3754C67.5149 -18.7608 67.3973 -18.1569 67.1621 -17.5637C66.927 -16.9705 66.5128 -16.3131 65.9196 -15.5916C65.3317 -14.8702 64.506 -13.9964 63.4425 -12.9703L60.6127 -10.0924V-9.98015H67.7634V-7.49506H56.5083ZM56.2518 22.0398H59.2579C59.2954 22.4994 59.4503 22.8949 59.7229 23.2262C59.9955 23.5522 60.3535 23.8034 60.7971 23.9798C61.2407 24.1508 61.735 24.2363 62.2801 24.2363C62.8573 24.2363 63.373 24.1374 63.8273 23.9397C64.2816 23.7366 64.637 23.448 64.8935 23.0739C65.1554 22.6945 65.2863 22.2349 65.2863 21.6951C65.2863 21.1981 65.1607 20.7465 64.9095 20.3403C64.6637 19.9288 64.2869 19.6028 63.7792 19.3623C63.2715 19.1165 62.6222 18.9936 61.8312 18.9936H60.2039V16.8532L64.0037 12.6846V12.5724H57.0614V10.0873H67.7554V12.2357L63.3463 16.9814V17.1097C64.1587 17.1738 64.8748 17.3448 65.4947 17.6227C66.12 17.9006 66.6437 18.256 67.0659 18.6889C67.4881 19.1218 67.8061 19.6081 68.0199 20.1479C68.2337 20.6877 68.3406 21.2542 68.3406 21.8474C68.3406 22.8094 68.076 23.6564 67.5469 24.3886C67.0232 25.1208 66.3017 25.6953 65.3825 26.1121C64.4686 26.5236 63.4265 26.7294 62.2561 26.7294C61.1338 26.7294 60.1264 26.537 59.2339 26.1522C58.3467 25.7674 57.6386 25.225 57.1095 24.5249C56.5805 23.8194 56.2945 22.9911 56.2518 22.0398ZM56.2117 57.4587V55.0939L62.4886 44.0873H65.3665L59.2339 54.8854V55.0137H68.9819V57.4587H56.2117ZM64.0437 60.5049V56.7613L64.1079 55.6791V50.2439H66.8415V60.5049H64.0437ZM62.216 93.7294C61.1471 93.7294 60.1905 93.529 59.3461 93.1282C58.5017 92.722 57.831 92.1662 57.334 91.4608C56.8423 90.7553 56.5805 89.9483 56.5484 89.0398H59.4343C59.4877 89.7132 59.779 90.2636 60.3081 90.6912C60.8372 91.1134 61.4731 91.3245 62.216 91.3245C62.7985 91.3245 63.3169 91.1909 63.7712 90.9237C64.2255 90.6564 64.5835 90.285 64.8454 89.8094C65.1073 89.3337 65.2355 88.7913 65.2302 88.182C65.2355 87.5621 65.1046 87.0116 64.8374 86.5307C64.5702 86.0497 64.2041 85.6729 63.7391 85.4003C63.2742 85.1224 62.7397 84.9835 62.1358 84.9835C61.6442 84.9781 61.1605 85.069 60.6849 85.256C60.2092 85.4431 59.8325 85.6889 59.5545 85.9936L56.869 85.5526L57.7268 77.0873H67.2503V79.5724H60.1878L59.7149 83.9253H59.8111C60.1157 83.5672 60.5459 83.2706 61.1017 83.0355C61.6575 82.795 62.2668 82.6747 62.9295 82.6747C63.9235 82.6747 64.8107 82.9099 65.5909 83.3802C66.3712 83.8451 66.9858 84.4865 67.4347 85.3041C67.8836 86.1218 68.1081 87.0571 68.1081 88.1099C68.1081 89.1948 67.8569 90.1621 67.3545 91.0118C66.8575 91.8562 66.1654 92.5216 65.2783 93.0079C64.3965 93.4889 63.3757 93.7294 62.216 93.7294ZM56.348 122.222C56.3587 121.666 56.4362 121.108 56.5805 120.547C56.7301 119.98 56.9652 119.382 57.2859 118.751C57.6066 118.115 58.0261 117.415 58.5445 116.651L62.3122 111.087H65.3584L61.262 117.084C61.4598 117.03 61.6655 116.987 61.8793 116.955C62.0931 116.918 62.3122 116.899 62.5367 116.899C63.536 116.899 64.4259 117.126 65.2061 117.581C65.9917 118.035 66.609 118.663 67.0579 119.464C67.5068 120.266 67.7313 121.188 67.7313 122.23C67.7313 123.315 67.4855 124.272 66.9938 125.1C66.5075 125.923 65.8368 126.567 64.9817 127.032C64.1319 127.497 63.1646 127.729 62.0797 127.729C61.0162 127.729 60.0489 127.505 59.1778 127.056C58.312 126.607 57.6226 125.971 57.1095 125.148C56.5965 124.325 56.3426 123.35 56.348 122.222ZM59.2419 122.286C59.2419 122.879 59.3595 123.406 59.5946 123.865C59.8351 124.325 60.1665 124.686 60.5887 124.948C61.0162 125.21 61.5079 125.341 62.0637 125.341C62.6142 125.341 63.1005 125.212 63.5227 124.956C63.9449 124.694 64.2762 124.336 64.5167 123.882C64.7572 123.422 64.8775 122.895 64.8775 122.302C64.8775 121.709 64.7572 121.185 64.5167 120.731C64.2762 120.271 63.9449 119.913 63.5227 119.657C63.1005 119.395 62.6142 119.264 62.0637 119.264C61.5079 119.264 61.0162 119.392 60.5887 119.649C60.1665 119.905 59.8351 120.261 59.5946 120.715C59.3595 121.169 59.2419 121.693 59.2419 122.286ZM57.1095 161.505L64.0918 147.685V147.572H55.9872V145.087H67.1702V147.629L60.1959 161.505H57.1095ZM62.3443 195.729C61.1525 195.729 60.0943 195.529 59.1698 195.128C58.2505 194.727 57.5291 194.18 57.0053 193.485C56.4869 192.785 56.2304 191.991 56.2357 191.104C56.2304 190.415 56.38 189.781 56.6847 189.204C56.9893 188.627 57.4008 188.146 57.9192 187.761C58.4429 187.371 59.0255 187.122 59.6668 187.016V186.903C58.8224 186.716 58.1383 186.286 57.6146 185.613C57.0962 184.934 56.8397 184.151 56.845 183.264C56.8397 182.419 57.0748 181.666 57.5504 181.003C58.0261 180.341 58.6781 179.819 59.5065 179.44C60.3348 179.055 61.2808 178.863 62.3443 178.863C63.3971 178.863 64.335 179.055 65.158 179.44C65.9864 179.819 66.6384 180.341 67.114 181.003C67.595 181.666 67.8355 182.419 67.8355 183.264C67.8355 184.151 67.571 184.934 67.0419 185.613C66.5182 186.286 65.8421 186.716 65.0137 186.903V187.016C65.6551 187.122 66.2322 187.371 66.7453 187.761C67.2637 188.146 67.6752 188.627 67.9798 189.204C68.2898 189.781 68.4448 190.415 68.4448 191.104C68.4448 191.991 68.1829 192.785 67.6592 193.485C67.1354 194.18 66.4139 194.727 65.4947 195.128C64.5808 195.529 63.5307 195.729 62.3443 195.729ZM62.3443 193.437C62.9589 193.437 63.4933 193.332 63.9476 193.124C64.4018 192.91 64.7545 192.611 65.0057 192.226C65.2569 191.841 65.3852 191.398 65.3905 190.895C65.3852 190.372 65.2489 189.909 64.9817 189.509C64.7198 189.102 64.3591 188.785 63.8995 188.555C63.4452 188.325 62.9268 188.21 62.3443 188.21C61.7564 188.21 61.2327 188.325 60.773 188.555C60.3134 188.785 59.95 189.102 59.6828 189.509C59.4209 189.909 59.2927 190.372 59.298 190.895C59.2927 191.398 59.4156 191.841 59.6668 192.226C59.918 192.606 60.2707 192.902 60.7249 193.116C61.1846 193.33 61.7243 193.437 62.3443 193.437ZM62.3443 185.957C62.8466 185.957 63.2902 185.856 63.675 185.653C64.0651 185.45 64.3724 185.166 64.5969 184.803C64.8213 184.44 64.9362 184.02 64.9416 183.544C64.9362 183.074 64.824 182.663 64.6049 182.31C64.3858 181.952 64.0812 181.677 63.691 181.484C63.3009 181.286 62.852 181.188 62.3443 181.188C61.8259 181.188 61.3689 181.286 60.9735 181.484C60.5833 181.677 60.2787 181.952 60.0596 182.31C59.8458 182.663 59.7416 183.074 59.7469 183.544C59.7416 184.02 59.8485 184.44 60.0676 184.803C60.2921 185.161 60.5994 185.444 60.9895 185.653C61.385 185.856 61.8366 185.957 62.3443 185.957ZM56.1957 218.362C56.1957 217.277 56.4388 216.323 56.9252 215.5C57.4115 214.672 58.0795 214.025 58.9293 213.56C59.7844 213.095 60.757 212.863 61.8472 212.863C62.9054 212.863 63.8674 213.087 64.7332 213.536C65.6043 213.98 66.2964 214.613 66.8094 215.436C67.3278 216.259 67.5817 217.237 67.571 218.37C67.5656 218.926 67.4881 219.487 67.3385 220.054C67.1889 220.615 66.9537 221.213 66.6331 221.849C66.3124 222.48 65.8955 223.177 65.3825 223.942L61.6148 229.505H58.5605L62.6649 223.493C62.4618 223.551 62.2534 223.6 62.0396 223.637C61.8312 223.674 61.6148 223.693 61.3903 223.693C60.3856 223.693 59.4904 223.466 58.7048 223.012C57.9245 222.557 57.3099 221.929 56.861 221.128C56.4175 220.326 56.1957 219.404 56.1957 218.362ZM59.0495 218.29C59.0495 218.883 59.1698 219.41 59.4103 219.869C59.6507 220.323 59.9821 220.682 60.4043 220.943C60.8265 221.2 61.3128 221.328 61.8633 221.328C62.4137 221.328 62.9001 221.2 63.3223 220.943C63.7498 220.687 64.0838 220.331 64.3243 219.877C64.5648 219.423 64.6851 218.899 64.6851 218.306C64.6851 217.707 64.5648 217.181 64.3243 216.727C64.0838 216.267 63.7498 215.906 63.3223 215.645C62.9001 215.383 62.4137 215.252 61.8633 215.252C61.3128 215.252 60.8238 215.383 60.3963 215.645C59.9741 215.901 59.6427 216.259 59.4022 216.719C59.1671 217.173 59.0495 217.697 59.0495 218.29ZM62.5767 263.818C61.2567 263.818 60.1237 263.484 59.1778 262.816C58.2372 262.142 57.513 261.172 57.0053 259.906C56.503 258.634 56.2518 257.102 56.2518 255.312C56.2571 253.522 56.511 251.999 57.0133 250.743C57.521 249.482 58.2452 248.52 59.1858 247.857C60.1317 247.194 61.262 246.863 62.5767 246.863C63.8914 246.863 65.0218 247.194 65.9677 247.857C66.9136 248.52 67.6378 249.482 68.1401 250.743C68.6479 252.004 68.9017 253.527 68.9017 255.312C68.9017 257.108 68.6479 258.642 68.1401 259.914C67.6378 261.18 66.9136 262.147 65.9677 262.816C65.0271 263.484 63.8968 263.818 62.5767 263.818ZM62.5767 261.308C63.6028 261.308 64.4125 260.803 65.0057 259.793C65.6043 258.778 65.9036 257.284 65.9036 255.312C65.9036 254.008 65.7673 252.913 65.4947 252.025C65.2222 251.138 64.8374 250.47 64.3404 250.021C63.8433 249.567 63.2555 249.34 62.5767 249.34C61.556 249.34 60.749 249.848 60.1558 250.863C59.5626 251.873 59.2633 253.356 59.2579 255.312C59.2526 256.622 59.3835 257.722 59.6507 258.615C59.9233 259.507 60.3081 260.181 60.8051 260.635C61.3021 261.084 61.8927 261.308 62.5767 261.308Z" fill="white"/>
</g>
<g clip-path="url(#clip2_390_10175)">
<path d="M77.6265 -109.044C76.3065 -109.044 75.1735 -109.378 74.2276 -110.046C73.287 -110.719 72.5628 -111.689 72.0551 -112.956C71.5528 -114.228 71.3016 -115.759 71.3016 -117.549C71.3069 -119.34 71.5608 -120.863 72.0631 -122.119C72.5709 -123.38 73.295 -124.342 74.2356 -125.005C75.1815 -125.667 76.3119 -125.999 77.6265 -125.999C78.9412 -125.999 80.0716 -125.667 81.0175 -125.005C81.9634 -124.342 82.6876 -123.38 83.1899 -122.119C83.6977 -120.857 83.9515 -119.334 83.9515 -117.549C83.9515 -115.754 83.6977 -114.22 83.1899 -112.948C82.6876 -111.681 81.9634 -110.714 81.0175 -110.046C80.0769 -109.378 78.9466 -109.044 77.6265 -109.044ZM77.6265 -111.553C78.6526 -111.553 79.4623 -112.058 80.0555 -113.068C80.6541 -114.083 80.9534 -115.577 80.9534 -117.549C80.9534 -118.853 80.8171 -119.949 80.5445 -120.836C80.272 -121.723 79.8872 -122.391 79.3902 -122.84C78.8931 -123.294 78.3053 -123.521 77.6265 -123.521C76.6058 -123.521 75.7988 -123.014 75.2056 -121.998C74.6124 -120.988 74.3131 -119.505 74.3077 -117.549C74.3024 -116.24 74.4333 -115.139 74.7006 -114.246C74.9731 -113.354 75.3579 -112.681 75.8549 -112.226C76.3519 -111.777 76.9425 -111.553 77.6265 -111.553ZM77.843 -91.7741V-75.3564H74.8609V-87.9743H74.7246C74.6177 -87.8086 74.4146 -87.6296 74.1154 -87.4372C73.8161 -87.2502 73.4313 -87.0898 72.961 -86.9562C72.496 -86.8226 71.9536 -86.7558 71.3337 -86.7558V-89.1607C71.9001 -89.1607 72.4052 -89.2596 72.8488 -89.4573C73.2923 -89.6551 73.6691 -89.9009 73.9791 -90.1949C74.2944 -90.4888 74.5375 -90.7801 74.7086 -91.0686C74.8796 -91.3572 74.9731 -91.5924 74.9891 -91.7741H77.843ZM71.5581 -41.3564V-43.5048L77.2578 -49.0923C77.8029 -49.6428 78.2572 -50.1318 78.6206 -50.5593C78.984 -50.9868 79.2566 -51.401 79.4383 -51.8019C79.62 -52.2027 79.7108 -52.6302 79.7108 -53.0845C79.7108 -53.6029 79.5932 -54.0465 79.3581 -54.4152C79.1229 -54.7893 78.7996 -55.0779 78.3881 -55.281C77.9766 -55.4841 77.509 -55.5856 76.9852 -55.5856C76.4455 -55.5856 75.9725 -55.4734 75.5663 -55.2489C75.1602 -55.0298 74.8448 -54.7172 74.6204 -54.311C74.4013 -53.9048 74.2917 -53.4212 74.2917 -52.86H71.4619C71.4619 -53.9022 71.6997 -54.808 72.1754 -55.5776C72.651 -56.3472 73.3057 -56.9431 74.1394 -57.3653C74.9785 -57.7875 75.9404 -57.9986 77.0253 -57.9986C78.1262 -57.9986 79.0936 -57.7928 79.9273 -57.3813C80.761 -56.9698 81.4076 -56.406 81.8672 -55.6898C82.3322 -54.9737 82.5647 -54.156 82.5647 -53.2368C82.5647 -52.6222 82.4471 -52.0183 82.2119 -51.4251C81.9768 -50.8319 81.5626 -50.1745 80.9694 -49.453C80.3815 -48.7316 79.5558 -47.8578 78.4923 -46.8317L75.6625 -43.9538V-43.8415H82.8132V-41.3564H71.5581ZM71.3016 -11.8216H74.3077C74.3452 -11.362 74.5001 -10.9665 74.7727 -10.6352C75.0453 -10.3092 75.4033 -10.058 75.8469 -9.88162C76.2905 -9.7106 76.7848 -9.62509 77.3299 -9.62509C77.9071 -9.62509 78.4228 -9.72396 78.8771 -9.9217C79.3314 -10.1248 79.6868 -10.4134 79.9433 -10.7875C80.2052 -11.1669 80.3361 -11.6265 80.3361 -12.1663C80.3361 -12.6633 80.2105 -13.1149 79.9593 -13.5211C79.7135 -13.9326 79.3367 -14.2586 78.829 -14.4991C78.3213 -14.7449 77.672 -14.8678 76.881 -14.8678H75.2537V-17.0082L79.0535 -21.1768V-21.289H72.1112V-23.7741H82.8052V-21.6257L78.3961 -16.88V-16.7517C79.2085 -16.6876 79.9246 -16.5166 80.5445 -16.2386C81.1698 -15.9607 81.6935 -15.6053 82.1157 -15.1725C82.5379 -14.7396 82.8559 -14.2532 83.0697 -13.7135C83.2835 -13.1737 83.3904 -12.6072 83.3904 -12.014C83.3904 -11.052 83.1258 -10.2049 82.5967 -9.47278C82.073 -8.74062 81.3515 -8.1661 80.4323 -7.74925C79.5184 -7.33774 78.4763 -7.13199 77.3059 -7.13199C76.1836 -7.13199 75.1762 -7.32438 74.2837 -7.70917C73.3965 -8.09396 72.6884 -8.6364 72.1593 -9.3365C71.6303 -10.0419 71.3443 -10.8703 71.3016 -11.8216ZM71.2615 23.5973V21.2325L77.5384 10.2259H80.4163L74.2837 21.024V21.1523H84.0317V23.5973H71.2615ZM79.0936 26.6436V22.8999L79.1577 21.8177V16.3825H81.8913V26.6436H79.0936ZM77.2658 59.868C76.197 59.868 75.2403 59.6676 74.3959 59.2668C73.5515 58.8606 72.8808 58.3048 72.3838 57.5994C71.8921 56.8939 71.6303 56.0869 71.5982 55.1784H74.4841C74.5376 55.8518 74.8288 56.4022 75.3579 56.8298C75.887 57.252 76.523 57.4631 77.2658 57.4631C77.8483 57.4631 78.3667 57.3295 78.821 57.0623C79.2753 56.7951 79.6333 56.4236 79.8952 55.948C80.1571 55.4723 80.2853 54.9299 80.28 54.3206C80.2853 53.7007 80.1544 53.1502 79.8872 52.6693C79.62 52.1883 79.2539 51.8115 78.7889 51.5389C78.324 51.261 77.7895 51.1221 77.1856 51.1221C76.694 51.1167 76.2103 51.2076 75.7347 51.3947C75.259 51.5817 74.8823 51.8275 74.6044 52.1322L71.9189 51.6913L72.7766 43.2259H82.3001V45.711H75.2377L74.7647 50.0639H74.8609C75.1655 49.7059 75.5957 49.4092 76.1515 49.1741C76.7073 48.9336 77.3166 48.8134 77.9793 48.8134C78.9733 48.8134 79.8605 49.0485 80.6407 49.5188C81.421 49.9838 82.0356 50.6251 82.4845 51.4427C82.9334 52.2604 83.1579 53.1957 83.1579 54.2485C83.1579 55.3334 82.9067 56.3007 82.4043 57.1504C81.9073 57.9948 81.2152 58.6602 80.3281 59.1465C79.4463 59.6275 78.4255 59.868 77.2658 59.868ZM71.3978 88.3607C71.4085 87.8049 71.486 87.2464 71.6303 86.6853C71.7799 86.1188 72.015 85.5202 72.3357 84.8896C72.6564 84.2536 73.0759 83.5535 73.5943 82.7893L77.362 77.2259H80.4082L76.3119 83.2222C76.5096 83.1688 76.7153 83.126 76.9291 83.0939C77.1429 83.0565 77.362 83.0378 77.5865 83.0378C78.5858 83.0378 79.4757 83.265 80.2559 83.7192C81.0415 84.1735 81.6588 84.8014 82.1077 85.6031C82.5567 86.4047 82.7811 87.3266 82.7811 88.3687C82.7811 89.4536 82.5353 90.4103 82.0436 91.2386C81.5573 92.0616 80.8866 92.7056 80.0315 93.1706C79.1817 93.6355 78.2144 93.868 77.1295 93.868C76.066 93.868 75.0987 93.6436 74.2276 93.1946C73.3618 92.7457 72.6724 92.1097 72.1593 91.2867C71.6463 90.4637 71.3924 89.4884 71.3978 88.3607ZM74.2917 88.4249C74.2917 89.0181 74.4093 89.5445 74.6444 90.0041C74.8849 90.4637 75.2163 90.8244 75.6385 91.0863C76.066 91.3482 76.5577 91.4791 77.1135 91.4791C77.664 91.4791 78.1503 91.3509 78.5725 91.0943C78.9947 90.8325 79.326 90.4744 79.5665 90.0201C79.807 89.5605 79.9273 89.0341 79.9273 88.4409C79.9273 87.8477 79.807 87.3239 79.5665 86.8697C79.326 86.4101 78.9947 86.052 78.5725 85.7955C78.1503 85.5336 77.664 85.4027 77.1135 85.4027C76.5577 85.4027 76.066 85.5309 75.6385 85.7875C75.2163 86.044 74.8849 86.3994 74.6444 86.8536C74.4093 87.3079 74.2917 87.8316 74.2917 88.4249ZM72.1593 127.644L79.1417 113.823V113.711H71.037V111.226H82.22V113.767L75.2457 127.644H72.1593ZM77.3941 161.868C76.2023 161.868 75.1441 161.668 74.2196 161.267C73.3003 160.866 72.5789 160.318 72.0551 159.623C71.5367 158.923 71.2802 158.13 71.2856 157.243C71.2802 156.553 71.4298 155.92 71.7345 155.343C72.0391 154.765 72.4506 154.284 72.969 153.9C73.4927 153.51 74.0753 153.261 74.7166 153.154V153.042C73.8722 152.855 73.1881 152.425 72.6644 151.751C72.146 151.073 71.8895 150.29 71.8948 149.402C71.8895 148.558 72.1246 147.805 72.6002 147.142C73.0759 146.479 73.7279 145.958 74.5563 145.579C75.3846 145.194 76.3306 145.001 77.3941 145.001C78.4469 145.001 79.3848 145.194 80.2078 145.579C81.0362 145.958 81.6882 146.479 82.1638 147.142C82.6448 147.805 82.8853 148.558 82.8853 149.402C82.8853 150.29 82.6208 151.073 82.0917 151.751C81.568 152.425 80.8919 152.855 80.0635 153.042V153.154C80.7049 153.261 81.282 153.51 81.7951 153.9C82.3135 154.284 82.725 154.765 83.0296 155.343C83.3396 155.92 83.4946 156.553 83.4946 157.243C83.4946 158.13 83.2327 158.923 82.709 159.623C82.1852 160.318 81.4637 160.866 80.5445 161.267C79.6307 161.668 78.5805 161.868 77.3941 161.868ZM77.3941 159.575C78.0087 159.575 78.5431 159.471 78.9974 159.263C79.4516 159.049 79.8043 158.75 80.0555 158.365C80.3067 157.98 80.435 157.536 80.4403 157.034C80.435 156.51 80.2987 156.048 80.0315 155.647C79.7696 155.241 79.4089 154.923 78.9493 154.693C78.495 154.464 77.9766 154.349 77.3941 154.349C76.8062 154.349 76.2825 154.464 75.8229 154.693C75.3632 154.923 74.9998 155.241 74.7326 155.647C74.4707 156.048 74.3425 156.51 74.3478 157.034C74.3425 157.536 74.4654 157.98 74.7166 158.365C74.9678 158.744 75.3205 159.041 75.7748 159.255C76.2344 159.468 76.7741 159.575 77.3941 159.575ZM77.3941 152.096C77.8964 152.096 78.34 151.994 78.7248 151.791C79.1149 151.588 79.4222 151.305 79.6467 150.942C79.8711 150.578 79.986 150.159 79.9914 149.683C79.986 149.213 79.8738 148.801 79.6547 148.449C79.4356 148.09 79.131 147.815 78.7408 147.623C78.3507 147.425 77.9018 147.326 77.3941 147.326C76.8757 147.326 76.4187 147.425 76.0233 147.623C75.6331 147.815 75.3285 148.09 75.1094 148.449C74.8956 148.801 74.7914 149.213 74.7967 149.683C74.7914 150.159 74.8983 150.578 75.1174 150.942C75.3419 151.3 75.6492 151.583 76.0393 151.791C76.4348 151.994 76.8864 152.096 77.3941 152.096ZM71.2455 184.501C71.2455 183.416 71.4886 182.462 71.975 181.639C72.4613 180.81 73.1293 180.164 73.9791 179.699C74.8342 179.234 75.8068 179.001 76.8971 179.001C77.9552 179.001 78.9172 179.226 79.783 179.675C80.6541 180.118 81.3462 180.752 81.8592 181.575C82.3776 182.398 82.6315 183.376 82.6208 184.509C82.6154 185.065 82.5379 185.626 82.3883 186.192C82.2387 186.753 82.0035 187.352 81.6829 187.988C81.3622 188.618 80.9453 189.316 80.4323 190.08L76.6646 195.644H73.6103L77.7147 189.631C77.5116 189.69 77.3032 189.738 77.0894 189.776C76.881 189.813 76.6646 189.832 76.4401 189.832C75.4354 189.832 74.5402 189.605 73.7546 189.15C72.9743 188.696 72.3598 188.068 71.9108 187.266C71.4673 186.465 71.2455 185.543 71.2455 184.501ZM74.0993 184.429C74.0993 185.022 74.2196 185.548 74.4601 186.008C74.7006 186.462 75.0319 186.82 75.4541 187.082C75.8763 187.339 76.3626 187.467 76.9131 187.467C77.4635 187.467 77.9499 187.339 78.3721 187.082C78.7996 186.825 79.1336 186.47 79.3741 186.016C79.6146 185.562 79.7349 185.038 79.7349 184.445C79.7349 183.846 79.6146 183.32 79.3741 182.865C79.1336 182.406 78.7996 182.045 78.3721 181.783C77.9499 181.521 77.4635 181.39 76.9131 181.39C76.3626 181.39 75.8736 181.521 75.4461 181.783C75.0239 182.04 74.6925 182.398 74.452 182.857C74.2169 183.312 74.0993 183.835 74.0993 184.429ZM77.6265 229.956C76.3065 229.956 75.1735 229.622 74.2276 228.954C73.287 228.281 72.5628 227.311 72.0551 226.044C71.5528 224.772 71.3016 223.241 71.3016 221.451C71.3069 219.66 71.5608 218.137 72.0631 216.881C72.5709 215.62 73.295 214.658 74.2356 213.995C75.1815 213.333 76.3119 213.001 77.6265 213.001C78.9412 213.001 80.0716 213.333 81.0175 213.995C81.9634 214.658 82.6876 215.62 83.1899 216.881C83.6977 218.143 83.9515 219.666 83.9515 221.451C83.9515 223.246 83.6977 224.78 83.1899 226.052C82.6876 227.319 81.9634 228.286 81.0175 228.954C80.0769 229.622 78.9466 229.956 77.6265 229.956ZM77.6265 227.447C78.6526 227.447 79.4623 226.942 80.0555 225.932C80.6541 224.917 80.9534 223.423 80.9534 221.451C80.9534 220.147 80.8171 219.051 80.5445 218.164C80.272 217.277 79.8872 216.609 79.3902 216.16C78.8931 215.706 78.3053 215.479 77.6265 215.479C76.6058 215.479 75.7988 215.986 75.2056 217.002C74.6124 218.012 74.3131 219.495 74.3077 221.451C74.3024 222.76 74.4333 223.861 74.7006 224.754C74.9731 225.646 75.3579 226.319 75.8549 226.774C76.3519 227.223 76.9425 227.447 77.6265 227.447Z" fill="white"/>
</g>
<path d="M123.31 88.7996V83.5088H124.208V88.7996H123.31ZM121.114 86.6031V85.7053H126.405V86.6031H121.114ZM130.959 82.0337V90.2426H129.965V83.4767H129.901C129.863 83.5515 129.767 83.637 129.612 83.7332C129.457 83.8267 129.257 83.9096 129.011 83.9817C128.765 84.0512 128.485 84.0859 128.169 84.0859V83.2522C128.487 83.2522 128.762 83.1948 128.995 83.0799C129.227 82.965 129.421 82.83 129.576 82.675C129.734 82.5201 129.853 82.3798 129.933 82.2542C130.016 82.1286 130.064 82.0551 130.077 82.0337H130.959ZM135.877 90.3548C135.407 90.3548 134.983 90.2613 134.606 90.0742C134.23 89.8872 133.928 89.6306 133.701 89.3046C133.473 88.9786 133.349 88.6072 133.328 88.1903H134.29C134.327 88.5618 134.496 88.8691 134.795 89.1122C135.097 89.3527 135.457 89.473 135.877 89.473C136.214 89.473 136.513 89.3941 136.775 89.2365C137.039 89.0788 137.246 88.8624 137.396 88.5872C137.548 88.3093 137.625 87.9953 137.625 87.6452C137.625 87.2872 137.546 86.9678 137.388 86.6873C137.233 86.404 137.019 86.1809 136.747 86.0179C136.474 85.8549 136.163 85.7721 135.813 85.7694C135.562 85.7667 135.304 85.8055 135.039 85.8856C134.775 85.9631 134.557 86.0633 134.386 86.1862L133.456 86.074L133.953 82.0337H138.218V82.9155H134.787L134.498 85.3365H134.546C134.715 85.2029 134.926 85.092 135.18 85.0038C135.433 84.9156 135.698 84.8715 135.973 84.8715C136.476 84.8715 136.923 84.9918 137.316 85.2323C137.711 85.4701 138.021 85.7961 138.246 86.2103C138.473 86.6245 138.587 87.0974 138.587 87.6292C138.587 88.1529 138.469 88.6206 138.234 89.0321C138.001 89.4409 137.681 89.7642 137.272 90.0021C136.863 90.2372 136.398 90.3548 135.877 90.3548ZM140.576 90.3067C140.378 90.3067 140.208 90.2359 140.067 90.0942C139.925 89.9526 139.854 89.7829 139.854 89.5852C139.854 89.3875 139.925 89.2178 140.067 89.0762C140.208 88.9345 140.378 88.8637 140.576 88.8637C140.773 88.8637 140.943 88.9345 141.085 89.0762C141.226 89.2178 141.297 89.3875 141.297 89.5852C141.297 89.7161 141.264 89.8364 141.197 89.9459C141.133 90.0555 141.046 90.1437 140.936 90.2105C140.829 90.2746 140.709 90.3067 140.576 90.3067ZM145.369 90.3548C144.766 90.3548 144.251 90.1904 143.826 89.8618C143.401 89.5304 143.077 89.0508 142.852 88.4228C142.628 87.7922 142.516 87.0306 142.516 86.1381C142.516 85.251 142.628 84.4934 142.852 83.8655C143.079 83.2349 143.405 82.7539 143.83 82.4225C144.258 82.0885 144.771 81.9215 145.369 81.9215C145.968 81.9215 146.48 82.0885 146.905 82.4225C147.332 82.7539 147.658 83.2349 147.883 83.8655C148.11 84.4934 148.223 85.251 148.223 86.1381C148.223 87.0306 148.111 87.7922 147.887 88.4228C147.662 89.0508 147.337 89.5304 146.913 89.8618C146.488 90.1904 145.973 90.3548 145.369 90.3548ZM145.369 89.473C145.968 89.473 146.433 89.1844 146.764 88.6072C147.096 88.03 147.261 87.207 147.261 86.1381C147.261 85.4274 147.185 84.8221 147.033 84.3224C146.883 83.8227 146.667 83.442 146.384 83.1801C146.103 82.9182 145.765 82.7873 145.369 82.7873C144.776 82.7873 144.313 83.0799 143.979 83.6651C143.645 84.2476 143.478 85.072 143.478 86.1381C143.478 86.8489 143.552 87.4528 143.702 87.9499C143.852 88.4469 144.067 88.825 144.347 89.0842C144.631 89.3434 144.971 89.473 145.369 89.473ZM149.618 88.1903H150.628C150.658 88.4683 150.752 88.7034 150.913 88.8958C151.076 89.0855 151.287 89.2298 151.546 89.3287C151.805 89.4249 152.093 89.473 152.408 89.473C152.75 89.473 153.057 89.4155 153.33 89.3006C153.602 89.1857 153.819 89.0147 153.979 88.7876C154.139 88.5578 154.22 88.2732 154.22 87.9338C154.22 87.6372 154.15 87.362 154.011 87.1081C153.872 86.8516 153.649 86.6445 153.342 86.4869C153.034 86.3292 152.627 86.2504 152.119 86.2504H151.462V85.4487L153.514 82.9797V82.9155H150.019V82.0337H154.877V82.7552L152.68 85.4167V85.4808C153.033 85.4968 153.362 85.569 153.666 85.6972C153.974 85.8255 154.241 85.9992 154.468 86.2183C154.698 86.4374 154.877 86.6926 155.005 86.9839C155.133 87.2751 155.198 87.5918 155.198 87.9338C155.198 88.4014 155.077 88.8183 154.837 89.1844C154.599 89.5478 154.269 89.8337 153.847 90.0421C153.427 90.2506 152.942 90.3548 152.392 90.3548C151.906 90.3548 151.458 90.2693 151.049 90.0983C150.64 89.9272 150.308 89.6801 150.051 89.3567C149.795 89.0334 149.65 88.6446 149.618 88.1903ZM161.019 88.7034V88.2705C161.019 87.9712 161.08 87.6973 161.203 87.4488C161.328 87.1976 161.51 86.9972 161.748 86.8476C161.989 86.6953 162.28 86.6191 162.622 86.6191C162.969 86.6191 163.26 86.6953 163.496 86.8476C163.731 86.9972 163.908 87.1976 164.029 87.4488C164.149 87.6973 164.209 87.9712 164.209 88.2705V88.7034C164.209 89.0027 164.148 89.2779 164.025 89.5291C163.904 89.7776 163.725 89.978 163.488 90.1303C163.252 90.28 162.964 90.3548 162.622 90.3548C162.274 90.3548 161.982 90.28 161.744 90.1303C161.506 89.978 161.326 89.7776 161.203 89.5291C161.08 89.2779 161.019 89.0027 161.019 88.7034ZM161.836 88.2705V88.7034C161.836 88.9519 161.895 89.175 162.013 89.3728C162.13 89.5678 162.333 89.6654 162.622 89.6654C162.902 89.6654 163.1 89.5678 163.215 89.3728C163.333 89.175 163.391 88.9519 163.391 88.7034V88.2705C163.391 88.022 163.335 87.8002 163.223 87.6051C163.111 87.4074 162.91 87.3085 162.622 87.3085C162.341 87.3085 162.139 87.4074 162.017 87.6051C161.896 87.8002 161.836 88.022 161.836 88.2705ZM156.93 84.0058V83.5729C156.93 83.2736 156.992 82.9997 157.115 82.7512C157.24 82.5 157.422 82.2996 157.66 82.15C157.9 81.9977 158.191 81.9215 158.533 81.9215C158.881 81.9215 159.172 81.9977 159.407 82.15C159.642 82.2996 159.82 82.5 159.94 82.7512C160.061 82.9997 160.121 83.2736 160.121 83.5729V84.0058C160.121 84.3051 160.059 84.5803 159.936 84.8315C159.816 85.08 159.637 85.2804 159.399 85.4327C159.164 85.5823 158.875 85.6572 158.533 85.6572C158.186 85.6572 157.893 85.5823 157.656 85.4327C157.418 85.2804 157.237 85.08 157.115 84.8315C156.992 84.5803 156.93 84.3051 156.93 84.0058ZM157.748 83.5729V84.0058C157.748 84.2543 157.807 84.4774 157.924 84.6751C158.042 84.8702 158.245 84.9677 158.533 84.9677C158.814 84.9677 159.012 84.8702 159.127 84.6751C159.244 84.4774 159.303 84.2543 159.303 84.0058V83.5729C159.303 83.3244 159.247 83.1026 159.135 82.9075C159.022 82.7098 158.822 82.6109 158.533 82.6109C158.253 82.6109 158.051 82.7098 157.928 82.9075C157.808 83.1026 157.748 83.3244 157.748 83.5729ZM157.235 90.2426L162.878 82.0337H163.792L158.149 90.2426H157.235Z" fill="white"/>
<path fill-rule="evenodd" clip-rule="evenodd" d="M177.755 83.4924L182.97 81.9801L181.672 87.2532L180.053 85.6985L177.44 88.4197C177.352 88.512 177.229 88.5643 177.101 88.5643C176.973 88.5643 176.85 88.512 176.762 88.4197L174.844 86.4216L172.022 89.3603C171.843 89.5476 171.545 89.5537 171.357 89.3738C171.17 89.1939 171.164 88.8962 171.344 88.7089L174.504 85.4168C174.593 85.3244 174.716 85.2722 174.844 85.2722C174.972 85.2722 175.094 85.3244 175.183 85.4168L177.101 87.4149L179.374 85.0471L177.755 83.4924Z" fill="white"/>
<defs>
<clipPath id="clip0_390_10175">
<path d="M40 72.5743C40 70.4964 41.6845 68.8119 43.7624 68.8119H51.2871C53.365 68.8119 55.0495 70.4964 55.0495 72.5743V98.9109C55.0495 100.989 53.365 102.673 51.2871 102.673H43.7624C41.6845 102.673 40 100.989 40 98.9109V72.5743Z" fill="white"/>
</clipPath>
<clipPath id="clip1_390_10175">
<path d="M55.0493 72.5743C55.0493 70.4964 56.7338 68.8119 58.8117 68.8119H66.3364C68.4143 68.8119 70.0988 70.4964 70.0988 72.5743V98.9109C70.0988 100.989 68.4143 102.673 66.3364 102.673H58.8117C56.7338 102.673 55.0493 100.989 55.0493 98.9109V72.5743Z" fill="white"/>
</clipPath>
<clipPath id="clip2_390_10175">
<path d="M70.0991 72.5743C70.0991 70.4964 71.7836 68.8119 73.8615 68.8119H81.3862C83.4642 68.8119 85.1486 70.4964 85.1486 72.5743V98.9109C85.1486 100.989 83.4642 102.673 81.3863 102.673H73.8615C71.7836 102.673 70.0991 100.989 70.0991 98.9109V72.5743Z" fill="white"/>
</clipPath>
</defs>
</svg>
