<svg width="225" height="129" viewBox="0 0 225 129" fill="none" xmlns="http://www.w3.org/2000/svg">
<rect width="224.569" height="128.775" rx="10" fill="#B1FC03"/>
<path d="M41.3281 31.8072L43.7604 38.7039H43.8564L46.2886 31.8072H47.3287L44.3204 40H43.2963L40.288 31.8072H41.3281ZM48.4768 40V33.8554H49.4209V40H48.4768ZM48.9569 32.8313C48.7728 32.8313 48.6142 32.7686 48.4808 32.6433C48.3501 32.5179 48.2848 32.3673 48.2848 32.1913C48.2848 32.0152 48.3501 31.8646 48.4808 31.7392C48.6142 31.6139 48.7728 31.5512 48.9569 31.5512C49.1409 31.5512 49.2982 31.6139 49.4289 31.7392C49.5623 31.8646 49.6289 32.0152 49.6289 32.1913C49.6289 32.3673 49.5623 32.5179 49.4289 32.6433C49.2982 32.7686 49.1409 32.8313 48.9569 32.8313ZM53.7263 40.128C53.1343 40.128 52.6235 39.9973 52.1942 39.736C51.7675 39.4719 51.4381 39.1039 51.2061 38.6319C50.9767 38.1572 50.862 37.6051 50.862 36.9757C50.862 36.3463 50.9767 35.7916 51.2061 35.3116C51.4381 34.8288 51.7608 34.4528 52.1742 34.1834C52.5902 33.9114 53.0756 33.7754 53.6303 33.7754C53.9503 33.7754 54.2664 33.8287 54.5784 33.9354C54.8904 34.0421 55.1745 34.2154 55.4305 34.4555C55.6865 34.6928 55.8905 35.0075 56.0425 35.3996C56.1946 35.7916 56.2706 36.2743 56.2706 36.8477V37.2477H51.5341V36.4317H55.3105C55.3105 36.085 55.2411 35.7756 55.1024 35.5036C54.9664 35.2315 54.7717 35.0169 54.5184 34.8595C54.2677 34.7022 53.9717 34.6235 53.6303 34.6235C53.2543 34.6235 52.9289 34.7168 52.6542 34.9035C52.3822 35.0875 52.1728 35.3276 52.0262 35.6236C51.8795 35.9196 51.8061 36.237 51.8061 36.5757V37.1197C51.8061 37.5838 51.8861 37.9771 52.0462 38.2998C52.2088 38.6199 52.4342 38.8639 52.7222 39.0319C53.0102 39.1973 53.3449 39.2799 53.7263 39.2799C53.9743 39.2799 54.1984 39.2453 54.3984 39.1759C54.6011 39.1039 54.7758 38.9972 54.9224 38.8559C55.0691 38.7119 55.1825 38.5332 55.2625 38.3198L56.1746 38.5759C56.0785 38.8852 55.9172 39.1573 55.6905 39.3919C55.4638 39.624 55.1838 39.8053 54.8504 39.936C54.5171 40.064 54.1424 40.128 53.7263 40.128ZM59.0988 40L57.2267 33.8554H58.2187L59.5469 38.5599H59.6109L60.923 33.8554H61.9311L63.2272 38.5439H63.2912L64.6194 33.8554H65.6115L63.7393 40H62.8112L61.4671 35.2795H61.371L60.0269 40H59.0988ZM71.212 35.2315L70.3639 35.4716C70.3106 35.3302 70.2319 35.1929 70.1279 35.0595C70.0265 34.9235 69.8879 34.8115 69.7118 34.7235C69.5358 34.6355 69.3105 34.5915 69.0358 34.5915C68.6597 34.5915 68.3464 34.6782 68.0957 34.8515C67.8477 35.0222 67.7237 35.2395 67.7237 35.5036C67.7237 35.7383 67.809 35.9236 67.9797 36.0596C68.1504 36.1956 68.4171 36.309 68.7798 36.3997L69.6918 36.6237C70.2412 36.757 70.6506 36.961 70.92 37.2357C71.1893 37.5078 71.324 37.8585 71.324 38.2878C71.324 38.6399 71.2227 38.9546 71.02 39.2319C70.82 39.5093 70.5399 39.728 70.1799 39.888C69.8199 40.048 69.4012 40.128 68.9238 40.128C68.297 40.128 67.7783 39.992 67.3676 39.72C66.9569 39.4479 66.6969 39.0506 66.5875 38.5279L67.4836 38.3038C67.569 38.6345 67.7303 38.8826 67.9677 39.0479C68.2077 39.2133 68.5211 39.2959 68.9078 39.2959C69.3478 39.2959 69.6972 39.2026 69.9559 39.0159C70.2172 38.8266 70.3479 38.5999 70.3479 38.3358C70.3479 38.1225 70.2732 37.9438 70.1239 37.7998C69.9745 37.6531 69.7452 37.5438 69.4358 37.4718L68.4117 37.2317C67.849 37.0984 67.4356 36.8917 67.1716 36.6117C66.9102 36.329 66.7796 35.9756 66.7796 35.5516C66.7796 35.2049 66.8769 34.8982 67.0716 34.6315C67.2689 34.3648 67.537 34.1554 67.8757 34.0034C68.217 33.8514 68.6037 33.7754 69.0358 33.7754C69.6438 33.7754 70.1212 33.9087 70.4679 34.1754C70.8173 34.4421 71.0653 34.7942 71.212 35.2315Z" fill="#13213C"/>
<g clip-path="url(#clip0_390_10170)">
<path d="M47.5127 -143.48C46.1953 -143.48 45.0645 -143.813 44.1204 -144.48C43.1816 -145.152 42.4589 -146.12 41.9522 -147.384C41.4508 -148.653 41.2001 -150.182 41.2001 -151.968C41.2054 -153.755 41.4588 -155.275 41.9602 -156.529C42.4669 -157.788 43.1896 -158.748 44.1284 -159.409C45.0725 -160.07 46.2006 -160.401 47.5127 -160.401C48.8248 -160.401 49.953 -160.07 50.897 -159.409C51.8411 -158.748 52.5639 -157.788 53.0653 -156.529C53.572 -155.27 53.8253 -153.75 53.8253 -151.968C53.8253 -150.176 53.572 -148.645 53.0653 -147.376C52.5639 -146.112 51.8411 -145.146 50.897 -144.48C49.9583 -143.813 48.8302 -143.48 47.5127 -143.48ZM47.5127 -145.984C48.5368 -145.984 49.3449 -146.488 49.937 -147.496C50.5343 -148.509 50.833 -150 50.833 -151.968C50.833 -153.27 50.697 -154.363 50.425 -155.249C50.153 -156.134 49.7689 -156.801 49.2729 -157.249C48.7768 -157.702 48.1901 -157.929 47.5127 -157.929C46.494 -157.929 45.6885 -157.422 45.0965 -156.409C44.5044 -155.401 44.2057 -153.921 44.2004 -151.968C44.1951 -150.662 44.3257 -149.563 44.5924 -148.672C44.8645 -147.781 45.2485 -147.109 45.7446 -146.656C46.2406 -146.208 46.83 -145.984 47.5127 -145.984ZM47.7287 -126.177V-109.792H44.7525V-122.385H44.6164C44.5098 -122.219 44.3071 -122.041 44.0084 -121.849C43.7097 -121.662 43.3257 -121.502 42.8563 -121.369C42.3922 -121.235 41.8508 -121.169 41.2321 -121.169V-123.569C41.7975 -123.569 42.3016 -123.668 42.7443 -123.865C43.187 -124.062 43.563 -124.308 43.8724 -124.601C44.1871 -124.894 44.4298 -125.185 44.6004 -125.473C44.7711 -125.761 44.8645 -125.996 44.8805 -126.177H47.7287ZM41.4561 -75.7916V-77.9358L47.1447 -83.5123C47.6887 -84.0617 48.1421 -84.5497 48.5048 -84.9764C48.8675 -85.4032 49.1395 -85.8165 49.3209 -86.2166C49.5022 -86.6166 49.5929 -87.0433 49.5929 -87.4967C49.5929 -88.0141 49.4756 -88.4568 49.2409 -88.8248C49.0062 -89.1982 48.6835 -89.4862 48.2728 -89.6889C47.8621 -89.8916 47.3954 -89.9929 46.8727 -89.9929C46.3339 -89.9929 45.8619 -89.8809 45.4565 -89.6569C45.0512 -89.4382 44.7365 -89.1262 44.5124 -88.7208C44.2937 -88.3154 44.1844 -87.8327 44.1844 -87.2727H41.3601C41.3601 -88.3128 41.5975 -89.2169 42.0722 -89.9849C42.5469 -90.753 43.2003 -91.3477 44.0324 -91.7691C44.8698 -92.1905 45.8299 -92.4012 46.9127 -92.4012C48.0114 -92.4012 48.9769 -92.1958 49.8089 -91.7851C50.641 -91.3744 51.2864 -90.8117 51.7451 -90.0969C52.2092 -89.3822 52.4412 -88.5661 52.4412 -87.6487C52.4412 -87.0353 52.3238 -86.4326 52.0892 -85.8405C51.8545 -85.2485 51.4411 -84.5924 50.849 -83.8723C50.2623 -83.1523 49.4382 -82.2802 48.3768 -81.2561L45.5525 -78.3838V-78.2718H52.6892V-75.7916H41.4561ZM41.2001 -47.248H44.2004C44.2377 -46.7893 44.3924 -46.3946 44.6644 -46.0639C44.9365 -45.7385 45.2938 -45.4878 45.7366 -45.3118C46.1793 -45.1411 46.6726 -45.0558 47.2167 -45.0558C47.7927 -45.0558 48.3075 -45.1545 48.7608 -45.3518C49.2142 -45.5545 49.5689 -45.8425 49.8249 -46.2159C50.0863 -46.5946 50.217 -47.0533 50.217 -47.592C50.217 -48.0881 50.0916 -48.5388 49.8409 -48.9442C49.5956 -49.3549 49.2196 -49.6802 48.7128 -49.9202C48.2061 -50.1656 47.5581 -50.2883 46.7686 -50.2883H45.1445V-52.4245L48.9369 -56.5849V-56.6969H42.0082V-59.1771H52.6812V-57.0329L48.2808 -52.2965V-52.1685C49.0915 -52.1045 49.8063 -51.9338 50.425 -51.6564C51.0491 -51.3791 51.5718 -51.0244 51.9932 -50.5923C52.4145 -50.1603 52.7319 -49.6749 52.9452 -49.1362C53.1586 -48.5975 53.2653 -48.0321 53.2653 -47.44C53.2653 -46.4799 53.0012 -45.6345 52.4732 -44.9038C51.9505 -44.173 51.2304 -43.5996 50.313 -43.1836C49.4009 -42.7729 48.3608 -42.5675 47.1927 -42.5675C46.0726 -42.5675 45.0672 -42.7596 44.1764 -43.1436C43.291 -43.5276 42.5842 -44.069 42.0562 -44.7678C41.5281 -45.4718 41.2428 -46.2986 41.2001 -47.248ZM41.1601 -11.8319V-14.1921L47.4247 -25.1771H50.297L44.1764 -14.4001V-14.2721H53.9053V-11.8319H41.1601ZM48.9769 -8.79156V-12.5279L49.0409 -13.608V-19.0325H51.7691V-8.79156H48.9769ZM47.1527 25.4325C46.0859 25.4325 45.1312 25.2324 44.2884 24.8324C43.4457 24.427 42.7763 23.8723 42.2802 23.1682C41.7895 22.4642 41.5281 21.6588 41.4961 20.752H44.3764C44.4298 21.4241 44.7205 21.9735 45.2485 22.4002C45.7766 22.8215 46.4113 23.0322 47.1527 23.0322C47.7341 23.0322 48.2515 22.8989 48.7048 22.6322C49.1582 22.3655 49.5156 21.9948 49.7769 21.5201C50.0383 21.0454 50.1663 20.504 50.161 19.8959C50.1663 19.2772 50.0356 18.7278 49.7689 18.2478C49.5022 17.7677 49.1369 17.3917 48.6728 17.1197C48.2088 16.8423 47.6754 16.7036 47.0727 16.7036C46.582 16.6983 46.0993 16.789 45.6245 16.9756C45.1498 17.1623 44.7738 17.4077 44.4964 17.7117L41.8162 17.2717L42.6723 8.82286H52.1772V11.3031H45.1285L44.6564 15.6475H44.7525C45.0565 15.2901 45.4859 14.9941 46.0406 14.7594C46.5953 14.5194 47.2034 14.3994 47.8648 14.3994C48.8568 14.3994 49.7423 14.6341 50.521 15.1035C51.2998 15.5675 51.9131 16.2076 52.3612 17.0237C52.8092 17.8397 53.0333 18.7732 53.0333 19.8239C53.0333 20.9067 52.7826 21.8721 52.2812 22.7202C51.7851 23.5629 51.0944 24.227 50.209 24.7124C49.3289 25.1924 48.3101 25.4325 47.1527 25.4325ZM41.2961 53.9359C41.3068 53.3812 41.3841 52.8238 41.5281 52.2638C41.6775 51.6984 41.9122 51.101 42.2322 50.4716C42.5522 49.8369 42.971 49.1381 43.4883 48.3754L47.2487 42.8229H50.289L46.2006 48.8074C46.3979 48.7541 46.6033 48.7114 46.8167 48.6794C47.03 48.6421 47.2487 48.6234 47.4727 48.6234C48.4701 48.6234 49.3582 48.8501 50.137 49.3035C50.921 49.7569 51.5371 50.3836 51.9852 51.1837C52.4332 51.9837 52.6572 52.9038 52.6572 53.9439C52.6572 55.0267 52.4119 55.9815 51.9211 56.8082C51.4358 57.6296 50.7664 58.2723 49.913 58.7364C49.0649 59.2004 48.0994 59.4325 47.0167 59.4325C45.9552 59.4325 44.9898 59.2084 44.1204 58.7604C43.2563 58.3123 42.5682 57.6776 42.0562 56.8562C41.5441 56.0348 41.2908 55.0614 41.2961 53.9359ZM44.1844 53.9999C44.1844 54.592 44.3017 55.1174 44.5364 55.5761C44.7765 56.0348 45.1072 56.3948 45.5285 56.6562C45.9552 56.9175 46.446 57.0482 47.0007 57.0482C47.5501 57.0482 48.0354 56.9202 48.4568 56.6642C48.8782 56.4028 49.2089 56.0455 49.4489 55.5921C49.6889 55.1334 49.8089 54.608 49.8089 54.0159C49.8089 53.4239 49.6889 52.9012 49.4489 52.4478C49.2089 51.9891 48.8782 51.6317 48.4568 51.3757C48.0354 51.1143 47.5501 50.9836 47.0007 50.9836C46.446 50.9836 45.9552 51.1117 45.5285 51.3677C45.1072 51.6237 44.7765 51.9784 44.5364 52.4318C44.3017 52.8852 44.1844 53.4079 44.1844 53.9999ZM42.0562 93.2084L49.0249 79.4151V79.3031H40.9361V76.8229H52.0972V79.3591L45.1365 93.2084H42.0562ZM47.2807 126.432C46.0913 126.432 45.0351 126.232 44.1124 125.832C43.195 125.432 42.4749 124.886 41.9522 124.192C41.4348 123.494 41.1788 122.701 41.1841 121.816C41.1788 121.128 41.3281 120.496 41.6322 119.92C41.9362 119.344 42.3469 118.864 42.8643 118.48C43.387 118.09 43.9684 117.842 44.6084 117.736V117.624C43.7657 117.437 43.083 117.008 42.5602 116.335C42.0429 115.658 41.7868 114.877 41.7922 113.991C41.7868 113.149 42.0215 112.396 42.4962 111.735C42.971 111.074 43.6217 110.554 44.4484 110.175C45.2752 109.791 46.2193 109.599 47.2807 109.599C48.3315 109.599 49.2676 109.791 50.089 110.175C50.9157 110.554 51.5664 111.074 52.0412 111.735C52.5212 112.396 52.7612 113.149 52.7612 113.991C52.7612 114.877 52.4972 115.658 51.9691 116.335C51.4464 117.008 50.7717 117.437 49.945 117.624V117.736C50.585 117.842 51.1611 118.09 51.6731 118.48C52.1905 118.864 52.6012 119.344 52.9052 119.92C53.2146 120.496 53.3693 121.128 53.3693 121.816C53.3693 122.701 53.1079 123.494 52.5852 124.192C52.0625 124.886 51.3424 125.432 50.425 125.832C49.5129 126.232 48.4648 126.432 47.2807 126.432ZM47.2807 124.144C47.8941 124.144 48.4275 124.04 48.8809 123.832C49.3342 123.619 49.6863 123.32 49.937 122.936C50.1876 122.552 50.3157 122.109 50.321 121.608C50.3157 121.085 50.1796 120.624 49.913 120.224C49.6516 119.818 49.2916 119.501 48.8328 119.272C48.3795 119.042 47.8621 118.928 47.2807 118.928C46.694 118.928 46.1713 119.042 45.7125 119.272C45.2538 119.501 44.8911 119.818 44.6244 120.224C44.3631 120.624 44.2351 121.085 44.2404 121.608C44.2351 122.109 44.3578 122.552 44.6084 122.936C44.8591 123.315 45.2112 123.611 45.6645 123.824C46.1233 124.038 46.662 124.144 47.2807 124.144ZM47.2807 116.68C47.7821 116.68 48.2248 116.578 48.6088 116.375C48.9982 116.173 49.3049 115.89 49.5289 115.527C49.7529 115.165 49.8676 114.746 49.8729 114.271C49.8676 113.802 49.7556 113.391 49.5369 113.039C49.3182 112.682 49.0142 112.407 48.6248 112.215C48.2355 112.018 47.7874 111.919 47.2807 111.919C46.7633 111.919 46.3073 112.018 45.9126 112.215C45.5232 112.407 45.2192 112.682 45.0005 113.039C44.7871 113.391 44.6831 113.802 44.6884 114.271C44.6831 114.746 44.7898 115.165 45.0085 115.527C45.2325 115.885 45.5392 116.167 45.9286 116.375C46.3233 116.578 46.774 116.68 47.2807 116.68ZM41.1441 149.087C41.1441 148.005 41.3868 147.053 41.8722 146.231C42.3576 145.404 43.0243 144.759 43.8724 144.295C44.7258 143.831 45.6965 143.599 46.7847 143.599C47.8408 143.599 48.8008 143.823 49.6649 144.271C50.5343 144.714 51.2251 145.346 51.7371 146.167C52.2545 146.989 52.5079 147.965 52.4972 149.095C52.4919 149.65 52.4145 150.21 52.2652 150.776C52.1158 151.336 51.8811 151.933 51.5611 152.568C51.2411 153.197 50.825 153.893 50.313 154.656L46.5526 160.208H43.5043L47.6007 154.208C47.398 154.267 47.19 154.315 46.9767 154.352C46.7686 154.389 46.5526 154.408 46.3286 154.408C45.3258 154.408 44.4324 154.181 43.6484 153.728C42.8696 153.274 42.2562 152.648 41.8082 151.848C41.3655 151.048 41.1441 150.127 41.1441 149.087ZM43.9924 149.015C43.9924 149.607 44.1124 150.133 44.3524 150.592C44.5924 151.045 44.9231 151.402 45.3445 151.664C45.7659 151.92 46.2513 152.048 46.8007 152.048C47.35 152.048 47.8354 151.92 48.2568 151.664C48.6835 151.408 49.0169 151.053 49.2569 150.6C49.4969 150.146 49.6169 149.623 49.6169 149.031C49.6169 148.434 49.4969 147.909 49.2569 147.455C49.0169 146.997 48.6835 146.636 48.2568 146.375C47.8354 146.114 47.35 145.983 46.8007 145.983C46.2513 145.983 45.7632 146.114 45.3365 146.375C44.9151 146.631 44.5844 146.988 44.3444 147.447C44.1097 147.901 43.9924 148.423 43.9924 149.015ZM47.5127 194.52C46.1953 194.52 45.0645 194.187 44.1204 193.52C43.1816 192.848 42.4589 191.88 41.9522 190.616C41.4508 189.347 41.2001 187.818 41.2001 186.032C41.2054 184.245 41.4588 182.725 41.9602 181.471C42.4669 180.212 43.1896 179.252 44.1284 178.591C45.0725 177.93 46.2006 177.599 47.5127 177.599C48.8248 177.599 49.953 177.93 50.897 178.591C51.8411 179.252 52.5639 180.212 53.0653 181.471C53.572 182.73 53.8253 184.25 53.8253 186.032C53.8253 187.824 53.572 189.355 53.0653 190.624C52.5639 191.888 51.8411 192.854 50.897 193.52C49.9583 194.187 48.8302 194.52 47.5127 194.52ZM47.5127 192.016C48.5368 192.016 49.3449 191.512 49.937 190.504C50.5343 189.491 50.833 188 50.833 186.032C50.833 184.73 50.697 183.637 50.425 182.751C50.153 181.866 49.7689 181.199 49.2729 180.751C48.7768 180.298 48.1901 180.071 47.5127 180.071C46.494 180.071 45.6885 180.578 45.0965 181.591C44.5044 182.599 44.2057 184.079 44.2004 186.032C44.1951 187.338 44.3257 188.437 44.5924 189.328C44.8645 190.219 45.2485 190.891 45.7446 191.344C46.2406 191.792 46.83 192.016 47.5127 192.016Z" fill="#13213C"/>
</g>
<g clip-path="url(#clip1_390_10170)">
<path d="M59.9085 90.5349L59.8045 91.415C59.7298 92.0871 59.5965 92.7698 59.4044 93.4632C59.2178 94.1619 59.0204 94.8047 58.8124 95.3914C58.6044 95.9781 58.4363 96.4395 58.3083 96.7755H56.3561C56.4308 96.4502 56.5322 96.0075 56.6602 95.4474C56.7935 94.8873 56.9215 94.258 57.0442 93.5592C57.1669 92.8605 57.2496 92.1511 57.2922 91.431L57.3482 90.5349H59.9085Z" fill="#13213C"/>
</g>
<g clip-path="url(#clip2_390_10170)">
<path d="M69.5327 25.4967C68.2153 25.4967 67.0845 25.1634 66.1404 24.4966C65.2017 23.8246 64.4789 22.8565 63.9722 21.5923C63.4708 20.3229 63.2201 18.7947 63.2201 17.0079C63.2255 15.2211 63.4788 13.7009 63.9802 12.4475C64.4869 11.1887 65.2097 10.2286 66.1484 9.56719C67.0925 8.9058 68.2206 8.5751 69.5327 8.5751C70.8449 8.5751 71.973 8.9058 72.9171 9.56719C73.8612 10.2286 74.5839 11.1887 75.0853 12.4475C75.592 13.7063 75.8453 15.2264 75.8453 17.0079C75.8453 18.8001 75.592 20.3309 75.0853 21.6003C74.5839 22.8645 73.8612 23.8299 72.9171 24.4966C71.9783 25.1634 70.8502 25.4967 69.5327 25.4967ZM69.5327 22.9925C70.5568 22.9925 71.3649 22.4884 71.957 21.4803C72.5544 20.4669 72.8531 18.9761 72.8531 17.0079C72.8531 15.7064 72.717 14.613 72.445 13.7276C72.173 12.8422 71.789 12.1754 71.2929 11.7274C70.7969 11.274 70.2101 11.0473 69.5327 11.0473C68.514 11.0473 67.7086 11.5541 67.1165 12.5675C66.5245 13.5756 66.2258 15.0557 66.2204 17.0079C66.2151 18.3147 66.3458 19.4135 66.6125 20.3042C66.8845 21.195 67.2685 21.867 67.7646 22.3204C68.2606 22.7685 68.85 22.9925 69.5327 22.9925ZM69.7488 42.7991V59.1847H66.7725V46.5915H66.6365C66.5298 46.7568 66.3271 46.9355 66.0284 47.1275C65.7297 47.3142 65.3457 47.4742 64.8763 47.6076C64.4122 47.7409 63.8709 47.8076 63.2521 47.8076V45.4074C63.8175 45.4074 64.3216 45.3087 64.7643 45.1113C65.207 44.914 65.583 44.6686 65.8924 44.3753C66.2071 44.0819 66.4498 43.7912 66.6205 43.5032C66.7911 43.2152 66.8845 42.9805 66.9005 42.7991H69.7488ZM63.4762 93.1847V91.0405L69.1647 85.464C69.7088 84.9146 70.1621 84.4265 70.5248 83.9998C70.8875 83.5731 71.1596 83.1597 71.3409 82.7597C71.5223 82.3597 71.6129 81.9329 71.6129 81.4796C71.6129 80.9622 71.4956 80.5195 71.2609 80.1514C71.0262 79.7781 70.7035 79.49 70.2928 79.2874C69.8821 79.0847 69.4154 78.9833 68.8927 78.9833C68.354 78.9833 67.8819 79.0953 67.4765 79.3194C67.0712 79.538 66.7565 79.8501 66.5325 80.2555C66.3138 80.6608 66.2044 81.1435 66.2044 81.7036H63.3802C63.3802 80.6635 63.6175 79.7594 64.0922 78.9913C64.5669 78.2233 65.2203 77.6285 66.0524 77.2072C66.8898 76.7858 67.8499 76.5751 68.9327 76.5751C70.0315 76.5751 70.9969 76.7805 71.829 77.1912C72.661 77.6019 73.3064 78.1646 73.7651 78.8793C74.2292 79.5941 74.4612 80.4101 74.4612 81.3276C74.4612 81.9409 74.3439 82.5437 74.1092 83.1357C73.8745 83.7278 73.4611 84.3838 72.8691 85.1039C72.2823 85.824 71.4583 86.6961 70.3968 87.7202L67.5726 90.5924V90.7045H74.7092V93.1847H63.4762ZM63.2201 121.728H66.2204C66.2578 122.187 66.4124 122.582 66.6845 122.912C66.9565 123.238 67.3139 123.488 67.7566 123.664C68.1993 123.835 68.6927 123.92 69.2367 123.92C69.8128 123.92 70.3275 123.822 70.7809 123.624C71.2342 123.422 71.5889 123.134 71.845 122.76C72.1063 122.382 72.237 121.923 72.237 121.384C72.237 120.888 72.1117 120.437 71.861 120.032C71.6156 119.621 71.2396 119.296 70.7329 119.056C70.2261 118.811 69.5781 118.688 68.7887 118.688H67.1645V116.552L70.9569 112.391V112.279H64.0282V109.799H74.7012V111.943L70.3008 116.68V116.808C71.1116 116.872 71.8263 117.042 72.445 117.32C73.0691 117.597 73.5918 117.952 74.0132 118.384C74.4345 118.816 74.7519 119.301 74.9653 119.84C75.1786 120.379 75.2853 120.944 75.2853 121.536C75.2853 122.496 75.0213 123.342 74.4932 124.072C73.9705 124.803 73.2504 125.377 72.333 125.793C71.4209 126.203 70.3808 126.409 69.2127 126.409C68.0926 126.409 67.0872 126.217 66.1964 125.833C65.311 125.449 64.6043 124.907 64.0762 124.209C63.5482 123.504 63.2628 122.678 63.2201 121.728ZM63.1801 157.144V154.784L69.4447 143.799H72.317L66.1964 154.576V154.704H75.9254V157.144H63.1801ZM70.9969 160.185V156.448L71.0609 155.368V149.944H73.7891V160.185H70.9969ZM69.1727 194.409C68.1059 194.409 67.1512 194.209 66.3084 193.809C65.4657 193.403 64.7963 192.849 64.3002 192.144C63.8095 191.44 63.5482 190.635 63.5162 189.728H66.3964C66.4498 190.4 66.7405 190.95 67.2685 191.376C67.7966 191.798 68.4313 192.008 69.1727 192.008C69.7541 192.008 70.2715 191.875 70.7249 191.608C71.1782 191.342 71.5356 190.971 71.797 190.496C72.0583 190.022 72.1863 189.48 72.181 188.872C72.1863 188.253 72.0556 187.704 71.789 187.224C71.5223 186.744 71.1569 186.368 70.6929 186.096C70.2288 185.819 69.6954 185.68 69.0927 185.68C68.602 185.675 68.1193 185.765 67.6446 185.952C67.1698 186.139 66.7938 186.384 66.5165 186.688L63.8362 186.248L64.6923 177.799H74.1972V180.279H67.1485L66.6765 184.624H66.7725C67.0765 184.266 67.5059 183.97 68.0606 183.736C68.6153 183.496 69.2234 183.376 69.8848 183.376C70.8769 183.376 71.7623 183.61 72.541 184.08C73.3198 184.544 73.9332 185.184 74.3812 186C74.8292 186.816 75.0533 187.749 75.0533 188.8C75.0533 189.883 74.8026 190.848 74.3012 191.696C73.8052 192.539 73.1144 193.203 72.229 193.689C71.3489 194.169 70.3301 194.409 69.1727 194.409ZM63.3161 222.912C63.3268 222.357 63.4042 221.8 63.5482 221.24C63.6975 220.675 63.9322 220.077 64.2522 219.448C64.5723 218.813 64.991 218.114 65.5084 217.352L69.2687 211.799H72.309L68.2206 217.784C68.418 217.73 68.6233 217.688 68.8367 217.656C69.05 217.618 69.2687 217.6 69.4927 217.6C70.4902 217.6 71.3783 217.826 72.157 218.28C72.9411 218.733 73.5571 219.36 74.0052 220.16C74.4532 220.96 74.6772 221.88 74.6772 222.92C74.6772 224.003 74.4319 224.958 73.9412 225.784C73.4558 226.606 72.7864 227.249 71.933 227.713C71.0849 228.177 70.1195 228.409 69.0367 228.409C67.9753 228.409 67.0098 228.185 66.1404 227.737C65.2763 227.289 64.5883 226.654 64.0762 225.832C63.5642 225.011 63.3108 224.038 63.3161 222.912ZM66.2044 222.976C66.2044 223.568 66.3218 224.094 66.5565 224.552C66.7965 225.011 67.1272 225.371 67.5485 225.632C67.9753 225.894 68.466 226.024 69.0207 226.024C69.5701 226.024 70.0555 225.896 70.4768 225.64C70.8982 225.379 71.2289 225.022 71.4689 224.568C71.7089 224.11 71.829 223.584 71.829 222.992C71.829 222.4 71.7089 221.877 71.4689 221.424C71.2289 220.965 70.8982 220.608 70.4768 220.352C70.0555 220.091 69.5701 219.96 69.0207 219.96C68.466 219.96 67.9753 220.088 67.5485 220.344C67.1272 220.6 66.7965 220.955 66.5565 221.408C66.3218 221.861 66.2044 222.384 66.2044 222.976ZM64.0762 262.185L71.0449 248.391V248.279H62.9561V245.799H74.1172V248.335L67.1565 262.185H64.0762ZM69.3007 295.409C68.1113 295.409 67.0552 295.209 66.1324 294.809C65.215 294.409 64.4949 293.862 63.9722 293.168C63.4548 292.47 63.1988 291.678 63.2041 290.792C63.1988 290.104 63.3481 289.472 63.6522 288.896C63.9562 288.32 64.3669 287.84 64.8843 287.456C65.407 287.067 65.9884 286.819 66.6285 286.712V286.6C65.7857 286.413 65.103 285.984 64.5803 285.312C64.0629 284.634 63.8069 283.853 63.8122 282.968C63.8069 282.125 64.0415 281.373 64.5163 280.711C64.991 280.05 65.6417 279.53 66.4684 279.151C67.2952 278.767 68.2393 278.575 69.3007 278.575C70.3515 278.575 71.2876 278.767 72.109 279.151C72.9357 279.53 73.5865 280.05 74.0612 280.711C74.5412 281.373 74.7812 282.125 74.7812 282.968C74.7812 283.853 74.5172 284.634 73.9892 285.312C73.4665 285.984 72.7917 286.413 71.965 286.6V286.712C72.605 286.819 73.1811 287.067 73.6931 287.456C74.2105 287.84 74.6212 288.32 74.9253 288.896C75.2346 289.472 75.3893 290.104 75.3893 290.792C75.3893 291.678 75.1279 292.47 74.6052 293.168C74.0825 293.862 73.3624 294.409 72.445 294.809C71.5329 295.209 70.4848 295.409 69.3007 295.409ZM69.3007 293.12C69.9141 293.12 70.4475 293.016 70.9009 292.808C71.3542 292.595 71.7063 292.296 71.957 291.912C72.2077 291.528 72.3357 291.086 72.341 290.584C72.3357 290.062 72.1997 289.6 71.933 289.2C71.6716 288.795 71.3116 288.477 70.8529 288.248C70.3995 288.019 69.8821 287.904 69.3007 287.904C68.714 287.904 68.1913 288.019 67.7326 288.248C67.2739 288.477 66.9112 288.795 66.6445 289.2C66.3831 289.6 66.2551 290.062 66.2604 290.584C66.2551 291.086 66.3778 291.528 66.6285 291.912C66.8792 292.291 67.2312 292.587 67.6846 292.8C68.1433 293.014 68.682 293.12 69.3007 293.12ZM69.3007 285.656C69.8021 285.656 70.2448 285.554 70.6288 285.352C71.0182 285.149 71.3249 284.866 71.5489 284.504C71.773 284.141 71.8876 283.722 71.893 283.248C71.8876 282.778 71.7756 282.367 71.5569 282.015C71.3382 281.658 71.0342 281.383 70.6448 281.191C70.2555 280.994 69.8074 280.895 69.3007 280.895C68.7833 280.895 68.3273 280.994 67.9326 281.191C67.5432 281.383 67.2392 281.658 67.0205 282.015C66.8071 282.367 66.7031 282.778 66.7085 283.248C66.7031 283.722 66.8098 284.141 67.0285 284.504C67.2525 284.861 67.5592 285.144 67.9486 285.352C68.3433 285.554 68.794 285.656 69.3007 285.656ZM63.1641 318.064C63.1641 316.981 63.4068 316.029 63.8922 315.207C64.3776 314.381 65.0443 313.735 65.8924 313.271C66.7458 312.807 67.7166 312.575 68.8047 312.575C69.8608 312.575 70.8209 312.799 71.6849 313.247C72.5544 313.69 73.2451 314.322 73.7571 315.143C74.2745 315.965 74.5279 316.941 74.5172 318.072C74.5119 318.626 74.4345 319.186 74.2852 319.752C74.1358 320.312 73.9012 320.909 73.5811 321.544C73.2611 322.173 72.8451 322.869 72.333 323.632L68.5726 329.185H65.5244L69.6207 323.184C69.4181 323.243 69.21 323.291 68.9967 323.328C68.7887 323.365 68.5726 323.384 68.3486 323.384C67.3459 323.384 66.4524 323.157 65.6684 322.704C64.8896 322.251 64.2762 321.624 63.8282 320.824C63.3855 320.024 63.1641 319.104 63.1641 318.064ZM66.0124 317.992C66.0124 318.584 66.1324 319.109 66.3724 319.568C66.6125 320.021 66.9432 320.379 67.3645 320.64C67.7859 320.896 68.2713 321.024 68.8207 321.024C69.3701 321.024 69.8554 320.896 70.2768 320.64C70.7035 320.384 71.0369 320.029 71.2769 319.576C71.5169 319.122 71.6369 318.6 71.6369 318.008C71.6369 317.41 71.5169 316.885 71.2769 316.431C71.0369 315.973 70.7035 315.613 70.2768 315.351C69.8554 315.09 69.3701 314.959 68.8207 314.959C68.2713 314.959 67.7832 315.09 67.3565 315.351C66.9352 315.607 66.6045 315.965 66.3644 316.423C66.1297 316.877 66.0124 317.4 66.0124 317.992ZM69.5327 363.497C68.2153 363.497 67.0845 363.163 66.1404 362.497C65.2017 361.825 64.4789 360.856 63.9722 359.592C63.4708 358.323 63.2201 356.795 63.2201 355.008C63.2255 353.221 63.4788 351.701 63.9802 350.447C64.4869 349.189 65.2097 348.229 66.1484 347.567C67.0925 346.906 68.2206 346.575 69.5327 346.575C70.8449 346.575 71.973 346.906 72.9171 347.567C73.8612 348.229 74.5839 349.189 75.0853 350.447C75.592 351.706 75.8453 353.226 75.8453 355.008C75.8453 356.8 75.592 358.331 75.0853 359.6C74.5839 360.864 73.8612 361.83 72.9171 362.497C71.9783 363.163 70.8502 363.497 69.5327 363.497ZM69.5327 360.992C70.5568 360.992 71.3649 360.488 71.957 359.48C72.5544 358.467 72.8531 356.976 72.8531 355.008C72.8531 353.706 72.717 352.613 72.445 351.728C72.173 350.842 71.789 350.175 71.2929 349.727C70.7969 349.274 70.2101 349.047 69.5327 349.047C68.514 349.047 67.7086 349.554 67.1165 350.567C66.5245 351.576 66.2258 353.056 66.2204 355.008C66.2151 356.315 66.3458 357.413 66.6125 358.304C66.8845 359.195 67.2685 359.867 67.7646 360.32C68.2606 360.768 68.85 360.992 69.5327 360.992Z" fill="#13213C"/>
</g>
<g clip-path="url(#clip3_390_10170)">
<path d="M84.5528 -109.684C83.2353 -109.684 82.1045 -110.018 81.1604 -110.684C80.2217 -111.356 79.4989 -112.325 78.9922 -113.589C78.4908 -114.858 78.2402 -116.386 78.2402 -118.173C78.2455 -119.96 78.4988 -121.48 79.0002 -122.734C79.5069 -123.992 80.2297 -124.952 81.1684 -125.614C82.1125 -126.275 83.2406 -126.606 84.5528 -126.606C85.8649 -126.606 86.993 -126.275 87.9371 -125.614C88.8812 -124.952 89.6039 -123.992 90.1053 -122.734C90.612 -121.475 90.8654 -119.955 90.8654 -118.173C90.8654 -116.381 90.612 -114.85 90.1053 -113.581C89.6039 -112.317 88.8812 -111.351 87.9371 -110.684C86.9983 -110.018 85.8702 -109.684 84.5528 -109.684ZM84.5528 -112.189C85.5769 -112.189 86.3849 -112.693 86.977 -113.701C87.5744 -114.714 87.8731 -116.205 87.8731 -118.173C87.8731 -119.475 87.7371 -120.568 87.465 -121.453C87.193 -122.339 86.809 -123.006 86.3129 -123.454C85.8169 -123.907 85.2302 -124.134 84.5528 -124.134C83.534 -124.134 82.7286 -123.627 82.1365 -122.614C81.5445 -121.605 81.2458 -120.125 81.2404 -118.173C81.2351 -116.866 81.3658 -115.768 81.6325 -114.877C81.9045 -113.986 82.2885 -113.314 82.7846 -112.861C83.2806 -112.413 83.87 -112.189 84.5528 -112.189ZM84.7688 -92.3819V-75.9963H81.7925V-88.5895H81.6565C81.5498 -88.4242 81.3471 -88.2455 81.0484 -88.0535C80.7497 -87.8668 80.3657 -87.7068 79.8963 -87.5734C79.4323 -87.4401 78.8909 -87.3734 78.2722 -87.3734V-89.7737C78.8375 -89.7737 79.3416 -89.8723 79.7843 -90.0697C80.227 -90.267 80.603 -90.5124 80.9124 -90.8058C81.2271 -91.0991 81.4698 -91.3898 81.6405 -91.6778C81.8112 -91.9659 81.9045 -92.2006 81.9205 -92.3819H84.7688ZM78.4962 -41.9963V-44.1405L84.1847 -49.7171C84.7288 -50.2665 85.1822 -50.7545 85.5449 -51.1812C85.9076 -51.6079 86.1796 -52.0213 86.3609 -52.4213C86.5423 -52.8214 86.633 -53.2481 86.633 -53.7015C86.633 -54.2188 86.5156 -54.6616 86.2809 -55.0296C86.0462 -55.403 85.7235 -55.691 85.3128 -55.8937C84.9021 -56.0964 84.4354 -56.1977 83.9127 -56.1977C83.374 -56.1977 82.9019 -56.0857 82.4966 -55.8617C82.0912 -55.643 81.7765 -55.331 81.5525 -54.9256C81.3338 -54.5202 81.2244 -54.0375 81.2244 -53.4774H78.4002C78.4002 -54.5175 78.6375 -55.4216 79.1122 -56.1897C79.587 -56.9578 80.2403 -57.5525 81.0724 -57.9739C81.9098 -58.3952 82.8699 -58.6059 83.9527 -58.6059C85.0515 -58.6059 86.0169 -58.4006 86.849 -57.9899C87.6811 -57.5792 88.3265 -57.0164 88.7852 -56.3017C89.2492 -55.587 89.4812 -54.7709 89.4812 -53.8535C89.4812 -53.2401 89.3639 -52.6374 89.1292 -52.0453C88.8945 -51.4532 88.4811 -50.7972 87.8891 -50.0771C87.3024 -49.357 86.4783 -48.485 85.4168 -47.4609L82.5926 -44.5886V-44.4766H89.7293V-41.9963H78.4962ZM78.2402 -13.4528H81.2404C81.2778 -12.9941 81.4325 -12.5994 81.7045 -12.2687C81.9765 -11.9433 82.3339 -11.6926 82.7766 -11.5166C83.2193 -11.3459 83.7127 -11.2606 84.2567 -11.2606C84.8328 -11.2606 85.3475 -11.3592 85.8009 -11.5566C86.2543 -11.7593 86.609 -12.0473 86.865 -12.4207C87.1263 -12.7994 87.257 -13.2581 87.257 -13.7968C87.257 -14.2928 87.1317 -14.7436 86.881 -15.1489C86.6356 -15.5596 86.2596 -15.885 85.7529 -16.125C85.2462 -16.3704 84.5981 -16.4931 83.8087 -16.4931H82.1845V-18.6293L85.9769 -22.7897V-22.9017H79.0482V-25.3819H89.7213V-23.2377L85.3208 -18.5012V-18.3732C86.1316 -18.3092 86.8463 -18.1385 87.465 -17.8612C88.0891 -17.5838 88.6118 -17.2291 89.0332 -16.7971C89.4546 -16.365 89.7719 -15.8797 89.9853 -15.3409C90.1986 -14.8022 90.3053 -14.2368 90.3053 -13.6448C90.3053 -12.6847 90.0413 -11.8393 89.5132 -11.1085C88.9905 -10.3778 88.2705 -9.80442 87.353 -9.38838C86.4409 -8.97767 85.4008 -8.77232 84.2327 -8.77232C83.1126 -8.77232 82.1072 -8.96433 81.2164 -9.34837C80.331 -9.73241 79.6243 -10.2738 79.0962 -10.9725C78.5682 -11.6766 78.2828 -12.5033 78.2402 -13.4528ZM78.2002 21.9634V19.6031L84.4648 8.61809H87.337L81.2164 19.3951V19.5231H90.9454V21.9634H78.2002ZM86.0169 25.0037V21.2673L86.0809 20.1872V14.7627H88.8092V25.0037H86.0169ZM84.1927 59.2277C83.126 59.2277 82.1712 59.0277 81.3285 58.6276C80.4857 58.2223 79.8163 57.6675 79.3203 56.9635C78.8295 56.2594 78.5682 55.454 78.5362 54.5472H81.4165C81.4698 55.2193 81.7605 55.7687 82.2885 56.1954C82.8166 56.6168 83.4513 56.8275 84.1927 56.8275C84.7741 56.8275 85.2915 56.6941 85.7449 56.4274C86.1983 56.1607 86.5556 55.79 86.817 55.3153C87.0783 54.8406 87.2063 54.2992 87.201 53.6912C87.2063 53.0724 87.0757 52.523 86.809 52.043C86.5423 51.5629 86.1769 51.1869 85.7129 50.9149C85.2488 50.6375 84.7154 50.4988 84.1127 50.4988C83.622 50.4935 83.1393 50.5842 82.6646 50.7709C82.1899 50.9576 81.8138 51.2029 81.5365 51.5069L78.8562 51.0669L79.7123 42.6181H89.2172V45.0983H82.1685L81.6965 49.4427H81.7925C82.0965 49.0854 82.5259 48.7893 83.0806 48.5547C83.6353 48.3146 84.2434 48.1946 84.9048 48.1946C85.8969 48.1946 86.7823 48.4293 87.561 48.8987C88.3398 49.3627 88.9532 50.0028 89.4012 50.8189C89.8493 51.635 90.0733 52.5684 90.0733 53.6191C90.0733 54.7019 89.8226 55.6673 89.3212 56.5154C88.8252 57.3582 88.1344 58.0222 87.249 58.5076C86.3689 58.9877 85.3502 59.2277 84.1927 59.2277ZM78.3362 87.7312C78.3468 87.1764 78.4242 86.619 78.5682 86.059C78.7175 85.4936 78.9522 84.8962 79.2723 84.2668C79.5923 83.6321 80.011 82.9334 80.5284 82.1706L84.2887 76.6181H87.329L83.2406 82.6027C83.438 82.5493 83.6433 82.5067 83.8567 82.4747C84.07 82.4373 84.2887 82.4186 84.5128 82.4186C85.5102 82.4186 86.3983 82.6453 87.177 83.0987C87.9611 83.5521 88.5771 84.1788 89.0252 84.9789C89.4732 85.779 89.6973 86.6991 89.6973 87.7392C89.6973 88.8219 89.4519 89.7767 88.9612 90.6034C88.4758 91.4248 87.8064 92.0676 86.953 92.5316C86.1049 92.9957 85.1395 93.2277 84.0567 93.2277C82.9953 93.2277 82.0299 93.0037 81.1604 92.5556C80.2964 92.1076 79.6083 91.4728 79.0962 90.6514C78.5842 89.83 78.3308 88.8566 78.3362 87.7312ZM81.2244 87.7952C81.2244 88.3872 81.3418 88.9126 81.5765 89.3713C81.8165 89.83 82.1472 90.1901 82.5686 90.4514C82.9953 90.7128 83.486 90.8435 84.0407 90.8435C84.5901 90.8435 85.0755 90.7154 85.4969 90.4594C85.9182 90.1981 86.2489 89.8407 86.4889 89.3873C86.729 88.9286 86.849 88.4032 86.849 87.8112C86.849 87.2191 86.729 86.6964 86.4889 86.243C86.2489 85.7843 85.9182 85.4269 85.4969 85.1709C85.0755 84.9096 84.5901 84.7789 84.0407 84.7789C83.486 84.7789 82.9953 84.9069 82.5686 85.1629C82.1472 85.4189 81.8165 85.7736 81.5765 86.227C81.3418 86.6804 81.2244 87.2031 81.2244 87.7952ZM79.0962 127.004L86.0649 113.21V113.098H77.9761V110.618H89.1372V113.154L82.1765 127.004H79.0962ZM84.3207 160.228C83.1313 160.228 82.0752 160.028 81.1524 159.628C80.235 159.228 79.5149 158.681 78.9922 157.987C78.4748 157.289 78.2188 156.497 78.2242 155.611C78.2188 154.923 78.3682 154.291 78.6722 153.715C78.9762 153.139 79.3869 152.659 79.9043 152.275C80.427 151.886 81.0084 151.638 81.6485 151.531V151.419C80.8057 151.232 80.123 150.803 79.6003 150.131C79.0829 149.453 78.8269 148.672 78.8322 147.786C78.8269 146.944 79.0616 146.192 79.5363 145.53C80.011 144.869 80.6617 144.349 81.4885 143.97C82.3152 143.586 83.2593 143.394 84.3207 143.394C85.3715 143.394 86.3076 143.586 87.129 143.97C87.9558 144.349 88.6065 144.869 89.0812 145.53C89.5612 146.192 89.8013 146.944 89.8013 147.786C89.8013 148.672 89.5372 149.453 89.0092 150.131C88.4865 150.803 87.8117 151.232 86.985 151.419V151.531C87.6251 151.638 88.2011 151.886 88.7132 152.275C89.2305 152.659 89.6412 153.139 89.9453 153.715C90.2546 154.291 90.4093 154.923 90.4093 155.611C90.4093 156.497 90.148 157.289 89.6252 157.987C89.1025 158.681 88.3825 159.228 87.465 159.628C86.553 160.028 85.5049 160.228 84.3207 160.228ZM84.3207 157.939C84.9341 157.939 85.4675 157.835 85.9209 157.627C86.3743 157.414 86.7263 157.115 86.977 156.731C87.2277 156.347 87.3557 155.905 87.361 155.403C87.3557 154.881 87.2197 154.419 86.953 154.019C86.6916 153.614 86.3316 153.296 85.8729 153.067C85.4195 152.838 84.9021 152.723 84.3207 152.723C83.734 152.723 83.2113 152.838 82.7526 153.067C82.2939 153.296 81.9312 153.614 81.6645 154.019C81.4031 154.419 81.2751 154.881 81.2804 155.403C81.2751 155.905 81.3978 156.347 81.6485 156.731C81.8992 157.11 82.2512 157.406 82.7046 157.619C83.1633 157.833 83.702 157.939 84.3207 157.939ZM84.3207 150.475C84.8221 150.475 85.2648 150.373 85.6489 150.171C86.0382 149.968 86.3449 149.685 86.569 149.323C86.793 148.96 86.9077 148.541 86.913 148.067C86.9077 147.597 86.7956 147.186 86.577 146.834C86.3583 146.477 86.0542 146.202 85.6649 146.01C85.2755 145.813 84.8275 145.714 84.3207 145.714C83.8034 145.714 83.3473 145.813 82.9526 146.01C82.5632 146.202 82.2592 146.477 82.0405 146.834C81.8272 147.186 81.7232 147.597 81.7285 148.067C81.7232 148.541 81.8298 148.96 82.0485 149.323C82.2725 149.68 82.5792 149.963 82.9686 150.171C83.3633 150.373 83.814 150.475 84.3207 150.475ZM78.1841 182.883C78.1841 181.8 78.4268 180.848 78.9122 180.026C79.3976 179.2 80.0643 178.554 80.9124 178.09C81.7658 177.626 82.7366 177.394 83.8247 177.394C84.8808 177.394 85.8409 177.618 86.705 178.066C87.5744 178.509 88.2651 179.141 88.7772 179.962C89.2945 180.784 89.5479 181.76 89.5372 182.891C89.5319 183.445 89.4546 184.005 89.3052 184.571C89.1559 185.131 88.9212 185.728 88.6011 186.363C88.2811 186.992 87.8651 187.688 87.353 188.451L83.5927 194.004H80.5444L84.6408 188.003C84.4381 188.062 84.2301 188.11 84.0167 188.147C83.8087 188.184 83.5927 188.203 83.3686 188.203C82.3659 188.203 81.4725 187.976 80.6884 187.523C79.9096 187.07 79.2963 186.443 78.8482 185.643C78.4055 184.843 78.1841 183.923 78.1841 182.883ZM81.0324 182.811C81.0324 183.403 81.1524 183.928 81.3925 184.387C81.6325 184.84 81.9632 185.197 82.3846 185.459C82.8059 185.715 83.2913 185.843 83.8407 185.843C84.3901 185.843 84.8755 185.715 85.2968 185.459C85.7235 185.203 86.0569 184.848 86.2969 184.395C86.537 183.941 86.657 183.419 86.657 182.827C86.657 182.229 86.537 181.704 86.2969 181.25C86.0569 180.792 85.7235 180.432 85.2968 180.17C84.8755 179.909 84.3901 179.778 83.8407 179.778C83.2913 179.778 82.8033 179.909 82.3766 180.17C81.9552 180.426 81.6245 180.784 81.3845 181.242C81.1498 181.696 81.0324 182.219 81.0324 182.811ZM84.5528 228.316C83.2353 228.316 82.1045 227.982 81.1604 227.316C80.2217 226.644 79.4989 225.675 78.9922 224.411C78.4908 223.142 78.2402 221.614 78.2402 219.827C78.2455 218.04 78.4988 216.52 79.0002 215.266C79.5069 214.008 80.2297 213.048 81.1684 212.386C82.1125 211.725 83.2406 211.394 84.5528 211.394C85.8649 211.394 86.993 211.725 87.9371 212.386C88.8812 213.048 89.6039 214.008 90.1053 215.266C90.612 216.525 90.8654 218.045 90.8654 219.827C90.8654 221.619 90.612 223.15 90.1053 224.419C89.6039 225.683 88.8812 226.649 87.9371 227.316C86.9983 227.982 85.8702 228.316 84.5528 228.316ZM84.5528 225.811C85.5769 225.811 86.3849 225.307 86.977 224.299C87.5744 223.286 87.8731 221.795 87.8731 219.827C87.8731 218.525 87.7371 217.432 87.465 216.547C87.193 215.661 86.809 214.994 86.3129 214.546C85.8169 214.093 85.2302 213.866 84.5528 213.866C83.534 213.866 82.7286 214.373 82.1365 215.386C81.5445 216.395 81.2458 217.875 81.2404 219.827C81.2351 221.134 81.3658 222.232 81.6325 223.123C81.9045 224.014 82.2885 224.686 82.7846 225.139C83.2806 225.587 83.87 225.811 84.5528 225.811Z" fill="#13213C"/>
</g>
<g clip-path="url(#clip4_390_10170)">
<path d="M99.5733 -75.889C98.2558 -75.889 97.125 -76.2224 96.1809 -76.8891C95.2422 -77.5612 94.5194 -78.5293 94.0127 -79.7934C93.5114 -81.0628 93.2607 -82.591 93.2607 -84.3778C93.266 -86.1647 93.5194 -87.6848 94.0207 -88.9383C94.5275 -90.1971 95.2502 -91.1572 96.1889 -91.8185C97.133 -92.4799 98.2611 -92.8106 99.5733 -92.8106C100.885 -92.8106 102.014 -92.4799 102.958 -91.8185C103.902 -91.1572 104.624 -90.1971 105.126 -88.9383C105.633 -87.6795 105.886 -86.1593 105.886 -84.3778C105.886 -82.5857 105.633 -81.0548 105.126 -79.7854C104.624 -78.5213 103.902 -77.5558 102.958 -76.8891C102.019 -76.2224 100.891 -75.889 99.5733 -75.889ZM99.5733 -78.3933C100.597 -78.3933 101.405 -78.8973 101.998 -79.9054C102.595 -80.9188 102.894 -82.4096 102.894 -84.3778C102.894 -85.6793 102.758 -86.7727 102.486 -87.6581C102.214 -88.5436 101.829 -89.2103 101.333 -89.6583C100.837 -90.1117 100.251 -90.3384 99.5733 -90.3384C98.5545 -90.3384 97.7491 -89.8317 97.157 -88.8183C96.565 -87.8102 96.2663 -86.33 96.261 -84.3778C96.2556 -83.071 96.3863 -81.9723 96.653 -81.0815C96.925 -80.1908 97.3091 -79.5187 97.8051 -79.0653C98.3011 -78.6173 98.8905 -78.3933 99.5733 -78.3933ZM99.7893 -58.5866V-42.201H96.813V-54.7943H96.677C96.5703 -54.6289 96.3676 -54.4502 96.0689 -54.2582C95.7702 -54.0715 95.3862 -53.9115 94.9168 -53.7782C94.4528 -53.6448 93.9114 -53.5781 93.2927 -53.5781V-55.9784C93.8581 -55.9784 94.3621 -56.077 94.8048 -56.2744C95.2475 -56.4718 95.6236 -56.7171 95.9329 -57.0105C96.2476 -57.3038 96.4903 -57.5945 96.661 -57.8826C96.8317 -58.1706 96.925 -58.4053 96.941 -58.5866H99.7893ZM93.5167 -8.20105V-10.3453L99.2052 -15.9218C99.7493 -16.4712 100.203 -16.9592 100.565 -17.3859C100.928 -17.8126 101.2 -18.226 101.381 -18.6261C101.563 -19.0261 101.653 -19.4528 101.653 -19.9062C101.653 -20.4236 101.536 -20.8663 101.301 -21.2343C101.067 -21.6077 100.744 -21.8957 100.333 -22.0984C99.9226 -22.3011 99.4559 -22.4024 98.9332 -22.4024C98.3945 -22.4024 97.9224 -22.2904 97.5171 -22.0664C97.1117 -21.8477 96.797 -21.5357 96.573 -21.1303C96.3543 -20.7249 96.2449 -20.2422 96.2449 -19.6822H93.4207C93.4207 -20.7223 93.658 -21.6263 94.1327 -22.3944C94.6075 -23.1625 95.2609 -23.7572 96.0929 -24.1786C96.9303 -24.6 97.8904 -24.8106 98.9732 -24.8106C100.072 -24.8106 101.037 -24.6053 101.869 -24.1946C102.702 -23.7839 103.347 -23.2212 103.806 -22.5064C104.27 -21.7917 104.502 -20.9756 104.502 -20.0582C104.502 -19.4448 104.384 -18.8421 104.15 -18.25C103.915 -17.658 103.502 -17.0019 102.91 -16.2818C102.323 -15.5618 101.499 -14.6897 100.437 -13.6656L97.6131 -10.7933V-10.6813H104.75V-8.20105H93.5167ZM93.2607 20.3425H96.261C96.2983 20.8012 96.453 21.1959 96.725 21.5266C96.997 21.852 97.3544 22.1027 97.7971 22.2787C98.2398 22.4494 98.7332 22.5347 99.2772 22.5347C99.8533 22.5347 100.368 22.4361 100.821 22.2387C101.275 22.036 101.629 21.748 101.885 21.3746C102.147 20.9959 102.278 20.5372 102.278 19.9985C102.278 19.5024 102.152 19.0517 101.901 18.6464C101.656 18.2357 101.28 17.9103 100.773 17.6703C100.267 17.4249 99.6186 17.3022 98.8292 17.3022H97.205V15.166L100.997 11.0056V10.8936H94.0687V8.41338H104.742V10.5576L100.341 15.294V15.4221C101.152 15.4861 101.867 15.6567 102.486 15.9341C103.11 16.2115 103.632 16.5662 104.054 16.9982C104.475 17.4302 104.792 17.9156 105.006 18.4543C105.219 18.9931 105.326 19.5584 105.326 20.1505C105.326 21.1106 105.062 21.956 104.534 22.6867C104.011 23.4175 103.291 23.9909 102.374 24.4069C101.461 24.8176 100.421 25.023 99.2532 25.023C98.1331 25.023 97.1277 24.831 96.2369 24.4469C95.3515 24.0629 94.6448 23.5215 94.1167 22.8228C93.5887 22.1187 93.3033 21.2919 93.2607 20.3425ZM93.2207 55.7587V53.3984L99.4853 42.4134H102.358L96.2369 53.1904V53.3184H105.966V55.7587H93.2207ZM101.037 58.799V55.0626L101.101 53.9825V48.558H103.83V58.799H101.037ZM99.2132 93.023C98.1465 93.023 97.1917 92.823 96.349 92.4229C95.5062 92.0175 94.8368 91.4628 94.3408 90.7588C93.8501 90.0547 93.5887 89.2493 93.5567 88.3425H96.437C96.4903 89.0146 96.781 89.564 97.3091 89.9907C97.8371 90.4121 98.4718 90.6227 99.2132 90.6227C99.7946 90.6227 100.312 90.4894 100.765 90.2227C101.219 89.956 101.576 89.5853 101.837 89.1106C102.099 88.6359 102.227 88.0945 102.222 87.4864C102.227 86.8677 102.096 86.3183 101.829 85.8383C101.563 85.3582 101.197 84.9822 100.733 84.7102C100.269 84.4328 99.736 84.2941 99.1332 84.2941C98.6425 84.2888 98.1598 84.3795 97.6851 84.5662C97.2104 84.7528 96.8343 84.9982 96.557 85.3022L93.8767 84.8622L94.7328 76.4134H104.238V78.8936H97.189L96.717 83.238H96.813C97.117 82.8807 97.5464 82.5846 98.1011 82.3499C98.6558 82.1099 99.2639 81.9899 99.9253 81.9899C100.917 81.9899 101.803 82.2246 102.582 82.694C103.36 83.158 103.974 83.7981 104.422 84.6142C104.87 85.4302 105.094 86.3637 105.094 87.4144C105.094 88.4972 104.843 89.4626 104.342 90.3107C103.846 91.1535 103.155 91.8175 102.27 92.3029C101.389 92.7829 100.371 93.023 99.2132 93.023ZM93.3567 121.526C93.3673 120.972 93.4447 120.414 93.5887 119.854C93.738 119.289 93.9727 118.692 94.2928 118.062C94.6128 117.427 95.0315 116.729 95.5489 115.966L99.3092 110.413H102.35L98.2611 116.398C98.4585 116.345 98.6638 116.302 98.8772 116.27C99.0906 116.233 99.3092 116.214 99.5333 116.214C100.531 116.214 101.419 116.441 102.198 116.894C102.982 117.347 103.598 117.974 104.046 118.774C104.494 119.574 104.718 120.494 104.718 121.534C104.718 122.617 104.472 123.572 103.982 124.399C103.496 125.22 102.827 125.863 101.973 126.327C101.125 126.791 100.16 127.023 99.0772 127.023C98.0158 127.023 97.0504 126.799 96.1809 126.351C95.3169 125.903 94.6288 125.268 94.1167 124.447C93.6047 123.625 93.3513 122.652 93.3567 121.526ZM96.2449 121.59C96.2449 122.183 96.3623 122.708 96.597 123.167C96.837 123.625 97.1677 123.985 97.5891 124.247C98.0158 124.508 98.5065 124.639 99.0612 124.639C99.6106 124.639 100.096 124.511 100.517 124.255C100.939 123.993 101.269 123.636 101.509 123.183C101.749 122.724 101.869 122.199 101.869 121.606C101.869 121.014 101.749 120.492 101.509 120.038C101.269 119.58 100.939 119.222 100.517 118.966C100.096 118.705 99.6106 118.574 99.0612 118.574C98.5065 118.574 98.0158 118.702 97.5891 118.958C97.1677 119.214 96.837 119.569 96.597 120.022C96.3623 120.476 96.2449 120.998 96.2449 121.59ZM94.1167 160.799L101.085 147.006V146.894H92.9966V144.413H104.158V146.95L97.197 160.799H94.1167ZM99.3412 194.023C98.1518 194.023 97.0957 193.823 96.1729 193.423C95.2555 193.023 94.5355 192.476 94.0127 191.783C93.4954 191.084 93.2393 190.292 93.2447 189.407C93.2393 188.718 93.3887 188.086 93.6927 187.51C93.9967 186.934 94.4074 186.454 94.9248 186.07C95.4475 185.681 96.0289 185.433 96.669 185.326V185.214C95.8262 185.027 95.1435 184.598 94.6208 183.926C94.1034 183.249 93.8474 182.467 93.8527 181.582C93.8474 180.739 94.0821 179.987 94.5568 179.326C95.0315 178.664 95.6822 178.144 96.509 177.765C97.3357 177.381 98.2798 177.189 99.3412 177.189C100.392 177.189 101.328 177.381 102.15 177.765C102.976 178.144 103.627 178.664 104.102 179.326C104.582 179.987 104.822 180.739 104.822 181.582C104.822 182.467 104.558 183.249 104.03 183.926C103.507 184.598 102.832 185.027 102.006 185.214V185.326C102.646 185.433 103.222 185.681 103.734 186.07C104.251 186.454 104.662 186.934 104.966 187.51C105.275 188.086 105.43 188.718 105.43 189.407C105.43 190.292 105.168 191.084 104.646 191.783C104.123 192.476 103.403 193.023 102.486 193.423C101.573 193.823 100.525 194.023 99.3412 194.023ZM99.3412 191.735C99.9546 191.735 100.488 191.631 100.941 191.423C101.395 191.209 101.747 190.911 101.998 190.527C102.248 190.143 102.376 189.7 102.382 189.199C102.376 188.676 102.24 188.214 101.973 187.814C101.712 187.409 101.352 187.092 100.893 186.862C100.44 186.633 99.9226 186.518 99.3412 186.518C98.7545 186.518 98.2318 186.633 97.7731 186.862C97.3144 187.092 96.9517 187.409 96.685 187.814C96.4236 188.214 96.2956 188.676 96.301 189.199C96.2956 189.7 96.4183 190.143 96.669 190.527C96.9197 190.905 97.2717 191.201 97.7251 191.415C98.1838 191.628 98.7225 191.735 99.3412 191.735ZM99.3412 184.27C99.8426 184.27 100.285 184.169 100.669 183.966C101.059 183.763 101.365 183.481 101.589 183.118C101.813 182.755 101.928 182.337 101.933 181.862C101.928 181.392 101.816 180.982 101.597 180.63C101.379 180.272 101.075 179.998 100.685 179.806C100.296 179.608 99.848 179.51 99.3412 179.51C98.8239 179.51 98.3678 179.608 97.9731 179.806C97.5837 179.998 97.2797 180.272 97.061 180.63C96.8477 180.982 96.7437 181.392 96.749 181.862C96.7437 182.337 96.8503 182.755 97.069 183.118C97.293 183.475 97.5997 183.758 97.9891 183.966C98.3838 184.169 98.8345 184.27 99.3412 184.27ZM93.2047 216.678C93.2047 215.595 93.4473 214.643 93.9327 213.822C94.4181 212.995 95.0848 212.349 95.9329 211.885C96.7863 211.421 97.7571 211.189 98.8452 211.189C99.9013 211.189 100.861 211.413 101.725 211.861C102.595 212.304 103.286 212.936 103.798 213.758C104.315 214.579 104.568 215.555 104.558 216.686C104.552 217.241 104.475 217.801 104.326 218.366C104.176 218.926 103.942 219.523 103.622 220.158C103.302 220.788 102.886 221.484 102.374 222.246L98.6132 227.799H95.5649L99.6613 221.798C99.4586 221.857 99.2506 221.905 99.0372 221.942C98.8292 221.98 98.6132 221.998 98.3892 221.998C97.3864 221.998 96.493 221.772 95.7089 221.318C94.9302 220.865 94.3168 220.238 93.8687 219.438C93.426 218.638 93.2047 217.718 93.2047 216.678ZM96.0529 216.606C96.0529 217.198 96.1729 217.723 96.413 218.182C96.653 218.635 96.9837 218.993 97.4051 219.254C97.8264 219.51 98.3118 219.638 98.8612 219.638C99.4106 219.638 99.896 219.51 100.317 219.254C100.744 218.998 101.077 218.643 101.317 218.19C101.557 217.737 101.677 217.214 101.677 216.622C101.677 216.024 101.557 215.499 101.317 215.046C101.077 214.587 100.744 214.227 100.317 213.966C99.896 213.704 99.4106 213.574 98.8612 213.574C98.3118 213.574 97.8238 213.704 97.3971 213.966C96.9757 214.222 96.645 214.579 96.405 215.038C96.1703 215.491 96.0529 216.014 96.0529 216.606ZM99.5733 262.111C98.2558 262.111 97.125 261.778 96.1809 261.111C95.2422 260.439 94.5194 259.471 94.0127 258.207C93.5114 256.937 93.2607 255.409 93.2607 253.622C93.266 251.835 93.5194 250.315 94.0207 249.062C94.5275 247.803 95.2502 246.843 96.1889 246.181C97.133 245.52 98.2611 245.189 99.5733 245.189C100.885 245.189 102.014 245.52 102.958 246.181C103.902 246.843 104.624 247.803 105.126 249.062C105.633 250.321 105.886 251.841 105.886 253.622C105.886 255.414 105.633 256.945 105.126 258.215C104.624 259.479 103.902 260.444 102.958 261.111C102.019 261.778 100.891 262.111 99.5733 262.111ZM99.5733 259.607C100.597 259.607 101.405 259.103 101.998 258.095C102.595 257.081 102.894 255.59 102.894 253.622C102.894 252.321 102.758 251.227 102.486 250.342C102.214 249.456 101.829 248.79 101.333 248.342C100.837 247.888 100.251 247.662 99.5733 247.662C98.5545 247.662 97.7491 248.168 97.157 249.182C96.565 250.19 96.2663 251.67 96.261 253.622C96.2556 254.929 96.3863 256.028 96.653 256.918C96.925 257.809 97.3091 258.481 97.8051 258.935C98.3011 259.383 98.8905 259.607 99.5733 259.607Z" fill="#13213C"/>
</g>
<path d="M126.058 87.835V82.5545H126.954V87.835H126.058ZM123.866 85.6428V84.7467H129.146V85.6428H123.866ZM133.692 81.0824V89.2751H132.699V82.5225H132.635C132.598 82.5972 132.502 82.6825 132.347 82.7785C132.193 82.8719 131.993 82.9545 131.747 83.0265C131.502 83.0959 131.222 83.1306 130.907 83.1306V82.2985C131.225 82.2985 131.499 82.2411 131.731 82.1265C131.963 82.0118 132.157 81.8771 132.311 81.7224C132.469 81.5677 132.587 81.4277 132.667 81.3024C132.75 81.177 132.798 81.1037 132.811 81.0824H133.692ZM138.664 81.0824V89.2751H137.672V82.5225H137.608C137.571 82.5972 137.475 82.6825 137.32 82.7785C137.165 82.8719 136.965 82.9545 136.72 83.0265C136.474 83.0959 136.194 83.1306 135.88 83.1306V82.2985C136.197 82.2985 136.472 82.2411 136.704 82.1265C136.936 82.0118 137.129 81.8771 137.284 81.7224C137.441 81.5677 137.56 81.4277 137.64 81.3024C137.723 81.177 137.771 81.1037 137.784 81.0824H138.664ZM141.232 89.3392C141.035 89.3392 140.866 89.2685 140.724 89.1271C140.583 88.9858 140.512 88.8164 140.512 88.6191C140.512 88.4217 140.583 88.2524 140.724 88.111C140.866 87.9697 141.035 87.899 141.232 87.899C141.43 87.899 141.599 87.9697 141.74 88.111C141.882 88.2524 141.952 88.4217 141.952 88.6191C141.952 88.7498 141.919 88.8698 141.852 88.9791C141.788 89.0885 141.702 89.1765 141.592 89.2431C141.486 89.3071 141.366 89.3392 141.232 89.3392ZM146.017 89.3872C145.414 89.3872 144.901 89.2231 144.477 88.8951C144.052 88.5644 143.728 88.0857 143.504 87.459C143.28 86.8296 143.168 86.0695 143.168 85.1788C143.168 84.2933 143.28 83.5373 143.504 82.9105C143.731 82.2811 144.056 81.8011 144.481 81.4704C144.907 81.137 145.419 80.9703 146.017 80.9703C146.614 80.9703 147.125 81.137 147.549 81.4704C147.976 81.8011 148.301 82.2811 148.525 82.9105C148.752 83.5373 148.865 84.2933 148.865 85.1788C148.865 86.0695 148.753 86.8296 148.529 87.459C148.305 88.0857 147.981 88.5644 147.557 88.8951C147.133 89.2231 146.619 89.3872 146.017 89.3872ZM146.017 88.5071C146.614 88.5071 147.078 88.219 147.409 87.643C147.74 87.0669 147.905 86.2455 147.905 85.1788C147.905 84.4694 147.829 83.8653 147.677 83.3666C147.527 82.8679 147.311 82.4878 147.029 82.2265C146.749 81.9651 146.411 81.8344 146.017 81.8344C145.425 81.8344 144.962 82.1265 144.629 82.7105C144.295 83.2919 144.129 84.1147 144.129 85.1788C144.129 85.8882 144.203 86.4909 144.353 86.9869C144.502 87.483 144.717 87.8603 144.997 88.119C145.279 88.3777 145.619 88.5071 146.017 88.5071ZM150.385 89.2751V88.5551L153.089 85.5948C153.407 85.2481 153.668 84.9467 153.873 84.6907C154.079 84.432 154.231 84.1893 154.329 83.9626C154.431 83.7333 154.481 83.4933 154.481 83.2426C154.481 82.9545 154.412 82.7052 154.273 82.4945C154.137 82.2838 153.951 82.1211 153.713 82.0064C153.476 81.8918 153.209 81.8344 152.913 81.8344C152.599 81.8344 152.324 81.8998 152.089 82.0305C151.857 82.1585 151.677 82.3385 151.549 82.5705C151.424 82.8025 151.361 83.0746 151.361 83.3866H150.417C150.417 82.9065 150.528 82.4852 150.749 82.1225C150.97 81.7598 151.272 81.4771 151.653 81.2744C152.037 81.0717 152.468 80.9703 152.945 80.9703C153.425 80.9703 153.851 81.0717 154.221 81.2744C154.592 81.4771 154.883 81.7504 155.094 82.0945C155.304 82.4385 155.41 82.8212 155.41 83.2426C155.41 83.5439 155.355 83.8386 155.246 84.1267C155.139 84.412 154.952 84.7307 154.686 85.0827C154.421 85.4321 154.055 85.8588 153.585 86.3629L151.745 88.3311V88.3951H155.554V89.2751H150.385ZM161.382 87.739V87.307C161.382 87.0083 161.443 86.7349 161.566 86.4869C161.692 86.2362 161.873 86.0362 162.11 85.8868C162.35 85.7348 162.641 85.6588 162.982 85.6588C163.329 85.6588 163.62 85.7348 163.854 85.8868C164.089 86.0362 164.266 86.2362 164.386 86.4869C164.506 86.7349 164.566 87.0083 164.566 87.307V87.739C164.566 88.0377 164.505 88.3124 164.382 88.5631C164.262 88.8111 164.084 89.0111 163.846 89.1631C163.612 89.3125 163.324 89.3872 162.982 89.3872C162.636 89.3872 162.344 89.3125 162.106 89.1631C161.869 89.0111 161.689 88.8111 161.566 88.5631C161.443 88.3124 161.382 88.0377 161.382 87.739ZM162.198 87.307V87.739C162.198 87.987 162.257 88.2097 162.374 88.4071C162.492 88.6017 162.694 88.6991 162.982 88.6991C163.262 88.6991 163.46 88.6017 163.574 88.4071C163.692 88.2097 163.75 87.987 163.75 87.739V87.307C163.75 87.0589 163.694 86.8376 163.582 86.6429C163.47 86.4455 163.27 86.3469 162.982 86.3469C162.702 86.3469 162.501 86.4455 162.378 86.6429C162.258 86.8376 162.198 87.0589 162.198 87.307ZM157.302 83.0505V82.6185C157.302 82.3198 157.363 82.0465 157.486 81.7984C157.611 81.5477 157.792 81.3477 158.03 81.1984C158.27 81.0464 158.561 80.9703 158.902 80.9703C159.249 80.9703 159.539 81.0464 159.774 81.1984C160.009 81.3477 160.186 81.5477 160.306 81.7984C160.426 82.0465 160.486 82.3198 160.486 82.6185V83.0505C160.486 83.3492 160.425 83.6239 160.302 83.8746C160.182 84.1227 160.003 84.3227 159.766 84.4747C159.531 84.624 159.243 84.6987 158.902 84.6987C158.555 84.6987 158.263 84.624 158.026 84.4747C157.788 84.3227 157.608 84.1227 157.486 83.8746C157.363 83.6239 157.302 83.3492 157.302 83.0505ZM158.118 82.6185V83.0505C158.118 83.2986 158.177 83.5213 158.294 83.7186C158.411 83.9133 158.614 84.0106 158.902 84.0106C159.182 84.0106 159.379 83.9133 159.494 83.7186C159.611 83.5213 159.67 83.2986 159.67 83.0505V82.6185C159.67 82.3705 159.614 82.1491 159.502 81.9544C159.39 81.7571 159.19 81.6584 158.902 81.6584C158.622 81.6584 158.421 81.7571 158.298 81.9544C158.178 82.1491 158.118 82.3705 158.118 82.6185ZM157.606 89.2751L163.238 81.0824H164.15L158.518 89.2751H157.606Z" fill="#13213C"/>
<path fill-rule="evenodd" clip-rule="evenodd" d="M177.485 82.5294L182.691 81.0201L181.395 86.2829L179.779 84.7312L177.172 87.4471C177.083 87.5393 176.961 87.5914 176.833 87.5914C176.705 87.5914 176.583 87.5393 176.495 87.4471L174.58 85.4529L171.765 88.3859C171.585 88.5729 171.288 88.5789 171.101 88.3994C170.914 88.2199 170.908 87.9228 171.087 87.7358L174.242 84.4501C174.33 84.3579 174.452 84.3058 174.58 84.3058C174.708 84.3058 174.83 84.3579 174.919 84.4501L176.833 86.4443L179.102 84.0811L177.485 82.5294Z" fill="#13213C"/>
<defs>
<clipPath id="clip0_390_10170">
<path d="M40 71.5302C40 69.4563 41.6812 67.7751 43.755 67.7751H51.2651C53.3389 67.7751 55.0201 69.4563 55.0201 71.5302V97.8154C55.0201 99.8892 53.3389 101.57 51.2651 101.57H43.755C41.6812 101.57 40 99.8892 40 97.8154V71.5302Z" fill="white"/>
</clipPath>
<clipPath id="clip1_390_10170">
<path d="M55.02 71.2751C55.02 69.3421 56.587 67.7751 58.52 67.7751C60.453 67.7751 62.02 69.3421 62.02 71.2751V98.2751C62.02 100.208 60.453 101.775 58.52 101.775C56.587 101.775 55.02 100.208 55.02 98.2751V71.2751Z" fill="white"/>
</clipPath>
<clipPath id="clip2_390_10170">
<path d="M62.02 71.5302C62.02 69.4563 63.7012 67.7751 65.775 67.7751H73.2851C75.3589 67.7751 77.0401 69.4563 77.0401 71.5302V97.8154C77.0401 99.8892 75.3589 101.57 73.2851 101.57H65.775C63.7012 101.57 62.02 99.8892 62.02 97.8154V71.5302Z" fill="white"/>
</clipPath>
<clipPath id="clip3_390_10170">
<path d="M77.04 71.5302C77.04 69.4563 78.7212 67.7751 80.7951 67.7751H88.3051C90.379 67.7751 92.0601 69.4563 92.0601 71.5302V97.8154C92.0601 99.8892 90.379 101.57 88.3051 101.57H80.7951C78.7212 101.57 77.04 99.8892 77.04 97.8154V71.5302Z" fill="white"/>
</clipPath>
<clipPath id="clip4_390_10170">
<path d="M92.0605 71.5302C92.0605 69.4563 93.7417 67.7751 95.8156 67.7751H103.326C105.399 67.7751 107.081 69.4563 107.081 71.5302V97.8154C107.081 99.8892 105.399 101.57 103.326 101.57H95.8156C93.7417 101.57 92.0605 99.8892 92.0605 97.8154V71.5302Z" fill="white"/>
</clipPath>
</defs>
</svg>
