<svg width="225" height="129" viewBox="0 0 225 129" fill="none" xmlns="http://www.w3.org/2000/svg">
<rect width="224.852" height="128.812" rx="10" fill="#3CC3FF"/>
<path d="M41.3307 31.7912L43.7677 38.7013H43.8639L46.3009 31.7912H47.343L44.3289 40H43.3028L40.2886 31.7912H41.3307ZM48.4934 40V33.8434H49.4393V40H48.4934ZM48.9744 32.8173C48.79 32.8173 48.631 32.7545 48.4974 32.6289C48.3665 32.5033 48.301 32.3523 48.301 32.176C48.301 31.9996 48.3665 31.8486 48.4974 31.723C48.631 31.5974 48.79 31.5347 48.9744 31.5347C49.1588 31.5347 49.3164 31.5974 49.4474 31.723C49.581 31.8486 49.6478 31.9996 49.6478 32.176C49.6478 32.3523 49.581 32.5033 49.4474 32.6289C49.3164 32.7545 49.1588 32.8173 48.9744 32.8173ZM55.5328 35.2222L54.6831 35.4627C54.6296 35.3211 54.5508 35.1835 54.4466 35.0499C54.3451 34.9136 54.2061 34.8013 54.0297 34.7132C53.8534 34.625 53.6276 34.5809 53.3524 34.5809C52.9756 34.5809 52.6616 34.6677 52.4104 34.8414C52.1619 35.0124 52.0377 35.2302 52.0377 35.4948C52.0377 35.7299 52.1232 35.9156 52.2942 36.0519C52.4652 36.1882 52.7324 36.3018 53.0958 36.3926L54.0097 36.6171C54.5602 36.7507 54.9703 36.9551 55.2402 37.2303C55.5101 37.5029 55.6451 37.8543 55.6451 38.2845C55.6451 38.6372 55.5435 38.9525 55.3404 39.2304C55.14 39.5083 54.8594 39.7274 54.4987 39.8878C54.138 40.0481 53.7184 40.1283 53.2401 40.1283C52.6122 40.1283 52.0924 39.992 51.6809 39.7194C51.2694 39.4469 51.0089 39.0487 50.8993 38.525L51.7972 38.3005C51.8827 38.6319 52.0443 38.8804 52.2822 39.046C52.5227 39.2117 52.8366 39.2946 53.2241 39.2946C53.665 39.2946 54.0151 39.201 54.2743 39.014C54.5361 38.8243 54.6671 38.5971 54.6671 38.3326C54.6671 38.1188 54.5922 37.9398 54.4426 37.7955C54.293 37.6485 54.0632 37.539 53.7532 37.4668L52.7271 37.2263C52.1633 37.0927 51.7491 36.8856 51.4845 36.605C51.2227 36.3218 51.0917 35.9677 51.0917 35.5429C51.0917 35.1955 51.1893 34.8882 51.3843 34.621C51.5821 34.3538 51.8506 34.144 52.19 33.9917C52.532 33.8394 52.9195 33.7632 53.3524 33.7632C53.9616 33.7632 54.4399 33.8968 54.7873 34.164C55.1374 34.4313 55.3859 34.784 55.5328 35.2222ZM57.069 40V33.8434H58.0149V40H57.069ZM57.55 32.8173C57.3656 32.8173 57.2066 32.7545 57.073 32.6289C56.9421 32.5033 56.8766 32.3523 56.8766 32.176C56.8766 31.9996 56.9421 31.8486 57.073 31.723C57.2066 31.5974 57.3656 31.5347 57.55 31.5347C57.7343 31.5347 57.892 31.5974 58.0229 31.723C58.1565 31.8486 58.2233 31.9996 58.2233 32.176C58.2233 32.3523 58.1565 32.5033 58.0229 32.6289C57.892 32.7545 57.7343 32.8173 57.55 32.8173ZM62.425 33.8434V34.645H59.2344V33.8434H62.425ZM60.1643 32.3684H61.1103V38.2364C61.1103 38.5036 61.149 38.704 61.2265 38.8376C61.3067 38.9686 61.4082 39.0567 61.5311 39.1022C61.6567 39.1449 61.789 39.1663 61.9279 39.1663C62.0321 39.1663 62.1177 39.1609 62.1845 39.1503C62.2513 39.1369 62.3047 39.1262 62.3448 39.1182L62.5372 39.9679C62.4731 39.992 62.3835 40.016 62.2686 40.0401C62.1537 40.0668 62.0081 40.0802 61.8317 40.0802C61.5645 40.0802 61.3027 40.0227 61.0461 39.9078C60.7923 39.7929 60.5812 39.6179 60.4128 39.3827C60.2472 39.1476 60.1643 38.851 60.1643 38.4929V32.3684ZM68.0986 35.2222L67.2488 35.4627C67.1954 35.3211 67.1166 35.1835 67.0124 35.0499C66.9108 34.9136 66.7719 34.8013 66.5955 34.7132C66.4191 34.625 66.1933 34.5809 65.9181 34.5809C65.5413 34.5809 65.2274 34.6677 64.9762 34.8414C64.7277 35.0124 64.6034 35.2302 64.6034 35.4948C64.6034 35.7299 64.6889 35.9156 64.8599 36.0519C65.031 36.1882 65.2982 36.3018 65.6616 36.3926L66.5755 36.6171C67.1259 36.7507 67.5361 36.9551 67.806 37.2303C68.0759 37.5029 68.2108 37.8543 68.2108 38.2845C68.2108 38.6372 68.1093 38.9525 67.9062 39.2304C67.7058 39.5083 67.4252 39.7274 67.0645 39.8878C66.7037 40.0481 66.2842 40.1283 65.8059 40.1283C65.1779 40.1283 64.6582 39.992 64.2467 39.7194C63.8352 39.4469 63.5746 39.0487 63.4651 38.525L64.3629 38.3005C64.4484 38.6319 64.6101 38.8804 64.8479 39.046C65.0884 39.2117 65.4024 39.2946 65.7898 39.2946C66.2308 39.2946 66.5808 39.201 66.84 39.014C67.1019 38.8243 67.2328 38.5971 67.2328 38.3326C67.2328 38.1188 67.158 37.9398 67.0083 37.7955C66.8587 37.6485 66.6289 37.539 66.3189 37.4668L65.2928 37.2263C64.729 37.0927 64.3148 36.8856 64.0503 36.605C63.7884 36.3218 63.6575 35.9677 63.6575 35.5429C63.6575 35.1955 63.755 34.8882 63.9501 34.621C64.1478 34.3538 64.4164 34.144 64.7557 33.9917C65.0978 33.8394 65.4852 33.7632 65.9181 33.7632C66.5274 33.7632 67.0057 33.8968 67.3531 34.164C67.7031 34.4313 67.9516 34.784 68.0986 35.2222Z" fill="white"/>
<g clip-path="url(#clip0_390_10185)">
<path d="M47.5274 -8.4597C46.2074 -8.4597 45.0744 -8.79372 44.1285 -9.46175C43.1879 -10.1351 42.4637 -11.1051 41.956 -12.3717C41.4536 -13.6437 41.2025 -15.1748 41.2025 -16.9651C41.2078 -18.7555 41.4617 -20.2786 41.964 -21.5345C42.4717 -22.7957 43.1959 -23.7577 44.1365 -24.4204C45.0824 -25.0831 46.2127 -25.4144 47.5274 -25.4144C48.8421 -25.4144 49.9724 -25.0831 50.9184 -24.4204C51.8643 -23.7577 52.5885 -22.7957 53.0908 -21.5345C53.5985 -20.2732 53.8524 -18.7501 53.8524 -16.9651C53.8524 -15.1694 53.5985 -13.6356 53.0908 -12.3637C52.5885 -11.0971 51.8643 -10.1298 50.9184 -9.46175C49.9778 -8.79372 48.8475 -8.4597 47.5274 -8.4597ZM47.5274 -10.9688C48.5535 -10.9688 49.3632 -11.4739 49.9564 -12.4839C50.555 -13.4994 50.8542 -14.9931 50.8542 -16.9651C50.8542 -18.2691 50.718 -19.3647 50.4454 -20.2519C50.1728 -21.139 49.7881 -21.8071 49.291 -22.256C48.794 -22.7102 48.2062 -22.9374 47.5274 -22.9374C46.5067 -22.9374 45.6997 -22.4297 45.1065 -21.4142C44.5132 -20.4042 44.214 -18.9211 44.2086 -16.9651C44.2033 -15.6558 44.3342 -14.5549 44.6014 -13.6624C44.874 -12.7699 45.2588 -12.0965 45.7558 -11.6422C46.2528 -11.1933 46.8434 -10.9688 47.5274 -10.9688ZM47.7439 8.81002V25.2277H44.7618V12.6098H44.6255C44.5186 12.7755 44.3155 12.9545 44.0162 13.1469C43.717 13.334 43.3322 13.4943 42.8619 13.6279C42.3969 13.7615 41.8545 13.8283 41.2345 13.8283V11.4234C41.801 11.4234 42.3061 11.3245 42.7496 11.1268C43.1932 10.929 43.57 10.6832 43.88 10.3893C44.1953 10.0953 44.4384 9.80405 44.6094 9.51546C44.7805 9.22687 44.874 8.99172 44.89 8.81002H47.7439ZM41.459 59.2277V57.0793L47.1587 51.4918C47.7038 50.9413 48.1581 50.4523 48.5215 50.0248C48.8849 49.5973 49.1574 49.1831 49.3391 48.7823C49.5208 48.3814 49.6117 47.9539 49.6117 47.4996C49.6117 46.9812 49.4941 46.5377 49.259 46.1689C49.0238 45.7948 48.7005 45.5062 48.289 45.3031C47.8775 45.1 47.4099 44.9985 46.8861 44.9985C46.3463 44.9985 45.8734 45.1107 45.4672 45.3352C45.061 45.5543 44.7457 45.8669 44.5213 46.2731C44.3021 46.6793 44.1926 47.1629 44.1926 47.7241H41.3628C41.3628 46.682 41.6006 45.7761 42.0763 45.0065C42.5519 44.2369 43.2066 43.6411 44.0403 43.2189C44.8793 42.7967 45.8413 42.5856 46.9262 42.5856C48.0271 42.5856 48.9944 42.7913 49.8281 43.2028C50.6618 43.6143 51.3085 44.1782 51.7681 44.8943C52.2331 45.6104 52.4655 46.4281 52.4655 47.3473C52.4655 47.9619 52.348 48.5658 52.1128 49.159C51.8777 49.7522 51.4635 50.4096 50.8703 51.1311C50.2824 51.8525 49.4567 52.7263 48.3932 53.7524L45.5634 56.6303V56.7426H52.7141V59.2277H41.459ZM41.2025 88.7625H44.2086C44.246 89.2221 44.401 89.6176 44.6736 89.9489C44.9461 90.2749 45.3042 90.5261 45.7478 90.7025C46.1914 90.8735 46.6857 90.959 47.2308 90.959C47.808 90.959 48.3237 90.8601 48.778 90.6624C49.2323 90.4593 49.5876 90.1707 49.8442 89.7966C50.106 89.4172 50.237 88.9576 50.237 88.4178C50.237 87.9208 50.1114 87.4692 49.8602 87.063C49.6144 86.6515 49.2376 86.3255 48.7299 86.085C48.2222 85.8392 47.5729 85.7163 46.7819 85.7163H45.1546V83.5759L48.9543 79.4073V79.2951H42.0121V76.81H52.706V78.9584L48.297 83.7041V83.8324C49.1093 83.8965 49.8255 84.0676 50.4454 84.3455C51.0707 84.6234 51.5944 84.9788 52.0166 85.4116C52.4388 85.8445 52.7568 86.3309 52.9706 86.8706C53.1844 87.4104 53.2912 87.9769 53.2912 88.5701C53.2912 89.5321 53.0267 90.3792 52.4976 91.1113C51.9739 91.8435 51.2524 92.418 50.3332 92.8349C49.4193 93.2464 48.3772 93.4521 47.2068 93.4521C46.0845 93.4521 45.0771 93.2597 44.1846 92.8749C43.2974 92.4901 42.5893 91.9477 42.0602 91.2476C41.5311 90.5422 41.2452 89.7138 41.2025 88.7625ZM41.1624 124.181V121.817L47.4392 110.81H50.3171L44.1846 121.608V121.736H53.9326V124.181H41.1624ZM48.9944 127.228L48.9944 123.484L49.0586 122.402V116.967H51.7922L51.7922 127.228H48.9944ZM47.1667 160.452C46.0978 160.452 45.1412 160.252 44.2968 159.851C43.4524 159.445 42.7817 158.889 42.2847 158.183C41.793 157.478 41.5311 156.671 41.4991 155.763H44.385C44.4384 156.436 44.7297 156.986 45.2588 157.414C45.7879 157.836 46.4238 158.047 47.1667 158.047C47.7492 158.047 48.2676 157.914 48.7219 157.646C49.1761 157.379 49.5342 157.008 49.7961 156.532C50.0579 156.056 50.1862 155.514 50.1809 154.905C50.1862 154.285 50.0553 153.734 49.7881 153.253C49.5208 152.772 49.1548 152.396 48.6898 152.123C48.2249 151.845 47.6904 151.706 47.0865 151.706C46.5948 151.701 46.1112 151.792 45.6355 151.979C45.1599 152.166 44.7831 152.412 44.5052 152.716L41.8197 152.275L42.6775 143.81H52.201V146.295H45.1385L44.6656 150.648H44.7618C45.0664 150.29 45.4966 149.993 46.0524 149.758C46.6082 149.518 47.2175 149.397 47.8801 149.397C48.8742 149.397 49.7613 149.633 50.5416 150.103C51.3219 150.568 51.9365 151.209 52.3854 152.027C52.8343 152.845 53.0588 153.78 53.0588 154.833C53.0588 155.917 52.8076 156.885 52.3052 157.735C51.8082 158.579 51.1161 159.244 50.229 159.731C49.3472 160.212 48.3264 160.452 47.1667 160.452ZM41.2987 188.945C41.3093 188.389 41.3868 187.831 41.5311 187.269C41.6808 186.703 41.9159 186.104 42.2366 185.474C42.5572 184.838 42.9768 184.138 43.4952 183.373L47.2629 177.81H50.3091L46.2127 183.806C46.4105 183.753 46.6162 183.71 46.83 183.678C47.0438 183.641 47.2629 183.622 47.4873 183.622C48.4867 183.622 49.3765 183.849 50.1568 184.303C50.9424 184.758 51.5597 185.386 52.0086 186.187C52.4575 186.989 52.682 187.911 52.682 188.953C52.682 190.038 52.4362 190.994 51.9445 191.823C51.4581 192.646 50.7874 193.29 49.9324 193.755C49.0826 194.22 48.1153 194.452 47.0304 194.452C45.9669 194.452 44.9996 194.228 44.1285 193.779C43.2627 193.33 42.5733 192.694 42.0602 191.871C41.5472 191.048 41.2933 190.072 41.2987 188.945ZM44.1926 189.009C44.1926 189.602 44.3102 190.129 44.5453 190.588C44.7858 191.048 45.1172 191.409 45.5394 191.67C45.9669 191.932 46.4586 192.063 47.0144 192.063C47.5648 192.063 48.0512 191.935 48.4734 191.678C48.8956 191.417 49.2269 191.058 49.4674 190.604C49.7079 190.145 49.8281 189.618 49.8281 189.025C49.8281 188.432 49.7079 187.908 49.4674 187.454C49.2269 186.994 48.8956 186.636 48.4734 186.38C48.0512 186.118 47.5648 185.987 47.0144 185.987C46.4586 185.987 45.9669 186.115 45.5394 186.372C45.1172 186.628 44.7858 186.983 44.5453 187.438C44.3102 187.892 44.1926 188.416 44.1926 189.009ZM42.0602 228.228L49.0425 214.407V214.295H40.9379V211.81H52.1208V214.351L45.1465 228.228H42.0602ZM47.2949 262.452C46.1032 262.452 45.045 262.252 44.1204 261.851C43.2012 261.45 42.4797 260.902 41.956 260.208C41.4376 259.507 41.1811 258.714 41.1864 257.827C41.1811 257.137 41.3307 256.504 41.6354 255.927C41.94 255.35 42.3515 254.869 42.8699 254.484C43.3936 254.094 43.9761 253.845 44.6175 253.738V253.626C43.7731 253.439 43.089 253.009 42.5653 252.335C42.0469 251.657 41.7903 250.874 41.7957 249.987C41.7903 249.142 42.0255 248.389 42.5011 247.726C42.9768 247.063 43.6288 246.542 44.4571 246.163C45.2855 245.778 46.2314 245.586 47.2949 245.586C48.3478 245.586 49.2857 245.778 50.1087 246.163C50.9371 246.542 51.5891 247.063 52.0647 247.726C52.5457 248.389 52.7862 249.142 52.7862 249.987C52.7862 250.874 52.5217 251.657 51.9926 252.335C51.4688 253.009 50.7928 253.439 49.9644 253.626V253.738C50.6057 253.845 51.1829 254.094 51.696 254.484C52.2144 254.869 52.6259 255.35 52.9305 255.927C53.2405 256.504 53.3955 257.137 53.3955 257.827C53.3955 258.714 53.1336 259.507 52.6098 260.208C52.0861 260.902 51.3646 261.45 50.4454 261.851C49.5315 262.252 48.4814 262.452 47.2949 262.452ZM47.2949 260.159C47.9095 260.159 48.444 260.055 48.8982 259.847C49.3525 259.633 49.7052 259.334 49.9564 258.949C50.2076 258.564 50.3358 258.121 50.3412 257.618C50.3358 257.094 50.1996 256.632 49.9324 256.231C49.6705 255.825 49.3097 255.507 48.8501 255.277C48.3959 255.048 47.8775 254.933 47.2949 254.933C46.7071 254.933 46.1833 255.048 45.7237 255.277C45.2641 255.507 44.9007 255.825 44.6335 256.231C44.3716 256.632 44.2434 257.094 44.2487 257.618C44.2434 258.121 44.3663 258.564 44.6175 258.949C44.8686 259.328 45.2214 259.625 45.6756 259.839C46.1352 260.053 46.675 260.159 47.2949 260.159ZM47.2949 252.68C47.7973 252.68 48.2409 252.579 48.6257 252.375C49.0158 252.172 49.3231 251.889 49.5476 251.526C49.772 251.162 49.8869 250.743 49.8923 250.267C49.8869 249.797 49.7747 249.385 49.5556 249.033C49.3365 248.675 49.0318 248.399 48.6417 248.207C48.2516 248.009 47.8027 247.91 47.2949 247.91C46.7766 247.91 46.3196 248.009 45.9241 248.207C45.534 248.399 45.2294 248.675 45.0103 249.033C44.7965 249.385 44.6923 249.797 44.6976 250.267C44.6923 250.743 44.7992 251.162 45.0183 251.526C45.2427 251.884 45.55 252.167 45.9402 252.375C46.3357 252.579 46.7872 252.68 47.2949 252.68ZM41.1463 285.085C41.1463 284 41.3895 283.046 41.8758 282.223C42.3622 281.395 43.0302 280.748 43.88 280.283C44.735 279.818 45.7077 279.586 46.7979 279.586C47.8561 279.586 48.8181 279.81 49.6838 280.259C50.555 280.703 51.247 281.336 51.7601 282.159C52.2785 282.982 52.5323 283.96 52.5217 285.093C52.5163 285.649 52.4388 286.21 52.2892 286.776C52.1395 287.337 51.9044 287.936 51.5837 288.572C51.2631 289.203 50.8462 289.9 50.3332 290.664L46.5655 296.228H43.5112L47.6156 290.215C47.4125 290.274 47.2041 290.322 46.9903 290.36C46.7819 290.397 46.5655 290.416 46.341 290.416C45.3363 290.416 44.4411 290.189 43.6555 289.734C42.8752 289.28 42.2606 288.652 41.8117 287.85C41.3681 287.049 41.1463 286.127 41.1463 285.085ZM44.0002 285.013C44.0002 285.606 44.1204 286.132 44.3609 286.592C44.6014 287.046 44.9328 287.404 45.355 287.666C45.7772 287.923 46.2635 288.051 46.814 288.051C47.3644 288.051 47.8508 287.923 48.273 287.666C48.7005 287.41 49.0345 287.054 49.275 286.6C49.5155 286.146 49.6357 285.622 49.6357 285.029C49.6357 284.43 49.5155 283.904 49.275 283.449C49.0345 282.99 48.7005 282.629 48.273 282.367C47.8508 282.105 47.3644 281.974 46.814 281.974C46.2635 281.974 45.7745 282.105 45.347 282.367C44.9248 282.624 44.5934 282.982 44.3529 283.441C44.1178 283.896 44.0002 284.419 44.0002 285.013ZM47.5274 330.54C46.2074 330.54 45.0744 330.206 44.1285 329.538C43.1879 328.865 42.4637 327.895 41.956 326.628C41.4536 325.356 41.2025 323.825 41.2025 322.035C41.2078 320.245 41.4617 318.721 41.964 317.466C42.4717 316.204 43.1959 315.242 44.1365 314.58C45.0824 313.917 46.2127 313.586 47.5274 313.586C48.8421 313.586 49.9724 313.917 50.9184 314.58C51.8643 315.242 52.5885 316.204 53.0908 317.466C53.5985 318.727 53.8524 320.25 53.8524 322.035C53.8524 323.831 53.5985 325.364 53.0908 326.636C52.5885 327.903 51.8643 328.87 50.9184 329.538C49.9778 330.206 48.8475 330.54 47.5274 330.54ZM47.5274 328.031C48.5535 328.031 49.3632 327.526 49.9564 326.516C50.555 325.501 50.8542 324.007 50.8542 322.035C50.8542 320.731 50.718 319.635 50.4454 318.748C50.1728 317.861 49.7881 317.193 49.291 316.744C48.794 316.29 48.2062 316.063 47.5274 316.063C46.5067 316.063 45.6997 316.57 45.1065 317.586C44.5132 318.596 44.214 320.079 44.2086 322.035C44.2033 323.344 44.3342 324.445 44.6014 325.338C44.874 326.23 45.2588 326.904 45.7558 327.358C46.2528 327.807 46.8434 328.031 47.5274 328.031Z" fill="white"/>
</g>
<g clip-path="url(#clip1_390_10185)">
<path d="M59.9474 90.5673L59.8431 91.4491C59.7683 92.1225 59.6347 92.8065 59.4423 93.5013C59.2553 94.2014 59.0575 94.8454 58.8491 95.4333C58.6407 96.0211 58.4723 96.4834 58.3441 96.8201H56.3881C56.4629 96.4941 56.5644 96.0505 56.6927 95.4894C56.8263 94.9282 56.9546 94.2976 57.0775 93.5975C57.2004 92.8974 57.2832 92.1866 57.326 91.4651L57.3821 90.5673H59.9474Z" fill="white"/>
</g>
<g clip-path="url(#clip2_390_10185)">
<path d="M69.5767 -110.044C68.2567 -110.044 67.1237 -110.378 66.1778 -111.046C65.2372 -111.719 64.513 -112.689 64.0053 -113.956C63.503 -115.228 63.2518 -116.759 63.2518 -118.549C63.2571 -120.34 63.511 -121.863 64.0133 -123.119C64.521 -124.38 65.2452 -125.342 66.1858 -126.005C67.1317 -126.667 68.262 -126.999 69.5767 -126.999C70.8914 -126.999 72.0218 -126.667 72.9677 -126.005C73.9136 -125.342 74.6378 -124.38 75.1401 -123.119C75.6479 -121.857 75.9017 -120.334 75.9017 -118.549C75.9017 -116.754 75.6479 -115.22 75.1401 -113.948C74.6378 -112.681 73.9136 -111.714 72.9677 -111.046C72.0271 -110.378 70.8968 -110.044 69.5767 -110.044ZM69.5767 -112.553C70.6028 -112.553 71.4125 -113.058 72.0057 -114.068C72.6043 -115.083 72.9036 -116.577 72.9036 -118.549C72.9036 -119.853 72.7673 -120.949 72.4947 -121.836C72.2222 -122.723 71.8374 -123.391 71.3404 -123.84C70.8433 -124.294 70.2555 -124.521 69.5767 -124.521C68.556 -124.521 67.749 -124.014 67.1558 -122.998C66.5626 -121.988 66.2633 -120.505 66.2579 -118.549C66.2526 -117.24 66.3835 -116.139 66.6507 -115.246C66.9233 -114.354 67.3081 -113.681 67.8051 -113.226C68.3021 -112.777 68.8927 -112.553 69.5767 -112.553ZM69.7932 -92.7741V-76.3564H66.8111V-88.9743H66.6748C66.5679 -88.8086 66.3648 -88.6296 66.0655 -88.4372C65.7663 -88.2502 65.3815 -88.0898 64.9112 -87.9562C64.4462 -87.8226 63.9038 -87.7558 63.2838 -87.7558V-90.1607C63.8503 -90.1607 64.3554 -90.2596 64.799 -90.4573C65.2425 -90.6551 65.6193 -90.9009 65.9293 -91.1949C66.2446 -91.4888 66.4877 -91.7801 66.6588 -92.0686C66.8298 -92.3572 66.9233 -92.5924 66.9393 -92.7741H69.7932ZM63.5083 -42.3564V-44.5048L69.208 -50.0923C69.7531 -50.6428 70.2074 -51.1318 70.5708 -51.5593C70.9342 -51.9868 71.2067 -52.401 71.3885 -52.8019C71.5702 -53.2027 71.661 -53.6302 71.661 -54.0845C71.661 -54.6029 71.5434 -55.0465 71.3083 -55.4152C71.0731 -55.7893 70.7498 -56.0779 70.3383 -56.281C69.9268 -56.4841 69.4592 -56.5856 68.9354 -56.5856C68.3957 -56.5856 67.9227 -56.4734 67.5165 -56.2489C67.1104 -56.0298 66.795 -55.7172 66.5706 -55.311C66.3515 -54.9048 66.2419 -54.4212 66.2419 -53.86H63.4121C63.4121 -54.9022 63.6499 -55.808 64.1256 -56.5776C64.6012 -57.3472 65.2559 -57.9431 66.0896 -58.3653C66.9286 -58.7875 67.8906 -58.9986 68.9755 -58.9986C70.0764 -58.9986 71.0437 -58.7928 71.8775 -58.3813C72.7112 -57.9698 73.3578 -57.406 73.8174 -56.6898C74.2824 -55.9737 74.5149 -55.156 74.5149 -54.2368C74.5149 -53.6222 74.3973 -53.0183 74.1621 -52.4251C73.927 -51.8319 73.5128 -51.1745 72.9196 -50.453C72.3317 -49.7316 71.506 -48.8578 70.4425 -47.8317L67.6127 -44.9538V-44.8415H74.7634V-42.3564H63.5083ZM63.2518 -12.8216H66.2579C66.2954 -12.362 66.4503 -11.9665 66.7229 -11.6352C66.9955 -11.3092 67.3535 -11.058 67.7971 -10.8816C68.2407 -10.7106 68.735 -10.6251 69.2801 -10.6251C69.8573 -10.6251 70.373 -10.724 70.8273 -10.9217C71.2816 -11.1248 71.637 -11.4134 71.8935 -11.7875C72.1554 -12.1669 72.2863 -12.6265 72.2863 -13.1663C72.2863 -13.6633 72.1607 -14.1149 71.9095 -14.5211C71.6637 -14.9326 71.2869 -15.2586 70.7792 -15.4991C70.2715 -15.7449 69.6222 -15.8678 68.8312 -15.8678H67.2039V-18.0082L71.0037 -22.1768V-22.289H64.0614V-24.7741H74.7554V-22.6257L70.3463 -17.88V-17.7517C71.1587 -17.6876 71.8748 -17.5166 72.4947 -17.2386C73.12 -16.9607 73.6437 -16.6053 74.0659 -16.1725C74.4881 -15.7396 74.8061 -15.2532 75.0199 -14.7135C75.2337 -14.1737 75.3406 -13.6072 75.3406 -13.014C75.3406 -12.052 75.076 -11.2049 74.5469 -10.4728C74.0232 -9.74062 73.3017 -9.1661 72.3825 -8.74925C71.4686 -8.33774 70.4265 -8.13199 69.2561 -8.13199C68.1338 -8.13199 67.1264 -8.32438 66.2339 -8.70917C65.3467 -9.09396 64.6386 -9.6364 64.1095 -10.3365C63.5805 -11.0419 63.2945 -11.8703 63.2518 -12.8216ZM63.2117 22.5973V20.2325L69.4886 9.22591H72.3665L66.2339 20.024V20.1523H75.9819V22.5973H63.2117ZM71.0437 25.6436V21.8999L71.1079 20.8177V15.3825H73.8415V25.6436H71.0437ZM69.216 58.868C68.1471 58.868 67.1905 58.6676 66.3461 58.2668C65.5017 57.8606 64.831 57.3048 64.334 56.5994C63.8423 55.8939 63.5805 55.0869 63.5484 54.1784H66.4343C66.4877 54.8518 66.779 55.4022 67.3081 55.8298C67.8372 56.252 68.4731 56.4631 69.216 56.4631C69.7985 56.4631 70.3169 56.3295 70.7712 56.0623C71.2255 55.7951 71.5835 55.4236 71.8454 54.948C72.1073 54.4723 72.2355 53.9299 72.2302 53.3206C72.2355 52.7007 72.1046 52.1502 71.8374 51.6693C71.5702 51.1883 71.2041 50.8115 70.7391 50.5389C70.2742 50.261 69.7397 50.1221 69.1358 50.1221C68.6442 50.1167 68.1605 50.2076 67.6849 50.3947C67.2092 50.5817 66.8325 50.8275 66.5545 51.1322L63.869 50.6913L64.7268 42.2259H74.2503V44.711H67.1878L66.7149 49.0639H66.8111C67.1157 48.7059 67.5459 48.4092 68.1017 48.1741C68.6575 47.9336 69.2668 47.8134 69.9295 47.8134C70.9235 47.8134 71.8107 48.0485 72.5909 48.5188C73.3712 48.9838 73.9858 49.6251 74.4347 50.4427C74.8836 51.2604 75.1081 52.1957 75.1081 53.2485C75.1081 54.3334 74.8569 55.3007 74.3545 56.1504C73.8575 56.9948 73.1654 57.6602 72.2783 58.1465C71.3965 58.6275 70.3757 58.868 69.216 58.868ZM63.348 87.3607C63.3587 86.8049 63.4362 86.2464 63.5805 85.6853C63.7301 85.1188 63.9652 84.5202 64.2859 83.8896C64.6066 83.2536 65.0261 82.5535 65.5445 81.7893L69.3122 76.2259H72.3584L68.262 82.2222C68.4598 82.1688 68.6655 82.126 68.8793 82.0939C69.0931 82.0565 69.3122 82.0378 69.5367 82.0378C70.536 82.0378 71.4259 82.265 72.2061 82.7192C72.9917 83.1735 73.609 83.8014 74.0579 84.6031C74.5068 85.4047 74.7313 86.3266 74.7313 87.3687C74.7313 88.4536 74.4855 89.4103 73.9938 90.2386C73.5075 91.0616 72.8368 91.7056 71.9817 92.1706C71.1319 92.6355 70.1646 92.868 69.0797 92.868C68.0162 92.868 67.0489 92.6436 66.1778 92.1946C65.312 91.7457 64.6226 91.1097 64.1095 90.2867C63.5965 89.4637 63.3426 88.4884 63.348 87.3607ZM66.2419 87.4249C66.2419 88.0181 66.3595 88.5445 66.5946 89.0041C66.8351 89.4637 67.1665 89.8244 67.5887 90.0863C68.0162 90.3482 68.5079 90.4791 69.0637 90.4791C69.6142 90.4791 70.1005 90.3509 70.5227 90.0943C70.9449 89.8325 71.2762 89.4744 71.5167 89.0201C71.7572 88.5605 71.8775 88.0341 71.8775 87.4409C71.8775 86.8477 71.7572 86.3239 71.5167 85.8697C71.2762 85.4101 70.9449 85.052 70.5227 84.7955C70.1005 84.5336 69.6142 84.4027 69.0637 84.4027C68.5079 84.4027 68.0162 84.5309 67.5887 84.7875C67.1665 85.044 66.8351 85.3994 66.5946 85.8536C66.3595 86.3079 66.2419 86.8316 66.2419 87.4249ZM64.1095 126.644L71.0918 112.823V112.711H62.9872V110.226H74.1702V112.767L67.1959 126.644H64.1095ZM69.3443 160.868C68.1525 160.868 67.0943 160.668 66.1698 160.267C65.2505 159.866 64.5291 159.318 64.0053 158.623C63.4869 157.923 63.2304 157.13 63.2357 156.243C63.2304 155.553 63.38 154.92 63.6847 154.343C63.9893 153.765 64.4008 153.284 64.9192 152.9C65.4429 152.51 66.0255 152.261 66.6668 152.154V152.042C65.8224 151.855 65.1383 151.425 64.6146 150.751C64.0962 150.073 63.8397 149.29 63.845 148.402C63.8397 147.558 64.0748 146.805 64.5504 146.142C65.0261 145.479 65.6781 144.958 66.5065 144.579C67.3348 144.194 68.2808 144.001 69.3443 144.001C70.3971 144.001 71.335 144.194 72.158 144.579C72.9864 144.958 73.6384 145.479 74.114 146.142C74.595 146.805 74.8355 147.558 74.8355 148.402C74.8355 149.29 74.571 150.073 74.0419 150.751C73.5182 151.425 72.8421 151.855 72.0137 152.042V152.154C72.6551 152.261 73.2322 152.51 73.7453 152.9C74.2637 153.284 74.6752 153.765 74.9798 154.343C75.2898 154.92 75.4448 155.553 75.4448 156.243C75.4448 157.13 75.1829 157.923 74.6592 158.623C74.1354 159.318 73.4139 159.866 72.4947 160.267C71.5808 160.668 70.5307 160.868 69.3443 160.868ZM69.3443 158.575C69.9589 158.575 70.4933 158.471 70.9476 158.263C71.4018 158.049 71.7545 157.75 72.0057 157.365C72.2569 156.98 72.3852 156.536 72.3905 156.034C72.3852 155.51 72.2489 155.048 71.9817 154.647C71.7198 154.241 71.3591 153.923 70.8995 153.693C70.4452 153.464 69.9268 153.349 69.3443 153.349C68.7564 153.349 68.2327 153.464 67.773 153.693C67.3134 153.923 66.95 154.241 66.6828 154.647C66.4209 155.048 66.2927 155.51 66.298 156.034C66.2927 156.536 66.4156 156.98 66.6668 157.365C66.918 157.744 67.2707 158.041 67.7249 158.255C68.1846 158.468 68.7243 158.575 69.3443 158.575ZM69.3443 151.096C69.8466 151.096 70.2902 150.994 70.675 150.791C71.0651 150.588 71.3724 150.305 71.5969 149.942C71.8213 149.578 71.9362 149.159 71.9416 148.683C71.9362 148.213 71.824 147.801 71.6049 147.449C71.3858 147.09 71.0812 146.815 70.691 146.623C70.3009 146.425 69.852 146.326 69.3443 146.326C68.8259 146.326 68.3689 146.425 67.9735 146.623C67.5833 146.815 67.2787 147.09 67.0596 147.449C66.8458 147.801 66.7416 148.213 66.7469 148.683C66.7416 149.159 66.8485 149.578 67.0676 149.942C67.2921 150.3 67.5994 150.583 67.9895 150.791C68.385 150.994 68.8366 151.096 69.3443 151.096ZM63.1957 183.501C63.1957 182.416 63.4388 181.462 63.9252 180.639C64.4115 179.81 65.0795 179.164 65.9293 178.699C66.7844 178.234 67.757 178.001 68.8472 178.001C69.9054 178.001 70.8674 178.226 71.7332 178.675C72.6043 179.118 73.2964 179.752 73.8094 180.575C74.3278 181.398 74.5817 182.376 74.571 183.509C74.5656 184.065 74.4881 184.626 74.3385 185.192C74.1889 185.753 73.9537 186.352 73.6331 186.988C73.3124 187.618 72.8955 188.316 72.3825 189.08L68.6148 194.644H65.5605L69.6649 188.631C69.4618 188.69 69.2534 188.738 69.0396 188.776C68.8312 188.813 68.6148 188.832 68.3903 188.832C67.3856 188.832 66.4904 188.605 65.7048 188.15C64.9245 187.696 64.3099 187.068 63.861 186.266C63.4175 185.465 63.1957 184.543 63.1957 183.501ZM66.0495 183.429C66.0495 184.022 66.1698 184.548 66.4103 185.008C66.6507 185.462 66.9821 185.82 67.4043 186.082C67.8265 186.339 68.3128 186.467 68.8633 186.467C69.4137 186.467 69.9001 186.339 70.3223 186.082C70.7498 185.825 71.0838 185.47 71.3243 185.016C71.5648 184.562 71.6851 184.038 71.6851 183.445C71.6851 182.846 71.5648 182.32 71.3243 181.865C71.0838 181.406 70.7498 181.045 70.3223 180.783C69.9001 180.521 69.4137 180.39 68.8633 180.39C68.3128 180.39 67.8238 180.521 67.3963 180.783C66.9741 181.04 66.6427 181.398 66.4022 181.857C66.1671 182.312 66.0495 182.835 66.0495 183.429ZM69.5767 228.956C68.2567 228.956 67.1237 228.622 66.1778 227.954C65.2372 227.281 64.513 226.311 64.0053 225.044C63.503 223.772 63.2518 222.241 63.2518 220.451C63.2571 218.66 63.511 217.137 64.0133 215.881C64.521 214.62 65.2452 213.658 66.1858 212.995C67.1317 212.333 68.262 212.001 69.5767 212.001C70.8914 212.001 72.0218 212.333 72.9677 212.995C73.9136 213.658 74.6378 214.62 75.1401 215.881C75.6479 217.143 75.9017 218.666 75.9017 220.451C75.9017 222.246 75.6479 223.78 75.1401 225.052C74.6378 226.319 73.9136 227.286 72.9677 227.954C72.0271 228.622 70.8968 228.956 69.5767 228.956ZM69.5767 226.447C70.6028 226.447 71.4125 225.942 72.0057 224.932C72.6043 223.917 72.9036 222.423 72.9036 220.451C72.9036 219.147 72.7673 218.051 72.4947 217.164C72.2222 216.277 71.8374 215.609 71.3404 215.16C70.8433 214.706 70.2555 214.479 69.5767 214.479C68.556 214.479 67.749 214.986 67.1558 216.002C66.5626 217.012 66.2633 218.495 66.2579 220.451C66.2526 221.76 66.3835 222.861 66.6507 223.754C66.9233 224.646 67.3081 225.319 67.8051 225.774C68.3021 226.223 68.8927 226.447 69.5767 226.447Z" fill="white"/>
</g>
<g clip-path="url(#clip3_390_10185)">
<path d="M84.6265 -143.905C83.3065 -143.905 82.1735 -144.239 81.2276 -144.907C80.287 -145.581 79.5628 -146.551 79.0551 -147.817C78.5528 -149.089 78.3016 -150.62 78.3016 -152.411C78.3069 -154.201 78.5608 -155.724 79.0631 -156.98C79.5709 -158.241 80.295 -159.203 81.2356 -159.866C82.1815 -160.529 83.3119 -160.86 84.6265 -160.86C85.9412 -160.86 87.0716 -160.529 88.0175 -159.866C88.9634 -159.203 89.6876 -158.241 90.1899 -156.98C90.6977 -155.719 90.9515 -154.196 90.9515 -152.411C90.9515 -150.615 90.6977 -149.081 90.1899 -147.809C89.6876 -146.543 88.9634 -145.575 88.0175 -144.907C87.0769 -144.239 85.9466 -143.905 84.6265 -143.905ZM84.6265 -146.414C85.6526 -146.414 86.4623 -146.919 87.0555 -147.929C87.6541 -148.945 87.9534 -150.439 87.9534 -152.411C87.9534 -153.715 87.8171 -154.81 87.5445 -155.697C87.272 -156.585 86.8872 -157.253 86.3902 -157.701C85.8931 -158.156 85.3053 -158.383 84.6265 -158.383C83.6058 -158.383 82.7988 -157.875 82.2056 -156.86C81.6124 -155.85 81.3131 -154.367 81.3077 -152.411C81.3024 -151.101 81.4333 -150 81.7006 -149.108C81.9731 -148.215 82.3579 -147.542 82.8549 -147.088C83.3519 -146.639 83.9425 -146.414 84.6265 -146.414ZM84.843 -126.635V-110.218H81.8609V-122.836H81.7246C81.6177 -122.67 81.4146 -122.491 81.1154 -122.299C80.8161 -122.112 80.4313 -121.951 79.961 -121.818C79.496 -121.684 78.9536 -121.617 78.3337 -121.617V-124.022C78.9001 -124.022 79.4052 -124.121 79.8488 -124.319C80.2923 -124.516 80.6691 -124.762 80.9791 -125.056C81.2944 -125.35 81.5375 -125.641 81.7086 -125.93C81.8796 -126.219 81.9731 -126.454 81.9891 -126.635H84.843ZM78.5581 -76.2178V-78.3662L84.2578 -83.9537C84.8029 -84.5041 85.2572 -84.9932 85.6206 -85.4207C85.984 -85.8482 86.2566 -86.2624 86.4383 -86.6632C86.62 -87.0641 86.7108 -87.4916 86.7108 -87.9459C86.7108 -88.4643 86.5932 -88.9078 86.3581 -89.2766C86.1229 -89.6507 85.7996 -89.9393 85.3881 -90.1424C84.9766 -90.3455 84.509 -90.447 83.9852 -90.447C83.4455 -90.447 82.9725 -90.3348 82.5663 -90.1103C82.1602 -89.8912 81.8448 -89.5785 81.6204 -89.1724C81.4013 -88.7662 81.2917 -88.2826 81.2917 -87.7214H78.4619C78.4619 -88.7635 78.6997 -89.6694 79.1754 -90.439C79.651 -91.2086 80.3057 -91.8044 81.1394 -92.2266C81.9785 -92.6488 82.9404 -92.8599 84.0253 -92.8599C85.1262 -92.8599 86.0936 -92.6542 86.9273 -92.2427C87.761 -91.8312 88.4076 -91.2673 88.8672 -90.5512C89.3322 -89.8351 89.5647 -89.0174 89.5647 -88.0982C89.5647 -87.4836 89.4471 -86.8797 89.2119 -86.2865C88.9768 -85.6933 88.5626 -85.0359 87.9694 -84.3144C87.3815 -83.5929 86.5558 -82.7192 85.4923 -81.6931L82.6625 -78.8152V-78.7029H89.8132V-76.2178H78.5581ZM78.3016 -46.683H81.3077C81.3452 -46.2234 81.5001 -45.8279 81.7727 -45.4966C82.0453 -45.1706 82.4033 -44.9194 82.8469 -44.743C83.2905 -44.572 83.7848 -44.4865 84.3299 -44.4865C84.9071 -44.4865 85.4228 -44.5854 85.8771 -44.7831C86.3314 -44.9862 86.6868 -45.2748 86.9433 -45.6489C87.2052 -46.0283 87.3361 -46.4879 87.3361 -47.0277C87.3361 -47.5247 87.2105 -47.9763 86.9593 -48.3825C86.7135 -48.794 86.3367 -49.12 85.829 -49.3605C85.3213 -49.6063 84.672 -49.7292 83.881 -49.7292H82.2537V-51.8696L86.0535 -56.0382V-56.1504H79.1112V-58.6355H89.8052V-56.4871L85.3961 -51.7414V-51.6131C86.2085 -51.549 86.9246 -51.3779 87.5445 -51.1C88.1698 -50.8221 88.6935 -50.4667 89.1157 -50.0339C89.5379 -49.601 89.8559 -49.1146 90.0697 -48.5749C90.2835 -48.0351 90.3904 -47.4686 90.3904 -46.8754C90.3904 -45.9134 90.1258 -45.0663 89.5967 -44.3342C89.073 -43.602 88.3515 -43.0275 87.4323 -42.6106C86.5184 -42.1991 85.4763 -41.9934 84.3059 -41.9934C83.1836 -41.9934 82.1762 -42.1858 81.2837 -42.5706C80.3965 -42.9553 79.6884 -43.4978 79.1593 -44.1979C78.6303 -44.9033 78.3443 -45.7317 78.3016 -46.683ZM78.2615 -11.2641V-13.6289L84.5384 -24.6355H87.4163L81.2837 -13.8374V-13.7091H91.0317V-11.2641H78.2615ZM86.0936 -8.21783V-11.9615L86.1577 -13.0437V-18.4789H88.8913V-8.21783H86.0936ZM84.2658 25.0066C83.197 25.0066 82.2403 24.8062 81.3959 24.4054C80.5515 23.9992 79.8808 23.4434 79.3838 22.738C78.8921 22.0325 78.6303 21.2255 78.5982 20.317H81.4841C81.5376 20.9904 81.8288 21.5409 82.3579 21.9684C82.887 22.3906 83.523 22.6017 84.2658 22.6017C84.8483 22.6017 85.3667 22.4681 85.821 22.2009C86.2753 21.9337 86.6333 21.5622 86.8952 21.0866C87.1571 20.611 87.2853 20.0685 87.28 19.4593C87.2853 18.8393 87.1544 18.2889 86.8872 17.8079C86.62 17.3269 86.2539 16.9501 85.7889 16.6776C85.324 16.3997 84.7895 16.2607 84.1856 16.2607C83.694 16.2554 83.2103 16.3462 82.7347 16.5333C82.259 16.7203 81.8823 16.9661 81.6044 17.2708L78.9189 16.8299L79.7766 8.36452H89.3001V10.8496H82.2377L81.7647 15.2025H81.8609C82.1655 14.8445 82.5957 14.5479 83.1515 14.3127C83.7073 14.0722 84.3166 13.952 84.9793 13.952C85.9733 13.952 86.8605 14.1871 87.6407 14.6574C88.421 15.1224 89.0356 15.7637 89.4845 16.5814C89.9334 17.399 90.1579 18.3343 90.1579 19.3871C90.1579 20.472 89.9067 21.4393 89.4043 22.2891C88.9073 23.1335 88.2152 23.7988 87.3281 24.2851C86.4463 24.7661 85.4255 25.0066 84.2658 25.0066ZM78.3978 53.4993C78.4085 52.9435 78.486 52.3851 78.6303 51.8239C78.7799 51.2574 79.015 50.6589 79.3357 50.0282C79.6564 49.3923 80.0759 48.6922 80.5943 47.9279L84.362 42.3645H87.4082L83.3119 48.3608C83.5096 48.3074 83.7153 48.2646 83.9291 48.2325C84.1429 48.1951 84.362 48.1764 84.5865 48.1764C85.5858 48.1764 86.4757 48.4036 87.2559 48.8578C88.0415 49.3121 88.6588 49.94 89.1077 50.7417C89.5567 51.5433 89.7811 52.4652 89.7811 53.5074C89.7811 54.5922 89.5353 55.5489 89.0436 56.3772C88.5573 57.2003 87.8866 57.8442 87.0315 58.3092C86.1817 58.7741 85.2144 59.0066 84.1295 59.0066C83.066 59.0066 82.0987 58.7822 81.2276 58.3332C80.3618 57.8843 79.6724 57.2484 79.1593 56.4253C78.6463 55.6023 78.3924 54.627 78.3978 53.4993ZM81.2917 53.5635C81.2917 54.1567 81.4093 54.6831 81.6444 55.1427C81.8849 55.6023 82.2163 55.9631 82.6385 56.2249C83.066 56.4868 83.5577 56.6177 84.1135 56.6177C84.664 56.6177 85.1503 56.4895 85.5725 56.2329C85.9947 55.9711 86.326 55.613 86.5665 55.1587C86.807 54.6991 86.9273 54.1727 86.9273 53.5795C86.9273 52.9863 86.807 52.4625 86.5665 52.0083C86.326 51.5487 85.9947 51.1906 85.5725 50.9341C85.1503 50.6722 84.664 50.5413 84.1135 50.5413C83.5577 50.5413 83.066 50.6695 82.6385 50.9261C82.2163 51.1826 81.8849 51.538 81.6444 51.9923C81.4093 52.4465 81.2917 52.9703 81.2917 53.5635ZM79.1593 92.7822L86.1417 78.9618V78.8496H78.037V76.3645H89.22V78.9057L82.2457 92.7822H79.1593ZM84.3941 127.007C83.2023 127.007 82.1441 126.806 81.2196 126.405C80.3003 126.005 79.5789 125.457 79.0551 124.762C78.5367 124.062 78.2802 123.268 78.2856 122.381C78.2802 121.692 78.4298 121.058 78.7345 120.481C79.0391 119.904 79.4506 119.423 79.969 119.038C80.4927 118.648 81.0753 118.4 81.7166 118.293V118.181C80.8722 117.993 80.1881 117.563 79.6644 116.89C79.146 116.211 78.8895 115.428 78.8948 114.541C78.8895 113.697 79.1246 112.943 79.6002 112.28C80.0759 111.618 80.7279 111.097 81.5563 110.717C82.3846 110.332 83.3306 110.14 84.3941 110.14C85.4469 110.14 86.3848 110.332 87.2078 110.717C88.0362 111.097 88.6882 111.618 89.1638 112.28C89.6448 112.943 89.8853 113.697 89.8853 114.541C89.8853 115.428 89.6208 116.211 89.0917 116.89C88.568 117.563 87.8919 117.993 87.0635 118.181V118.293C87.7049 118.4 88.282 118.648 88.7951 119.038C89.3135 119.423 89.725 119.904 90.0296 120.481C90.3396 121.058 90.4946 121.692 90.4946 122.381C90.4946 123.268 90.2327 124.062 89.709 124.762C89.1852 125.457 88.4637 126.005 87.5445 126.405C86.6307 126.806 85.5805 127.007 84.3941 127.007ZM84.3941 124.714C85.0087 124.714 85.5431 124.61 85.9974 124.401C86.4516 124.188 86.8043 123.888 87.0555 123.503C87.3067 123.119 87.435 122.675 87.4403 122.173C87.435 121.649 87.2987 121.187 87.0315 120.786C86.7696 120.38 86.4089 120.062 85.9493 119.832C85.495 119.602 84.9766 119.487 84.3941 119.487C83.8062 119.487 83.2825 119.602 82.8229 119.832C82.3632 120.062 81.9998 120.38 81.7326 120.786C81.4707 121.187 81.3425 121.649 81.3478 122.173C81.3425 122.675 81.4654 123.119 81.7166 123.503C81.9678 123.883 82.3205 124.179 82.7748 124.393C83.2344 124.607 83.7741 124.714 84.3941 124.714ZM84.3941 117.235C84.8964 117.235 85.34 117.133 85.7248 116.93C86.1149 116.727 86.4222 116.444 86.6467 116.08C86.8711 115.717 86.986 115.297 86.9914 114.822C86.986 114.351 86.8738 113.94 86.6547 113.587C86.4356 113.229 86.131 112.954 85.7408 112.761C85.3507 112.564 84.9018 112.465 84.3941 112.465C83.8757 112.465 83.4187 112.564 83.0233 112.761C82.6331 112.954 82.3285 113.229 82.1094 113.587C81.8956 113.94 81.7914 114.351 81.7967 114.822C81.7914 115.297 81.8983 115.717 82.1174 116.08C82.3419 116.438 82.6492 116.722 83.0393 116.93C83.4348 117.133 83.8864 117.235 84.3941 117.235ZM78.2455 149.639C78.2455 148.554 78.4886 147.6 78.975 146.777C79.4613 145.949 80.1293 145.302 80.9791 144.837C81.8342 144.373 82.8068 144.14 83.8971 144.14C84.9552 144.14 85.9172 144.365 86.783 144.813C87.6541 145.257 88.3462 145.89 88.8592 146.713C89.3776 147.536 89.6315 148.514 89.6208 149.647C89.6154 150.203 89.5379 150.764 89.3883 151.331C89.2387 151.892 89.0035 152.491 88.6829 153.126C88.3622 153.757 87.9453 154.455 87.4323 155.219L83.6646 160.782H80.6103L84.7147 154.77C84.5116 154.829 84.3032 154.877 84.0894 154.914C83.881 154.952 83.6646 154.97 83.4401 154.97C82.4354 154.97 81.5402 154.743 80.7546 154.289C79.9743 153.835 79.3598 153.207 78.9108 152.405C78.4673 151.603 78.2455 150.681 78.2455 149.639ZM81.0993 149.567C81.0993 150.16 81.2196 150.687 81.4601 151.146C81.7006 151.601 82.0319 151.959 82.4541 152.221C82.8763 152.477 83.3626 152.605 83.9131 152.605C84.4635 152.605 84.9499 152.477 85.3721 152.221C85.7996 151.964 86.1336 151.609 86.3741 151.154C86.6146 150.7 86.7349 150.176 86.7349 149.583C86.7349 148.985 86.6146 148.458 86.3741 148.004C86.1336 147.544 85.7996 147.184 85.3721 146.922C84.9499 146.66 84.4635 146.529 83.9131 146.529C83.3626 146.529 82.8736 146.66 82.4461 146.922C82.0239 147.178 81.6925 147.536 81.452 147.996C81.2169 148.45 81.0993 148.974 81.0993 149.567ZM84.6265 195.095C83.3065 195.095 82.1735 194.761 81.2276 194.093C80.287 193.419 79.5628 192.449 79.0551 191.183C78.5528 189.911 78.3016 188.38 78.3016 186.589C78.3069 184.799 78.5608 183.276 79.0631 182.02C79.5709 180.759 80.295 179.797 81.2356 179.134C82.1815 178.471 83.3119 178.14 84.6265 178.14C85.9412 178.14 87.0716 178.471 88.0175 179.134C88.9634 179.797 89.6876 180.759 90.1899 182.02C90.6977 183.281 90.9515 184.804 90.9515 186.589C90.9515 188.385 90.6977 189.919 90.1899 191.191C89.6876 192.457 88.9634 193.425 88.0175 194.093C87.0769 194.761 85.9466 195.095 84.6265 195.095ZM84.6265 192.586C85.6526 192.586 86.4623 192.081 87.0555 191.071C87.6541 190.055 87.9534 188.561 87.9534 186.589C87.9534 185.285 87.8171 184.19 87.5445 183.303C87.272 182.415 86.8872 181.747 86.3902 181.299C85.8931 180.844 85.3053 180.617 84.6265 180.617C83.6058 180.617 82.7988 181.125 82.2056 182.14C81.6124 183.15 81.3131 184.633 81.3077 186.589C81.3024 187.899 81.4333 189 81.7006 189.892C81.9731 190.785 82.3579 191.458 82.8549 191.912C83.3519 192.361 83.9425 192.586 84.6265 192.586Z" fill="white"/>
</g>
<g clip-path="url(#clip4_390_10185)">
<path d="M99.6759 59.2631C98.3558 59.2631 97.2228 58.9291 96.2769 58.261C95.3363 57.5876 94.6122 56.6177 94.1044 55.3511C93.6021 54.0791 93.3509 52.548 93.3509 50.7576C93.3562 48.9673 93.6101 47.4442 94.1125 46.1883C94.6202 44.927 95.3443 43.9651 96.2849 43.3024C97.2309 42.6397 98.3612 42.3083 99.6759 42.3083C100.991 42.3083 102.121 42.6397 103.067 43.3024C104.013 43.9651 104.737 44.927 105.239 46.1883C105.747 47.4495 106.001 48.9727 106.001 50.7576C106.001 52.5533 105.747 54.0871 105.239 55.3591C104.737 56.6257 104.013 57.593 103.067 58.261C102.126 58.9291 100.996 59.2631 99.6759 59.2631ZM99.6759 56.7539C100.702 56.7539 101.512 56.2489 102.105 55.2388C102.703 54.2234 103.003 52.7297 103.003 50.7576C103.003 49.4536 102.866 48.3581 102.594 47.4709C102.321 46.5838 101.936 45.9157 101.439 45.4668C100.942 45.0125 100.355 44.7854 99.6759 44.7854C98.6551 44.7854 97.8481 45.2931 97.2549 46.3085C96.6617 47.3186 96.3624 48.8016 96.3571 50.7576C96.3517 52.067 96.4827 53.1679 96.7499 54.0604C97.0224 54.9529 97.4072 55.6263 97.9042 56.0806C98.4013 56.5295 98.9918 56.7539 99.6759 56.7539ZM99.8923 76.5328V92.9504H96.9102V80.3326H96.7739C96.667 80.4983 96.4639 80.6773 96.1647 80.8697C95.8654 81.0567 95.4806 81.2171 95.0103 81.3507C94.5453 81.4843 94.0029 81.5511 93.383 81.5511V79.1462C93.9495 79.1462 94.4545 79.0473 94.8981 78.8495C95.3416 78.6518 95.7184 78.406 96.0284 78.112C96.3437 77.8181 96.5869 77.5268 96.7579 77.2382C96.9289 76.9496 97.0224 76.7145 97.0385 76.5328H99.8923ZM93.6074 126.95V124.802L99.3071 119.215C99.8522 118.664 100.306 118.175 100.67 117.748C101.033 117.32 101.306 116.906 101.488 116.505C101.669 116.104 101.76 115.677 101.76 115.222C101.76 114.704 101.643 114.26 101.407 113.892C101.172 113.518 100.849 113.229 100.437 113.026C100.026 112.823 99.5583 112.721 99.0345 112.721C98.4948 112.721 98.0218 112.834 97.6156 113.058C97.2095 113.277 96.8942 113.59 96.6697 113.996C96.4506 114.402 96.341 114.886 96.341 115.447H93.5112C93.5112 114.405 93.7491 113.499 94.2247 112.729C94.7003 111.96 95.355 111.364 96.1887 110.942C97.0278 110.519 97.9897 110.308 99.0746 110.308C100.176 110.308 101.143 110.514 101.977 110.926C102.81 111.337 103.457 111.901 103.917 112.617C104.382 113.333 104.614 114.151 104.614 115.07C104.614 115.685 104.496 116.289 104.261 116.882C104.026 117.475 103.612 118.132 103.019 118.854C102.431 119.575 101.605 120.449 100.542 121.475L97.7118 124.353V124.465H104.862V126.95H93.6074ZM93.3509 156.485H96.3571C96.3945 156.945 96.5495 157.34 96.822 157.672C97.0946 157.998 97.4526 158.249 97.8962 158.425C98.3398 158.596 98.8341 158.682 99.3793 158.682C99.9564 158.682 100.472 158.583 100.926 158.385C101.381 158.182 101.736 157.894 101.993 157.519C102.254 157.14 102.385 156.68 102.385 156.141C102.385 155.644 102.26 155.192 102.009 154.786C101.763 154.374 101.386 154.048 100.878 153.808C100.371 153.562 99.7213 153.439 98.9303 153.439H97.303V151.299L101.103 147.13V147.018H94.1606V144.533H104.854V146.681L100.445 151.427V151.555C101.258 151.619 101.974 151.79 102.594 152.068C103.219 152.346 103.743 152.702 104.165 153.134C104.587 153.567 104.905 154.054 105.119 154.593C105.333 155.133 105.44 155.7 105.44 156.293C105.44 157.255 105.175 158.102 104.646 158.834C104.122 159.566 103.401 160.141 102.482 160.558C101.568 160.969 100.526 161.175 99.3552 161.175C98.2329 161.175 97.2255 160.983 96.333 160.598C95.4459 160.213 94.7377 159.67 94.2087 158.97C93.6796 158.265 93.3937 157.437 93.3509 156.485ZM93.3108 191.904V189.539L99.5877 178.533H102.466L96.333 189.331V189.459H106.081V191.904H93.3108ZM101.143 194.95V191.207L101.207 190.125V184.689H103.941V194.95H101.143ZM99.3151 228.175C98.2463 228.175 97.2896 227.974 96.4452 227.574C95.6008 227.168 94.9301 226.612 94.4331 225.906C93.9414 225.201 93.6796 224.394 93.6475 223.485H96.5334C96.5869 224.159 96.8781 224.709 97.4072 225.137C97.9363 225.559 98.5723 225.77 99.3151 225.77C99.8977 225.77 100.416 225.636 100.87 225.369C101.325 225.102 101.683 224.731 101.945 224.255C102.206 223.779 102.335 223.237 102.329 222.628C102.335 222.008 102.204 221.457 101.936 220.976C101.669 220.495 101.303 220.118 100.838 219.846C100.373 219.568 99.8389 219.429 99.235 219.429C98.7433 219.424 98.2596 219.514 97.784 219.702C97.3083 219.889 96.9316 220.134 96.6537 220.439L93.9682 219.998L94.8259 211.533H104.349V214.018H97.287L96.814 218.371H96.9102C97.2148 218.013 97.645 217.716 98.2008 217.481C98.7566 217.24 99.3659 217.12 100.029 217.12C101.023 217.12 101.91 217.355 102.69 217.826C103.47 218.291 104.085 218.932 104.534 219.75C104.983 220.567 105.207 221.503 105.207 222.555C105.207 223.64 104.956 224.608 104.454 225.457C103.957 226.302 103.265 226.967 102.377 227.453C101.496 227.934 100.475 228.175 99.3151 228.175ZM93.4471 256.668C93.4578 256.112 93.5353 255.553 93.6796 254.992C93.8292 254.426 94.0644 253.827 94.385 253.197C94.7057 252.561 95.1252 251.86 95.6436 251.096L99.4113 245.533H102.458L98.3612 251.529C98.5589 251.476 98.7647 251.433 98.9784 251.401C99.1922 251.363 99.4113 251.345 99.6358 251.345C100.635 251.345 101.525 251.572 102.305 252.026C103.091 252.48 103.708 253.108 104.157 253.91C104.606 254.712 104.83 255.633 104.83 256.676C104.83 257.761 104.585 258.717 104.093 259.546C103.607 260.369 102.936 261.013 102.081 261.477C101.231 261.942 100.264 262.175 99.1788 262.175C98.1153 262.175 97.148 261.95 96.2769 261.502C95.4111 261.053 94.7217 260.417 94.2087 259.594C93.6956 258.771 93.4418 257.795 93.4471 256.668ZM96.341 256.732C96.341 257.325 96.4586 257.851 96.6938 258.311C96.9342 258.771 97.2656 259.131 97.6878 259.393C98.1153 259.655 98.607 259.786 99.1628 259.786C99.7133 259.786 100.2 259.658 100.622 259.401C101.044 259.139 101.375 258.781 101.616 258.327C101.856 257.867 101.977 257.341 101.977 256.748C101.977 256.155 101.856 255.631 101.616 255.177C101.375 254.717 101.044 254.359 100.622 254.102C100.2 253.84 99.7133 253.71 99.1628 253.71C98.607 253.71 98.1153 253.838 97.6878 254.094C97.2656 254.351 96.9342 254.706 96.6938 255.161C96.4586 255.615 96.341 256.139 96.341 256.732ZM94.2087 295.95L101.191 282.13V282.018H93.0864V279.533H104.269V282.074L97.295 295.95H94.2087ZM99.4434 330.175C98.2516 330.175 97.1934 329.974 96.2689 329.574C95.3497 329.173 94.6282 328.625 94.1044 327.93C93.5861 327.23 93.3295 326.437 93.3349 325.549C93.3295 324.86 93.4792 324.227 93.7838 323.65C94.0884 323.072 94.4999 322.591 95.0183 322.207C95.5421 321.816 96.1246 321.568 96.7659 321.461V321.349C95.9215 321.162 95.2374 320.732 94.7137 320.058C94.1953 319.379 93.9388 318.597 93.9441 317.709C93.9388 316.865 94.1739 316.111 94.6496 315.449C95.1252 314.786 95.7772 314.265 96.6056 313.886C97.4339 313.501 98.3799 313.308 99.4434 313.308C100.496 313.308 101.434 313.501 102.257 313.886C103.086 314.265 103.738 314.786 104.213 315.449C104.694 316.111 104.935 316.865 104.935 317.709C104.935 318.597 104.67 319.379 104.141 320.058C103.617 320.732 102.941 321.162 102.113 321.349V321.461C102.754 321.568 103.331 321.816 103.844 322.207C104.363 322.591 104.774 323.072 105.079 323.65C105.389 324.227 105.544 324.86 105.544 325.549C105.544 326.437 105.282 327.23 104.758 327.93C104.235 328.625 103.513 329.173 102.594 329.574C101.68 329.974 100.63 330.175 99.4434 330.175ZM99.4434 327.882C100.058 327.882 100.592 327.778 101.047 327.57C101.501 327.356 101.854 327.057 102.105 326.672C102.356 326.287 102.484 325.843 102.49 325.341C102.484 324.817 102.348 324.355 102.081 323.954C101.819 323.548 101.458 323.23 100.999 323C100.544 322.77 100.026 322.655 99.4434 322.655C98.8555 322.655 98.3318 322.77 97.8722 323C97.4126 323.23 97.0491 323.548 96.7819 323.954C96.5201 324.355 96.3918 324.817 96.3971 325.341C96.3918 325.843 96.5147 326.287 96.7659 326.672C97.0171 327.051 97.3698 327.348 97.8241 327.562C98.2837 327.775 98.8235 327.882 99.4434 327.882ZM99.4434 320.403C99.9457 320.403 100.389 320.301 100.774 320.098C101.164 319.895 101.472 319.612 101.696 319.249C101.92 318.885 102.035 318.466 102.041 317.99C102.035 317.52 101.923 317.108 101.704 316.755C101.485 316.397 101.18 316.122 100.79 315.93C100.4 315.732 99.9511 315.633 99.4434 315.633C98.925 315.633 98.4681 315.732 98.0726 315.93C97.6824 316.122 97.3778 316.397 97.1587 316.755C96.9449 317.108 96.8407 317.52 96.8461 317.99C96.8407 318.466 96.9476 318.885 97.1667 319.249C97.3912 319.607 97.6985 319.89 98.0886 320.098C98.4841 320.301 98.9357 320.403 99.4434 320.403ZM93.2948 352.808C93.2948 351.723 93.538 350.769 94.0243 349.946C94.5106 349.117 95.1786 348.471 96.0284 348.006C96.8835 347.541 97.8561 347.308 98.9464 347.308C100.005 347.308 100.967 347.533 101.832 347.982C102.703 348.425 103.395 349.059 103.909 349.882C104.427 350.705 104.681 351.683 104.67 352.816C104.665 353.371 104.587 353.933 104.438 354.499C104.288 355.06 104.053 355.659 103.732 356.295C103.412 356.925 102.995 357.623 102.482 358.387L98.7139 363.95H95.6596L99.764 357.938C99.561 357.997 99.3525 358.045 99.1388 358.082C98.9303 358.12 98.7139 358.139 98.4894 358.139C97.4847 358.139 96.5895 357.911 95.8039 357.457C95.0237 357.003 94.4091 356.375 93.9602 355.573C93.5166 354.772 93.2948 353.85 93.2948 352.808ZM96.1486 352.735C96.1486 353.329 96.2689 353.855 96.5094 354.315C96.7499 354.769 97.0812 355.127 97.5034 355.389C97.9256 355.645 98.4119 355.774 98.9624 355.774C99.5129 355.774 99.9992 355.645 100.421 355.389C100.849 355.132 101.183 354.777 101.423 354.323C101.664 353.868 101.784 353.345 101.784 352.751C101.784 352.153 101.664 351.627 101.423 351.172C101.183 350.713 100.849 350.352 100.421 350.09C99.9992 349.828 99.5129 349.697 98.9624 349.697C98.4119 349.697 97.9229 349.828 97.4954 350.09C97.0732 350.347 96.7419 350.705 96.5014 351.164C96.2662 351.619 96.1486 352.142 96.1486 352.735ZM99.6759 398.263C98.3558 398.263 97.2228 397.929 96.2769 397.261C95.3363 396.588 94.6122 395.618 94.1044 394.351C93.6021 393.079 93.3509 391.548 93.3509 389.758C93.3562 387.967 93.6101 386.444 94.1125 385.188C94.6202 383.927 95.3443 382.965 96.2849 382.302C97.2309 381.64 98.3612 381.308 99.6759 381.308C100.991 381.308 102.121 381.64 103.067 382.302C104.013 382.965 104.737 383.927 105.239 385.188C105.747 386.45 106.001 387.973 106.001 389.758C106.001 391.553 105.747 393.087 105.239 394.359C104.737 395.626 104.013 396.593 103.067 397.261C102.126 397.929 100.996 398.263 99.6759 398.263ZM99.6759 395.754C100.702 395.754 101.512 395.249 102.105 394.239C102.703 393.223 103.003 391.73 103.003 389.758C103.003 388.454 102.866 387.358 102.594 386.471C102.321 385.584 101.936 384.916 101.439 384.467C100.942 384.013 100.355 383.785 99.6759 383.785C98.6551 383.785 97.8481 384.293 97.2549 385.309C96.6617 386.319 96.3624 387.802 96.3571 389.758C96.3517 391.067 96.4827 392.168 96.7499 393.06C97.0224 393.953 97.4072 394.626 97.9042 395.081C98.4013 395.529 98.9918 395.754 99.6759 395.754Z" fill="white"/>
</g>
<path d="M131.433 84.7666V85.6484H127.841V84.7666H131.433ZM135.758 89.4241C135.155 89.4241 134.64 89.2598 134.215 88.9311C133.79 88.5998 133.466 88.1201 133.241 87.4922C133.017 86.8615 132.905 86.1 132.905 85.2075C132.905 84.3203 133.017 83.5628 133.241 82.9348C133.468 82.3042 133.794 81.8232 134.219 81.4919C134.647 81.1578 135.16 80.9908 135.758 80.9908C136.357 80.9908 136.869 81.1578 137.294 81.4919C137.721 81.8232 138.047 82.3042 138.272 82.9348C138.499 83.5628 138.612 84.3203 138.612 85.2075C138.612 86.1 138.5 86.8615 138.276 87.4922C138.051 88.1201 137.726 88.5998 137.302 88.9311C136.877 89.2598 136.362 89.4241 135.758 89.4241ZM135.758 88.5423C136.357 88.5423 136.822 88.2537 137.153 87.6765C137.485 87.0994 137.65 86.2763 137.65 85.2075C137.65 84.4967 137.574 83.8914 137.422 83.3918C137.272 82.8921 137.056 82.5113 136.772 82.2494C136.492 81.9875 136.154 81.8566 135.758 81.8566C135.165 81.8566 134.702 82.1492 134.368 82.7344C134.034 83.3169 133.867 84.1413 133.867 85.2075C133.867 85.9183 133.941 86.5222 134.091 87.0192C134.241 87.5162 134.456 87.8943 134.736 88.1535C135.02 88.4127 135.36 88.5423 135.758 88.5423ZM140.554 89.376C140.357 89.376 140.187 89.3052 140.045 89.1636C139.904 89.022 139.833 88.8523 139.833 88.6545C139.833 88.4568 139.904 88.2871 140.045 88.1455C140.187 88.0039 140.357 87.9331 140.554 87.9331C140.752 87.9331 140.922 88.0039 141.063 88.1455C141.205 88.2871 141.276 88.4568 141.276 88.6545C141.276 88.7855 141.242 88.9057 141.176 89.0153C141.111 89.1248 141.025 89.213 140.915 89.2798C140.808 89.344 140.688 89.376 140.554 89.376ZM145.348 89.4241C144.744 89.4241 144.23 89.2598 143.805 88.9311C143.38 88.5998 143.055 88.1201 142.831 87.4922C142.606 86.8615 142.494 86.1 142.494 85.2075C142.494 84.3203 142.606 83.5628 142.831 82.9348C143.058 82.3042 143.384 81.8232 143.809 81.4919C144.236 81.1578 144.75 80.9908 145.348 80.9908C145.947 80.9908 146.458 81.1578 146.883 81.4919C147.311 81.8232 147.637 82.3042 147.861 82.9348C148.088 83.5628 148.202 84.3203 148.202 85.2075C148.202 86.1 148.09 86.8615 147.865 87.4922C147.641 88.1201 147.316 88.5998 146.891 88.9311C146.466 89.2598 145.952 89.4241 145.348 89.4241ZM145.348 88.5423C145.947 88.5423 146.412 88.2537 146.743 87.6765C147.074 87.0994 147.24 86.2763 147.24 85.2075C147.24 84.4967 147.164 83.8914 147.011 83.3918C146.862 82.8921 146.645 82.5113 146.362 82.2494C146.082 81.9875 145.744 81.8566 145.348 81.8566C144.755 81.8566 144.291 82.1492 143.957 82.7344C143.623 83.3169 143.456 84.1413 143.456 85.2075C143.456 85.9183 143.531 86.5222 143.681 87.0192C143.83 87.5162 144.045 87.8943 144.326 88.1535C144.609 88.4127 144.95 88.5423 145.348 88.5423ZM149.597 87.2597H150.607C150.636 87.5376 150.731 87.7727 150.891 87.9651C151.054 88.1549 151.266 88.2991 151.525 88.398C151.784 88.4942 152.071 88.5423 152.386 88.5423C152.729 88.5423 153.036 88.4849 153.308 88.37C153.581 88.2551 153.797 88.084 153.958 87.8569C154.118 87.6271 154.198 87.3425 154.198 87.0032C154.198 86.7066 154.129 86.4313 153.99 86.1775C153.851 85.9209 153.628 85.7138 153.32 85.5562C153.013 85.3985 152.606 85.3197 152.098 85.3197H151.441V84.5181L153.493 82.049V81.9849H149.998V81.1031H154.856V81.8245L152.659 84.486V84.5501C153.012 84.5662 153.34 84.6383 153.645 84.7666C153.952 84.8948 154.22 85.0685 154.447 85.2876C154.677 85.5068 154.856 85.7619 154.984 86.0532C155.112 86.3445 155.176 86.6611 155.176 87.0032C155.176 87.4708 155.056 87.8876 154.815 88.2537C154.578 88.6171 154.248 88.9031 153.825 89.1115C153.406 89.3199 152.921 89.4241 152.37 89.4241C151.884 89.4241 151.437 89.3386 151.028 89.1676C150.619 88.9966 150.286 88.7494 150.03 88.4261C149.773 88.1027 149.629 87.7139 149.597 87.2597ZM160.997 87.7727V87.3398C160.997 87.0406 161.059 86.7667 161.182 86.5182C161.307 86.267 161.489 86.0666 161.727 85.9169C161.967 85.7646 162.258 85.6885 162.6 85.6885C162.948 85.6885 163.239 85.7646 163.474 85.9169C163.709 86.0666 163.887 86.267 164.007 86.5182C164.128 86.7667 164.188 87.0406 164.188 87.3398V87.7727C164.188 88.072 164.126 88.3472 164.003 88.5984C163.883 88.8469 163.704 89.0473 163.466 89.1997C163.231 89.3493 162.942 89.4241 162.6 89.4241C162.253 89.4241 161.96 89.3493 161.723 89.1997C161.485 89.0473 161.304 88.8469 161.182 88.5984C161.059 88.3472 160.997 88.072 160.997 87.7727ZM161.815 87.3398V87.7727C161.815 88.0212 161.874 88.2444 161.991 88.4421C162.109 88.6372 162.312 88.7347 162.6 88.7347C162.881 88.7347 163.079 88.6372 163.194 88.4421C163.311 88.2444 163.37 88.0212 163.37 87.7727V87.3398C163.37 87.0913 163.314 86.8696 163.202 86.6745C163.089 86.4767 162.889 86.3779 162.6 86.3779C162.32 86.3779 162.118 86.4767 161.995 86.6745C161.875 86.8696 161.815 87.0913 161.815 87.3398ZM156.909 83.0751V82.6422C156.909 82.3429 156.97 82.069 157.093 81.8205C157.219 81.5694 157.4 81.3689 157.638 81.2193C157.879 81.067 158.17 80.9908 158.512 80.9908C158.859 80.9908 159.151 81.067 159.386 81.2193C159.621 81.3689 159.799 81.5694 159.919 81.8205C160.039 82.069 160.099 82.3429 160.099 82.6422V83.0751C160.099 83.3744 160.038 83.6496 159.915 83.9008C159.795 84.1493 159.616 84.3497 159.378 84.502C159.143 84.6517 158.854 84.7265 158.512 84.7265C158.165 84.7265 157.872 84.6517 157.634 84.502C157.396 84.3497 157.216 84.1493 157.093 83.9008C156.97 83.6496 156.909 83.3744 156.909 83.0751ZM157.726 82.6422V83.0751C157.726 83.3236 157.785 83.5467 157.903 83.7445C158.02 83.9395 158.223 84.0371 158.512 84.0371C158.793 84.0371 158.99 83.9395 159.105 83.7445C159.223 83.5467 159.282 83.3236 159.282 83.0751V82.6422C159.282 82.3937 159.226 82.1719 159.113 81.9769C159.001 81.7791 158.801 81.6803 158.512 81.6803C158.231 81.6803 158.03 81.7791 157.907 81.9769C157.787 82.1719 157.726 82.3937 157.726 82.6422ZM157.213 89.3119L162.857 81.1031H163.771L158.127 89.3119H157.213Z" fill="white"/>
<path fill-rule="evenodd" clip-rule="evenodd" d="M183.296 80.7103C183.484 80.8901 183.49 81.1878 183.31 81.3752L180.15 84.6673C180.061 84.7597 179.938 84.8119 179.81 84.8119C179.682 84.8119 179.56 84.7597 179.471 84.6673L177.553 82.6692L175.28 85.037L176.899 86.5917L171.684 88.104L172.982 82.8309L174.601 84.3856L177.214 81.6644C177.302 81.572 177.425 81.5198 177.553 81.5198C177.681 81.5198 177.803 81.572 177.892 81.6644L179.81 83.6625L182.631 80.7238C182.811 80.5365 183.109 80.5304 183.296 80.7103Z" fill="white"/>
<defs>
<clipPath id="clip0_390_10185">
<path d="M40 71.5743C40 69.4964 41.6845 67.8119 43.7624 67.8119H51.2871C53.365 67.8119 55.0495 69.4964 55.0495 71.5743V97.9109C55.0495 99.9888 53.365 101.673 51.2871 101.673H43.7624C41.6845 101.673 40 99.9888 40 97.9109V71.5743Z" fill="white"/>
</clipPath>
<clipPath id="clip1_390_10185">
<path d="M55.0493 71.3119C55.0493 69.3789 56.6163 67.8119 58.5493 67.8119C60.4823 67.8119 62.0493 69.3789 62.0493 71.3119V98.3119C62.0493 100.245 60.4823 101.812 58.5493 101.812C56.6163 101.812 55.0493 100.245 55.0493 98.3119V71.3119Z" fill="white"/>
</clipPath>
<clipPath id="clip2_390_10185">
<path d="M62.0493 71.5743C62.0493 69.4964 63.7338 67.8119 65.8117 67.8119H73.3364C75.4143 67.8119 77.0988 69.4964 77.0988 71.5743V97.9109C77.0988 99.9888 75.4143 101.673 73.3364 101.673H65.8117C63.7338 101.673 62.0493 99.9888 62.0493 97.9109V71.5743Z" fill="white"/>
</clipPath>
<clipPath id="clip3_390_10185">
<path d="M77.0991 71.5743C77.0991 69.4964 78.7836 67.8119 80.8615 67.8119H88.3862C90.4642 67.8119 92.1486 69.4964 92.1486 71.5743V97.9109C92.1486 99.9888 90.4642 101.673 88.3863 101.673H80.8615C78.7836 101.673 77.0991 99.9888 77.0991 97.9109V71.5743Z" fill="white"/>
</clipPath>
<clipPath id="clip4_390_10185">
<path d="M92.1484 71.5743C92.1484 69.4964 93.8329 67.8119 95.9108 67.8119H103.436C105.513 67.8119 107.198 69.4964 107.198 71.5743V97.9109C107.198 99.9888 105.513 101.673 103.436 101.673H95.9108C93.8329 101.673 92.1484 99.9888 92.1484 97.9109V71.5743Z" fill="white"/>
</clipPath>
</defs>
</svg>
