<svg xmlns:xlink="http://www.w3.org/1999/xlink" xmlns="http://www.w3.org/2000/svg" width="195" height="117" viewBox="0 0 195 117" fill="none">
<path d="M73.3417 46.4948C73.1871 46.5362 72.9396 46.4369 72.5992 46.1968C72.2717 45.9533 72.0734 45.7027 72.0044 45.4451C71.9354 45.1875 71.8339 43.2891 71.7 39.7498C71.5755 36.1942 71.4127 34.0155 71.2116 33.2135C71.153 32.9946 71.139 32.8396 71.1699 32.7485C71.2101 32.6411 71.3204 32.5632 71.5007 32.5149C71.6939 32.4631 71.992 32.5972 72.3952 32.9171C72.8113 33.2335 73.0815 33.6235 73.2057 34.0872C73.3265 34.538 73.4288 36.7743 73.5126 40.7964C73.5156 41.1683 73.5279 41.7033 73.5493 42.4016C73.5673 43.0869 73.5778 43.6155 73.5809 43.9874C73.5839 44.3593 73.5891 44.7651 73.5965 45.2049C73.5811 46.0234 73.4962 46.4534 73.3417 46.4948ZM87.5744 32.494C87.9607 32.3905 88.3745 32.5695 88.8157 33.0311C89.2662 33.4763 89.583 34.0402 89.7659 34.7228C89.9453 35.3925 90.0576 36.301 90.1028 37.4484C90.1609 38.5924 90.1111 39.6686 89.9534 40.6771C89.7957 41.6856 89.5237 42.2416 89.1373 42.3452C88.8668 42.4176 88.685 42.28 88.5918 41.9323C88.4952 41.5717 88.4812 40.6437 88.5499 39.1483C88.6279 37.6366 88.5583 36.475 88.3408 35.6636C88.12 34.8394 87.8808 34.4618 87.6232 34.5308C87.3012 34.6171 87.0036 35.0005 86.7305 35.681C86.4702 36.3581 86.2088 37.1598 85.9462 38.086C85.6836 39.0121 85.5416 39.5126 85.5203 39.5874C85.4954 39.6492 85.4646 39.7403 85.4278 39.8606C85.4039 39.9774 85.3689 40.1042 85.3226 40.2408C85.2893 40.3739 85.2022 40.77 85.0613 41.4289C84.9332 42.0844 84.8046 42.6089 84.6754 43.0024C84.5427 43.383 84.3926 43.5958 84.2252 43.6407C84.0707 43.6821 83.8692 43.6256 83.6208 43.4713C83.3724 43.317 83.224 43.1497 83.1757 42.9694C83.1274 42.7891 83.1432 42.3846 83.2232 41.7558C83.4443 39.902 83.3616 38.254 82.9751 36.8115C82.9026 36.5411 82.7843 36.3312 82.6201 36.182C82.4524 36.0198 82.2977 35.9577 82.156 35.9957C82.0144 36.0337 81.8835 36.1377 81.7635 36.3079C81.64 36.4653 81.5055 36.736 81.3599 37.1201C81.2109 37.4913 81.0842 37.8427 80.9798 38.1744C80.8755 38.506 80.7176 39.0245 80.5063 39.7299C80.3044 40.419 80.1466 40.9375 80.0328 41.2855C79.9284 41.6171 79.8056 42.0089 79.6645 42.4609C79.5198 42.8999 79.4043 43.2415 79.3178 43.4855C79.2443 43.7261 79.1565 43.9911 79.0547 44.2807C78.8346 44.8504 78.6409 45.1577 78.4735 45.2025C78.3189 45.244 78.0749 45.1575 77.7414 44.9432C77.4044 44.716 77.217 44.5315 77.179 44.3899C77.1376 44.2353 77.1133 44.0417 77.1062 43.8089C77.099 43.5762 77.0936 43.3499 77.0899 43.13C77.0991 42.9067 77.1082 42.5799 77.1171 42.1496C77.1354 41.7029 77.1494 41.1884 77.159 40.6061C77.1781 40.0075 77.0985 39.2213 76.9205 38.2475C76.7518 37.2574 76.6281 36.5383 76.5494 36.09C76.4673 35.6289 76.5163 35.3742 76.6967 35.3259C76.98 35.25 77.2966 35.3239 77.6464 35.5476C78.0091 35.7679 78.2302 36.0262 78.3095 36.3224C78.6132 37.4557 78.6886 39.4371 78.5357 42.2664C79.2534 39.1753 79.7317 37.3286 79.9706 36.7262C80.2096 36.1239 80.4228 35.6319 80.6105 35.2503C80.9644 34.5619 81.3989 34.1487 81.914 34.0107C82.2231 33.9279 82.6627 34.1 83.2326 34.527C83.812 34.9377 84.1741 35.4135 84.3191 35.9545C84.464 36.4954 84.5662 37.1858 84.6256 38.0257C85.3551 34.6692 86.338 32.8253 87.5744 32.494ZM96.7525 29.9726C97.3063 29.8242 97.8777 30.0507 98.4668 30.6521C99.0687 31.25 99.4715 31.9289 99.6751 32.6888C99.8752 33.4357 99.8582 34.2478 99.6239 35.125C99.3861 35.9893 99.0247 36.804 98.5395 37.569C98.0542 38.334 97.4723 39.0213 96.7937 39.6311C96.1245 40.2245 95.4614 40.6092 94.8046 40.7852C94.547 40.8542 94.2937 40.8876 94.0446 40.8853C94.0518 41.1181 94.0669 41.535 94.0899 42.1362C94.113 42.7374 94.1295 43.2368 94.1394 43.6345C94.1493 44.0321 94.1533 44.459 94.1512 44.915C94.1541 45.8529 94.0653 46.346 93.885 46.3943C93.7047 46.4427 93.48 46.351 93.2109 46.1195C92.9324 45.9042 92.7638 45.6871 92.7051 45.4682C92.6465 45.2492 92.6006 44.2538 92.5676 42.482C92.4615 37.1408 92.1756 33.6009 91.7097 31.8622C91.6062 31.4758 91.6961 31.2447 91.9794 31.1687C92.2113 31.1066 92.5347 31.2063 92.9499 31.4678C93.3745 31.7129 93.642 32.0415 93.7524 32.4537C93.8076 32.6597 93.8422 32.892 93.8563 33.1505C94.6022 31.3494 95.5676 30.2901 96.7525 29.9726ZM94.2077 39.3301C94.8903 39.1472 95.5623 38.7187 96.2236 38.0446C96.8979 37.367 97.4101 36.574 97.7603 35.6658C98.1199 34.7412 98.198 33.899 97.9943 33.1391C97.7079 32.0702 97.3136 31.603 96.8113 31.7376C96.309 31.8721 95.742 32.4865 95.1103 33.5806C94.4915 34.6712 94.1156 35.9729 93.9826 37.4855L94.0145 39.3819L94.2077 39.3301ZM101.467 31.2976L101.021 29.8643C100.858 29.2589 100.919 28.9183 101.202 28.8424C101.447 28.7768 101.722 28.8757 102.027 29.139C102.342 29.386 102.558 29.7284 102.675 30.1663C102.789 30.5913 102.862 30.9168 102.895 31.1426C103.56 29.1423 104.395 28.0076 105.4 27.7385C106.031 27.5694 106.388 27.6394 106.471 27.9485C106.512 28.103 106.479 28.2637 106.372 28.4304C106.265 28.5972 106.079 28.8057 105.815 29.0559C105.212 29.535 104.755 30.1475 104.444 30.8934C104.142 31.6229 103.947 32.4138 103.858 33.2659C103.769 34.118 103.705 34.8322 103.666 35.4086C103.64 35.9815 103.621 36.4281 103.611 36.7485C103.6 37.0689 103.575 37.3862 103.535 37.7006C103.466 38.271 103.297 38.5924 103.027 38.6649C102.808 38.7236 102.595 38.6495 102.388 38.4428C102.19 38.2197 102.06 37.9923 101.998 37.7605C101.932 37.5158 101.914 37.0099 101.943 36.2429C102.036 34.4786 101.877 32.8302 101.467 31.2976ZM112.786 29.2586C112.669 28.8207 112.487 28.4275 112.242 28.0791C111.993 27.7178 111.71 27.4833 111.391 27.3754C110.568 27.8582 109.986 28.7526 109.646 30.0585C109.315 31.3481 109.283 32.4887 109.548 33.4804C109.814 34.4721 110.224 35.0247 110.779 35.1382C111.658 34.7095 112.275 33.8679 112.629 32.6135C112.992 31.3428 113.045 30.2245 112.786 29.2586ZM107.752 30.7938C107.933 29.6685 108.298 28.6872 108.847 27.85C109.405 26.9965 110.064 26.4679 110.824 26.2643C111.597 26.0572 112.329 26.2131 113.02 26.7319C113.708 27.2378 114.177 27.9608 114.429 28.901C114.678 29.8283 114.708 30.8417 114.519 31.9413C114.327 33.028 113.918 34.0003 113.292 34.8583C112.676 35.6998 111.923 36.2397 111.035 36.4778C110.378 36.6538 109.749 36.4978 109.149 36.0098C108.549 35.5218 108.125 34.8142 107.876 33.8869C107.625 32.9467 107.583 31.9157 107.752 30.7938ZM121.49 23.4063C121.709 23.3476 121.944 23.3744 122.195 23.4866C122.443 23.5859 122.592 23.7322 122.644 23.9254C122.737 24.2731 122.59 25.6033 122.202 27.9158C121.827 30.2249 121.536 31.7936 121.33 32.6218C121.133 33.4337 120.887 33.8793 120.591 33.9586C120.423 34.0035 120.185 33.9364 119.874 33.7572C119.564 33.5781 119.313 33.3624 119.121 33.1101C118.556 32.3919 117.832 31.1848 116.95 29.4887C116.067 27.7926 115.514 26.526 115.29 25.6889C115.186 25.3025 115.25 25.0782 115.482 25.0161C115.766 24.9402 116.088 24.9849 116.45 25.1502C116.808 25.3027 117.094 25.5437 117.306 25.8733C117.4 26.069 117.59 26.5703 117.875 27.3773C118.6 29.3639 119.329 30.8459 120.06 31.8233C120.208 30.9831 120.369 29.808 120.544 28.2979C120.716 26.7749 120.869 25.595 121.004 24.7583C121.148 23.9053 121.31 23.4546 121.49 23.4063ZM131.543 24.1498C131.726 24.8324 131.502 25.4927 130.873 26.1308C130.252 26.7525 129.472 27.1893 128.532 27.4412C127.605 27.6897 126.734 27.8127 125.919 27.8102C125.89 28.4252 125.936 28.9581 126.057 29.4089C126.174 29.8468 126.401 30.1518 126.737 30.324C127.086 30.4928 127.576 30.4927 128.207 30.3236C128.851 30.151 129.478 29.8656 130.089 29.4672C130.71 29.0524 131.052 28.8365 131.117 28.8192C131.452 28.7295 131.654 28.8134 131.723 29.071C131.816 29.4187 131.525 29.9039 130.85 30.5265C130.171 31.1363 129.458 31.5412 128.711 31.7414C127.707 32.0106 126.809 31.9335 126.02 31.5101C125.226 31.0739 124.707 30.3986 124.462 29.4842C124.217 28.5698 124.206 27.5512 124.43 26.4284C124.65 25.2927 125.055 24.28 125.645 23.3904C126.235 22.5007 126.91 21.9541 127.67 21.7505C128.43 21.5469 129.215 21.7229 130.027 22.2784C130.851 22.8306 131.356 23.4544 131.543 24.1498ZM128.175 23.2508C127.699 23.3784 127.27 23.7624 126.89 24.4028C126.506 25.0302 126.232 25.7593 126.068 26.59C126.614 26.5679 127.216 26.4688 127.872 26.2928C128.529 26.1168 129.075 25.8602 129.509 25.523C129.94 25.173 130.108 24.8241 130.015 24.4763C129.922 24.1286 129.666 23.8176 129.248 23.5432C128.842 23.2654 128.484 23.1679 128.175 23.2508ZM138.491 13.0533C138.698 12.9981 139 13.124 139.4 13.431C139.809 13.7216 140.059 14.0344 140.149 14.3692C140.238 14.7041 140.333 15.7003 140.432 17.3578C140.527 19.0024 140.587 20.7188 140.61 22.507C140.691 26.5161 140.583 28.5604 140.287 28.6397C140.106 28.6881 139.877 28.6321 139.6 28.4718C139.332 28.2952 139.175 28.1232 139.13 27.9557C139.085 27.7883 139.041 27.4414 138.996 26.9149C138.079 28.541 137.151 29.48 136.21 29.732C135.644 29.8838 135.06 29.7643 134.458 29.3733C133.869 28.9789 133.501 28.5049 133.352 27.9511C133.138 27.1526 133.097 26.149 133.229 24.9404C133.37 23.7155 133.725 22.5436 134.295 21.4246C134.865 20.3057 135.607 19.6237 136.521 19.3787C137.436 19.1337 138.22 19.5102 138.874 20.5083C138.799 17.602 138.582 15.3481 138.222 13.7467C138.118 13.3604 138.208 13.1292 138.491 13.0533ZM138.908 23.1081C138.722 22.4126 138.442 21.8594 138.07 21.4484C137.71 21.034 137.363 20.8717 137.028 20.9614C136.475 21.1098 135.999 21.6029 135.603 22.4408C135.206 23.2787 134.953 24.1886 134.843 25.1704C134.743 26.1359 134.779 26.9406 134.952 27.5846C135.014 27.8164 135.148 27.9807 135.353 28.0775C135.558 28.1743 135.777 28.1916 136.009 28.1295C136.511 27.9949 137.091 27.4532 137.747 26.5042C138.417 25.5517 138.814 24.5344 138.938 23.452L138.934 23.2047L138.908 23.1081ZM76.5334 54.5429C76.4748 54.324 76.4608 54.169 76.4916 54.0779C76.519 53.9739 76.6228 53.8978 76.8031 53.8495C76.9963 53.7977 77.2941 53.9043 77.6963 54.1692C78.0951 54.4212 78.3567 54.7791 78.4809 55.2427C78.6017 55.6935 78.6707 57.0071 78.6879 59.1834C78.718 61.3564 78.8314 62.8099 79.0281 63.544C79.2213 64.2652 79.5136 64.815 79.9048 65.1932C80.2961 65.5715 80.7042 65.7038 81.1292 65.5899C81.5542 65.476 81.9587 65.1053 82.3427 64.4779C82.7268 63.8505 83.0325 63.0853 83.2598 62.1823C83.4966 61.263 83.6113 60.197 83.6039 58.9843C83.6058 57.7552 83.4515 56.5612 83.1409 55.4021C82.996 54.8611 82.8189 54.3288 82.6095 53.8052C82.4131 53.2781 82.2976 52.9501 82.2631 52.8213C82.1906 52.5509 82.2703 52.3846 82.5021 52.3225C82.7983 52.2431 83.2 52.377 83.7072 52.7243C84.2109 53.0586 84.5559 53.5735 84.7422 54.269C85.2737 56.2524 85.4826 58.191 85.3689 60.085C85.2552 61.9789 84.8487 63.5787 84.1494 64.8841C83.4467 66.1767 82.5415 66.9714 81.4339 67.2682C80.6226 67.4856 79.809 67.2826 78.9932 66.6592C78.1902 66.0323 77.6524 65.2101 77.3798 64.1927C77.1072 63.1752 76.9497 61.5058 76.9074 59.1843C76.8617 56.8499 76.737 55.3028 76.5334 54.5429ZM91.8598 54.1218C92.2977 54.0045 92.7754 54.1388 93.2929 54.5246C93.8069 54.8976 94.1123 55.2644 94.2089 55.625C94.2676 55.844 94.1939 55.9811 93.9878 56.0363C93.8461 56.0742 93.5979 56.0234 93.243 55.8839C92.8846 55.7314 92.5509 55.6966 92.2418 55.7794C91.9327 55.8622 91.4916 56.1737 90.9186 56.7137C90.3584 57.2504 90.1317 57.7183 90.2387 58.1175C90.3181 58.4138 91.0468 58.7637 92.425 59.1675C92.9516 59.33 93.4557 59.5884 93.9371 59.9425C94.4279 60.2803 94.7423 60.7068 94.8804 61.222C95.015 61.7243 94.7936 62.315 94.2164 62.9942C93.6487 63.6571 92.8947 64.1145 91.9545 64.3664C91.0272 64.6148 90.1426 64.6103 89.3006 64.3528C88.4714 64.0918 88.0034 63.7617 87.8964 63.3625C87.8515 63.1951 87.8557 63.0559 87.9088 62.9451C87.9713 62.8179 88.067 62.737 88.1958 62.7025C88.3246 62.668 88.5273 62.7034 88.804 62.8087C89.6341 63.1246 90.4226 63.1825 91.1696 62.9824C91.9294 62.7788 92.4543 62.5484 92.7443 62.2912C93.0309 62.0212 93.1362 61.7445 93.0603 61.4612C92.9809 61.165 92.7113 60.9059 92.2516 60.684C91.7884 60.4492 91.2969 60.2635 90.7771 60.1267C90.2702 59.9864 89.7799 59.7796 89.3064 59.5062C88.8328 59.2327 88.5442 58.9029 88.4407 58.5165C88.2578 57.8339 88.6025 56.9823 89.4748 55.9618C90.3564 54.925 91.1514 54.3116 91.8598 54.1218ZM103.128 54.5398C103.31 55.2223 103.087 55.8827 102.457 56.5207C101.837 57.1424 101.057 57.5792 100.117 57.8311C99.1895 58.0796 98.3183 58.2026 97.5033 58.2001C97.4748 58.8151 97.521 59.348 97.6417 59.7988C97.7591 60.2367 97.9858 60.5417 98.3218 60.714C98.6707 60.8827 99.1607 60.8826 99.7917 60.7135C100.436 60.5409 101.063 60.2555 101.674 59.8571C102.295 59.4424 102.637 59.2264 102.702 59.2091C103.036 59.1194 103.238 59.2033 103.307 59.4609C103.401 59.8086 103.11 60.2938 102.434 60.9165C101.756 61.5262 101.043 61.9312 100.296 62.1313C99.2913 62.4005 98.3941 62.3234 97.6043 61.9001C96.8111 61.4638 96.2919 60.7885 96.0469 59.8741C95.8019 58.9597 95.7912 57.9411 96.0149 56.8183C96.2351 55.6826 96.6402 54.6699 97.23 53.7803C97.8198 52.8906 98.4947 52.344 99.2546 52.1404C100.014 51.9368 100.8 52.1128 101.612 52.6684C102.436 53.2205 102.941 53.8443 103.128 54.5398ZM99.7601 53.6407C99.2836 53.7684 98.855 54.1524 98.4744 54.7927C98.0904 55.4201 97.8164 56.1492 97.6525 56.9799C98.1988 56.9578 98.8003 56.8587 99.4571 56.6828C100.114 56.5068 100.659 56.2502 101.094 55.913C101.524 55.5629 101.693 55.214 101.6 54.8662C101.507 54.5185 101.251 54.2075 100.832 53.9331C100.427 53.6553 100.069 53.5579 99.7601 53.6407ZM105.048 53.1142L104.602 51.6808C104.44 51.0755 104.5 50.7349 104.783 50.6589C105.028 50.5934 105.303 50.6922 105.608 50.9556C105.923 51.2025 106.139 51.545 106.256 51.9829C106.37 52.4079 106.444 52.7333 106.476 52.9591C107.141 50.9589 107.976 49.8242 108.981 49.555C109.612 49.3859 109.969 49.4559 110.052 49.765C110.093 49.9195 110.06 50.0802 109.953 50.2469C109.846 50.4137 109.66 50.6222 109.396 50.8724C108.793 51.3516 108.336 51.964 108.025 52.7099C107.723 53.4395 107.528 54.2303 107.439 55.0824C107.35 55.9345 107.286 56.6488 107.247 57.2251C107.221 57.798 107.203 58.2446 107.192 58.565C107.181 58.8854 107.156 59.2028 107.116 59.5172C107.048 60.0876 106.878 60.409 106.608 60.4814C106.389 60.5401 106.176 60.4661 105.969 60.2593C105.771 60.0363 105.641 59.8088 105.579 59.577C105.513 59.3323 105.495 58.8264 105.524 58.0594C105.617 56.2952 105.459 54.6468 105.048 53.1142ZM121.653 56.3258C121.499 56.3672 121.251 56.2678 120.911 56.0278C120.583 55.7842 120.385 55.5337 120.316 55.2761C120.247 55.0185 120.146 53.1201 120.012 49.5808C119.887 46.0252 119.724 43.8465 119.523 43.0445C119.465 42.8256 119.451 42.6706 119.482 42.5795C119.522 42.4721 119.632 42.3942 119.812 42.3459C120.006 42.2941 120.304 42.4282 120.707 42.7481C121.123 43.0645 121.393 43.4545 121.517 43.9182C121.638 44.3689 121.741 46.6053 121.824 50.6274C121.827 50.9992 121.84 51.5343 121.861 52.2325C121.879 52.9179 121.89 53.4465 121.893 53.8184C121.896 54.1903 121.901 54.5961 121.908 55.0359C121.893 55.8544 121.808 56.2844 121.653 56.3258ZM126.947 51.3874C127.621 48.9568 128.208 47.1293 128.708 45.9048C129.218 44.664 129.717 43.978 130.206 43.8469C130.709 43.7123 131.25 43.8503 131.829 44.261C132.421 44.6683 132.797 45.1682 132.955 45.7606C133.204 46.6879 133.295 47.8782 133.229 49.3315C133.119 52.0113 132.755 53.434 132.136 53.5997C131.853 53.6756 131.66 53.5204 131.556 53.134C131.484 52.8635 131.472 52.2799 131.522 51.3832C131.581 50.4702 131.619 49.5833 131.637 48.7227C131.664 47.8458 131.625 47.2077 131.518 46.8084C131.407 46.3963 131.262 46.1109 131.081 45.9522C130.913 45.7901 130.765 45.7263 130.636 45.7608C130.521 45.7918 130.409 45.8633 130.3 45.975C130.192 46.0868 130.079 46.2553 129.96 46.4805C129.853 46.7022 129.754 46.9222 129.66 47.1405C129.563 47.3458 129.449 47.6389 129.316 48.0195C129.196 48.3967 129.097 48.7202 129.017 48.99C128.934 49.2469 128.814 49.624 128.658 50.1215C128.501 50.619 128.381 50.9962 128.298 51.2531C128.215 51.51 128.108 51.8563 127.976 52.2919C127.844 52.7275 127.735 53.0673 127.649 53.3113C127.575 53.5519 127.488 53.8169 127.386 54.1065C127.191 54.6693 126.998 54.9766 126.805 55.0284C126.624 55.0767 126.374 54.9919 126.053 54.7742C125.729 54.5435 125.538 54.3187 125.479 54.0998C125.462 54.0354 125.46 53.8494 125.474 53.5419C125.519 52.7294 125.543 51.7361 125.546 50.562C125.545 49.375 125.37 48.0762 125.019 46.6655C124.806 45.7149 124.815 45.2086 125.047 45.1465C125.33 45.0706 125.653 45.1428 126.016 45.3631C126.379 45.5834 126.608 45.8738 126.705 46.2344C126.798 46.5822 126.872 47.2941 126.925 48.3702C126.988 49.43 126.996 50.4357 126.947 51.3874ZM137.901 49.9844C137.967 50.2291 138.141 50.3135 138.425 50.2376C138.914 50.1065 139.47 49.8125 140.093 49.3557C140.726 48.8826 141.08 48.6356 141.158 48.6149C141.39 48.5528 141.538 48.6441 141.604 48.8888C141.704 49.2623 141.433 49.7973 140.792 50.4937C140.163 51.1867 139.533 51.6178 138.902 51.7869C138.284 51.9525 137.724 51.9231 137.222 51.6987C136.716 51.4614 136.415 51.1625 136.319 50.8018C136.222 50.4412 136.177 49.9633 136.183 49.3681C136.186 48.76 136.206 47.9608 136.245 46.9705C136.292 45.9638 136.319 45.1354 136.324 44.4852C135.757 44.7891 135.37 44.9686 135.164 45.0238C134.958 45.0791 134.724 45.0312 134.463 44.8804C134.211 44.7132 134.059 44.533 134.008 44.3398C133.925 44.0308 134.683 43.5102 136.281 42.7783C136.226 41.6472 136.089 40.6695 135.868 39.8453C135.764 39.4589 135.841 39.2312 136.099 39.1622C136.318 39.1035 136.626 39.1727 137.024 39.3698C137.419 39.554 137.662 39.8199 137.755 40.1677C137.849 40.5154 137.903 41.1565 137.919 42.0909C138.636 41.8298 139.213 41.6406 139.651 41.5233C140.424 41.3162 140.855 41.3801 140.945 41.715C140.996 41.9082 140.827 42.1261 140.437 42.3688C140.059 42.608 139.237 43.0423 137.97 43.6716C137.972 44.7615 137.943 46.0185 137.883 47.4426C137.819 48.8538 137.825 49.7011 137.901 49.9844ZM149.726 42.0538C149.909 42.7363 149.685 43.3967 149.056 44.0347C148.436 44.6564 147.655 45.0932 146.715 45.3451C145.788 45.5936 144.917 45.7166 144.102 45.7142C144.073 46.3291 144.119 46.862 144.24 47.3128C144.357 47.7507 144.584 48.0557 144.92 48.228C145.269 48.3967 145.759 48.3966 146.39 48.2275C147.034 48.0549 147.662 47.7695 148.273 47.3711C148.893 46.9564 149.236 46.7404 149.3 46.7231C149.635 46.6334 149.837 46.7173 149.906 46.9749C149.999 47.3226 149.708 47.8078 149.033 48.4305C148.354 49.0402 147.641 49.4452 146.894 49.6453C145.89 49.9145 144.993 49.8374 144.203 49.4141C143.409 48.9779 142.89 48.3025 142.645 47.3881C142.4 46.4737 142.39 45.4551 142.613 44.3323C142.834 43.1966 143.239 42.1839 143.828 41.2943C144.418 40.4046 145.093 39.858 145.853 39.6544C146.613 39.4508 147.398 39.6268 148.21 40.1824C149.034 40.7345 149.54 41.3583 149.726 42.0538ZM146.358 41.1547C145.882 41.2824 145.453 41.6664 145.073 42.3067C144.689 42.9341 144.415 43.6632 144.251 44.4939C144.797 44.4718 145.399 44.3728 146.055 44.1968C146.712 44.0208 147.258 43.7642 147.692 43.427C148.123 43.0769 148.292 42.728 148.198 42.3802C148.105 42.0325 147.849 41.7215 147.431 41.4471C147.025 41.1693 146.668 41.0719 146.358 41.1547ZM151.646 40.6282L151.2 39.1948C151.038 38.5895 151.098 38.2489 151.382 38.1729C151.627 38.1074 151.901 38.2062 152.207 38.4696C152.521 38.7165 152.737 39.059 152.855 39.4969C152.969 39.9219 153.042 40.2473 153.075 40.4731C153.74 38.4729 154.575 37.3382 155.579 37.069C156.21 36.8999 156.567 36.9699 156.65 37.279C156.691 37.4335 156.658 37.5942 156.551 37.7609C156.444 37.9277 156.258 38.1362 155.994 38.3864C155.391 38.8656 154.934 39.4781 154.623 40.2239C154.322 40.9535 154.126 41.7443 154.037 42.5964C153.948 43.4485 153.884 44.1628 153.845 44.7391C153.819 45.312 153.801 45.7586 153.79 46.079C153.779 46.3994 153.754 46.7168 153.714 47.0312C153.646 47.6016 153.477 47.923 153.206 47.9954C152.987 48.0541 152.774 47.9801 152.567 47.7733C152.369 47.5503 152.239 47.3228 152.177 47.091C152.111 46.8463 152.093 46.3404 152.122 45.5734C152.216 43.8092 152.057 42.1608 151.646 40.6282ZM160.22 46.1161C160.052 46.161 159.839 46.087 159.581 45.894C159.322 45.7011 159.172 45.5273 159.13 45.3728C159.089 45.2182 159.072 44.8983 159.08 44.4131C159.103 41.9223 159.098 40.15 159.064 39.0962C158.544 39.3734 158.182 39.5396 157.976 39.5948C157.77 39.65 157.539 39.6151 157.285 39.49C157.031 39.3649 156.874 39.1929 156.815 38.9739C156.757 38.755 156.995 38.4842 157.529 38.1614C158.228 37.781 158.712 37.527 158.982 37.3996C158.945 36.7469 158.914 36.2445 158.888 35.8924C158.721 34.0323 158.796 32.6386 159.114 31.7115C159.432 30.7844 160.041 30.2001 160.943 29.9585C161.587 29.786 162.184 29.9021 162.734 30.3068C163.281 30.6987 163.647 31.2423 163.833 31.9378C164.016 32.6204 163.927 33.01 163.567 33.1066C163.258 33.1894 162.913 32.909 162.534 32.2653C162.4 32.025 162.227 31.816 162.014 31.6385C161.801 31.461 161.585 31.4015 161.366 31.4602C161.147 31.5189 160.975 31.6754 160.85 31.9298C160.721 32.1713 160.636 32.4977 160.594 32.9092C160.5 34.0525 160.498 35.0745 160.588 35.9754L160.614 36.6929C161.074 36.5009 161.535 36.3427 161.999 36.2185C162.475 36.0908 162.83 36.0508 163.064 36.0987C163.311 36.143 163.455 36.2425 163.496 36.397C163.562 36.6417 163.399 36.8854 163.009 37.1281C162.618 37.3708 161.832 37.7608 160.651 38.2981C160.731 42.2523 160.698 44.6284 160.553 45.4265C160.473 45.8483 160.362 46.0782 160.22 46.1161ZM168.653 33.5451C169.233 33.3898 169.847 33.5428 170.495 34.0041C171.139 34.4525 171.526 34.915 171.653 35.3915C171.778 35.8552 171.744 36.3748 171.553 36.9505C171.76 37.1023 171.882 37.249 171.92 37.3907C172.016 37.7513 172.098 38.3919 172.166 39.3125C172.246 40.2297 172.303 40.8287 172.336 41.1095C172.383 41.3869 172.416 41.6127 172.435 41.7871C172.451 41.9485 172.46 42.1117 172.463 42.2766C172.498 42.6124 172.425 42.8044 172.245 42.8527C172.013 42.9149 171.766 42.767 171.505 42.4092C171.252 42.035 171.027 41.5294 170.829 40.8923C170.073 42.6548 169.205 43.6672 168.226 43.9294C167.634 44.0882 166.981 43.994 166.266 43.6471C165.562 43.2837 165.137 42.8316 164.992 42.2907C164.785 41.518 164.813 40.489 165.076 39.2038C165.335 37.9057 165.797 36.6916 166.46 35.5614C167.124 34.4311 167.855 33.7591 168.653 33.5451ZM170.453 36.707C170.132 35.5093 169.733 34.9743 169.257 35.1019C168.754 35.2365 168.265 35.7542 167.789 36.6548C167.309 37.5426 166.958 38.4994 166.736 39.5252C166.513 40.5509 166.473 41.3278 166.615 41.8559C166.673 42.0748 166.812 42.231 167.03 42.3243C167.245 42.4048 167.475 42.4123 167.719 42.3467C168.325 42.1845 168.899 41.5959 169.441 40.5809C169.98 39.5531 170.241 38.4135 170.223 37.1621C170.21 36.9586 170.288 36.8133 170.458 36.7264L170.453 36.707ZM178.248 41.2442C177.501 41.4443 176.721 41.3426 175.909 40.9391C175.094 40.5226 174.579 39.9152 174.365 39.1167C174.147 38.3053 174.168 37.2991 174.426 36.0981C174.684 34.8971 175.137 33.8092 175.787 32.8344C176.45 31.8562 177.187 31.2584 177.998 31.041C178.527 30.8995 179.054 31.0136 179.581 31.3831C180.108 31.7527 180.42 32.1177 180.516 32.4783C180.544 32.5814 180.536 32.6802 180.492 32.7747C180.445 32.8563 180.357 32.9144 180.228 32.9489C180.112 32.98 179.869 32.921 179.498 32.772C179.126 32.623 178.818 32.5813 178.574 32.6469C177.878 32.8332 177.231 33.6624 176.631 35.1343C176.032 36.6063 175.855 37.7995 176.1 38.7139C176.207 39.1132 176.414 39.3959 176.72 39.5622C177.04 39.725 177.477 39.7322 178.031 39.5838C178.597 39.432 179.095 39.2295 179.524 38.9765C179.963 38.7071 180.294 38.4736 180.517 38.2758C180.736 38.0651 180.917 37.9407 181.059 37.9028C181.303 37.8372 181.459 37.9268 181.524 38.1715C181.624 38.545 181.291 39.1036 180.524 39.8475C179.766 40.575 179.008 41.0406 178.248 41.2442ZM189.74 31.332C189.923 32.0146 189.7 32.6749 189.07 33.3129C188.45 33.9346 187.67 34.3714 186.729 34.6234C185.802 34.8718 184.931 34.9948 184.116 34.9924C184.087 35.6074 184.134 36.1402 184.254 36.591C184.372 37.0289 184.598 37.3339 184.934 37.5062C185.283 37.675 185.773 37.6748 186.404 37.5057C187.048 37.3332 187.676 37.0477 188.287 36.6493C188.907 36.2346 189.25 36.0186 189.314 36.0013C189.649 35.9116 189.851 35.9955 189.92 36.2531C190.013 36.6009 189.722 37.086 189.047 37.7087C188.368 38.3184 187.655 38.7234 186.908 38.9235C185.904 39.1927 185.007 39.1156 184.217 38.6923C183.424 38.2561 182.905 37.5808 182.66 36.6663C182.414 35.7519 182.404 34.7333 182.628 33.6105C182.848 32.4748 183.253 31.4621 183.843 30.5725C184.432 29.6828 185.107 29.1362 185.867 28.9326C186.627 28.729 187.413 28.905 188.224 29.4606C189.048 30.0127 189.554 30.6365 189.74 31.332ZM186.373 30.4329C185.896 30.5606 185.468 30.9446 185.087 31.5849C184.703 32.2123 184.429 32.9414 184.265 33.7722C184.811 33.75 185.413 33.651 186.07 33.475C186.727 33.299 187.272 33.0424 187.706 32.7052C188.137 32.3551 188.306 32.0062 188.213 31.6585C188.119 31.3107 187.864 30.9997 187.445 30.7254C187.039 30.4476 186.682 30.3501 186.373 30.4329Z" fill="white"/>
<g clip-path="url(#clip0_390_10231)">
<path d="M12.5711 108.028C16.8579 104.689 20.8308 101.558 24.8565 98.4803C25.1703 98.2718 25.6951 98.3787 26.7435 98.2781C25.2827 100.16 24.2402 101.729 22.987 103.088C19.645 106.64 16.25 110.035 12.8027 113.483C12.3848 113.9 12.0196 114.371 11.4965 114.683C9.87517 115.778 8.51001 115.353 8.03028 113.411C7.81675 112.466 7.70809 111.522 7.70432 110.578C7.69006 107.012 7.78069 103.446 7.87132 99.8807C7.86881 99.2514 8.18093 98.6234 8.43916 97.628C11.2288 100.209 9.30212 103.61 10.8336 106.29C11.1984 105.715 11.5636 105.244 11.8239 104.773C22.0303 86.7747 36.5019 73.1456 54.2909 62.9384C56.1219 61.8444 58.1113 61.0133 60.0481 60.1296C61.0426 59.6616 62.2485 59.614 62.7258 60.9269C63.2552 62.1876 62.524 62.9188 61.3197 63.386C47.7581 68.5234 37.3602 77.9736 27.4897 88.16C22.3192 93.4358 17.7796 99.1337 13.9241 105.411C13.4553 106.196 13.0391 107.033 12.5711 108.028Z" fill="white"/>
</g>
<defs>
<clipPath id="clip0_390_10231">
<rect width="76.4625" height="14.3149" fill="white" transform="translate(0 106.067) rotate(-45)"/>
</clipPath>
</defs>
</svg>