<svg xmlns:xlink="http://www.w3.org/1999/xlink" xmlns="http://www.w3.org/2000/svg" width="120" viewBox="0 0 120 120" fill="none" class="g_svg" height="120" ><path d="M110.674 37.8945C107.903 31.2849 103.939 25.3504 98.8908 20.2556C93.8428 15.1609 87.9618 11.1607 81.4109 8.36535C74.6244 5.46898 67.4214 4 59.9996 4C52.5778 4 45.3748 5.46898 38.5883 8.36535C32.0382 11.1615 26.1572 15.1617 21.1083 20.2556C16.0595 25.3495 12.0953 31.284 9.32518 37.8945C6.45491 44.7418 5 52.0112 5 59.4996C5 66.988 6.45491 74.2573 9.32602 81.1055C12.0961 87.7151 16.0612 93.6496 21.1092 98.7444C26.1572 103.838 32.0382 107.839 38.5891 110.635C45.3756 113.531 52.5786 115 60.0004 115C67.4222 115 74.6252 113.531 81.4117 110.635C87.9618 107.838 93.8428 103.838 98.8917 98.7444C103.941 93.6505 107.905 87.716 110.675 81.1055C113.545 74.2573 115.001 66.9888 115.001 59.4996C115.001 52.0103 113.546 44.7418 110.675 37.8936L110.674 37.8945Z" fill="#F580DB" class="sticker_bg"></path><path d="M59.9989 17.0765C83.1807 17.0765 102.04 36.1079 102.04 59.4996C102.04 82.8912 83.1798 101.923 59.9989 101.923C36.818 101.923 17.958 82.8912 17.958 59.4996C17.958 36.1079 36.818 17.0765 59.9989 17.0765ZM59.9989 12.4912C34.2708 12.4912 13.4141 33.5376 13.4141 59.4996C13.4141 85.4615 34.2708 106.508 59.9989 106.508C85.727 106.508 106.584 85.4615 106.584 59.4996C106.584 33.5376 85.7278 12.4912 59.9989 12.4912Z" fill="#401011" class="sticker_fill"></path><path d="M87.0212 59.4996C87.0212 74.535 74.8989 86.7675 59.9998 86.7675C45.1007 86.7675 32.9776 74.535 32.9776 59.4996H28.4336C28.4336 77.0637 42.5939 91.3528 59.9998 91.3528C77.4057 91.3528 91.5652 77.0637 91.566 59.4996H87.0221H87.0212Z" fill="#401011" class="sticker_fill"></path><path d="M46.6633 58.1648C43.3462 57.5823 41.5547 54.9449 41.5547 50.4624H46.8854C46.8854 52.7406 47.2481 53.712 48.0997 53.712C48.7367 53.712 49.1734 53.1736 49.1734 52.3899C49.1734 51.1272 47.9297 50.1558 46.7971 49.2974L46.0566 48.7446C44.2945 47.4225 41.6372 45.45 41.6372 41.9236C41.6372 38.9058 43.6138 36.687 46.6347 36.1487L46.3603 32.742H49.892L49.6177 36.1708C52.7934 36.8059 54.563 39.4951 54.563 43.6643H49.2331C49.2331 41.55 48.8629 40.6015 48.034 40.6015C47.4492 40.6015 47.0714 41.0872 47.0714 41.8039C47.0714 43.0215 48.2486 43.8808 49.2626 44.5907L50.0031 45.1061C51.8838 46.4205 54.7044 48.3557 54.7044 52.2328C54.7044 55.4374 52.7943 57.6417 49.6623 58.1716L49.929 61.5859H46.3974L46.6641 58.1639L46.6633 58.1648Z" fill="#401011" class="sticker_fill"></path><path d="M70.4055 58.1648C67.0884 57.5823 65.2969 54.9449 65.2969 50.4624H70.6276C70.6276 52.7406 70.9903 53.712 71.8419 53.712C72.4789 53.712 72.9156 53.1736 72.9156 52.3899C72.9156 51.1272 71.6719 50.1558 70.5393 49.2974L69.7988 48.7446C68.0367 47.4225 65.3793 45.45 65.3793 41.9236C65.3793 38.9058 67.356 36.687 70.3769 36.1487L70.1025 32.742H73.6342L73.3599 36.1708C76.5356 36.8059 78.3052 39.4951 78.3052 43.6643H72.9753C72.9753 41.55 72.6051 40.6015 71.7762 40.6015C71.1914 40.6015 70.8136 41.0872 70.8136 41.8039C70.8136 43.0215 71.9908 43.8808 73.0048 44.5907L73.7453 45.1061C75.626 46.4205 78.4466 48.3557 78.4466 52.2328C78.4466 55.4374 76.5364 57.6417 73.4045 58.1716L73.6712 61.5859H70.1396L70.4063 58.1639L70.4055 58.1648Z" fill="#401011" class="sticker_fill"></path><path d="M58.9625 70.6316V66.0472C59.7325 66.0472 60.1204 65.5301 60.2516 65.3067C60.3829 65.0851 60.6488 64.4941 60.2828 63.8114L56.9648 57.6307L60.9602 55.4467L64.2781 61.6275C65.3022 63.5363 65.2576 65.789 64.1569 67.6529C63.0563 69.5184 61.1142 70.6316 58.9633 70.6316H58.9625Z" fill="#401011" class="sticker_fill"></path></svg>